/* XPM */
static char *result[] = {
/* columns rows colors chars-per-pixel */
"70 70 241 2 ",
"   c #890000",
".  c #990100",
"X  c #92180B",
"o  c #A50200",
"O  c #A61C0A",
"+  c #B71A00",
"@  c #9C2713",
"#  c #B1290C",
"$  c #A82817",
"%  c #B62A18",
"&  c #BD321D",
"*  c #B8381D",
"=  c #983427",
"-  c #A92E22",
";  c #AA3928",
":  c #BD3522",
">  c #B83B27",
",  c #C21010",
"<  c #C62505",
"1  c #C62C16",
"2  c #C3341E",
"3  c #CB341D",
"4  c #D63113",
"5  c #C43621",
"6  c #C53924",
"7  c #CB3A23",
"8  c #CB3A24",
"9  c #C93229",
"0  c #C53E2A",
"q  c #D53D25",
"w  c #DA3D26",
"e  c #D93D29",
"r  c #BB422A",
"t  c #AB4930",
"y  c #AB6034",
"u  c #DB4E16",
"i  c #C6412A",
"p  c #CB422D",
"a  c #D84027",
"s  c #D6452B",
"d  c #D4432C",
"f  c #DC432B",
"g  c #D7552E",
"h  c #CA4732",
"j  c #D44B33",
"k  c #DA4B32",
"l  c #D6553A",
"z  c #E0452B",
"x  c #E3552C",
"c  c #EA6B37",
"v  c #EB6A38",
"b  c #AE5C4A",
"n  c #AA654C",
"m  c #AF7056",
"M  c #926B63",
"N  c #AD7764",
"B  c #DA5D42",
"V  c #D8654A",
"C  c #D07050",
"Z  c #E86A45",
"A  c #EC7543",
"S  c #F17644",
"D  c #E36E52",
"F  c #E67859",
"G  c #C27760",
"H  c #EA7C63",
"J  c #388E00",
"K  c #359000",
"L  c #3C9300",
"P  c #419600",
"I  c #459B00",
"U  c #499E00",
"Y  c #479C0D",
"T  c #539D10",
"R  c #4DA300",
"E  c #4DA40D",
"W  c #4EA809",
"Q  c #53A600",
"!  c #54AA00",
"~  c #5AAD00",
"^  c #52A60C",
"/  c #55AB0D",
"(  c #59AE0D",
")  c #5DB200",
"_  c #5DB20D",
"`  c #4FA313",
"'  c #59AB17",
"]  c #5DB316",
"[  c #61B500",
"{  c #65BA00",
"}  c #61B50D",
"|  c #64B90D",
" . c #69BC0D",
".. c #61AF1E",
"X. c #61B515",
"o. c #64BA16",
"O. c #69BC16",
"+. c #65B81C",
"@. c #5DAD20",
"#. c #6AAF2E",
"$. c #77B638",
"%. c #6BC10E",
"&. c #71AD44",
"*. c #7CB845",
"=. c #8BB956",
"-. c #94806F",
";. c #9B8473",
":. c #A48773",
">. c #B28A74",
",. c #95BC62",
"<. c #A1A070",
"1. c #CF914D",
"2. c #EA9151",
"3. c #EEB056",
"4. c #ED8464",
"5. c #DEA666",
"6. c #8EC853",
"7. c #98C66E",
"8. c #A5CC76",
"9. c #FCC35A",
"0. c #FCD977",
"q. c #075EAA",
"w. c #195FA3",
"e. c #0762AC",
"r. c #1566AD",
"t. c #1D6DB1",
"y. c #0772B6",
"u. c #2868AC",
"i. c #2372B3",
"p. c #2C79B6",
"a. c #337CB7",
"s. c #485882",
"d. c #9A6F8A",
"f. c #3A85BB",
"g. c #3986BC",
"h. c #4689BD",
"j. c #7396B6",
"k. c #068DC5",
"l. c #2F9BCB",
"z. c #438EC1",
"x. c #4A97C6",
"c. c #529CC7",
"v. c #669DC4",
"b. c #56A1CA",
"n. c #5CA4CC",
"m. c #50ACD3",
"M. c #63AACE",
"N. c #69ABCE",
"B. c #76A3C1",
"V. c #67ADD0",
"C. c #6AB4D5",
"Z. c #74B4D3",
"A. c #79B7D5",
"S. c #7DBAD6",
"D. c #79C2DF",
"F. c #9E919A",
"G. c #B69B85",
"H. c #AD9297",
"J. c #BBA389",
"K. c #BAA895",
"L. c #B6B491",
"P. c #9D9DAA",
"I. c #AEAAA9",
"U. c #C3A588",
"Y. c #C5AD96",
"T. c #DAAA97",
"R. c #DCAA99",
"E. c #C7B49B",
"W. c #C9A9A6",
"Q. c #D4AEA6",
"!. c #C3B6A5",
"~. c #C9BAA8",
"^. c #D9B8A9",
"/. c #CABDB2",
"(. c #AAC887",
"). c #B5C689",
"_. c #B4D48F",
"`. c #B5CA94",
"'. c #BDD5A6",
"]. c #C5CA98",
"[. c #C3D49B",
"{. c #CBC6AF",
"}. c #D5C5AC",
"|. c #C6D9AA",
" X c #D4C5B3",
".X c #D9CBB6",
"XX c #DCCDBB",
"oX c #CADAB7",
"OX c #D9D5B9",
"+X c #E0C7BC",
"@X c #E3D3BD",
"#X c #CDE2B3",
"$X c #84BDD8",
"%X c #8CC2DA",
"&X c #94C6DC",
"*X c #99C7DC",
"=X c #9BC9DE",
"-X c #AEC9D4",
";X c #90CDE4",
":X c #9DCCE1",
">X c #A4CEE2",
",X c #A9CFE1",
"<X c #ABD1E4",
"1X c #A8D5E9",
"2X c #B2D6E6",
"3X c #B9DAE9",
"4X c #BBE1F0",
"5X c #D7D0C2",
"6X c #DBD6C6",
"7X c #DBD6CD",
"8X c #DCD8D2",
"9X c #DEDBD3",
"0X c #E5D6C3",
"qX c #E6D7C4",
"wX c #E6D8C6",
"eX c #E9D9C6",
"rX c #E5DACA",
"tX c #EADCCB",
"yX c #E4DED5",
"uX c #D5E5C6",
"iX c #DFE6D8",
"pX c #E9E0CC",
"aX c #ECE2D4",
"sX c #E4E1DB",
"dX c #EBE6D9",
"fX c #ECE5DA",
"gX c #F0E6D7",
"hX c #F2EBDD",
"jX c #C2DEEB",
"kX c #C6E1ED",
"lX c #CAE3ED",
"zX c #DAE7EC",
"xX c #CAE6F1",
"cX c #D4E9F1",
"vX c #DBECF3",
"bX c #DEF2F8",
"nX c #E7E8E5",
"mX c #F3EDE2",
"MX c #F1EFEB",
"NX c #F7F3EA",
"BX c #F9F9F4",
/* pixels */
"U U Q | Q  .R Q R I E E R Q !  .[ Q ~ } / Q _ [ ~ O.~ } R R ] ( ] R oX@XT.G.6X6.Q R } / P Q %.R _ _ O.U R R / R I / I ( ~ W %.R R R Q |  .{ ",
"/ R R O.~ | } U U R I +.R _ R %.~ ~ Q | ( Q }  .Q  .) } W R ] / ] I E.4 x .   H.'.(.o./ R R %.! ! O.o.U R ! ( R R / R _ ~ _ o.R / Q U | { { ",
"R / I _ ~ | X.R U / U _ ! _ I O.~ ~ ~ | ~ ~ }  .Q  .} } _ R _ R ( R `.f D t X     :.7XiX^ R o.R R O.} R I ( E R ] W R / R ] ( I _ R U  .{ { ",
"R _ R ~ $.8.$.Q P / / R _ Q P _ } ~ | } [  . .[ $.$.8.oX#XoX#X|.'.uX5Xu D = @ = = .   N /.oX(.' ! 6._.oXuXMXiXuXuX#X'._.(.8.7.6.=.#.=.6.8.8.",
"R R ! '.uX6X6XOXOXoX#X#X#X#XoXOX6X7X9XsXmXNXNXNXNXNXdXsXsXyXsXyXhXBX+Xu D - X $ $ ; ; o . b /.dXNXmXrXrXwXrXqXwXtXtXrXrXuXOXOX|.].].`.[.].|.",
"_ I ! oXrXOX@X0X@XOX}.}.OXOX@X@X@XeX@X0X0X@X@X@X@X@X@X@X0X0XqX@XXX@X^.x D - X - $ $ 2 0 0 + o . >. XtXtX0X0XeXqXqX@X0X0X@XqXeX@XwXeX0XXXE.`.",
"_ R R _ nXnXyXrX@XeX0X0XrX0X0X0X0X0X0X0X0X0X0XqX@XqXqXqXqXqXqX@X@XpXR.x D ; O $ $ % 5 2 : 0 h : o @ >.Y./.rXqX XqXqX0XrX0X0XeXeXqX@X@X}.<.).",
"_ R ! ) iXrXwXwXeXeXrXrXeX0XrX0XqXrX0XrXrX0XrXtXrXrXeXrXwXeXrXrXqXaX^.g D t O @ $ : & & : 9 2 2 0 & .   b Y.fX8XE.tX0XwX0X0X0X@X0XqXpXpXOX[.",
"/ R R ! #X|.}.}.}.OX@X@XqX0XwXrX0XpXaXpXaXpXtXaXaXaXaXpXaXaXgXaXaXmX}.x F ; O $ & & : > : & & 2 5 5 0 ;     N /.;.6XpXrXeXtXwXwX@X@X|.].].(.",
"/ R U Q } ~ $._.).).].^.K.G.^.}.<.M M ;.-.;.;.:.;.;.;.;.:.:.:.-.:.;.m v F ; O - 5 & & 6 > i r 5 & & 2 2 $ =     = :.~. X!.G.}.^.E.L.).8.*.I ",
"R R I Q _ } R Q ! #.`.}.~.E..X}.E.:.s.e.u.w.w.w.r.w.w.w.w.w.r.w.w.q.d.Z F > O : : 2 8 5 & : : i i > : & & $ @ = . N {..XK.>.}.L.8.$.X._ Q / ",
"( ! ! / _ | R ) _ } `.~.0X@X0X.X^.>.j.q.r.q.q.e.e.w.e.q.e.e.e.e.u.q.d.Z F > O : 5 5 2 5 5 2 2 & : 0 r 0 : $ $ @ . >.}..X}.@X.X(.*.R / _ Q Q ",
"R _ R W _ ) ! ) _ } 7.E.qX@X0X@X~.J.P.q.r.q.w.q.q.q.q.q.e.q.w.e.u.q.M Z F > # 5 5 2 2 5 2 6 5 6 2 2 & & : $ @ $ . G.XXrXeXqX@X8.#.I ^ / ! R ",
"R ( L W O.) ) ) _ [ =.).0X0X0XqX XJ.F.q.r.r.e.q.r.r.r.r.r.y.r.r.u.q.d.Z H > % 6 5 5 6 5 5 5 2 2 5 6 5 2 & % - $ @ U.0XeXqX@XOXL.' P E U / R ",
"/ R R L o._ [ [ _ | #.).qX@XeX@XOXU.F.e.u.t.t.t.t.t.t.t.t.t.t.t.u.e.d.A F ; % 0 6 3 6 6 6 6 2 6 6 6 5 2 3 * - O = E.tXqXwXeX[.8./ K / L W L ",
"/ R / L Q | ) {  . .T 8.@X@X.XqXOXJ.F.e.i.t.i.t.t.i.i.i.i.i.i.t.a.y.d.v F > 1 9 0 2 6 6 6 6 7 6 6 6 5 5 2 & ; $ = }.yX0X0XtX].,./ K E L W L ",
"R E U P J O.)  . . .U =.0X^.>..X6XU.P.y.i.i.i.i.i.i.i.i.i.i.i.i.a.y.d.S F > 1 0 6 2 6 7 5 8 5 5 6 5 6 6 2 0 > O t  XaX@XtX0X].*.R L R L E L ",
"R / R U P } } [  .[ Q =.eX^.G..XyXU.P.i.p.p.p.p.p.p.p.a.a.a.a.i.f.y.d.S F r 3 0 0 3 7 5 8 5 5 3 2 6 5 7 5 i > . n 6XpX0XtXeX).$.R ] R R R ! ",
"Q / Q Q Q ~ [ [ [ } Q #.eX0XK.0XrXU.K.g.p.p.g.p.a.g.g.a.g.a.a.g.h.y.d.S F r 2 0 8 7 5 7 7 3 h G 7 2 6 2 5 i r o N 6XeX@X0X@X6.T / _ R _ R _ ",
"! ( Q / Q } [ [ [ ~ Q $.eXeX.X0XaXE.H.g.g.f.f.g.a.g.g.g.g.g.g.g.z.k.d.A F r 1 p 8 7 7 7 5 3 r n 0 3 7 3 2 p 5 . :.wXpX@XeX@X*.I / / E / L _ ",
"~ } ( Q ~  .~ [ [ ~ _ #.@XeXeXeXgXE.J.h.g.g.g.g.g.f.f.f.g.z.z.g.h.k.d.S F r 1 p 8 7 6 6 7 7 3 2 7 7 7 6 2 h 5 . >.aXeXqXeX0X&.U R R / U U O.",
") [ ~ U Q _ [ { ~ ~  .T @XeX@XeXdX~.J.v.g.g.h.f.z.z.z.x.z.z.z.z.z.k.F.S 4.> 3 p 6 8 8 7 7 7 7 8 7 7 3 7 6 i * O U.yXqXqX0X0X#.I R R R P Q | ",
") ~ Q U Q ~  .{ ~ ) } Q OX@XeX@XhX{.>.B.g.h.h.x.x.z.x.x.x.x.x.x.z.l.F.Z 4.i 1 i 7 2 7 3 3 7 5 6 6 7 7 3 0 p 6 O Y.fX0XeX0X6X#.Y Q R T Q Q O.",
"[ ~ Q T Q ~ %.{ ~  .( Q |.@XtX@XfX}.U.N.l.x.x.c.x.x.x.x.c.x.x.x.c.l.H.S 4.p 3 i 6 q q d f f f e 3 7 7 2 i h 2 $ ~.mXqXeX0XyX#.P U U ( R R O.",
"[ R R / U R  .{ ) | R R _.eXtXeXfX XU.B.x.m.x.x.c.x.x.b.c.c.c.c.c.l.H.Z H 0 q 0 d f f f f f z f f q q 5 0 0 < b G.K.0XrX0XyX` R R R / L Q o.",
"[ U _ / L ! [ ) _ R R ! 8.0XtX0XfX5X>.$Xx.c.c.c.c.b.b.b.b.b.b.b.n.l.H.S 4.h w k f f f f f f f f f f e 5 p e + b 6XyX X0X0XyXR / L / E L ( _ ",
"~ U _ / L _ ~ ) ~ I E R 6.@XeXeXgX6XU.P.x.b.b.n.b.n.m.n.n.n.n.n.M.m.F.S H h w f f z z f f f f f f f z e 0 0 + n rXmXeXeX0XuX( R I W L R _ Q ",
"R R / ] U / ~ _ R R / R =.eXeXeXaX6XU.B.m.n.n.n.M.n.M.n.M.n.M.M.N.m.H.Z 4.j e f e z k f f f f f f z f e d 0 < m rXaX0XqXwX'.Q L ` W K R ( U ",
"R R U o.Q Q R o.U Q / R +.OXtX@XaXrXU.P.m.C.M.M.M.M.M.V.M.V.M.V.V.m.H.S 4.j w f a a f z f f f f f f z w d 0 + >.aXaXqX0XwX`._ R / L K / R R ",
"Q R Q X./ Q R o.R ! ( ( ( |.eX0XyXyXK.I.m.V.V.M.V.M.M.N.V.V.N.V.Z.V.H.S 4.k e f s k s k f f d q w w w q d s + >.dXaX0XeXrX7.o.R R I R W / R ",
"/ I Q _ _ U U X.R _ _ _ Q ).eX0XaXyXU.I.m.C.V.V.V.C.C.Z.Z.C.Z.Z.Z.C.I.Z 4.k w d p j l l l V B l l l j d a f + J.mXtXeXeXyX$._ / R I R L W R ",
"/ U I ( o.U U o.R %.~ ) R =.0XeXtXfXU.I.C.Z.Z.Z.Z.Z.Z.Z.Z.Z.Z.A.Z.C.H.A 4.f w z f f e w q d d d d d d d a f # Y.mXtXeXqX6X! / R R I W R W R ",
"^ I L Q O./ I | ~  .Q Q Q *.@XeXtXgXY.I.C.Z.Z.A.Z.Z.A.A.A.A.A.A.S.D.W.D 4.k k l z z x z z z z z f z f f w w * ~.MXwXeX0X(._ ~ I R L E R R R ",
"U U L R _ _ I |  .| Q R Q +.@XtXeXgXT.I.Z.$XA.A.S.S.S.S.$X$XA.$XA.D.I.S 4.2.3.0.3.u e k f e e e e e e w z w i }.mXwXwX0X$._ Q L / K L ( R R ",
"U U J U R | R [  .| U U Q U @XtXeXmXY.I.S.S.$XA.$X$X$X$X$X$X$X$X$XD.I.2.F A 3.0.}.2.e V B B B B l l j q z 7 r .XmXeXeXrX] _ Q J R R L R I R ",
"R U L R U ) ) [ | _ U Q Q U }.eXrXhX~.I.$X$X$X$X$X$X$X%X$X$X%X%X$X%XW.F 4.C 2.9.9.c e f f f e f e w d j k 4 b 0XhXeXeX0XQ _ ( L R / U I R I ",
"R I I U U Q [ ) } _ U Q Q U ).eXwXhX~.K.%X%X$X%X%X%X%X%X%X%X&X&X&X;XK.g 4.1.1.C l e f f f z k z f z k l f < m eXgX@XeXoX! _ ! I / / R R I U ",
"R U ^ R Q ~ ~ ) ) ( U U Q R 8.@XwXmX}.I.%X%X%X&X&X&X%X&X&X&X&X&X;X;XW.S H 2.3.1.9 z f k k e z f k w k j z < >.aXaXK.@X`./ ( R I _ R R / R R ",
"U U / R / _ Q Q ~ ( Q P Q U ,.eX0XhX}.K.:X&X&X&X&X&X;X&X&X&X&X&X*X&XW.4.4.3.1.y s z z z f z e z f w k d z < >.fXtXK.@X,.( / I R _ R / R I E ",
"R I / R Q } R Q ~ Q Q P P ^ =.eXrXmX XK.*X&X=X&X=X&X*X:X=X=X:X:X:X;XW.2.F 1.1.1.8 z k k k k l k k f 0 f z < G.mXwX^.pX*./ R K ( / R Q L R / ",
"R I R R ! _ R R Q Q ~ U I R $.tXrXfX XK.>X&X*X:X:X=X:X=X:X=X:X>X>X:XW.S F 5.9.1.% g l l l l j d d d d f z # Y.mXtXqXrX$.R R L o./ R R L R R ",
"/ R R ! ) ( ! Q Q R ( Q R U #.0X0XgXXXU.-X:X>X>X>X>X>X>X,X,X>X>X>X>XW.S F 1.1.C % f e e w w f f f z f z w : !.mXeXeXwX..R R R ] ! R R R / / ",
"/ / R ~ _ ! / ] U U ) U R R @.0XqXaX0XU.-X>X>X>X>X>X>X>X,X>X<X<X<X1XW.v H 9 , : q k f k f f e w w f d f w r ~.mXwXrXiX^ I R Q _ _ ! R U R / ",
"^ R U ) ~ R U ' / I ~ I U E E 0XqXgXrXG.-X<X,X,X<X<X<X<X<X<X<X<X<X1XQ.S H q z k e d e f j j l l j j 8 k 4 t  XmX0XtX5XU R R ( _ o.~ R U R ( ",
"E R R _ ! R L E ] U ( R U ` I @XrXwX.XU.-X1X<X<X<X<X2X2X2X2X2X2X2X1XQ.v F i q d j j l l B B l k d q p k 1 b 6XmX0XwX'.R R I ( R | R R I U ( ",
"! R R ! ~ L U R ] ( _ ~ R I U OXrX~.K.U.5X1X2X2X2X2X2X2X2X2X2X2X2X3XQ.v F p w a d d d w q q w w f q d f < m wXfX0X0X|.W R R ( R _ / R L R / ",
"R R R ! R L I I ^ _ ~ _ R L R 0X0XrXmXY.I.3X3X3X3X3X2X3X3X3X3X3X3X4XQ.v 4.7 a a w w f f z f f f f f j f < N rXaX@XwX'.W R L ( R / _ U L R Q ",
"R / R ! R L I R R _ _ _ R J Q 6XqXrXyXK.5X4X3X3X3X3XjX3XjX3X3XjX3X4XQ.c F a w a f f f f f f f f a f h f 1 >.dXaX0XwX_.W R R ( R / ] R U Q U ",
"U ^ U R R L E E R R _ } Q I R OXqXrXgXU.'.kXjXjXjXjXjXjXjXjXkXjXkXkXQ.v F p w d f f f f f f a f f d j f # >.hXpX0XeX8.E I R / / U X.U / / U ",
"I T I R L R E E R U } } Q R U _.@XeXgXY./.xXkXkXkXkXkXkXkXkXkXkXjXcXQ.x F 8 w s a f f a f a f f w s j q % J.mXeXqXrX6.Q L R Q / U ( R ] / P ",
"I Y I R L R E I R R ( ( Q Q L +.eX@XgXY./.xXxXlXlXlXkXkXkXkXkXlXkXxX^.c F s q d w f f a a f a a w j j 3 * K.fXqX@XaX| Q P U U / U R Q _ / L ",
"T U U U L E E I / R _ ( ! ! U X.@X0XhXE./.xXxXxXxXcXxXxXcXcXxXcXxXcX^.c F p q d a f f a a a a a w j k 4 r ~.fX0X@XdX) Q U I U / U U R o.E L ",
"I T R U R U R E ^ U } Q ( ~ U ( @X@XgXE.~.vXxXcXcXcXvXcXcXcXvXvXzXvX^.c F p q q w a a a a a a a q d j 1 t  XgX0XeXOX~ } U U Q X.R R ! o.R I ",
"R ( ( U o.I L / Q I } R ( Q U ~ @X@XgXE.I.vXvXvXcXvXvXvXvXvXvXvXvXbX^.x F 7 q q a a a a a a a a q h e 1 b .XaX0X0X|.[ } Q U / } Q ) [ _ R _ ",
"X.Q _ U o.R R / U U ( Q } Q U Q ].@XaX~.E.bXvXvXvXvXvXbXvXvXbXvXMXbX^.c F 6 d q a a a a a a a a q h e 1 b 5XtXeX0X[._ } Q U Q } R [ ) ~ ! ( ",
"/ R R Q _ R R E P Q Q ~ | U U ~ 7.@XaX}.Y.nXvXvXvXvXvXvXvXvXvXvXvXbX^.x F 3 q q q a a a a q a a q e 0 # m 6XtX0X@XoX} ( ~ P Q O.! ) ) ! _ R ",
"I I R ! ] R ( I U ( R _ _ L Q ! ,.@XtX}.Y.nXvXvXvXvXvXcXvXvXvXvXvXbX^.v D 7 w q q a a d q q a a q p i + >.pXwX@XOX'.O./ Q P Q  .}  .~ O.( U ",
"I R R I _ ( / L R U Q | ) R ( Q ,.@XtX.XK.nXvXvXvXvXvXvXvXvXvXvXvXbX^.x D 7 q q q a a a a a a q 3 0 5 + >.rX0X@X7X7.o.Q U P Q }  .O.) } U U ",
"/ R R I ( ( / I Q U / O.R ( ( R =.@XtX XJ.zXzXzXvXcXvXvXvXvXvXvXvXbX^.x V 2 q q q a a f q q 3 d p : 2 # G.0XqX@X7X*.X.R Q Q Q } | [ ) _ L R ",
"_ R I R _ R W R R Q /  .R _ ! R =.@XeX XG.zXvXzXvXvXvXvXvXvXvXvXnXbX^.x V % q 7 q a q 3 3 h j h i & : % U.eXwXXXyX' ( R ( ( ~ _ ) ) [ Q U R ",
"_ ! R I ( R W R _ ! ! ( ~ _ R R ,.+XtX XJ.zXvXvXcXvXvXvXvXvXvXvXnXbX^.u V % q 8 3 7 d j h h 8 7 2 5 % t Y.tXrXXXMX/ Q U ( _ Q _ ~ ~ ~ I ! R ",
"_ o.R I R I R L _ R ! R ( _ R #.`.}..X}.G.9XvXzXvXvXvXzXzXvXvXzXzXbX^.x D % 7 8 i h h i 8 q w 5 2 0 $ = E.XX.XXXBX( R U T } Q _ ~ ) ! I W R ",
"W | W L R R R L _ R Q I Q o.] (.|.Y.:.}.~.dXfXaXaXdXaXaXgXaXaXgXyXmXR.x V % 2 6 0 8 3 q q e q : 5 o o >.}.Y.:..XNX/ U Q U O.~ Q ! ! R E E R ",
"R _ ! I R R R R _ L R R R $.'.pXgXhXhXgXmXhXhXhXmXhXhXmXmXhXmXmXhXNXR.x B $ & 5 q q q q f d > o o N XXmXfXtXeXaXfXmX8.T ( _ Q U Q R R W E I ",
"I _ _ I E R W E ] R R I @.(.@XqXqXeXeX0XrXrXtXtXaXyXyXaXaXaXaXaXaXdXR.g V $ & 5 q q e d 1 o o n W.pXfXtXaXyXaXeXrXeXqX5X] ! ! ! R R / E R R ",
"R W / I I I E E ( W I I #.9X/.OXeXeX0X0XqXwXwX0XeXeX0XqX@XeXeX@X0XrXT.x V O % 2 6 q 1 + ; N T.0XtX0X@X0X0X0X0X@X0XXX}.yX_ ! ! W I I E R R R ",
"I R W R Y I Y I ' / I L I zXrX0X0X@X@X@XXXXXXX5XXXXXXXXXXXXX.XXXXX6XT.z B $ - ; $ o t N K.5XqX5XXX@X0X@X@X0X0XqX0X0X6XoXR W ! R I I R R R _ ",
"I I I L L Y I L E ] R #.uX7X X X{.~././././.~./.~.~.!.!.!.!.!.!.~.I.4.v V - o o t N G.Y.!.~.!.!.~.!.!.!.!.~./.~././. X6XuXE E I L L R L R ] ",
"R I L Y L Y L I L ] '.9X8X8X9XiX9X9X9X9X9X9X9X9X9X8X9X8X8X8X8X8X6X9XT.4 u o n U./.5XrX8X7X7X8X7X7X8X7X8X7X8X7X8X7X7X7X8X7XnX` R L L I L R _ ",
"E K K E Y K K E K 8.sXsXsXsXsXiXyXyXsXsX9XnXsXsXsXsXsXsXsXsXsXsXyXnX5X^.T.5XnXsXsXsXnXyXsXyXsXsXsXsXsXsXsXsXsXsXnXnXsXsXyXiXnXL L K L K R R "
};
