/* XPM */
static char *result[] = {
/* columns rows colors chars-per-pixel */
"70 70 243 2 ",
"   c #000002",
".  c #04040A",
"X  c #170001",
"o  c #15130E",
"O  c #000517",
"+  c #05161B",
"@  c #191A19",
"#  c #290A01",
"$  c #380000",
"%  c #2B1503",
"&  c #2A1608",
"*  c #371704",
"=  c #331A06",
"-  c #351D0C",
";  c #391E0C",
":  c #2C1D14",
">  c #251A18",
",  c #321D12",
"<  c #3D1910",
"1  c #1F2717",
"2  c #3B200D",
"3  c #25261D",
"4  c #2C211C",
"5  c #3A2112",
"6  c #35241C",
"7  c #392418",
"8  c #29341E",
"9  c #373A18",
"0  c #071822",
"q  c #021C22",
"w  c #131E21",
"e  c #1C1F21",
"r  c #0D2625",
"t  c #1C2223",
"y  c #1C2B25",
"u  c #182828",
"i  c #1B342B",
"p  c #232222",
"a  c #2A2422",
"s  c #2A2A25",
"d  c #262D28",
"f  c #332621",
"g  c #342B24",
"h  c #3B2A21",
"j  c #392924",
"k  c #24372A",
"l  c #2D342B",
"z  c #37392B",
"x  c #4D0B04",
"c  c #431E02",
"v  c #6F1D00",
"b  c #482504",
"n  c #44240D",
"m  c #4B290C",
"M  c #5C2B00",
"N  c #542D0C",
"B  c #5B320F",
"V  c #412513",
"C  c #4C2B13",
"Z  c #442A1C",
"A  c #4D2D1B",
"S  c #542E15",
"D  c #553215",
"F  c #5C3314",
"G  c #54311C",
"H  c #5B341C",
"J  c #613613",
"K  c #643818",
"L  c #65391A",
"P  c #6A3C1C",
"I  c #422C24",
"U  c #482B25",
"Y  c #463327",
"T  c #4B342A",
"R  c #553322",
"E  c #5B3522",
"W  c #543A2E",
"Q  c #583828",
"!  c #5A3A2D",
"~  c #5D3E31",
"^  c #633B25",
"/  c #6C3E23",
"(  c #663C29",
")  c #613F31",
"_  c #2E4219",
"`  c #3C740D",
"'  c #3A4633",
"]  c #395134",
"[  c #5A472A",
"{  c #5C4D34",
"}  c #475B3C",
"|  c #6E4124",
" . c #674629",
".. c #6D422B",
"X. c #734426",
"o. c #75452A",
"O. c #764829",
"+. c #7B4A2C",
"@. c #7A522C",
"#. c #674734",
"$. c #734835",
"%. c #754A34",
"&. c #7D4D34",
"*. c #7C4D39",
"=. c #685331",
"-. c #7A5437",
";. c #58683E",
":. c #4C7036",
">. c #194A46",
",. c #286B62",
"<. c #4A6A41",
"1. c #556D44",
"2. c #577947",
"3. c #72744E",
"4. c #557D6F",
"5. c #914817",
"6. c #834629",
"7. c #83532E",
"8. c #824F35",
"9. c #884D30",
"0. c #855136",
"q. c #875A35",
"w. c #84533B",
"e. c #8B553B",
"r. c #8D593D",
"t. c #90563F",
"y. c #925B3E",
"u. c #8C633A",
"i. c #93623D",
"p. c #99683E",
"a. c #8A5A40",
"s. c #955D42",
"d. c #985F43",
"f. c #8F6C42",
"g. c #9B6245",
"h. c #996744",
"j. c #9D7244",
"k. c #9B7148",
"l. c #A16B47",
"z. c #A66A48",
"x. c #A46D49",
"c. c #A47545",
"v. c #A57249",
"b. c #AA744B",
"n. c #A67948",
"m. c #AD7B4C",
"M. c #B3734C",
"N. c #B17E4E",
"B. c #B87A51",
"V. c #C27849",
"C. c #C27E55",
"Z. c #348B00",
"A. c #398E00",
"S. c #359100",
"D. c #3C9400",
"F. c #3D9800",
"G. c #419600",
"H. c #459B00",
"J. c #499E00",
"K. c #459D0D",
"L. c #4B9E0D",
"P. c #4D9513",
"I. c #559A1E",
"U. c #4DA300",
"Y. c #4DA603",
"T. c #4DA40D",
"R. c #4FA80D",
"E. c #53A600",
"W. c #54AA00",
"Q. c #59AD00",
"!. c #52A60D",
"~. c #55AB0D",
"^. c #59AE0D",
"/. c #5DB200",
"(. c #56B00D",
"). c #5DB20D",
"_. c #58A816",
"`. c #5DB315",
"'. c #61B500",
"]. c #66BB00",
"[. c #61B50D",
"{. c #64B90D",
"}. c #69BC0D",
"|. c #62AC1A",
" X c #61B615",
".X c #64BA16",
"XX c #69BD16",
"oX c #65B91C",
"OX c #57902C",
"+X c #5B8A38",
"@X c #668A3A",
"#X c #5EA228",
"$X c #66AB29",
"%X c #6CB328",
"&X c #74BB2D",
"*X c #6AA636",
"=X c #6BB230",
"-X c #76B736",
";X c #6BC105",
":X c #6BC016",
">X c #70C416",
",X c #74C027",
"<X c #5C8745",
"1X c #5B834B",
"2X c #658A47",
"3X c #62834A",
"4X c #699448",
"5X c #749848",
"6X c #649350",
"7X c #74AF41",
"8X c #74AA45",
"9X c #7FC046",
"0X c #83C43D",
"qX c #AF804D",
"wX c #B2834E",
"eX c #B68650",
"rX c #B98751",
"tX c #B68850",
"yX c #BB8A52",
"uX c #84A34E",
"iX c #B68A6B",
"pX c #C78257",
"aX c #C38B56",
"sX c #CB8C59",
"dX c #D68B5E",
"fX c #D48C5D",
"gX c #C79058",
"hX c #D4915D",
"jX c #C28967",
"kX c #DC8E61",
"lX c #D79560",
"zX c #DE9162",
"xX c #C6987E",
"cX c #E29263",
"vX c #EA9867",
"bX c #E3A27C",
"nX c #4B9284",
"mX c #67A291",
"MX c #A49C86",
"NX c #D1A68B",
"BX c #E2AF92",
"VX c #84D3BD",
"CX c #95E7CE",
/* pixels */
"J.J.E.{.E.}.E.E.J.J.L.!.E.E.W.}.'.J.Q.|.E.E.).'.Q.>XQ.[.Y.Y.`.~.`.J.J.J.J.`.}.).E.U.).~.F.E.:XY.).[.XXH.E.U.~.J.J.^.J.^.Q.Y.:XU.U.J.E.}.}.].",
"~.U.U.XXE.{.[.J.J.J.H.oXJ.[.U.XX'.E.E.}.|.E.|.}.E.}.Q.[.W.J. X~.`.J.H.E.J.U.{.{.U.U..X^.U.U.{.E.Q.{.XXJ.J.W.).J.U.~.J.).Q.).XXU.~.E.J.}.].'.",
"Y.(.H.).E.{.[.E.J.~.J.).W.).J.XXQ.'.E.[.'.Q.[.}.Y.{.[. X^.J.).Y.^.H.J.J.U.J.^.XXJ.E..X_.$X|.,X$X|.XX[.J.H.^.R.U.`.~.U.~.U.{.^.H.[.U.J.}.].'.",
"J.).J.Q.Q.{.Q.Q.J.!.~.J.[.W.G.^.[.Q.}.[.'.[.}.p d 3 3 t -XH.).Y.~.G.~.U.).U.U.:XU.Q.^.2.o 1 i u { 0X).J.G.^.U.^..XE.^.H.H.{.(.U.^.S.U.'.'.'.",
"U.Y.E.W./.{.[.Q.J.H.).U.W.Q.S.E.^.^.}.'.].;X2.#.b.iXxXB.uX2.5XT.~.G.~.~.E.).U..X8X6X2Xk.iXNXiXy.0 7X^.G.J.J.^.~.^.~.W.D.E.)..X).J.S.Q.).Q./.",
"(.H.W./.'./.}.'.E.F.R.).E.{.A.~.^.E.[.}.].;X3X*.dXBXBXdXl.Y d 5X!.J.J.~.U.E.U.&X] g $.V.bXBXvXM.r -X[.G.E.J.).J.W.).J.D.).U.). XH.U.^.}.Q.Q.",
").Y.Y.).}.Q.}.Q.E.Y.U.).Q.XXH.E.E.E.E.}.'.].3X~ z.a.[ X.C.C.@ O 3XE.E.E.).U.=X' . a.dXp.^ #.g.a.i =X{.E.^.E.E.E.^.Q.F.U.E.U.W.XXE.Y.).{.E.E.",
").Y.W./.>XE.{.Q.W.`.U.).E.{.~.E.E.^.J.Q.'.].3X~ s.H . * d.z.*.Y d 5X5X@X4X5X;.q ) y.M.... X w.*.d =X{.E.XXQ.J.Q.).Q.J.).U.~.^.[.).J.).).Q.U.",
"^.U.E.E.XXE.Q.).U.).J.).U.)..X^.E.~.E.E.'.'.3X) s. .# : * / y.#.f < G E E V 7 T e.0.b * & 5 t.a.d *X^.Q.;XW.U.W.E.).U.).E.).).Q.).H.).^.E.H.",
"T.U.J.E.{.W.E.^.U.^.H.E.U.E.XX).W.E.Q.J.Q.).2.) g. .% 2 ; C P r.8.% -.g.s.G R s.+.D 2 2 = V y.e.y =XE.Q.`.W.H.W.U.{.W.).Y.).).U.W.U.).).U.H.",
"Y.U.H.E.).[.U.E.^.^.H.U.W.E.XX).E.U.E.W.E.^.2.T #.R = 2 % G 8.s.s.*.%.%.o.%.e.g.e. .- - ; V #.[ @ -XU.Q.{.W.F.U.U.{.XX).E.:X~.U.U.W.).).E.~.",
").E.E.~.[.[.U./.).[.T.H.{.Y.;X{.E.U.J.^.^.~.5Xl + > 2 2 # ^ g.g.d.s.H   % *.d.d.l.0.- = , , + r ;. XJ.^.`.U.U.U.U.{.>XQ.{.).(.H.U.J.~.).E.E.",
"Y.(.J.^.).'.W./.^.{.!.J.)./.;X`.Y.U.H.T.~.T.!.*Xd p > = X E s.g.e.C 5 ; 2 - ..d.d.8.% % : > p 3.~.E.J.).).H.^.J.U.[.}./.;XE.{.J.J.H.~.~.Y.U.",
"U.(.F.U..X/././.^.{.J.U.Q.).:X).W.T.R.H.~.J.!._.d q T *.*.s.m.i.^ @ > : : + A &.v.x.*.0.#.w p 6X[.H.J.).T.J.^.F.U.{./.)./.Y..XJ.J.G.!.H.~.U.",
"~.U.U.H. X[.'.'.[.{.H.E.Y.(.;XQ.Q.U.~.G.~.H.!.4Xa + W e.a.h.B.0.c t p a 3 w , K n.N.y.s.%.@ p 2.-XJ.E.^.U.U.U.F.Q./././.U.~.).U.~.A.T.G.~.F.",
"~.U.T.A.E.}.Q.].}.}.J.U.Y.Q.{.Y.Q.Y.~.G.T.H.2X3 & = 6 g , ..g.8.C e : 2 ; w f L y.r.V f f - = : } =XE.E.U.^.J.J.Q././.E.J.).E.J.~.A.T.F.~.S.",
"J.~.J.G.A.XXQ.}.}.}.J.G.J.Q.}.U.E.).^.F.T.H.2.T -.| b o + $ x 6.8.G V - 2 V ..e.v x @ + - N &.%.@ 9XQ.E.E.).U.E.Q.).Q.E.J.XXE.J.E.F.J.F.T.D.",
"J.~.E.J.G.[.}.'.}.'.J.E.!.E.{.W.U.^.T.J.J.U.1XW r.0.L c X >.4.4.9.L m & ; B +.s.4.,.+ # N o.r.*.t -X^.E.U.).(.Y.U.{.Q.J.E.XXU.U.U. XJ.U.U.E.",
"E.~.E.E.J.Q.'.'.'.}.E.J. XJ.{.^.U.~.~.J.~.U.3Xa n 0.w.M   6XCXmX$ L m & = F x z VXVX  x X.s.^ : p |.[.E.U.).^.U.U.{.E.E.~..XU.J.~.^.U.^.U.).",
"E.^.E.~.E.[.'.'.'.Q.E.^.|.J.Q.^.J.U.~.H.R.^.U.4X+ i.jXNXjXiXmX,.# K o.&.%.| c q nXMXM.xXxXN. .] 0XJ.^.E.U.).E.J.U.[.E.J.^.).J.H.~.!.~.^.F.).",
"Q.[.^.E.Q.}.'.'.'.Q.).|.U.^.U.{.U.F.R.T.J.(.Q.&Xr u.iXBXbXV.x X U X.h.v.z.q.E 7 . 5.zXBXNXc.[ 3XoXH.Q.E.E.~.U.H.U.[.E.E.~.~.H.H.E.J.^.H.J..X",
"'.'.Q.J.E.[.'.].Q.Q.{.J.H.E.U.).Q.H.U.R.F.U.{.-Xs a Y X.m.B.s./ / s.N.rXrXz.8.K 8.v.rXu.Q g d 3X XJ.E.E.E.~.T.F.U.[.W.E.E.~.G.H.J.J.E.G.E.}.",
"Q.Q.E.J.E.Q.}.].Q./.).U.^.U.U.`.~.T.H.8X2.2.2X<.u q O # @.i.g.e.&.+.m.yXrXi.o.8.s.h.q.F   0 4X{.E.E.E.E.E.[.J.G.E.{.W.Q.E.U.A.H.E.E.!.E.E.XX",
"'.Q.E.!.E.E.}.]./.{.^.U.^.J.J.`.T.~.#X} a W [ T 7 4 e + , / s.x.i.J c.aXyX@.o.z.l.*.C > p Y 7X,X%X-X$XE.J..XU.E.E.}.U.E.W.U.H.H.J.J.!.J.E.XX",
"'.U.E.~.J.U.}.]./.{.U.Y.).U.H.^.U.=Xz O G y.d.e.K n : @ + W s.B.n.P c.aXtX@.q.tXx.*.e q I K I u y y t z E.XXU.)./.{.J.~.).R.U.U.G.U.~.G.E.{.",
"'.J.^.~.D.W.'./.).Y.J.Y.`.U.F.~.*X} . i.C.pXpXC.c.r.( > . { N.N.y.C  .q.@.D o.n.eXh.O . E 8.H H *.*.!   ] %XW.{.^.[.G.(.).U.U.R.F.~.T.G.^.^.",
"Q.J.^.~.D.^.Q./.Q.H.T.E.~.(.G.E.2.f A B.vXcXcXfXaXN.y.^ U $.n.g.*.:       . ! s.v.f.W U *.x.q.i.M.M.h.%.T :.'.[.[.^.G.^.(.Y.(.Y.H.^.G.H.^.E.",
"E.U.~.`.J.^.Q.).U.U.~.U.~.XXH.U.1XT s.C.cXdXzXfXwXtXN.d.s.a.a w.e.3 w p p +  .s.W ! s.s.x.rXwXaXkXkXkXkXo.. z /.E.E.` E.~.U.Y.S.T.R.A.U.^.J.",
"U.U.J. XE.E.E..XJ.E.~.U.W..X).2Xy  .m.aXsXsXsXaXtXyXrXN.z.*.O a.y.G 6 w @ Z O.g.I I d.b.eXtXeXsXkXkXzXkXh.Q r Q.E.J.Z.~.(.E.).U.(.H.S.~.U.U.",
"E.U.E. X~.E.U..XU.Q.).(.W.).oXt & X.m.eXm.c.qXtXtXrXtXyXm.r.! $.&.P I q p H o.w.~ $.x.eXyXrXeXaXkXkXkXkXB.q.z 8XJ.!.G.~.[.E..XU.Y.F.U.T.~.U.",
"^.H.E.).).J.J. XU.`.).).Y.(.XXl A o.s.g.r.P j.yXrXtXrXrXtXN.d.W 6 K 7 q p H G a *.v.rXtXrXrXrXtXrXkXkXkXaXp.F f <X~.E.U.{.U.).~.U.F.U.J.~.U.",
"~.H.H.^.XXH.J. XU.;XQ.W.Y.Y.XXk A L X.O./ ; r.b.x.N.yXrXtXrXN.n.q.> > 5 5 . ! j.b.eXtXtXrXrXrXtXtXaXaXaXaXc.F 6 <X!.~.H.).E.^.U.U.F.R.H.U.U.",
"~.H.G.E.XX~.H.{./.{.E.E.U.U.8Xd ^ +.o.P N = o.y.s.b.tXtXrXyXtXaXm.=.h X : W f.yXyXyXrXrXrXtXrXeXN.c.c.m.eXp.F f <XH.~.J.E.[.Q.H.U.D.R.U.U.U.",
"J.H.D.J.).).H.{.}.}.E.E.E.L.a = *.g.g.+.N ; C X.s.N.yXrXrXtXtXrXtXrX$.O p j.yXtXrXtXtXrXrXrXyXN.s./ +.g.g.0.F h <XJ.R.U.U.^.E.D.!.F.H.R.U.U.",
"J.H.A.J.U.{.U.'.}.[.J.J.E.I.f m 0.g.g.s.8.V % ( d.g.b.eXtXtXtXrXrXyXn.k.k.eXyXtXtXtXtXrXN.l.v.d.X.C S o.y.s.0.Z y @X^.U.U.).E.A.J.U.S.U.H.H.",
"E.J.F.U.J././.'.}.).H.J.E.I.I O.e.g.d.d.8.7 . R e.a.l.eXaXaXtXtXrXrXyXyXaXyXrXtXeXyXpXaXm.s.a.o.N = A +.y.g.d.%.Y 8 ~.U.Y.).^.G.U.^.H.U.U.U.",
"J.H.H.E.J.W././.).[.H.E.W.OXW a.g.s.g.+.A a 0 7 K 8.x.eXfXfXrXtXrXrXrXrXtXtXrXtXtXaXkXaXm.s./ N ; # ( d.d.d.g.g.-.i ~.H.Q.).W.J.~.^.J.U.J.J.",
"U.H.!.U.E.Q.Q././.^.J.H.E.OXW s.g.y.O.A @ p e a m L w.x.rXhXkXfXsXrXrXyXrXwXaXfXhXfXsXm.y.o.F - a @ R 8.s.d.s.m.f.i U.H.~.(.J.F.).U.J.~.J.J.",
"J.J.~.U.~.).E.Q.Q.^.E.G.E.OXW s.g.y.O. .T e <.2.: m P 8.i.m.C.fXsXrXwXtXrXwXaXfXfXB.p.r.o.J 5 } _._.;.G e.g.v.sXc.u J.U.^.~.J.J.).U.~.U.J.T.",
"U.H.~.J.E.[.J.E.Q.E.E.G.H.+XT s.d.d.d.d.a.j -X%Xd E P L J o.d.m.tXrXrXrXrXrXrXtXx.0.K K P K h 1X(.(.*Xg w.b.yXzXM.t F.U.~.E.S.).~.U.W.S.U.~.",
"J.J.Y.U.W.).U.U.E.E.Q.J.J.@XW s.d.s.s.g.d.w.3.} 4 +.y.e.w.i.m.wXyXfXhXhXfXfXpXtXwXc.w.e.8.B h 1X`.W.*Xg a.B.fXcXM.u U.U.Y.U.F.`.~.U.Y.D.U.U.",
"~.U.Y.W./.).W.E.J.E.).J.U.<XT 0.g.v.v.u.r.b.-.O = *.g.g.d.z.tXaXfXdXhXdXfXkXfXaXaXm.g.g.y.O.I 1X).W.1Xa ( M.cXzXx.u E.U.U.U.J..XW.U.U.U.!.~.",
"~.^.U.W.).W.~._.J.J./.H.U.<Xg F l.yXyX-.[ tX-.O - 0.g.s.s.h.tXfXcXdXpXwXtXfXzXkXaXb.s.d.g.d.! <XoX1.p a m z.kXaXf.u `.U.U.U.E.).).W.U.J.U.^.",
"!.U.H./.Q.E.J._.~.J.Q.H.J.+X3 * j.gXyX@.X  .Y 4 F 0.g.g.s.g.x.rXsXaXtXtXtXaXaXaXm.g.s.g.g.s.E z 1.+ U e.l.N.aXb.*.i E.U.U.J.(.).XXQ.U.H.U.^.",
"T.U.U.).Q.Y.G.T. XH.^.J.H.!.} o q.N.yXh.E ^ h 6 K e.g.s.d.d.y.x.qXtXrXtXtXtXwXb.h.s.g.t.y.y.E . g #.f.m.tXaXaXz.#.i U.J.U.H.(.Y.{.Y.U.H.J.~.",
"E.U.U.W.W.F.J.J. X^.).Q.Y.H.T.' < @.wXx.s.s.~ > L 0.g.s.s.d.d.s.x.wXrXrXrXyXm.s.s.d.y./ O.d.^ . j n.yXrXwXsXfXb.$.i ~.!.U.J.(.J.).~.U.D.J.~.",
"U.E.U.Q.U.F.H.H.~.).Q.).U.D.U.%X;.T =.#.[ ! a T e.s.g.d.+.+.g.d.g.l.l.l.l.l.g.g.g.a.o.J +.d.X.- l wXm.%.m.aXaXq.R l `.!.U.F.).U.^.^.J.G.E.E.",
"J.~.U.E.U.D.H.J.J.^.[.`.U.Z.U.~.#X2.2.1X<.+ O W g.g.s.s.8.o.-.0.e.d.d.s.d.d.s.0.w.o.B / e.s.O.C a u.@.X c.aXwXX., d .X~.U.J.^.U.~.`.J.J.E.J.",
"H.~.J.E.H.H.K.T.U.U.[.^.E.H.U.).H.U.W.Q.$Xl o ^ s.d.g.g.g.w.; b O.s.s.s.s.g.q.K 2 n P r.g.g.O.A p , # G n.yXeX .. ' XXR.H.U.~.~.J. XU.^.^.J.",
"H.L.G.E.F.U.T.T.E.H.[.[.E.U.H..XJ.~.W.W.!.l o E s.s.h.N.z.e.B b A W W Q W Q G 2 b | r.s.s.s.O.C a *.r.s.tXqX@.Y <.^.).Q.F.U.U.~.H.~.U._.R.H.",
"G.L.H.J.H.U.T.H.E.J.^.).E.E.G.[.).~.Q.E.-Xl 5 / s.l.m.rXv.e.8.E k 1X1X<X2.k - C X.e.s.x.x.s.| 5 s *.w.a.k.w.n 1.W.{.W.U.H.H.H.~.J.E.U.).~.F.",
"L.J.J.J.S.T.!.H.!.U.).^.E.W.H.[.{.}.E.Q.=Xd A X.s.N.yXrXz.s.s.) 2.).U.U.U.2.h P e.g.g.eXwXy.H @ l i u u u 0 z U.W. X/.E.J.J.J.~.J.H.E..XR.D.",
"J.!.J.J.E.U.J.T.!.J.[.E.^.E.J.[.[.[.E.[.%Xd G O.s.N.yXyXv.e.O.T 2.W._.E.U.2.I P P i.rXaXm.X.Z 2.!.H.^.U.~.H.G.J.Q.[.Q.[.J.J.E.|.U.U.W..XU.H.",
"J.^.~.J..XG.F.~.J.J.[.J.[.E.J.E.[.{.).).*Xe V / s.m.yXyXv.e.N 6 :.W.`.Q.E.+Xh F N +.j.c.q.F h 1XJ.J.^.J.!.J.H.J.[.'.'.[.E.J.^.[.E./.'.).U.).",
"|.E.).J..XU.U.~.J.J.).E.{.E.J.E.Q./.[.E._.' o E s.m.yXtXv.8.; 3 Q.U.`.W./._.4 , J J J J J K h 3XJ.H.~.H.T.U.U.U.'.E.[.[.E.J.E.}.E././.W.W.^.",
"^.E.E.E.).U.U.T.H.Q.Q.E.{.J.H.Q.Q.Q.Q.E.J.%X2.I / n.aXyXy.S a ~.U.U.Q.Y. X/._ 4 S J J B N = p 6XJ.F.!.H.T.U.T.U.'.J.}.!.E.J.J.XXE.'./.Q.).J.",
"H.U.U.Y.`.U.~.H.J.~.U.).).F.W.W.E.).E.J.E.{.6Xj F q.c.b.i. .d ^.H.E.U.U.{./._ 3 ..0.+.&.o.( R ;.*XH.J.R.J.U.Y.Y.!.J.XX!.E.G.E.}.}.}.Q.XX~.H.",
"H.U.U.J.).^.~.F.J.J.E.{.W.U.^.E.E.).E.J.E.}.1Xh L J o.s.g.0.8 ^.J.Y.U.W.{.Q.9 2 e.g.h.g.l.g.+.G w !.J.^.F.Y.U.R.E.E..XE.J.J.E.[.}.}.Q.[.J.J.",
"~.U.U.J.(.^.~.J.E.J.~.XXU.^.^.U.J.^.Q.J.E.1.6 = = O.d.d.7.H 8 ~.J.U.U.).).U._ J 9.z.wXwXB.eXh.$.r _.U.J.H.U.U.(.J.!. XJ.E.E.E.[.{.'.'.^.H.U.",
").U.H.U.(.U.~.J.E.U.^.}.E.).W.U.J.~.E.H.%Xe Z D ( e.d.d.8.^ 6 !.H.U.J.).W.U.[ 9.h.N.yXyXyXyXN.r.Z 3X`.H.!.U.T.~.H.^.^.E.^.^.E.|././.'.E.J.U.",
").W.U.U.(.U.E.J.(.W.Q.(.Q.).U.U.H.^.J.J.-Xs H 6.g.g.g.g.l.r.n _ J.!.U.^.Y.L.=.g.wXtXrXyXrXtXaXc./ I 1XU.R.^.R.U.H.^.E.J.!.|.E.).Q.Q.Q.H.Y.U.",
").`.U.F.U.J.U.F.).Y.E.U.^.^.U.H.H.~.G.!.l > o.p.wXtXtXwXwXj.L 9 H.T.U.^.U.P.=.g.wXtXwXyXyXtXtXrXm.#.2.^.J.`.~.F.H.^.J.E.^.[.E.).Q.Q.E.J.~.U.",
"Y.{.U.F.U.J.J.F.).U.E.H.E.`.~.G.U.U.G.<X6 m i.rXfXm.v.sXlXpXP 7 OXL.J.~.U.Y.@X@.pXhXfXc.b.sXaXyXb.#.2.T.G.`.!.D.U.~.J.J.J.XXE.E.E.Q.U.T.T.H.",
"U.).Y.J.U.J.U.U.).F.U.U.U.).^.H.U.J.J.+Xh H p.aXdXe.+.dXdXeXP 7 :.T.F.U.U.Y.Y.] n.dXfX+.e.fXyXn.w.T 2XG.G.`.J.H.!.J.E.J.^.[.E.J.E.U.U.~.T.H.",
"U.(.(.J.T.J.!.T.`.U.U.J.U.Y.(.U.U.U.U.I.s f  .7.7.X.| 7.9.O.n 6 :.U.H.T.E.U.R.^.;.$.#.j Y #.[ [ Y 8XJ.H.J.^.Y.T.T.J.U.Y.`.Y.W.E.U.U.~.T.J.U.",
"U.U.~.J.H.H.T.T.(.U.H.H.J.F.R.R.U.U.U.R.:.w 6 n * N N c b ; 4 1.H.J.G.T.U.J.U.R.~.@X4X6X4X4X2X2XOXD.J.H.J.J.U.T.H.H.~.Y.).W.E.Y.H.J.!.U.J.Y.",
"U.J.T.J.K.H.L.H._.(.F.F.H.F.U.U.R.R.H.R.~.:.u t - - , , - : ' ).H.J.F.T.H.H.Y.U.H.T.U.^.U.U.U.U.H.H.H.D.H.J.J.Y.F.~.T.U.Y.(.U.U.J.G.U.J.U.).",
"H.H.J.F.D.K.H.G.T.oXJ.U.F.U.S.U.(.T.U.H.F.`.T.` a a a 3 a } U.`.J.F.K.F.F.F.K.F.F.F.J.(.J.U.H.F.G.L.H.L.S.T.F.H.U.`.S.T.U.R.R.H.F.F.J.F.U..X",
"U.G.F.K.F.K.S.H.H.`.J.F.F.F.G.H.R.K.H.F.F.T._.F.Q.W.).H.S.F.F.(.F.F.T.S.F.F.K.F.F.D.F.^.H.F.H.K.G.G.D.T.S.H.F.J.R.T.S.H.S.T.T.F.F.D.H.D.U.^.",
"T.A.D.T.K.A.S.L.F.R.T.D.S.D.H.G.T.U.F.S.S.S._.G.Y.W.W.F.A.D.S.R.F.S.T.S.S.S.S.S.D.S.D.~.H.F.F.T.F.S.F.T.S.G.D.T.R.D.A.F.Z.T.F.H.D.S.D.A.E.U."
};
