/* XPM */
static char *xpm____4__removebg_preview1674025143[] = {
/* columns rows colors chars-per-pixel */
"70 70 254 2 ",
"   c #010400",
".  c #0E0200",
"X  c #140200",
"o  c #1D0200",
"O  c #1D0B00",
"+  c #0E1100",
"@  c #230300",
"#  c #2C0500",
"$  c #240A00",
"%  c #2B0B00",
"&  c #330D00",
"*  c #360B05",
"=  c #2A1503",
"-  c #351200",
";  c #3B1301",
":  c #361907",
">  c #3C1B03",
",  c #3D270E",
"<  c #392E0B",
"1  c #460800",
"2  c #431300",
"3  c #431B01",
"4  c #4A1A05",
"5  c #581A01",
"6  c #431912",
"7  c #4A2508",
"8  c #5B2501",
"9  c #552C03",
"0  c #5B2C02",
"q  c #542408",
"w  c #552D0B",
"e  c #5A2D0A",
"r  c #463A0E",
"t  c #5D3204",
"y  c #543208",
"u  c #5C320B",
"i  c #4C2D17",
"p  c #522B14",
"a  c #5A2C12",
"s  c #5C3313",
"d  c #583416",
"f  c #5C341C",
"g  c #5D3C1D",
"h  c #632D01",
"j  c #642A06",
"k  c #692C0F",
"l  c #633303",
"z  c #6B3401",
"x  c #653903",
"c  c #6C3B03",
"v  c #63330B",
"b  c #6A350C",
"n  c #643A0C",
"m  c #6C3B0C",
"M  c #733401",
"N  c #743B03",
"B  c #7B3D02",
"V  c #78360B",
"C  c #743D0A",
"Z  c #7B3E0A",
"A  c #633513",
"S  c #663914",
"D  c #6C3B12",
"F  c #633C1C",
"G  c #68391B",
"H  c #743D13",
"J  c #7B3E12",
"K  c #763A18",
"L  c #4F3323",
"P  c #593826",
"I  c #653B25",
"U  c #753E24",
"Y  c #623733",
"T  c #3E7F00",
"R  c #474902",
"E  c #4A5605",
"W  c #585708",
"Q  c #594E11",
"!  c #6C450C",
"~  c #764302",
"^  c #7D4402",
"/  c #7B4902",
"(  c #75430B",
")  c #7C440B",
"_  c #764A0C",
"`  c #7C490C",
"'  c #6C4219",
"]  c #754313",
"[  c #7B4413",
"{  c #734B17",
"}  c #7C4914",
"|  c #75431B",
" . c #7B441B",
".. c #7C4B1B",
"X. c #655816",
"o. c #4C6806",
"O. c #566A09",
"+. c #497806",
"@. c #587708",
"#. c #6B6C13",
"$. c #657A13",
"%. c #58462E",
"&. c #6C4324",
"*. c #674628",
"=. c #7B4A22",
"-. c #774828",
";. c #7E5227",
":. c #644232",
">. c #774B35",
",. c #695134",
"<. c #785538",
"1. c #576C21",
"2. c #716C2E",
"3. c #665A41",
"4. c #755844",
"5. c #6D6249",
"6. c #7B6957",
"7. c #813E06",
"8. c #833E12",
"9. c #824402",
"0. c #894602",
"q. c #834A04",
"w. c #894906",
"e. c #82450B",
"r. c #834A0C",
"t. c #894B0C",
"y. c #85520D",
"u. c #834612",
"i. c #834A14",
"p. c #8B4C14",
"a. c #87471B",
"s. c #834B1B",
"d. c #855214",
"f. c #87551D",
"g. c #834A23",
"h. c #884926",
"j. c #865626",
"k. c #955626",
"l. c #844E36",
"z. c #855637",
"x. c #925C3A",
"c. c #8A7138",
"v. c #AA703C",
"b. c #886945",
"n. c #836C5E",
"m. c #917051",
"M. c #AB704C",
"N. c #A87858",
"B. c #8E7968",
"V. c #A87C63",
"C. c #358900",
"Z. c #398E00",
"A. c #3C9300",
"S. c #389400",
"D. c #4A8704",
"F. c #588A09",
"G. c #419600",
"H. c #4B9402",
"J. c #459B00",
"K. c #499E00",
"L. c #459D0D",
"P. c #4B9D0D",
"I. c #529C02",
"U. c #579709",
"Y. c #599413",
"T. c #658D09",
"R. c #668A18",
"E. c #659A18",
"W. c #4CA300",
"Q. c #4DA603",
"!. c #4DA40D",
"~. c #4FA80D",
"^. c #53A500",
"/. c #54AA00",
"(. c #59AD00",
"). c #53A60D",
"_. c #5DA408",
"`. c #55AB0D",
"'. c #59AE0D",
"]. c #5DB200",
"[. c #56B00D",
"{. c #5DB20D",
"}. c #57A915",
"|. c #5DB316",
" X c #63AD0A",
".X c #61B500",
"XX c #63BA00",
"oX c #69B902",
"OX c #62B50D",
"+X c #64B90D",
"@X c #69BC0D",
"#X c #64A817",
"$X c #61B615",
"%X c #64BA16",
"&X c #69BD16",
"*X c #69BB1B",
"=X c #568A24",
"-X c #6D9529",
";X c #788838",
":X c #6AA922",
">X c #69BB21",
",X c #6DC20E",
"<X c #6CC016",
"1X c #8D8C39",
"2X c #89B03B",
"3X c #93955D",
"4X c #AD8A55",
"5X c #8EAF50",
"6X c #ACA95A",
"7X c #8B876A",
"8X c #958369",
"9X c #9A8675",
"0X c #B19071",
"qX c #BB9879",
"wX c #99A265",
"eX c #ACAF6F",
"rX c #CA9270",
"tX c #D49777",
"yX c #CCA96F",
"uX c #DEA070",
"iX c #B4D87C",
"pX c #A89489",
"aX c #B39788",
"sX c #ACAF8A",
"dX c #C89A86",
"fX c #D9A68A",
"gX c #CFB68F",
"hX c #D5AB98",
"jX c #DBB897",
"kX c #EBAC89",
"lX c #E5BB9A",
"zX c #FEBC97",
"xX c #CBAAA3",
"cX c #CAB6AB",
"vX c #D9B6A9",
"bX c #E8B8A8",
"nX c #F6B8A1",
"mX c #C9CA8F",
"MX c #E6C696",
"NX c #F8C69A",
"BX c #FAD89A",
"VX c #D9C9AD",
"CX c #E9D6A6",
"ZX c #F5D9A6",
"AX c #EECCB4",
"SX c #F4C4B6",
"DX c #FDD9B7",
"FX c #FDE5A8",
"GX c #FAE4B6",
"HX c #FFE6BB",
"JX c #F1DBC9",
"KX c #FCE9C8",
"LX c #FAEFD0",
"PX c #FFF9F4",
/* pixels */
"K.K.^.+X^.@XI.^.K.J.!.P.^.^./.+X.XW.(.OX_.I. X].(.<X(.|.^.W.|.`.|.K.W.W.K.'.+X{.^.W.OX`.G.^.<X^.{.{.&XK.W.^.`.K.K.`.K.[.(.^.&XW.W.K.^.@X@XoX",
"`.W.W.%X^.@XOXI.K.K.G.#XK. XW.<X.X^.^.+X'.^.OX@X/.,X(.OX/.W.|.`.|.W.G.W.K.W.+X+XW.W.%X`.W.W.+X/./.@X&XJ.W./.`.W.W.`.K.[.(.OX%XW.`.^.K.+XoX.X",
"^.[.K.{.^.OXOX^.J.F.W ,.X.O.H.%X(..X/.+X.X(.OX@XW.+X{.+X[.K.{.W.'.K.K.W.^.J.[.<XK./.$X`.W.W.+XW.^.&XOXK.K.[.!.W.$X`.W.`.W.+X[.J.OXW.K.+XoXoX",
"J.[.W.(.(.OX.X(.+.# &.*.&.# W U. X(.@X+X.X+X@X.X^.].{.{.OXJ.[.K.`.G.).D.F.K.W.<XW./.'./.G.W.{.J.^.&X XK.G.[.W.[.%X^.`.K.G.+X{.W.[.A.W..X.X.X",
"Q.Q././.].+X+XI.# l.U h.K x.5 ! _.'.$XF.@.@.F.I.D.D.D.D.F.T _.W.`.+.< * - - E #X'.(.^.{.J.Q.^.W./.&X XZ.K.I.[.`.'.`.(.A.(.{.%X[.K.A./.{.(.].",
"[.J./.].].].@Xo.* h.k h.h.V h.4 j.#.-.3 e 4 # d w ; - 3 * o , E +.& 9 U I z.G & F./.^.$XW.^.W.[.(. XOXG./.K.[.W./.{.K.A.[.^.OX%XJ.K.'.@X(.(.",
"{.W./.{.@X(.@XR f I tXuXtXv.8.a.j q D j...j.j.{ j.j.-.' -.{ S 3 2 ! j K U k l.>.% I.W.{.[.W.W.{./.(.&XK.'./.^.W.'.(.G.W.^.^.^.&X/.^.{.+X^.^.",
"{.Q./.(.<X/. Xr I G uXzXzXkX8.8.a.} i.r.N N q.^ ~ ( u.i.} C ( } s.J h.v.kXrXg.>.d R K.[.{.W.[.{.'./.@X^.%X(.W.(.[.(.K.[.W.`.`.OX[.K.+X[.(.W.",
"`.W.^./.&X^.^.E i I rXzXzXM.7.t.7.7.9.9.9.q.9.9.w.N r.r.9.r.~ 9.u.h.5 uXnXnXtXG U # H.Q.[.A.[./.{.I.OX/.,X/.W./.^.OXW.{.W.[.OX/.[.K.{.[.W.K.",
"~.W.K.W.OX(.^.F.X >.-.dXM.h u.M e.9.0.9.9.9.9.9.9.B q.B 9.q.B q.7.Z 5 k.kXnXnXU 4.o K.W./.W.W.^.(.^.^.(.{./.J./.W.+X(.+XW.{.{.W.(.W.{.{.W.J.",
"^.W.K.^. X|.W.^.@.$ 7 F D m k.s.e.0.7.9.9.7.9.9.q.p.p.B 9.e.B w.M k.7.1 tXDXM.I > R ^.W./.W.W.^.^.(.W.(.{./.A.^.W.+X%X{.^.&X`.W.^.^.{.[.^.`.",
"[././.`.{.+XW.].}.T.' :.-.0 x _ 7.0.0.9.9.9.9.e.5 h V 8.e.e.^ 9.0.7.8.5 J z.4 *.O H.W.'.W.W.[.^.K.OXW.[.|.W.W.W.W.+X<X].@X+X`.K.W.K.`.{.^.^.",
"^.[.J.[.+X]./.].OX X$.7 s =.x } ^ 9.9.9.) e.[ u.h.J a.s.B B q.9.7.t.} j q 4 & X F.W.W.[.J.W.W.`.`.^.K. X'.J.`.W.W.+X@X].,X^.{.W.K.J.`.`./.W.",
"W.[.A.^.%X].].].'.$X@.; b.-...i.^ ^ 9.7.e.[  .H  .H K s.) ~ r.^ ^ t.C =.q w o._.[.A.W.{.A.!.^.`.OXK.K.{.`.K.'.G.W.OX].{.].W.|.W.W.A.!.K.~.W.",
"`.W.W.A.%X{..X.X$XOXW 7 4 2 b c / ^ ^ / ) ` ( H 2 b j m d.y.q.~ q.x ( j.@ o.P.}.^.A.W.[.W.~.A.!.$XJ.^.'.W.W.W.A.(.].].].W.~.{.W.`.Z.~.J.~.A.",
"`.W.).A.I.+X.XoX@X@XO.o fXDXm.( q.9.^ ^ r.[ ] S lXDXN.n _ / ~ q./ y.} &.6 Q _.'.^.^.W.{.W.W.J.`.$X'./.^.W.[.K.K.(.].]./.K.{.^.W.`.Z.!.A.`.A.",
"W.).K.G.Z.&X].@X@X@X$.*.LXxX7XQ } p.u.u.Z j.2 qXKXaX4.F j.c 0.9.9.` [ =.> Q ^.W.W.[.Q.{.~.C.!.^.^.*X/.^.^.{.W.^./.{.(.^.K.&XW.K.W.A.W.A.!.A.",
"K.`.I.K.G.OX+X.X@X.XT.4.cXO + %.H 5 M h k.| 3 xXaXX : g { r.0.0.q.^ C | 7 ,.U.Q.W.[.^.{.W.W.W.W.^.&X X^.W.{.[.^.^.+X(.W./.&XW.W.^.|.W.W.W./.",
"^.`.^.^.K.(..X.X.XOX$.,.aX. = L 0XNXkX4Xl ..t 4XrXo w -.! r.9.7.q.9.u. .4 P 2.Y.W.`.^.[.W.W.W.`.'.(.$XW.W.{.`.W.W.OX^.W.'.%XW.K.`.'.W.[.W.{.",
"/.'.^.`./.OX.X.X.X/.#.= B.O ,.VXLXKXKXZXv.x j.v m.u D =. .N w.9.0.B ) s.k 4 : * 1.).W.`.A.W./.`.%XK.{.^.^.[./.W.W.OX^.W.'.{.K.J.`.`.).[.A.{.",
"(.OX'.^.(.@X.X.X.X_.2.L %.6.JXLXVXLXGXCXMXf.t f.z u.C [ a.B p.B 9.9.t.^ h e a :.: ,.K.~.G.W.[.`.%XK./.^.W.'.^.G.W.OX^.W.'.).G.J.W.W.`.K.J.&X",
".X.X(.K.^. X.XoX]._.X.i ,.7Xn.3.5.sXLXGXBXyXx y.t.e.u.e.) e.t.B 0.9.9.N b b q 7 P X 6.P.G.W.^.+XOXW.^.^.^.`.~.A.W.+X(.^.^.).A.J.W.W.W.G.^.+X",
"].(./.K.W.(.@XoX/.].2.9X5.+   . + + CXLXBXMXyX8 r.B 9.B B 9.9.q.^ t.t.C h 5 D G d <.$ 4.U.K./.+X/.^.^./.W.OXW.G.^.OX/./.^.W.G.J.W.W.).^.^.*X",
"].(.W.).W.W.,X,X].,Xm.mX7XX L < + 7XKXFXFXBXBX4Xz r.9.e.t.9.~ q./ ~ N ) z 8 h 8 9 9 *.: 8XsX#X'.(.{.^.W.W.%XW.W.(.@XQ././.^.G.J.K.K.'.I.^.*X",
"XXW.W.`.K.^.@X].XX{.-X6XJX6.=   7XAXKXGXGXZXBXBXv.! / N t.~ 9./ _ _ ( x l h 8 h 0 0 0 9 & % :.pXwX:X^.J.^.%X^.'.(.+XK.`.|.~.J.W.J.W.`.G.^.+X",
"].W.`.`.G./.].].{.^.!.2XmXLXVXGXKXLXGXHXHXZXgXBXyX! } / / q.q.q._ ! m t 0 0 h z i.C m ] | s 4 ; $ %.pX=X).+X/.OX{. XA.[.OXW.Q.~.G.`.~.A.'.'.",
"(.K.[.'.G.[.(.].(.J.!.:X5XCXAXjXDXDXKXDXMXZXZXHXyX9 _ / N 9.9.^ _ ! l 0 0 l M ) B e.r._ m m b v *.i : , n.-X/.OX X'.Z.'.[.W.[.W.A.[.J.G. X^.",
"^.W.'.|.K.`./.{.^.K.'.K.5XsX0Xp rXuXjXrXgXKXHXZX6Xy ..d./ / q.~ ! t t 0 z m ) e.B q.r.^ ^ [ [ D y i d i - : B.E.^.^.C.).[.W./.S.!.~.S.W.'.K.",
"W.W.K.%X^.^.^.%XK.^.`.W./.5XeX4.-.M.b.z.MXDXGXZXc.H ) ` ) z N z h 0 h z C ) ) ) r.q.^ 9.r.p.Z z b D v e s d , O ;XQ.C.[.[.^.{.W.[.A.A.`.W.W.",
"^.W.^.$X`.^.W.%XW./.[.[.(.%XeXqXdXfXkXlXKXHXHXyXt c h h z 8 0 h z z N Z ) u.) ^ ^ ^ / 9.B M e.k.N 0 8 S A q p :.$ 2.D.[.{.^.|.^./.S.W.!.~.W.",
"`.J.^.{.[.K.K.$X^.{.[.{.^.[.>XeXlXlXSXKXDXGXyX! h N M z M V b ] B B e.e.u.e.e._ q.^ ^ 9.w.e.B B u.e.z 8 0 A g i L $ 2./.+XW.{.[.W.J.W.W.`.W.",
"`.K.J.'.&XJ.K.%X^.@X(.].W.^.<XQ.eXVXKXDXlXrXx l ^ B t.e.u.j.H } e.9.9.9.^ 7.^ 9./ q.9.^ B ~ e.u.e.9.B M z e w d P P $ 1X{.(.`.W.W.S.~.J.W.W.",
").J.G.^.<X`.J.+X].,X^.^.W.W.%XW.Q.eX8Xm.K h p.9.^ 9.9.9.^ _ ) 9.9.9.9.9.9.9./ 9.^ ^ 9.9.^ z u._ 9.e.q.7.M l t u p g g % 6X X/.H.W.A.!.Q.W.W.",
"K.J.A.K.[.{.J.+X+X@XW.^.^.W.|.K.Q.:Xb.: x.8.7.9.9.9.9.9./ / 9.0.9.^ / 9.^ 9.9.9.9.^ q.9.^ z r.) ) 9.9.7.M z 0 s d w u w I *X^.A.`.A.A.`.W.W.",
"W.K.S.K.^.+XW.].@X{.K.K.^.W.$XK.Q.~.-XP g.u.u.7.9.9.9.9./ / 9.9.9.9./ / 9.9.9.9.9.^ e.9.^ z ` ) ^ 9.9.0.B z t u u w w &.o cX/.Z.W.W.S.W.W.W.",
"W.K.A.W.W.(.].].+X{.J.W.^.K.|.).W.[.P.4X5 8.0.t.9.^ 9./ / ~ 9.9./ / 9.9.9./ 9.9.9.^ 9.9.^ l ) ) ) 9.7.0.9.z 0 u w u u s - 9X#XG.W.`.G.W.W.J.",
"W.J.J.K.K./.].].OXOXJ.^.^.W.[.`.W.[.!.;X2 h.M t.9.9.9.9./ ~ 9.9.9.9./ 9./ 9.9.9.9.^ 9.) B h _ ) ) B 7.0.9.M l 0 e u v q g P 2XW.`.`.W.W.K.K.",
"W.J.).^.^.(.].].].'.J.K.^.W.^.`.W.`.).E.q h.M 7./ 9.9.9./ / 9.9.9.^ 9./ 9.9.9./ e.B q.` C 0 ( ) ^ 9.0.0.9.^ n 0 u e v A f % JXG.{.W.W.~.K.K.",
"K.K.`.W.`.{.^.(.(.'.^.H.^.W.W.`.`.`.W.Y.U a.p.N 9.9.9.9./ ^ 0.7.9./ 9.9.9.9.9.9.q.^ e.9.N h ( ) ^ 9.0.7.9.9.b 9 u u h D a $ cX!.{.W.).W.K.~.",
"K.J.`.W./.{.W.^.^./.^.G.A.~.W.~.{.).W. Xz.K u.e.) 9.9.0./ ^ 9.0.9./ 9./ 9./ 9.9.9.^ ) _ N 0 C [ ) e.0.9.7.9.C 0 0 v h v &.: pX$X`.^.^.Z.W.`.",
"W.K.Q.W.^.{.W.W.^.^.(.K.K.W.W.W.[.).K.#Xw K a.B ) q.q.e./ ~ M 0.9./ 9.9./ 9.9.9.^ 9.) ) c h c _ ) 9.0.0.e.e.m t n 0 z K A % 9XiX`.W.W.A.W.W.",
"`.W.W./.].[./.^.I.W.{.W.W.W.!.W.'.~.G.Y.4 K a.) ) ) 7.e.` c B t.9.9.9.^ 9.9.9.^ ^ _ ` ) z h z } ) 9.7.7.9.^ m 8 u 0 b H A - B.PX/.Q.W.W.`.`.",
"`.`.W.].{./.`.|.K.K.].J.K.W.!.J.'.).K.U.2 K V s.) 9.) B ~ ~ N r.9.9.9./ 9.^ ^ 9.^ ) [ ( l 0 x } ` ) 9.9.t.Z x 0 u 0 m  .A & n.PX{./.W.K.W.'.",
").W.J.].(.W.K.}.`.K.(.K.K.!.W.W.`.W.W.U.2 K h [ _ ) 8.) ( x M q.9./ 9.9.^ q.9.9.e.e.` C l 8 x { [ ^ 9.9.e.) m u 0 j m | G : 6.PX%X(.W.J.W.'.",
"!.W.W.{.(.W.A.!.$XJ.'.K.J.~.A.W.`.G.^.H.2 h.5 N ( ` e.` _ c z e.^ 9.9.9.9.^ 9.) e.` ) c h 0 l ] ] ( ^ 9.^ C l 9 9 v H | G & n.iX+X^.W.J.K.'.",
"/.W.W.(.(.A.J.W.|.'.OX(.W.G.W.`.^.K.(.D.4 h.j h N ( [ u.( x z ) ^ 9./ 9.9.9.9.) e.` ( z 0 0 t m } ` r.q.B z l 0 9 D ] H G & 9X#X{.`.W.S.W.`.",
"W.^.W././.A.K.J.`.{.(.OXW.A.W.`.W.W.{.H.; h.M h l z N ! ! 9 z Z q.9.9.9./ 9.^ 9.^ ) C z 0 0 l l ] ) ` e.N h t v e D  .H G # aX!.`.{.K.G.K.^.",
"K.`.W.^.W.A.G.K.K.{.{.[.W.S.^.[.G.W.^.I.* h.J z 0 0 h x t 9 0 V ^ ^ / 9.9.9.9.` ` ) m x 0 0 0 t x x C N z 8 0 v 0 | ..m G $ wX^.`.|.W.K.^.K.",
"J.).K.^.J.G.!.~.K.W.OX{.^.G.W.{.G.^.^.I.= p.7.) h t 9 y y S 0 z ` / ^ ^ B q.B e.) ( x t t t u t u 9 0 t v t 0 h B V i.D F + #X).K.$XK.'.`.K.",
"J.P.J.W.G.W.!.!.W.K.OXOX^.W.K.%XW.`.(.^.= k.B ^ x t 9 y w s 0 h ~ r.r.q.9.q.9.^ [ H t t 9 9 0 t t y u u 0 8 h N 9.r.) v 7 R ^.`.J.'.W.|.`.G.",
"H.P.J.^.A.W.~.K.W.K.{.'.W.^.G.{.[.`.(.I.R s.u.^ N x y y e e k q l } ) t.B w.q.) } m 0 9 9 9 0 t t t n t 0 0 c u.Z p.x ' * T.J.).K.^.W.{.`.A.",
"P.J.K.J.S.!.~.G.`.W.{.'././.W.{.+X+X(.(.o.v h.e._ c l 9 A q a k H C B e.^ 9.q.) _ x 9 t u t t t t 0 9 t x m C ` ) J b ' 9 K.J.'.K.J.^.%X~.S.",
"K.).W.W.W.W.W.!.).K. X/.'.^.W.'.OXOX^.OXD.- h.Z e.B M h v e q U N.K H p.e.9.9.^ C l 9 9 u u 0 t t t 0 l ! | [ ] i.m D 3 F.K.^.$XW.W./.%XW.K.",
"I.'.`.W.%XA.G.`.^.J.$XK.OX^.J.(.OXOXOX'.G.= -.} u.7.B M j a 6 m.fXk K i.r.^ 9./ x h t 9 e e t 0 x z c ( [ } [ [ ] m w # ^.K._.OX^.]..X{.W.[.",
"$X^.[.W.%XW.W.~.K.K. X^.OX^.K./.(..XOX^.K.o.u ..e.0.7.M h F & aXbX5 g.[ q.~ q.~ l t u 9 9 A D b c ~ ` ) ) [ [ ] v A 7 T.^.K.^.OXW..X]././.`.",
"_.W.^.W.{.Q.W.!.G./././.@XK.J.(.(.(./.^.^.F., ;.e.7.0.7.j F $ xXbX1 l.J ) ^ q.c 0 l u 7 w S -.{ ` q.) ^ _ u.] m e f 7 _.(.H.W.&X^..X].(.{.W.",
"A.W.W.^.|.^.[.J.K.`.W.{.+XA.^.^.^.'.^.W.^. X7 { r.9.7.e.m P @ xXnX6 l.J e.~ q.z l 9 e ; m.N.S ../ t.N q.p.C b v F $ E._.^.G.^.+XOX@X(.$X'.J.",
"J.W.W.K.{.`.`.A.W.W.^.+X(.W.[.^.^.[.^.W.^. XW { ) ^ 0.r.n f @ JXbX1 h.8.9.^ ^ x t 9 F # tXfX3 s.~ 9.^ e.r.C m u & W $X^.K.H.^.+X@X@X.XOXK.K.",
"`.^.W.K.[.[.`.J.W.K.`.%XW.'.[.W.K.{.^.K.^. X#.t i.^ ^ q.l g o VXbX1 h.Z 9./ ~ l v w G @ jXDX* s.~ q.9.9.) C v 7 y P.$X^.^.^./. XOX.X.X'.G.W.",
"{.Q.J.W.[.Q.`.W.W.^.[.@X^.{./.W.K.[.^.K./.#XW x d./ N ` t &.$ vXdX5 a.Z 9./ ~ 0 9 a Y * SXKXl ] ^ q.9.9.) Z v - O._.OXW.`.|.^. X.X.X.X^.W.W.",
"{.].J.W.[.W.^.J.[./.(.[.(.{.^.W.K.`.K.W.^.OX9 ..) ^ 9.} l F & hXV.j i.^ / / ~ t a f Y # bXLX| ` ^ q.9.e.e.] v # +.`.^.W.'.'.^.OX(..X(.J.Q.W.",
"{.|.W.A.^.K.W.A.{.W./.W.[.[.^.J.G.`.G.W._.#.9 g.) e.) } v A ; V.b.b r.^ / q.c 0 a f Y @ bXKXv s.^ ^ B e.e.[ A # +.`.W.W.).OX^. X(.(.^.J.`.W.",
"/.{.Q.A.W.K.W.A.{.W.^.K.^.$X`.A.W.W.G.^.F.9 ..u.e.e.) V b A 5 U h.8.` / / / c t a L Y 6 dXvXn ) ) ^ ^ e.) H G - O./.K.^.W.%X/.^.^./.W.~.!.W.",
"W.[./.W.W.W.W.W.{.A.W.K.W.{.[.G.W.W.K.U.: & -.| j  .{ ] j e a G  .[ } / ^ / x u P 6 * # :.*.&.{ s.Z e.i.V S F : R K.W.K.`.OXW.W./.W.W.`.!.A.",
"W.[.[.W.!.K.~.~.|.W.W.W.W.W.[.Q.W.W.W.Y.W R.,.P 2.>.&.&.a 7 &.-.{ j.m ;.! -.d P i *.;X3Xn.%.< 4.q -.h.>.>.>.P o E J.W.W.|./.Q./.W.W.`.~.K.W.",
"W.^.`.W.G.K.P.!.[.Q.A.K.W.A.~.~.W.W.!.=XF.Y.X.Y.U., - & > >.p f z.4 3 &.*.I Y Y X K.W.}.7X6.wXL b.p * 6 6 @ % R D.A.`.^.[././.^.K.J.~.W.K.^.",
"W.W.!.W.L.G.P.K.}.[.J.S.A.S.Q.W.~.).W.!.}.}.U.P._.F.R.@.D.$.X.#X*.F.D.<.i $ % O C.!.K.[.Y.E.Y.-XF.F.$.O.O.F.F.H.S.~.!.W.^.[.Q.W.J.G.W.W.W.[.",
"A.W.A.A.A.L.J.A.~.|.W.J.J.W.S.W.|.L.W.K.J.|.!.Q.OXW.%XK.G.D.P.#X,.D.F.5.6.2.+.S.J.A.K.[.W.W.W.A.A.!.S.L.A.!.G.K.W.|.S.!.W.~.!.J.A.A.W.A.W.%X",
"W.A.A.!.A.L.A.A.A.|.Q.W.A.A.G.G.[.L.W.A.A.~.}.A.(./.|.A.Z.A.G.[.G.A.P.Z.S.S.L.S.A.A.G.'.G.J.A.!.G.A.A.!.S.G.A.W.~.!.S.W.S.L.~.S.A.A.G.A.W.{.",
"~.S.A.!.L.A.S.!.A.~.~.A.S.S.W.A.~.G.A.S.S.S.}.A.Q.(.(.A.C.A.S.).A.S.!.Z.S.S.S.S.S.S.A.`.J.A.A.~.A.S.A.!.S.A.A.!.~.S.C.A.C.!.J.W.A.A.A.S.W.W."
};
