/* XPM */
static char *xpm____4__removebg_preview__1_1674025118[] = {
/* columns rows colors chars-per-pixel */
"70 70 253 2 ",
"   c #010400",
".  c #0E0200",
"X  c #140200",
"o  c #1D0200",
"O  c #1D0B00",
"+  c #0E1100",
"@  c #230300",
"#  c #2C0500",
"$  c #240A00",
"%  c #2B0B00",
"&  c #330D00",
"*  c #360B05",
"=  c #2A1503",
"-  c #351200",
";  c #3B1301",
":  c #361907",
">  c #3C1B03",
",  c #3D270E",
"<  c #392E0B",
"1  c #460800",
"2  c #431300",
"3  c #431B01",
"4  c #4A1A05",
"5  c #581A01",
"6  c #431912",
"7  c #4A2508",
"8  c #5B2501",
"9  c #552C03",
"0  c #5B2C02",
"q  c #542408",
"w  c #552D0B",
"e  c #5A2D0A",
"r  c #463A0E",
"t  c #5D3204",
"y  c #543208",
"u  c #5C320B",
"i  c #4C2D17",
"p  c #522B14",
"a  c #5A2C12",
"s  c #5C3313",
"d  c #583416",
"f  c #5C341C",
"g  c #5D3C1D",
"h  c #632D01",
"j  c #642A06",
"k  c #692C0F",
"l  c #633303",
"z  c #6B3401",
"x  c #653903",
"c  c #6C3B03",
"v  c #63330B",
"b  c #6A350C",
"n  c #643A0C",
"m  c #6C3B0C",
"M  c #733401",
"N  c #743B03",
"B  c #7B3D02",
"V  c #78360B",
"C  c #743D0A",
"Z  c #7B3E0A",
"A  c #633513",
"S  c #663914",
"D  c #6C3B12",
"F  c #633C1C",
"G  c #68391B",
"H  c #743D13",
"J  c #7B3E12",
"K  c #763A18",
"L  c #4F3323",
"P  c #593826",
"I  c #653B25",
"U  c #753E24",
"Y  c #623733",
"T  c #3E7F00",
"R  c #474902",
"E  c #4A5605",
"W  c #585708",
"Q  c #594E11",
"!  c #6C450C",
"~  c #764302",
"^  c #7D4402",
"/  c #7B4902",
"(  c #75430B",
")  c #7C440B",
"_  c #764A0C",
"`  c #7C490C",
"'  c #6C4219",
"]  c #754313",
"[  c #7B4413",
"{  c #734B17",
"}  c #7C4914",
"|  c #75431B",
" . c #7B441B",
".. c #7C4B1B",
"X. c #655816",
"o. c #4C6806",
"O. c #566A09",
"+. c #497806",
"@. c #587708",
"#. c #6B6C13",
"$. c #657A13",
"%. c #58462E",
"&. c #6C4324",
"*. c #674628",
"=. c #7B4A22",
"-. c #774828",
";. c #7E5227",
":. c #644232",
">. c #774B35",
",. c #695134",
"<. c #785538",
"1. c #576C21",
"2. c #716C2E",
"3. c #665A41",
"4. c #755844",
"5. c #6D6249",
"6. c #7B6957",
"7. c #813E06",
"8. c #833E12",
"9. c #824402",
"0. c #894602",
"q. c #834A04",
"w. c #894906",
"e. c #82450B",
"r. c #834A0C",
"t. c #894B0C",
"y. c #85520D",
"u. c #834612",
"i. c #834A14",
"p. c #8B4C14",
"a. c #87471B",
"s. c #834B1B",
"d. c #855214",
"f. c #87551D",
"g. c #834A23",
"h. c #884926",
"j. c #865626",
"k. c #955626",
"l. c #844E36",
"z. c #855637",
"x. c #925C3A",
"c. c #8A7138",
"v. c #AA703C",
"b. c #886945",
"n. c #836C5E",
"m. c #917051",
"M. c #AB704C",
"N. c #A87858",
"B. c #8E7968",
"V. c #A87C63",
"C. c #358900",
"Z. c #398E00",
"A. c #3C9300",
"S. c #389400",
"D. c #4A8704",
"F. c #588A09",
"G. c #419600",
"H. c #4B9402",
"J. c #459B00",
"K. c #499E00",
"L. c #459D0D",
"P. c #4B9D0D",
"I. c #529C02",
"U. c #579709",
"Y. c #599413",
"T. c #658D09",
"R. c #668A18",
"E. c #659A18",
"W. c #4CA300",
"Q. c #4DA603",
"!. c #4DA40D",
"~. c #4FA80D",
"^. c #53A500",
"/. c #54AA00",
"(. c #59AD00",
"). c #53A60D",
"_. c #5DA408",
"`. c #55AB0D",
"'. c #59AE0D",
"]. c #5DB200",
"[. c #56B00D",
"{. c #5DB20D",
"}. c #57A915",
"|. c #5DB316",
" X c #63AD0A",
".X c #61B500",
"XX c #63BA00",
"oX c #69B902",
"OX c #62B50D",
"+X c #64B90D",
"@X c #69BC0D",
"#X c #64A817",
"$X c #61B615",
"%X c #64BA16",
"&X c #69BD16",
"*X c #69BB1B",
"=X c #568A24",
"-X c #6D9529",
";X c #788838",
":X c #6AA922",
">X c #69BB21",
",X c #6DC20E",
"<X c #6CC016",
"1X c #8D8C39",
"2X c #89B03B",
"3X c #93955D",
"4X c #AD8A55",
"5X c #8EAF50",
"6X c #ACA95A",
"7X c #8B876A",
"8X c #958369",
"9X c #9A8675",
"0X c #B19071",
"qX c #BB9879",
"wX c #99A265",
"eX c #ACAF6F",
"rX c #CA9270",
"tX c #D49777",
"yX c #CCA96F",
"uX c #DEA070",
"iX c #B4D87C",
"pX c #A89489",
"aX c #B39788",
"sX c #ACAF8A",
"dX c #C89A86",
"fX c #D9A68A",
"gX c #CFB68F",
"hX c #D5AB98",
"jX c #DBB897",
"kX c #EBAC89",
"lX c #E5BB9A",
"zX c #FEBC97",
"xX c #CBAAA3",
"cX c #CAB6AB",
"vX c #D9B6A9",
"bX c #E8B8A8",
"nX c #F6B8A1",
"mX c #C9CA8F",
"MX c #E6C696",
"NX c #FAD89A",
"BX c #D9C9AD",
"VX c #E9D6A6",
"CX c #F5D9A6",
"ZX c #EECCB4",
"AX c #F4C4B6",
"SX c #FDD9B7",
"DX c #FDE5A8",
"FX c #FAE4B6",
"GX c #FFE6BB",
"HX c #F1DBC9",
"JX c #FCE9C8",
"KX c #FAEFD0",
"LX c #FFF9F4",
/* pixels */
"oX@X@X^.W.K.^.&X^.(.`.K.'.K.K.`.^.^.J.&X X X^.&X/.A.`.OXW.Q.{.+X{.W.K.W.J.|.`.$XW.W.[./.<X]..X'.^._.OX/.^..X@X/.^.W.!.!.J.W.W.^.@X^.+X^.K.K.",
".XoX@XK.^.`.W.%X{.(.{.W.`.Q.K.[./.K.K.&X%X(./.+XW.W.`.%XW.W.+X+XW.W.W.J.K.$X`.$XW./.OX].@X/.+XOX^.'.+X^./.(.<XQ. XK.#XG.K.K.K. X+X^.&XI.W.`.",
".XoX+XK.W.{.J.'.+XW.`.Q.`.|.W.~.{.J.I.+X&X^.K.OXW.W.`.$X/.K.&X'.J.Q.W.J.J.{.^.{.K.{.+X{.+X^.@XOX(..XOX_.(..X&XH.O.X.,.Q F.J.W.$X+X^.OXJ.`.Q.",
".X.X].^.A.'.W.{.+XJ.J.`.Q.%X`.W.'.G.J.'.&X^.J.OXW.K.(.`./.W.<XW.K.F.D.).G.`.K.{.J.OX{.{.(.Q.XX+X+X.XOX@X(. XU.Q % &.*.' $ +.^..X+X(.(.K.{.W.",
"(.].OX/.A.K.'.%X{./.A.(.`.'.`.`.W.K.G. X&X/.W.Q.W.A.{.^.(.`.#XR - - % < T `.W.).T D.+.D.D.D.I.F.@.@.U. X XE.! 5 x.K j.K z.$ I.@X+X(.(./.Q.Q.",
"/.(.+X'.K.J.$XOX^.{.A.W.{./.W.{.K.^.Z.+XOX/.{.K./.Q.$XQ.(.F.& G z.U ;.9 & @.E , o - 7 * ; w a * 3 a 4 *.#.#.1 h.V h.h.k l.& O.@X]..X]./.K.[.",
"^./.+X{.^./.&X/.^.Q.W.A.].[.W././.'.I.+X(./.OXW.Q.`.{.W.I.% >.l.k U K k ! 2 2 n { =.' =.j.j.] j.f.{ j.D j j h.8.v.rXuXtXG d R @X/.@X{./.W.[.",
"^./.'.+XJ.{.OX`.'.W.[.J.(.[./.W.(.%X/.+X^. X{.`.W.{.{.K.R s >.h.rXkXM.h.K a.} ( ( } s.u.~ C / q.B B u.i.a.a.8.8.uXzXzXkXG I r  X/.<X]./.W.{.",
"J.Q.{.{.J.{./.{.'.W.+XW.[.Q.(.W.(.+X(.'.^.{./.`.K.'.^.H.* Y G rXzXzXtX5 a.u.e.^ 9.) t.r.N w.^ 9.9.q.9.7.7.e.u.Z M.zXzX0XG i E ^.^.&X^.^.W.`.",
"J.Q.{.{.W./.W.{.{.^.{.(.@XW.Q.J.(.+X(./.^./.Q.W.K./.W.K.X 4.U bXkXnXk.5 Z 7.0.B q.9.B q.B 9.9.q.q.9.9.9.0.e.N i.M M.fX-.>.X F.I./.+X^.K.W.`.",
").^.{.{.^.Q.Q.`.&X/.{.<X{.Q.Q.J.^.OX(.I.(.W.^.J.W./.W./.R > I M.AXtX1 7.k.B w.B e.e.B p.p.w.9.7.9.9.0.0.0.9.u.k.V D F 6 $ @.^.K.{.{.^.K.W.Q.",
"/.^.{.`.K.W.J.{.{.@X(.<X{.W.W.W.K.$X'.I.OXI.^.{.W.Q.[.W.H.$ *.5 x.8.5 8.B q.9.9.e.u.Z V h 5 e.e.7.7.7.0.e.7.( n 0 -.>.Q R. X].K.+X{.`././.[.",
"Q.^.`.`.J.K.K.{./.@X].@X+XW.W.`.J.'.'.K.^.`.`.W.J.K.[.K.K.F.. & 1 j j u.t.B 9.q.B B s.a.K h. .[ ^ ) 9.7.9.B } x ;.k 6 $. X'..X/..X{.[.K.'.Q.",
"J.`.K.!.A.W.K.%XW..X{.].{./.A.[.K.).OXJ.K.OX`.Q.~.J.[.J.J.'.}.o.p q =.m y./ / y.B ) s.H H |  .[ [ e.^ 9.9.^ i...| b.; @.$X'..X].].%X/.A.`.W.",
"A.`.A.).Z.`.W.{.`.W.].].]./.J.W.^.W.'.^.K.$X!.J.`.K.[.K.G.^.'.).W @ ;.( c / ~ / y.d.z b b 2 H ( ) ` ^ ^ ^ / c l ; 4 7 W @XOX.X].{.%XG.K.Q.`.",
"A.`.A.!.Z.`.K./.{.J.(.].]./.J.W.'.W.^./.'.$X`.A.W.Q.OXQ.W.^.'.).Q : -...y.^ q.~ ^ _ n N.SXlXA H } r.^ ^ ^ r.! M.SXhX@ O.@X@XXX].+X^.A.).W.).",
"A.!.A.W.S./.W.W.&XK.^./.+X/.Q.Q.{.Q.^.^.*X^.Q.!.S.`.'.Q.`.W.Q.^.Q 3 =.[ / q.^ 0.c j.g 4.aXHXqX2 j.u.u.p.p.s.g n.gXKX*.@.@X@X@X(.&XZ.G.K.`.W.",
"Q.W.W.K.|.Q.W.W.&X^.^.(.OX^.Q.{.{.^.Q. X&X/.W.K.K.K.{.Q.{.K.Q.U.%.7 | C ^ 0.0.0.` ] g , o aXxX3 | j.j M 8 ! %.= O cX5.R..X@X.X+XOXJ.J.I.'.W.",
"{.J.[.W.'.`.K.W.%X'.^.^.+XI.Q.`.{.W.^.OX(.'.`.W.W.K.{.^.`.^.Y.2.P 4  .p.^ q.7.9.` ] -.w o qX4Xe ..z M.kXVX0XL < . pX,.$.+XoX.X.X(.I.^.^.).^.",
"{.W.[.`.`.`.J.K.'.'.K.^.OXK.K./.{.W.W.{.K.%X`./.W.J.`.Q.).1.% : 4 A i.9.B 0.0.w.C } ..S y M.x f.c c.NXJXKXKXcX%.$ B.: #. X.X.X.XOX/.)./.'.^.",
"&XK.J.`.K.W.J.G.`.`.^.^.OXW.J.Q.`.^.^./.K.%X`.`.W.J.!.P.3.: :.a e h Z t.0.9.B p.B a.) V [ M f.h j.NXVXFXKXHXKXHX6.%.L 2. X.X.X X+X^.^. X{.(.",
"+X^.G.Q.W.W.J.A.).^.^./.OX^.A.!.`.^.^.^.W.OX{.(.Q.J.H.6.X I 7 q b V N 9.q.q.B e.e.) e.u.r.t.y.l yXNXFXKXsX1.3.n.B.5., X.I..XoX.XOX^.K.(.].].",
"&X^.^.!.W.Q.K.A.W././.^.OX^.G.W.{.^./.^.^.(.@X/.I.P.4.O ,.f G D 5 h C t.r.^ q.^ e.B ^ ^ B w.8 yXMXDXGXVX    +   . 5.9Xc..X(.oX@X(.W.W.(.].].",
"&XI.W.`.W.K.W.A.Q././.^.@X/.Q.W.%XW.W./.[.(.$X#XsXB.: ' e 0 8 h 8 c ( N ~ ^ q.B 9.t.e.^ 0.M 4XNXNXDXFXKX7X  , %.X 8XmX2.%X(.,X,X^.Q.!.Q./.].",
"+X^.G.'.Q.J.W.A.[.{.[.W.+X(. XQ.%XW.J.^.:XwXpX%.$ & 9 t 0 0 h 8 0 h c ( _ _ ^ ^ ~ w.~ ` c v.NXNXCXDXFXJXZX8X. = n.HXwX-X+X.XXX@XW.K.'.^.W..X",
" X'.G.).`.A.~.W.W.{.[.S.{. X$X(.+X).=XpX%.% - 7 A | ] b ~ u.z h 8 0 l m { _ q.q.9./ / d.! yXNXgXCXGXGXFXKXJXFXBXHXmX2XU.W.OX].].^.G.'.`.K..X",
"^.'.G.G.`.J.W.[.W.`.`.Z.'.OXOX^.-Xn., - i *.e b b C ( r.e.C Z C l 0 0 x ! _ / q./ N / ` 7 yXGXCXCXMXSXGXSXSXvXZXVXwX:X!.J.].].(.'.G.'.'.K.(.",
"K.'.W.Z.~.!.S.(.W.'.`.C.^.^.E.B.: % i d w e D J ) ) ^ r.q.B ` ) C h 0 0 x x ~ q.r./ d.} y 6XVXGXJXjXrXfXfXrXp 0XiX2XK.`.W.Q.{./.'.J.|.'.W./.",
"^.K.`.S.A.`.W.[./.{.'.C.J.;XO , g d u A S b z Z u.t.q.^ q.r.) ) ( C x h 0 0 z c M ) ) _ m c.CXFXSXMXz.b.M.-.4.eX5X(.W.`.Q.W.%XQ.^.^.$XJ.W.W.",
"^.`.!.K.J./.Q.&XQ.{.[.H.5.@ :.p q A b 8 0 C k.u.B ^ ^ ^ ^ ^ ^ ` u.e.Z M z z h 0 8 z h l C h yXJXFXGXlXhXfXfXqXeX%X/.`.`.(.W.$XW.^.).$X/.K./.",
"W.`.K.W.W.W.~.[.W.OX^.2.= L i s A 0 8 z e.u.B B 9.r.q.^ ^ q.^ u.r.u.e.9.9.B H b V N z M N h ! yXSXSXJXSXMXjXeX>X[./.{.{.OXQ.$XW.K.OX{.^.J.'.",
"K.^.J.!.S.W.W.`./. X1X$ %.g d t 0 z M B 7.e.e.e.B B ~ q.q./ ^ ^ ^ ^ 7.0.e.e.i.H j.[ 7.t.N ^ 0 l yXlXSXHXBXeXW.%X/.W.]./.@XQ.$XK.J.&X'.J.J.`.",
"W.W.W.~.A.Q.J./. X6X$ g g p s u z M B e.t.^ _ u.z ^ 9.q.^ 9.9.^ 9.9.^ 9.9.9.9.) _ / ^ 0.^ ^ 9.a.h [ m.8XeXQ.W.%XW.Q.^.^.@X].{.K.`.&X/.A.K.).",
"W.W.~.A.A.`.G.^.:X:.e u w d u t z M 7.0.^ ) ^ r.M ) ^ q.^ ^ 9.q.^ 9.^ q./ / 9.9./ ~ ^ 9.^ 9.7.7.8.x.: b.:XQ.K.|.W.Q.^.^.+X@X{.J.{.{.K.A.J.K.",
"K.W.W.A.W.K.A.Q.vXo &.e 9 d t 0 z B 0.9.^ ) ) r.z ~ ^ e.9.9.9.9.q.q.^ 9.^ ^ q.9./ / 9.9.9.9.^ t.u.=.Q ;X).W.W.|.W.^.K.K.{.,XXXQ.OX^.W.Z.K.K.",
"J.W.K.K.`.W.A.|.8X- s e u y u t z 7.0.9.^ e.) ) l ^ ^ 9.^ 9.^ 9.^ 9.^ / / ^ 0.9./ ^ 9.9.9./ q.e.8.4 4X!.`.K.!.$XK.^.W.J.{.+X].].].K.K.A.K.Q.",
"J.W.W.K.'.`.J.5XP P 0 v s 0 t t M 0.q.7.B ^ ) ( h B ^ r.^ 9.9.9.^ 9./ 9.9.9.9.q./ ~ ^ 0.9.^ p.M h.2 ;X).[.W.).'.I.^.^.K.OXOX].]./.K.W.K.J.W.",
"W.J.~.W.W.{.J.HX$ g A v e u t v B 9.0.0.9.) ) ( h B ^ ) ^ e.9.9.q.9.9./ ^ 9.9.0./ / 9.q.9.9.^ M k.5 R.`.`.W.`.^.W.^.K.K.'.].].(.(./.W.!.J.W.",
"!.K.W.~.K.{.I.cX$ d S j 0 v t b B 0.7.0.q.^ ) C 0 N ) q.^ 9.9.9.^ 9.^ 9.^ 9.7.0./ / 9.0.^ 9.N p.g.U Y.W.`.`.`.W.W.^.G.^.'././.^.{.`.W.`.K.K.",
"`.W.A./.Q.).*XpX> ' j h b y 9 C 9.7.7.0.e._ [ ( 8 ~ ) ) ^ r.^ 9.^ 9.9.9.^ 9.7.0.^ ^ 9.e.^ / t.[ V l.#XW.`.{.`.W.).G.G.^./././.W.{.^.W.`.J.W.",
"Q.W.G.W.Q.`.iX9X& A K b 0 v t m e.e.0.0.^ ) [ c l c ) ) ^ ^ 9.9.q.9.^ 9.9.9.0.B N _ q.q.q.) B h.K e #XJ.!.{.W.W.W.K.W./.^.^.W.^.{./.Q.Q.W.W.",
"`.).W.K.W./.LXB.& A ] b 0 u 9 c Z q.7.0.^ ) } z h z ( ) ) ^ ^ 9.^ 9.^ q./ 9.t.B c ^ e.7.` ) ) a.V 4 E.A.!.[.W.~.K.W.Q.[.W.^.^.^.[.].Q.Q.Q.!.",
"'.^.J.Q./.|.LXn.- A  .b 0 u 0 b e.0.0.9.9.[ { x 0 l ) ` ) ^ 9.9.9.^ 9.^ ^ 9.t.B c ( ^ Z 9.) a.V K 2 U.J.`.`.K.!.W.W.J.].K.I.|.)./.[.(.W.`.`.",
"'.K.J.^./.%XLX6.; A | b t 0 0 b ) e.9.B _ ( | x 0 l C [ r.^ ) 9.9.^ q.9.^ 9.e.M c ( ) e.) _ [ h K ; U.Q.W.`.K.W.!.J.J.(.K.'.}.J.Q.(.].W.Q.`.",
"'.K.J.W.Q.+XiX6.- S | H v 0 0 v C ^ 9.^ ) ( ] l 8 0 N ) ` e.) 9.^ q.9.^ 9.9.e.z x _ } e.) ( M 8 h.1 U.W.J.'.K.G.!.J.W.'.J.$XP.G.W./.{.A.^.'.",
"`.K.A.W.`.{.#X9X& G H [ S 9 e l z ^ 9.r.` ..n l 0 h c ( ) e.^ 9.9.^ 9.^ q.^ e.z x _ ) ) ( C h j h.4 D./.J.Q.`.K.K.W./.{. X|.K.J.J.(.].W.K.^.",
"^.K.A.W.{.`.).aX% S D  .| q v t h N ^ ) ( ] l t 0 0 x ~ ) e.^ e.9.^ 9.q.^ 9.) l t ! c C c l 0 z h.2 H.{.K.W.`.W.A.Q.OX/.OX`.J.J.A.Q.(.W.^.^.",
"K.^.W.W.|.`.Q.wX$ G D ..[ 0 l 0 8 l C ~ m x t t 0 0 l m ) ` ) 9.^ q.9.^ ^ 9.Z 0 9 t t l h 8 z J h.- K./.W.J.'.Q.Z.W.{.OX'.K.K.J.S.K./.I.).J.",
"K.`.`.W.$XK._.#X+ f D i.C Z 8 0 h l t 0 9 u t l y 0 t x ( [ e.B 9.^ ^ ^ ^ ) z 0 u y y y t h ) B a.: ^./.Q.J.{.W.J.^.{.{.^.K.!.!.A.W.W.W.!.J.",
"G.`.|.W.'.J.`.^.R 7 b ) t.9.B h 0 0 u u u t t y 0 9 0 v C } ^ 9.q.9.q.r.` Z j j d y y y t z B 7.k.= I./.`.W.%XJ.W.^.OXOXJ.^.!.!.W.J.W.J.P.J.",
"A.`.{.W.W.K._.K.F.& ' z p.7.e.c 0 9 t v u t t 0 9 9 9 t b } ) q.q.7.q.e.} l 5 a e u 9 9 x ~ e.e.g.R ^./.`.{.{.G.^.^.{.'.W.W.J.!.K.A.W.J.P.H.",
"A.`.%XW.K.K.}.J.K.9 F m ] ) ) ] m l 9 9 t t t t t u 0 9 x ) ^ q.9.^ r.C H ] k a q u 0 l C ( ) a.v o.(./.+X+XOXK./.^.'.{.W.).J.).!.A.K.W.K.P.",
"J.W.&X(.W.W.$X^.K.T.3 S C i.( [ } m l 0 0 l t t t u e 9 l N ` 9.B q.p.J U N.U q e v h z B u.J h.# D.OX^.+XOXOXI.^.'.^.OXK.).!.J.Q.Q.W.W.).J.",
"{.W.{.].(.^.+X).K.^.% 0 A ] ] [ } [ ( ! c l h y u t 9 t l x / / ^ r.s.J k fXm.6 a l M B 7.e.[ =.: H.OX'.OXOX^.K.^.OXK.OXJ.^.'.J.A.%XW.`.'.W.",
"`.(./.]..X^.OX^.K.^.T.4 A b  .[ [ ` ` ` ~ c b S s e 9 u t l ~ q.^ e.8.g.5 bXaX& G j B 7.7.e...t o.K.^.OX(..X/.K.^.+X^.'.K.K.).K.W.|.K.'.^.$X",
"K.{.(.].].^.<XW.H./.'.7 f e S ] [ ( ^ ^ r.` ] =.F w 7 u t 0 c q.B e.Z l.1 bXxX$ F j B 0.0.^ ;., U.K.^./.(./.(.J.J.+X(././.G.!.W.W.+X^.^.K.'.",
"K.`.&X(.@XOX+X/.G.^.).E.# S v m C i.r.~ q.) ..S M.m.; w 9 l x / ^ 9.J l.1 bXvX= g m e.0.B t.{ 7  X^.K.^.'.^./.^.G.OX{.Q.`.K.J.`.Q.|./.W.W.A.",
"W.W.OX(.@X@X+X^.G.K.^.&XW & s m Z r.^ ^ q.~ s.2 fXdX# G 9 t x ^ ^ e.J h.1 bXHX$ d l r.q.^ ( { W  X^.W./.{.^.^.'.^.^.+X/.W.W.J.`.`.{.W.W.W.K.",
"W.S.'..XoXOX|.^.^.^.^.$XU.t 7 b V ) ^ 9.q.~ f.; SXjX@ I w v l ~ / q.) g.5 xXvXo g x e.~ ^ d.y #.#X/.K./.{.K.W.`.'.W.&X`.K.W.J.`.`.[.K.W.W.[.",
"Q.J.I..X.X.X X^.{.'.K.'.).O.& v C e.9.9.w.^ ( u JXAX& Y a 0 0 ~ / q.B s.5 dXvXo *.l ) B 9.d.n X. X/.K.^.'.J.W./.'.^.+X`.Q.Q.K.`.W.[.W.J.W.[.",
"W.Q.K.(.(.(. X^.OX`.K./.`.@.# u [ e.e.9.q.^ ) | JXbX# P f e 0 N / / ^ u.k V.hX* S l } r.^ ( ..7 #X^.I.K.`.J.K.^.{.].[././.[.K./.W.`.J.K.(.|.",
"W.~.K.^..X/.OX^.{.`.W.K.'.+.$ A [ e.e.B ~ ` i.n JXbX@ Y P a 0 c q./ ^ } V x.V.; A k [ ) e.) f.8 $.^.W.G.`.J.J.^.[.`.W.(.^.{.A.W.K.Q.A.Q.%X|.",
"J.!.).W./.^.^.^.%XW.Q.K.).o.- S ] Z e.B ^ r._ v hXxX: Y f p t x / / / r.J h.-.4 A b C Z t.e.s.=.q F.^.J.W.W.G.`.|./.J.Q.K.[.J.K.W.W.J.Q.{.Q.",
"J.!.).W.^./.W.^.{.'.K.Q.K.R > I D V s.) ( i.| U >.Y # * 6 G u x / ^ ^ } [  .G a e v H ]  .h [ &.- : U.K.W.W.J.`.{.W.W.W.J.{.K.W.W.W.J./.{.W.",
"K.K.!.`.W.W.^.^.Q.%XW.W.J.E O P >.l.>.h.g.4 4., P n.3X;X%.i P s =.' g.m j.| -.U 7 a &.I <.j.P ,.R.W Y.~.W.W.W.`.Q.Q.W.W.W.|.!.!.K.!.K.[.{.K.",
"Q.K.W.~.J.J./././.{.W.`.A.D.R % @ : 6 * p 4.P eX6.3X}.W.K.X P P I :.*.4 3 z.s 7 >.> * : , U.U.X.Y.Y.R.P.W.W.~.~.S.W.A.W.Q.~.!.!.J.J.K.`.^.W.",
"{.W.J.W.G.J.W.Q.[.Q.W.!.`.A.H.F.@.@.O.@.F.Y.=XE.-XY.[.W.L.D.$ = @ L <.D.F.{ #X2.$.D.@.R.U.U.).Y.!.|.}.J.~.!.W.W.J.J.A.S.[.|.J.!.G.P.K.!.J.W.",
"&XW.S.W.A.J.J.!.~.K.!.S.|.W.K.A.!.A.P.G.L.J.J.J.W.A.[.W.A.J.A.+.2.6.5.D.D.,.}.H.D.A.K.&XQ.{.K.~.|.A.J.W.!.|.W.S.J.J.W.W.|.~.S.J.P.A.A.W.J.J.",
"{.Q.S.W.S.A.W.!.!.C.A.S.!.`.K.A.J.S.L.J.A.J.L.J.W.A.[.L.S.A.S.L.A.Z.Z.L.A.H.[.A.A.A.J.|./.(.A.}.~.S.A.W.!.`.A.A.A.J.J.W.|.A.A.S.L.A.L.G.A.W.",
"W.Q.S.A.S.A.A.S.!.C.A.S.S.~.~.A.A.S.!.A.S.A.~.A.S.J.`.S.Z.S.S.S.S.Z.A.!.A.A.~.S.A.C.S./.(.Q.S.[.S.S.S.A.S.~.S.W.S.S.S.~.`.S.~.S.S.A.!.A.A.!."
};
