/* XPM */
static char *result[] = {
/* columns rows colors chars-per-pixel */
"70 70 249 2 ",
"   c #000000",
".  c #0E0000",
"X  c #180000",
"o  c #140013",
"O  c #230000",
"+  c #2C0300",
"@  c #3C0100",
"#  c #380400",
"$  c #391A04",
"%  c #2B1614",
"&  c #301016",
"*  c #3B2514",
"=  c #3C292A",
"-  c #39322E",
";  c #382B35",
":  c #3C3537",
">  c #2B2A2A",
",  c #221E27",
"<  c #480000",
"1  c #560401",
"2  c #571703",
"3  c #581B13",
"4  c #461901",
"5  c #671803",
"6  c #492504",
"7  c #5B2708",
"8  c #49281B",
"9  c #552917",
"0  c #4B351C",
"q  c #573518",
"w  c #593B00",
"e  c #662704",
"r  c #742903",
"t  c #783205",
"y  c #682B18",
"u  c #683618",
"i  c #763A18",
"p  c #6B2B13",
"a  c #452A26",
"s  c #4C3424",
"d  c #493529",
"f  c #563825",
"g  c #473938",
"h  c #543836",
"j  c #4F2C2B",
"k  c #673827",
"l  c #783924",
"z  c #65332A",
"x  c #6D5502",
"c  c #76441D",
"v  c #6D5218",
"b  c #684C12",
"n  c #5A492A",
"m  c #4A4239",
"M  c #564638",
"N  c #684728",
"B  c #79482A",
"V  c #694738",
"C  c #7B4835",
"Z  c #675637",
"A  c #75583C",
"S  c #725526",
"D  c #736437",
"F  c #584309",
"G  c #3A3644",
"H  c #443E45",
"J  c #3E4044",
"K  c #494447",
"L  c #544B4B",
"P  c #584946",
"I  c #5D5549",
"U  c #534C53",
"Y  c #5B4E54",
"T  c #4D545A",
"R  c #545554",
"E  c #54545C",
"W  c #5C565A",
"Q  c #5B5758",
"!  c #4C4D56",
"~  c #694C45",
"^  c #685748",
"/  c #785847",
"(  c #625C5D",
")  c #665855",
"_  c #735450",
"`  c #796449",
"'  c #69645A",
"]  c #766759",
"[  c #71674C",
"{  c #5E5B62",
"}  c #595B67",
"|  c #4F5761",
" . c #625D63",
".. c #695B61",
"X. c #5C6A6B",
"o. c #6A6362",
"O. c #68676A",
"+. c #746A69",
"@. c #79746B",
"#. c #6A6C72",
"$. c #696B75",
"%. c #736E72",
"&. c #6D757A",
"*. c #6C7578",
"=. c #737476",
"-. c #7B7475",
";. c #72757B",
":. c #7A737B",
">. c #71797C",
",. c #7C7B7B",
"<. c #7E7A74",
"1. c #6F7169",
"2. c #5E625D",
"3. c #843504",
"4. c #853A19",
"5. c #943106",
"6. c #864619",
"7. c #984618",
"8. c #944E0C",
"9. c #A54904",
"0. c #A44C17",
"q. c #AB5318",
"w. c #BE5613",
"e. c #B8571B",
"r. c #B55008",
"t. c #824C25",
"y. c #864827",
"u. c #97572A",
"i. c #844D34",
"p. c #875839",
"a. c #975C3D",
"s. c #924B25",
"d. c #B75A28",
"f. c #A65429",
"g. c #986739",
"h. c #886B3E",
"j. c #BB6528",
"k. c #A86939",
"l. c #B56E39",
"z. c #A77439",
"x. c #B97536",
"c. c #CC5404",
"v. c #C4540C",
"b. c #C95507",
"n. c #C25513",
"m. c #C35914",
"M. c #C25A1B",
"N. c #CA5717",
"B. c #C14800",
"V. c #C97331",
"C. c #D37801",
"Z. c #895B45",
"A. c #8F594A",
"S. c #89664A",
"D. c #976747",
"F. c #947A4B",
"G. c #8D6957",
"H. c #966A55",
"J. c #8E7553",
"K. c #977A54",
"L. c #82724A",
"P. c #A86C47",
"I. c #AC754C",
"U. c #B67748",
"Y. c #A67757",
"T. c #B67C57",
"R. c #A36E53",
"E. c #85756A",
"W. c #987B6B",
"Q. c #867B78",
"!. c #876B60",
"~. c #B07B62",
"^. c #C17B60",
"/. c #B28437",
"(. c #DE8635",
"). c #9D8455",
"_. c #A68558",
"`. c #B7875A",
"'. c #B28849",
"]. c #9E8164",
"[. c #88807B",
"{. c #95867A",
"}. c #B78766",
"|. c #BA8C73",
" X c #B0926F",
".X c #B1A07F",
"XX c #CC884A",
"oX c #D3864A",
"OX c #C68758",
"+X c #D38B57",
"@X c #D79557",
"#X c #C7925C",
"$X c #E49C5C",
"%X c #DDA65A",
"&X c #E6A45B",
"*X c #F1A25D",
"=X c #C49567",
"-X c #D79869",
";X c #C89675",
":X c #D69877",
">X c #C98967",
",X c #E69D66",
"<X c #EF9D6C",
"1X c #DCA667",
"2X c #DAA476",
"3X c #C5A46D",
"4X c #E4A363",
"5X c #EAA362",
"6X c #E3A36A",
"7X c #E8A968",
"8X c #E6A975",
"9X c #F2AF72",
"0X c #ECC17B",
"qX c #697182",
"wX c #757984",
"eX c #6C6F88",
"rX c #8A7F8A",
"tX c #6F818F",
"yX c #838384",
"uX c #8A8788",
"iX c #958A87",
"pX c #95928E",
"aX c #878A92",
"sX c #8A9198",
"dX c #979597",
"fX c #8F918B",
"gX c #A2958C",
"hX c #A69B86",
"jX c #A59B94",
"kX c #BDA895",
"lX c #999AA3",
"zX c #8E99A0",
"xX c #A8A7A7",
"cX c #B5ABA5",
"vX c #BFB6B3",
"bX c #A59BA5",
"nX c #D7A787",
"mX c #D0B489",
"MX c #ECB484",
"NX c #C3BCAF",
"BX c #C09F80",
"VX c #BEC1AD",
"CX c #EBC593",
"ZX c #D2C3B3",
"AX c #EDCE98",
"SX c #D7CECF",
"DX c #FCFBF5",
"FX c #F7EDF2",
"GX c None",
/* pixels */
"GXGXGXGXGXGXGXGXGXGXGXGXGXGXGXGXGXGXGXGXGXGXGXGXGXGXGXGXGXGXGXGXGXGXGXGXGXGXGXGXGXGXGXGXGXGXGXGXGXGXGXGXGXGXGXGXGXGXGXGXGXGXGXGXGXGXGXGXGXGX",
"GXGXGXGXGXGXGXGXGXGXGXGXGXGXGXGXGXGXGXGXGXGXGXGXGXGXGXGXGXGXGXGXGXGXGXGXGXGXGXGXGXGXGXGXGXGXGXGXGXGXGXGXGXGXGXGXGXGXGXGXGXGXGXGXGXGXGXGXGXGX",
"GXGXGXGXGXGXGXGXGXGXGXGXGXGXGXGXGXGXGXGXGXGXGXGXGXGXGXGXGXGXGXGXGXGXGXGXGXGXGXGXGXGXGXGXGXGXGXGXGXGXGXGXGXGXGXGXGXGXGXGXGXGXGXGXGXGXGXGXGXGX",
"GXGXGXGXGXGXGXGXGXGXGXGXGXGXGXGXGXGXGXGXGXGXGXGXGXGXGXGXGXGXGXGXGXGXGXGXGXGXGXGXGXGXGXGXGXGXGXGXGXGXGXGXGXGXGXGXGXGXGXGXGXGXGXGXGXGXGXGXGXGX",
"GXGXGXGXGXGXGXGXGXGXGXGXGXGXGXGXGXGXGXGXGXGXGXGXGXGXGXGXGXGXGXGXGXGXGXGXGXGXGXGXGXGXGXGXGXGXGXGXGXGXGXGXGXGXGXGXGXGXGXGXGXGXGXGXGXGXGXGXGXGX",
"GXGXGXGXGXGXGXGXGXGXGXGXGXGXGXGXGXGXGXGXGXGXGXGXGXGXGXGXGXGXGXGXGXGXGXGXGXGXGXGXGXGXGXGXGXGXGXGXGXGXGXGXGXGXGXGXGXGXGXGXGXGXGXGXGXGXGXGXGXGX",
"GXGXGXGXGXGXGXGXGXGXGXGXGXGXGXGXGXGXGXGXGXGXGXGXGXGXGXGXGXGXGXGXGXGXGXGXGXGXGXGXGXGXGXGXGXGXGXGXGXGXGXGXGXGXGXGXGXGXGXGXGXGXGXGXGXGXGXGXGXGX",
"GXGXGXGXGXGXGXGXGXGXGXGXGXGXGXGXGXGXGXGXGXGXGXGXGXGXGXGXGXGXGXGXGXGXGXGXGXGXGXGXGXGXGXGXGXGXGXGXGXGXGXGXGXGXGXGXGXGXGXGXGXGXGXGXGXGXGXGXGXGX",
"GXGXGXGXGXGXGXGXGXGXGXGXGXGXGXGXGXGXGXGXGXGXGXGXGXGXGXGXGXGXGXGXGXGXGXGXGXGXGXGXGXGXGXGXGXGXGXGXGXGXGXGXGXGXGXGXGXGXGXGXGXGXGXGXGXGXGXGXGXGX",
"GXGXGXGXGXGXGXGXGXGXGXGXGXGXGXGXGXGXGXGXGXGXGXGXGXGXGXGXGXGXGXGXGXGXGXGXGXGXGXGXGXGXGXGXGXGXGXGXGXGXGXGXGXGXGXGXGXGXGXGXGXGXGXGXGXGXGXGXGXGX",
"GXGXGXGXGXGXGXGXGXGXGXGXGXGXGXGXGXGXGXGXGXGXGXGXGXGXGXGXGXGXGXGXGXGXGXGXGXGXGXGXGXGXGXGXGXGXGXGXGXGXGXGXGXGXGXGXGXGXGXGXGXGXGXGXGXGXGXGXGXGX",
"GXGXGXGXGXGXGXGXGXGXGXGXGXGXGXGXGXGXGXGXGXGXGXGXGXGXGXGXGXGXGXGXGXGXGXGXGXGXGXGXGXGXGXGXGX%.+.%.dXGXGXGXGXGXGXGXGXGXGXGXGXGXGXGXGXGXGXGXGXGX",
"GXGXGXGXGXGXGXGXGXGXGXGXGXGXGXGXGXGXGXGXGXGXGXGXGXGXGXGXGXGXGXGXGXGXGXGXGXGXGXGXGXGXGXGXK Q.uXuX,.) [.GXGXGXGXGXGXGXGXGXGXGXGXGXGXGXGXGXGXGX",
"GXGXGXGXGXGXGXGXGXGXGXGXGXGXGXGXGXGXGXGXGXGXGXGXGXGXGXGXGXGXGXGXGXGXGXGXGXGXGXGXGXGXGXR uXiX%.:.tXiX[.2.Q.GXGXGXGXGXGXGXGXGXGXGXGXGXGXGXGXGX",
"GXGXGXGXGXGXGXGXGXGXGXGXGXGXGXGXGXGXGXGXGXGXGXGXGXGXGXGXGXGXGXGXGXGXGXGXGXGXGXGXGXGX' rXpX#.;.;.*.&.tXfXyX) [.GXdXQ.GXGXGXGXGXGXGXGXGXGXGXGX",
"GXGXGXGXGXGXGXGXGXGXGXGXGXGXGXGXGXGXGXGXGXGXGXGXGXGXGXGXGXGXGXGXGXGXGXGXGXGXGXGXGXuX1.pX$.;.;.;.;.>.*.#.yXpXyX^ + < 1 ~ GXGXGXGXGXGXGXGXGXGX",
"GXGXGXGXGXGXGXGXGXGXGXGXGXGXGXGXGXGXGXGXGXGXGXGXGXGXGXGXGXGXGXGXGXGXGXGXGXGXGXGXxX( pX>.*.>.;.;.;.>.>.qX*.$.wXdXpXE._   GXGXGXGXGXGXGXGXGXGX",
"GXGXGXGXGXGXGXGXGXGXGXGXGXGXGXyXGXGXGXGXGXGXGXGXGXGXGXGXGXGXGXGXGXGXGXGXGXGXGXGXY sXyX*.;.*.&.;.;.;.>.*.wX>.qXeXwXfXpX+.@.GXGXGXGXGXGXGXGXGX",
"GXGXGXGXGXGXGXGXGXGXGXGXGXGXGXM GXGXGXGXGXGXGXGXGXGXGXGXGXGXGXGXGXGXGXGXGXGXGX1.Q.fX$.>.;.;.>.;.>.=.=.>.=.;.;.;.;.$.wXsXuX} :.GXGXGXGXGXGXGX",
"GXGXGXGXGXGXGXGXGXGXGXGXGXGXgXE.GXGXGXGXGXGXGXGXGXGXGXGXGXGXGXGXGXGXGXGXGXGXGXo.iX*.>.>.*.;.;.*.*.>.=.=.;.;.;.1.=.:.:.&.wXsXrX^ 1.GXGXGXGXGX",
"GXGXGXGXGXGXGXGXGXGXGXGXGXGX` {.GXGXGXGXGXGXGXGXGXGXGXGXGX[.cXGXGXGXGXGXGXGXGX+ :.;.*.>.>.;.=.;.*.>.;.;.;.;.*.*.-.;.>.*.&.}  .L =   @.GXGXGX",
"GXGXGXGXGXGXGXGXGXGXGXGXGX^ mX.XGXGXGXGXGXGXGXGXGXGXGXGX.X|.GXGXGXGXGXGXGXGXGXL   ..O.;.:.>.>.;.>.;.;.;.=.;.:.:.;.;.*.wXO.Y g g W { G . <.GX",
"GXGXGXGXGXGXGXGXGXGXGXGXjXD.CX].GXGXGXGXd Q.GXGXGXGXGXGX}.hXGXGXGXGXGXGXGXGXGXGXiX. a ..O.;.>.;.;.;.;.;.;.;.;.wX;.;.&.O.Y g g ) E T }  .= O ",
"GXGXGXGXGXGXGXGXGXGXGXGX^ .XCX2XQ.GXGX  I P   ( GXGXGX{.CX}.xXGXGXGXGXGXGXGXGXGXGXGXrXX : W #.$.;.:.=.*.;.*.;.:.*.wXO.) H g W Y E | |  .g Q.",
"GXGXGXGXGXGXGXGXGXGXGXGXq 3X3XCXmX_   ) uXjXxXsX! Y  .hXAX3XE.GXGXGXGXGXGXGXGXGXGXGXGXGXQ.. ; E #.%.:.;.=.;.;.=.>.*.W L ; R Q R T R Q L : GX",
"GXGXGXGXGXGXGXGXGXGXGXGXo. X3X3XmXAXkX^ =.dXlXxXdX=.K /  X;X/ GXGXGXGXGXGXGXGXGXGXGXGXGXGXGX-.K U { O.*.;.;.&.wX*.Q Y > U Q T T R R '   GXGX",
"GXGXGXGXGXGXGXGXGXGXGXGXGX@ 3X3X3X8XCX.X  +.{ Y Q O.o.% P Z.Q.GXGXGXGXGXGXGXGXGXGXGXGXGXGXGXGX@.  P Y ( $.&.wXwXo.~ ; L E T T E Y ..  GXGXGX",
"GXGXGXGXGXGXGXGXGXGXGXGXGXjXb |.3X`.`.S.% M P P K ! R ) h O ] GXGXGXGXGXGXGXGXGXGXGXGXGXGXGXGX1 l k $   ;  .&. .Q g g E E E E T  .> Q.GXGXGX",
"GXGXGXGXGXGXGXGXGXGXGXGXGXGX[.  ` ^ Y { wX..+.cXuX2.1.<.cX{.g g GXGXGXGXGXGXGXGXGXGXGXGXGXGXh r S.1 ] GXQ.  g ..L - R E | E W { K Y GXGXGXGX",
"GXGXGXGXGXGXGXGXGXGXGXGXGX+.I ' ' [.NXU $.W L ' R : K K ' R ( ' a GXGXGXGXGXGXGXGXGXA |.p.X q k V 4 GXGXGXGX%.O   L o.T T E W Q   GXGXGXGXGX",
"GXGXGXGXGXGXGXGXGXGXGXGX  {.bXR o.H K ; ; H / N A ` _ Z.N f Y + o.GXGXGXGXGXGXGXGX{.i.nXY.|.~.G.O jXGXGXGXGXGXGX-.O : { { 2.o.  GXGXGXGXGXGX",
"GXGXGXGXGXGXGXGXGXGXGXGXX Q.Q.  G V B H.~.~.I.>X2X8X8X8X6X2Xp.% GXGXGXGXGXGXGXGXGXGX< Y.i.h Y.8XnX/ GXGXGXGXGXGXGXGXQ.o , g   GXGXGXGXGXGXGX",
"GXGXGXGXGXGXGXGXGXGXGXGX- $ $ G.`.@XV.-XnXi 0.u.u.I.-X,XU.a.5.G.GXGXGXGXGXGXGXGXGXGXG.5 H._ q p.;Xe GXGXGXGXGXGXGXGXGXGXGX[.GXGXGXGXGXGXGXGX",
"GXGXGXGXGXGXGXGXGXGXGXGXGX# nXnX`.l.l.,X>X5 s.q.d.7.H.|.y.d.5./ GXGXGXGXGXGXGXGXGXGXP < ].`.-XT.k + GXGXGXGXGXGXGXGXGXGXGXGXGXGXGXGXGXGXGXGX",
"GXGXGXGXGXGXGXGXGXGXGXGXGX< ;XD.U.`.@X@Xj.l.C y l 5 y A.l z 1 G.GXGXGXGXGXGXGXGXGX@.  ^ M k.$X-XG.e iXGXGXGXGXGXGXGXGXGXGXGXGXGXGXGXGXGXGXGX",
"GXGXGXGXGXGXGXGXGXGXGXGX< / i.a.h.-X7X&XoXk.P.V f A S. XG.a 1 W.GXGXGXGXGXGXGXGXGX  |.}.Z.C i.B G.< GXGXGXGXGXGXGXGXGXGXGXGXGXGXGXGXGXGXGXGX",
"GXGXGXGXGXGXGXGXGXGXGXB U.P.y.D.k.+X9X<X2XU.u.a.:X8X1X0XMX:XA.W.GXGXGXGXGXGXGXGXO e S.I.8X8XS.~ G.  GXGXGXGXGXGXGXGXGXGXGXGXGXGXGXGXGXGXGXGX",
"GXGXGXGXGXGXGXGXGXQ.R.8X^.V.g.A.:X^.V.l.T.:X+Xu.>XOXk.U.^.D.H.A.GXGXGXGXGXGXGXz r V s P.oX-XH.& P O GXGXGXGXGXGXGXGXGXGXGXGXGXGXGXGXGXGXGXGX",
"GXGXGXGXGXGXpXK.z.-X8X*X+XP.k.9.f.0.B.B.5.D.R.i e z p r r t B 7 0 GXGXGXGXGX-.1 i.y.a a B 7   g ) . GXGXGXGXGXGXGXGXGXGXGXGXGXGXGXGXGXGXGXGX",
"GXGXGXGXE.z.-X2X8X7X1X*X+XD.7.b.e.d.N.N.d.3.5 f.q.B.n.M.d.w.M.f.f ~ {.pXGXuX< B 6.u = a * $ L -.( ; GXGXGXGXGXGXGXGXGXGXGXGXGXGXGXGXGXGXGXGX",
"GXGXiXz.1X7X7X,X,X4X1X5X+Xp.0.b.n.v.w.M.7.7.d.N.c.N.j.s.B d.N.N.0.Y.>X;XZ.@ C y.N j U |  .-.:.Q.> ,.GXGXGXGXGXGXGXGXGXGXGXGXGXGXGXGXGXGXGXGX",
"GXGXP.MX%X%X5X5X,X&X&X4X@Xt.7.N.B.c.M.0.4.d.M.r.7.i u p 4.l y.r.w.7.;X;Xk 4.y.l s K O.wXzXsX>.,.  GXGXGXGXGXGXGXGXGXGXGXGXGXGXGXGXGXGXGXGXGX",
"GX1 8X,X1X1X1X4X7X4X7X<XXXB 3.w.b.N.d.i 4.0.3.3 9 t 9.c.c.9.4.p l y j f u c B u K } $.aXlXsX>.-.  GXGXGXGXGXGXGXGXGXGXGXGXGXGXGXGXGXGXGXGXGX",
"GXr $X*X,X6X&X&X4X4X4X+X`.p.r q.n.c.0.9 p p 4.0.e.n.v.m.w.M.v.e.0.s.# q B y.q * } qX<.iXdXaXuXY +.GXGXGXGXGXGXGXGXGXGXGXGXGXGXGXGXGXGXGXGXGX",
"GXr +X*X4X1X4X4X6X4X7XOXi.I.5 0.n.d.0.5 7.q.N.b.c.v.n.w.w.w.b.c.d.y.9 t.t.u C y.G X.fXjXxXwXO.  GXGXGXGXGXGXGXGXGXGXGXGXGXGXGXGXGXGXGXGXGXGX",
"GX1 `.@X7X$X4X4X6X6X4X-Xz T.p 3.e.n.r.r.M.M.n.v.v.w.w.v.b.v.v.N.s.3 i s.c 9 k.+XP.z ) o..._ u ) GXGXGXGXGXGXGXGXGXGXGXGXGXGXGXGXGXGXGXGXGXGX",
"GXM 8.XX,X5X$X&X6X4X4XT.1 D.D.3 7.r.c.c.N.e.e.n.v.w.n.v.v.w.e.f.y u 6.6.3 a.@X&X4X-X^.T.'.8Xu.GXGXGXGXGXGXGXGXGXGXGXGXGXGXGXGXGXGXGXGXGXGXGX",
"GXGXh a.`.,X5X&X4X4X@Xk.P.u.V Z.5 7.d.n.n.v.c.c.v.v.v.c.B.m.d.i 7 6.t.u y.OX7X6X%X%X7X&X9X'.Q.GXGXGXGXGXGXGXGXGXGXGXGXGXGXGXGXGXGXGXGXGXGXGX",
"GXGXGX8 p.U.+X&X1X,X*X@XU.U.p.p.H.1 l s.q.m.N.N.n.n.M.m.e.d.y.9 c y.u 9 P.@X<X8X6X&X&X9X+X_ GXGXGXGXGXGXGXGXGXGXGXGXGXGXGXGXGXGXGXGXGXGXGXGX",
"GXGXGXV I.@X5X&X4X6X,X*X$Xx.P.f R.I.y.5 e 4.7.7.0.0.q.9.0.4.9 N y.y.a s 8.+X6X4X6X2X1XU._ GXGXGXGXGXGXGXGXGXGXGXGXGXGXGXGXGXGXGXGXGXGXGXGXGX",
"GXGXGX] k.,X5X1X1X,X&X7X=Xg.k j = S k.U.k.i k 7 y u e p z 3 b t.y.z p.S.iX{.H.F.G.W.{.GXGXGXGXGXGXGXGXGXGXGXGXGXGXGXGXGXGXGXGXGXGXGXGXGXGXGX",
"GXGXGXGXt -X7X4X4X6X6XK.M Y g % - G - S.-X-X-X+XXXx.`.}.k e t.t.5 R./.{.GXGXGXGXGXGXGXGXGXGXGXGXGXGXGXGXGXGXGXGXGXGXGXGXGXGXGXGXGXGXGXGXGXGX",
"GXGXGXGXe T.I.7X*X2XZ.U ) m K ' ( | | G M T.-X>XP.f.T.H.2 B C u 3 }.z.iXGXGXGXGXGXGXGXGXGXGXGXGXGXGXGXGXGXGXGXGXGXGXGXGXGXGXGXGXGXGXGXGXGXGX",
"GXGXGXGX~ P.p.k.2XS.O.1., W ;.;.;.$.} W U - . N h.D.k @ c c l f i.A.1 GXGXGXGXGXGXGXGXGXGXGXGXGXGXGXGXGXGXGXGXGXGXGXGXGXGXGXGXGXGXGXGXGXGXGX",
"GXGXGXGXGXe }.i.h O.,.> Q.aXwXqX;.-.%.o.E  .Q * S S.N l t.c u j.(.(.r.iXGXGXGXGXGXGXGXGXGXGXGXGXGXGXGXGXGXGXGXGXGXGXGXGXGXGXGXGXGXGXGXGXGXGX",
"GXGXGXGXGX* D.~.j Q.T  .jXdXsXwX&.-.-.wX$.U : S.H.o 3 i.t.9 S x.C.(.9.iXGXGXGXGXGXGXGXGXGXGXGXGXGXGXGXGXGXGXGXGXGXGXGXGXGXGXGXGXGXGXGXGXGXGX",
"GXGXGXGXGXh q C V ) ; wXsXsXzXzXaX>.;.wX#.= D.8X8X>Xl 7 7 H.A.b k.x.r GXGXGXGXGXGXGXGXGXGXGXGXGXGXGXGXGXGXGXGXGXGXGXGXGXGXGXGXGXGXGXGXGXGXGX",
"GXGXGXGXGXuX# M a g : ;.wXaXsXdXdXsX>.;.K A 8X5X%X8X8XT.N H.C 0 Z N + GXGXGXGXGXGXGXGXGXGXGXGXGXGXGXGXGXGXGXGXGXGXGXGXGXGXGXGXGXGXGXGXGXGXGX",
"GXGXGXGXGXGX# E.m - m ( #.*.wXrXaXyX=. .0 =X9X$XU.g.=X~.z f I ' @.Z [ GXGXGXGXGXGXGXGXGXGXGXGXGXGXGXGXGXGXGXGXGXGXGXGXGXGXGXGXGXGXGXGXGXGXGX",
"GXGXGXGXGXGXP [ ] ^ m g L  .O.&.*.*.*.G / 8X@X7X6X`.C 6 V / [ ] E.$ [.GXGXGXGXGXGXGXGXGXGXGXGXGXGXGXGXGXGXGXGXGXGXGXGXGXGXGXGXGXGXGXGXGXGXGX",
"GXGXGXGXGXGXGX  @.] ^ M h g L { $.X.T G `.8XP.g.#X-XZ.n ] [ D ` Z X GXGXGXGXGXGXGXGXGXGXGXGXGXGXGXGXGXGXGXGXGXGXGXGXGXGXGXGXGXGXGXGXGXGXGXGX",
"GXGXGXGXGXGXGXo.6 ^ M m P d = g m Z ! h #X9X6X~.C 7 j m m g m I   GXGXGXGXGXGXGXGXGXGXGXGXGXGXGXGXGXGXGXGXGXGXGXGXGXGXGXGXGXGXGXGXGXGXGXGXGX",
"GXGXGXGXGXGXGXGX. M 0 0 0 f 0 9 0 m a j t.x.-X:XS.  d a d s M   -.GXGXGXGXGXGXGXGXGXGXGXGXGXGXGXGXGXGXGXGXGXGXGXGXGXGXGXGXGXGXGXGXGXGXGXGXGX",
"GXGXGXGXGXGXGXGXX ).F.).J.J.K._.S.+ Q.s q V k j N J.J.J.K.K._.S iXGXGXGXGXGXGXGXGXGXGXGXGXGXGXGXGXGXGXGXGXGXGXGXGXGXGXGXGXGXGXGXGXGXGXGXGXGX",
"GXGXGXGXGXGXGXGXI n Z Z Z n Z n n pXSXQ.  e #   F A D D D D [ 6 +.GXGXGXGXGXGXGXGXGXGXGXGXGXGXGXGXGXGXGXGXGXGXGXGXGXGXGXGXGXGXGXGXGXGXGXGXGX",
"GXGXGXGXGXGXGXGXGX  Z n n Z N 6 K SXDXFXNXuXcXSXo.  [ ` D 8 8 f Z ' ] GXGXGXGXGXGXGXGXGXGXGXGXGXGXGXGXGXGXGXGXGXGXGXGXGXGXGXGXGXGXGXGXGXGXGX",
"GXGXGXGXGXGXGXGXGX@ ].K.).)._._.F.u cXDXDXDXDXDX[.F  X).F.).).).).).K.2 GXGXGXGXGXGXGXGXGXGXGXGXGXGXGXGXGXGXGXGXGXGXGXGXGXGXGXGXGXGXGXGXGXGX",
"GXGXGXGXGXGXGXGXGX  A S N v b x S w   GXGXVXZXGX]   S x x x x v v v ` < L GXGXGXGXGXGXGXGXGXGXGXGXGXGXGXGXGXGXGXGXGXGXGXGXGXGXGXGXGXGXGXGXGX",
"GXGXGXGXGXGXGXGXGXhXhXhXjXGXGXjXjXhXGXGXGXZXZXZXcXgXgXjXjXgXjXjXhXhXhXgXGXGXNXNXGXGXGXGXGXGXGXGXGXGXGXGXGXGXGXGXGXGXGXGXGXGXGXGXGXGXGXGXGXGX",
"GXGXGXGXGXGXGXGXGXGXGXGXGXGXGXGXGXGXGXGXGXGXGXGXGXGXGXGXGXGXGXGXGXGXGXGXGXGXGXGXGXGXGXGXGXGXGXGXGXGXGXGXGXGXGXGXGXGXGXGXGXGXGXGXGXGXGXGXGXGX"
};
