/* XPM */
static char *result[] = {
/* columns rows colors chars-per-pixel */
"70 70 250 2 ",
"   c #000000",
".  c #0B0000",
"X  c #130000",
"o  c #1C0000",
"O  c #060817",
"+  c #2D0100",
"@  c #270302",
"#  c #370401",
"$  c #3C1D07",
"%  c #2C0D18",
"&  c #392518",
"*  c #362C11",
"=  c #2E1925",
"-  c #382826",
";  c #3C3027",
":  c #292934",
">  c #392B34",
",  c #3B3738",
"<  c #2E2629",
"1  c #14202E",
"2  c #430100",
"3  c #4B0400",
"4  c #570500",
"5  c #471903",
"6  c #591A03",
"7  c #451414",
"8  c #661602",
"9  c #482305",
"0  c #562505",
"q  c #46261A",
"w  c #592A18",
"e  c #49321B",
"r  c #5A3410",
"t  c #652604",
"y  c #633502",
"u  c #773907",
"i  c #652C16",
"p  c #772B16",
"a  c #66371C",
"s  c #743A1B",
"d  c #792805",
"f  c #452C26",
"g  c #493627",
"h  c #563727",
"j  c #483838",
"k  c #553C35",
"l  c #4E2D27",
"z  c #693924",
"x  c #753D27",
"c  c #623B32",
"v  c #76312B",
"b  c #664A00",
"n  c #72481A",
"m  c #574836",
"M  c #504734",
"N  c #684428",
"B  c #7B442B",
"V  c #794727",
"C  c #775926",
"Z  c #664833",
"A  c #764B38",
"S  c #67563D",
"D  c #765839",
"F  c #6D5222",
"G  c #77623B",
"H  c #796029",
"J  c #5C4200",
"K  c #3C3C45",
"L  c #493B44",
"P  c #4B4747",
"I  c #574948",
"U  c #5C5449",
"Y  c #494A57",
"T  c #554C55",
"R  c #4D565A",
"E  c #54545B",
"W  c #5D535C",
"Q  c #5B595D",
"!  c #585756",
"~  c #644B44",
"^  c #665749",
"/  c #785847",
"(  c #655958",
")  c #755854",
"_  c #6B644A",
"`  c #6D694E",
"'  c #77684A",
"]  c #696559",
"[  c #746B52",
"{  c #756754",
"}  c #797557",
"|  c #595B63",
" . c #665D63",
".. c #5E6164",
"X. c #5E6574",
"o. c #686668",
"O. c #756967",
"+. c #7B766C",
"@. c #686A75",
"#. c #766E75",
"$. c #6E7276",
"%. c #6D757B",
"&. c #6C7978",
"*. c #747476",
"=. c #7B7475",
"-. c #72757B",
";. c #73797C",
":. c #7A787A",
">. c #6F7C6F",
",. c #5A644E",
"<. c #843605",
"1. c #843A17",
"2. c #8D2D01",
"3. c #803720",
"4. c #874419",
"5. c #96481D",
"6. c #964D0D",
"7. c #BC590D",
"8. c #BA5616",
"9. c #A74E11",
"0. c #864828",
"q. c #974B26",
"w. c #8B5527",
"e. c #94592A",
"r. c #854C37",
"t. c #875537",
"y. c #985B37",
"u. c #A85826",
"i. c #B75A25",
"p. c #A7532C",
"a. c #9A6339",
"s. c #856537",
"d. c #A46328",
"f. c #BA6B2A",
"g. c #A6643C",
"h. c #B77135",
"j. c #BF611B",
"k. c #C5550B",
"l. c #C55918",
"z. c #CF4F01",
"x. c #CC7411",
"c. c #C25B26",
"v. c #C47638",
"b. c #CA752D",
"n. c #895A47",
"m. c #915C4A",
"M. c #86684A",
"N. c #9A6647",
"B. c #88714C",
"V. c #956755",
"C. c #8D7453",
"Z. c #827159",
"A. c #987958",
"S. c #8D704C",
"D. c #A76B47",
"F. c #A97448",
"G. c #B97646",
"H. c #A57657",
"J. c #B67B56",
"K. c #A86B50",
"L. c #887667",
"P. c #947D68",
"I. c #857A77",
"U. c #897570",
"Y. c #AB7A64",
"T. c #C47947",
"R. c #C77C53",
"E. c #D38539",
"W. c #9C8158",
"Q. c #B9855B",
"!. c #AC8853",
"~. c #96847B",
"^. c #928679",
"/. c #A48565",
"(. c #B68866",
"). c #B59872",
"_. c #C6844A",
"`. c #C98959",
"'. c #D28B58",
"]. c #DB995B",
"[. c #D0904F",
"{. c #E69C5B",
"}. c #E5874B",
"|. c #D0A15A",
" X c #E4A35C",
".X c #EAA35D",
"XX c #E4A557",
"oX c #ECA44F",
"OX c #CA976A",
"+X c #DB9B66",
"@X c #C89875",
"#X c #C58F6A",
"$X c #E59D63",
"%X c #E99D67",
"&X c #ED9C6A",
"*X c #DDA465",
"=X c #DAA76A",
"-X c #D9A875",
";X c #CAA76F",
":X c #E4A364",
">X c #EAA462",
",X c #E3A36A",
"<X c #EBA56B",
"1X c #EBAA6C",
"2X c #E4AA6A",
"3X c #E9AB74",
"4X c #E6A976",
"5X c #EFAE70",
"6X c #E6C67F",
"7X c #747C82",
"8X c #787A82",
"9X c #6B7983",
"0X c #877E82",
"qX c #7E8285",
"wX c #6E8085",
"eX c #8D8583",
"rX c #868588",
"tX c #958A87",
"yX c #8C8B94",
"uX c #928E95",
"iX c #8E949B",
"pX c #93969C",
"aX c #989599",
"sX c #9D928A",
"dX c #A4958C",
"fX c #A8988C",
"gX c #A79A95",
"hX c #A7A199",
"jX c #9799A3",
"kX c #8D96A0",
"lX c #A7A3A5",
"zX c #B7B0AE",
"xX c #A49EA3",
"cX c #D0AD85",
"vX c #E9AA83",
"bX c #EFB587",
"nX c #CABCBA",
"mX c #CC8F84",
"MX c #DDC596",
"NX c #E7C68A",
"BX c #EBCB96",
"VX c #DACDB5",
"CX c #D5CACB",
"ZX c #E3DBD9",
"AX c #F3ECE3",
"SX c #FEFDFD",
"DX c #FAF8F9",
"FX c #F6EFF5",
"GX c #ECE2DE",
"HX c None",
/* pixels */
"HXHXHXHXHXHXHXHXHXHXHXHXHXHXHXHXHXHXHXHXHXHXHXHXHXHXHXHXHXHXHXHXHXHXHXHXHXHXHXHXHXHXHXHXHXHXHXHXHXHXHXHXHXHXHXHXHXHXHXHXHXHXHXHXHXHXHXHXHXHX",
"HXHXHXHXHXHXHXHXHXHXHXHXHXHXHXHXHXHXHXHXHXHXHXHXHXHXHXHXHXHXtXeXeXeXtXuXgXzXnXHXHXHX  # # 2 + HXHXHXHXHXHXHXHXHXHXHXHXHXHXHXHXHXHXHXHXHXHXHX",
"HXHXHXHXHXHXHXHXHXHXHXHXHXHXHXHXHXHXHXHXHXHXHXHXHXHXHXHXHX= eX0X0XrXqXI.I.-.%.-.#.o.O.O.O.^ j j aXlXHXHXHXHXHXHXHXHXHXHXHXHXHXHXHXHXHXHXHXHX",
"HXHXHXHXHXHXHXHXHXHXHXHXHXHXHXHXHXHXHXHXHXHXHXHXHXHXHXHXW yXjX9X7X9XwXqX0XrXyXuXyXaXuXuXpXyXaXsX^.I.O.#.( . f U O.o.I.HXHXHXHXHXHXHXHXHXHXHX",
"HXHXHXHXHXHXHXHXHXHXHXHXHXHXHXHXHXHXHXHXHXHXHXHXHXHXHXHXP aXrX$.-.-.-.$.@.%.*.$.#.$.%.&.%.-.#.:.rXqXrXrX ., ( I P Y M O   HXHXHXHXHXHXHXHXHX",
"HXHXHXHXHXHXHXHXHXHXHXHXHXHXHXHXHXHXHXHXHXHXHXHXHXHXHXHXK hX8X*.-.=.=.=.;.%.-.*.-.-.%.&.*.-.-.#.$.@.-.| : P Q E | R | o.. HXHXHXHXHXHXHXHXHX",
"HXHXHXHXHXHXHXHXHXHXHXHXHXHXHXHXHXHXHXHXHXHXHXHXHXHXHXHXP xX9X%.-.*.*.-.9X-.%.-.-.-.-.=.-.-.8X8X7X%.;.( f P ! ! E E E T f HXHXHXHXHXHXHXHXHX",
"HXHXHXHXHXHXHXHXHXHXHXHXHXHXHXHXHXHXHXHXHXHXHXHXHXHXHXlXQ xX;.%.%.-.-.-.-.-.%.-.-.-.-.-.-.-.#.-.%.;.*.U - T E R E E W P ! HXHXHXHXHXHXHXHXHX",
"HXHXHXHXHXHXHXHXHXHXHXHXHXHXHXHXHXHXHXHXHXHXHXHXHXHXHX:.:.pX*.9X9X-.8X*.*.%.-.-.-.%.*.%.-.-.=.-.*.9Xo.T - W R E W E | < tXHXHXHXHXHXHXHXHXHX",
"HXHXHXHXHXHXHXHXHXHXHXHXHXHXHXHXHXHXHXHXHXHXHXHXHXHXHX( yXuX$.%.-.*.-.%.-.-.-.*.-.-.-.-.-.-.=.-.-.8Xo.P > ( R E W T | X HXHXHXHXHXHXHXHXHXHX",
"HXHXHXHXHXHXHXHXHXHXHXHXHXHXHXHXHXHXHXHXHXHXHXHXHXHXHXP uXuX*.%.%.%.%.*.-.-.-.-.-.-.-.*.-.-.*.*.-.9X .j j W R E W | |   HXHXHXHXHXHXHXHXHXHX",
"HXHXHXHXHXHXHXHXHXHXHXHXHXHXHXHXHXHXHXHXHXHXHXHXHXHXHXP tXtX-.8X;.;.*.%.-.-.-.-.-.-.$.-.-.-.-.=.$.8X .j L W R E W Y | X HXHXHXHXHXHXHXHXHXHX",
"HXHXHXHXHXHXHXHXHXHXHXHXHXHXHXHXHXHXHXHXHXHXHXHXHXHXHXHX  I | o.o.@.;.;.:.;.8X:.-.7X-.*.-.-.-.-.%.-.| < I W E E E R E = HXHXHXHXHXHXHXHXHXHX",
"HXHXHXHXHXHXHXHXHXHXHXHXHXHXHXHXHXHXHXHXHXHXHXHXHXHXHXHXHX:.( < = % X O < > P Y ..o.o.o.@.*.-.-.8X8X .j T Q R E T ! ! , HXHXHXHXHXHXHXHXHXHX",
"HXHXHXHXHXHXHXHXHXHXHXHXHXHXHXHXHXHXHXHXHXHXHXHXHXHXHXHXHXHXHXHXHXHXHXHXHXsXI. .- e M P ,   O 1 : > > X L W | ( ( o.< +.HXHXHXHXHXHXHXHXHXHX",
"HXHXHXHXHXHXHXHXHXHXHXHXHXHXHXHXHXHXHXHXHXHXHXHXHXHXHXHXHXHXHXHXHXHXHXHXHXHXHXHXo A N # I.HXHXHXtXeXeXO.j j > f % % o HXHXHXHXHXHXHXHXHXHXHX",
"HXHXHXHXHXHXHXHXHXHXHXHXHXHXHXHXHXHXHXHXHXHXHXHXHXHXHXHXHXHXHXHXHXHXHXHXHXHXHXHX# t.r.2 HXHXHXHXHXHXHXHXHXHXHXHXHXHXHXHXHXHXHXHXHXHXHXHXHXHX",
"HXHXHXHXHXHXHXHXHXHXHXHXHXHXHXHXHXHXHXHXHXHXHXHXHXHXHXHXHXHXHXHXHXHXHXHXHXHXHXO.t t.V 3 HXHXHXHXHXHXHXHXHXHXHXHXHXHXHXHXHXHXHXHXHXHXHXHXHXHX",
"HXHXHXHXHXHXHXHXHXHXHXHXHXHXHXHX  HXHXHXHXHXHXHXHXHXHXHXHXHXHXHXHXHXHXgXP.Y.V.l 5 9 h   HXHXHXHXHXHXHXHXHXHXHXHXHXHXHXHXHXHXHXHXHXHXHXHXHXHX",
"HXHXHXHXHXHXHXHXHXHXHXHXHXHXHX~.P.HXHXHXHXHXHXHXHXHXHXHXHXHXHXHXHXHX) !.-X4XN.c A.;XOXQ.O.eXtXHXHXHXHXHXHXHXHXHXHXHXHXHXHXHXHXHXHXHXHXHXHXHX",
"HXHXHXHXHXHXHXHXHXHXHXHXHXHXHX/.~.HXHXHXHXHXHXHXHXHXHXHXHXHXHXHXeXzXL.@X<X+XK.q J.'.'.,XH.  # ( HXHXHXHXHXHXHXHXHXHXHXHXHXHXHXHXHXHXHXHXHXHX",
"HXHXHXHXHXHXHXHXHXHXHXHXHXHXb MXM.HXHXHXHXHXHXHXHXHXHXHXHXHXHX).~.ZXzX3 Y.K.n.@ / A A Z k m O.= #.HXHXHXHXHXHXHXHXHXHXHXHXHXHXHXHXHXHXHXHXHX",
"HXHXHXHXHXHXHXHXHXHXHXHXHXm !.BXC.HXHXHXHXI.; HXHXHXHXHXHXHXW.MXS FXSX^.y A.N 9 @X<X<X-X/ k +.$.  tXHXHXHXHXHXHXHXHXHXHXHXHXHXHXHXHXHXHXHXHX",
"HXHXHXHXHXHXHXHXHXHXHXHXHXb ;X6XcX .HXHX .>  .-   ..zXHXHXgX).BXC CXSXSXnX@ Y.N.`.}.E.OX^ M :.qXo.  HXHXHXHXHXHXHXHXHXHXHXHXHXHXHXHXHXHXHXHX",
"HXHXHXHXHXHXHXHXHXHXHXHXHXn.;X;XBXcXA.@ X =.uXlXlXeXU P o.) VX6X!.I.FXSXSXI.w ~ D 0.r.7 ; ( rXjXrXo.  HXHXHXHXHXHXHXHXHXHXHXHXHXHXHXHXHXHXHX",
"HXHXHXHXHXHXHXHXHXHXHXHXHX5 cX#X=X6XNXcXP.P uXjXjXxXlX+.! T W.=X;X  ZXSXAX) @XN.#X3XvXA.- O.rXkXiXrX(   HXHXHXHXHXHXHXHXHXHXHXHXHXHXHXHXHXHX",
"HXHXHXHXHXHXHXHXHXHXHXHXHXI.V @X|.|.-XNXBXe P o.| | U ] o.Y   D s.0XSXSXAX9 ).D.`.`.'.N.< +.:.pXiXpX^.T . HXHXHXHXHXHXHXHXHXHXHXHXHXHXHXHXHX",
"HXHXHXHXHXHXHXHXHXHXHXHXHXHXU.D ).;X(.(.A.h ; M I I m I T T ( - % 0XZXFXSXgX  A A B Z q o.;.*.qXiXpXaXrXP - HXHXHXHXHXHXHXHXHXHXHXHXHXHXHXHX",
"HXHXHXHXHXHXHXHXHXHXHXHXHXHXHX#.  _ ~ U I O.*.*.( nXI.O.L.] eXnXI )   CXDXdX3 z z q j ! o.7X%.*.yXpXpXkX8Xj  .HXHXHXHXHXHXHXHXHXHXHXHXHXHXHX",
"HXHXHXHXHXHXHXHXHXHXHXHXHXHX .) o.o.] nX=.,...E L O.T L P M P =.L O.I I L.k B s t.5 k W | %.*.$.;.iXpXpXaX] W HXHXHXHXHXHXHXHXHXHXHXHXHXHXHX",
"HXHXHXHXHXHXHXHXHXHXHXHXHX  zX0X( @.Y R j < j I ~ Z / ) ) n.~ 0 Z I + O.VXl V s V e g I W o.;.-.$.qXaXfXU.e I HXHXHXHXHXHXHXHXHXHXHXHXHXHXHX",
"HXHXHXHXHXHXHXHXHXHXHXHX^ f tXO.O 1 M Z D J.(.H.H.#X=X3X3X,X3X-X)./ @ GXZX# V V t U.nX  , , o.*.$.o.O.U n #Xt.HXHXHXHXHXHXHXHXHXHXHXHXHXHXHX",
"HXHXHXHXHXHXHXHXHXHXHXHXU.@ < $ V.(.OX_.v.bX(.u p.q.e.F.+X4XOXN.y.y.6 AXzX2 0.0.y U tXA M.D h % A D w.J.{.3X@X^ HXHXHXHXHXHXHXHXHXHXHXHXHXHX",
"HXHXHXHXHXHXHXHXHXHXHXHXHXO.z vX&X'.b.k.v.-XH.8 5.i.8.u.v mXN.6.8.9.0 FXlX3 0.0.w y Q.4X1X2X*X`.y.G.{.<X.X X-Xy HXHXHXHXHXHXHXHXHXHXHXHXHXHX",
"HXHXHXHXHXHXHXHXHXHXHXHXHX( t.@Xt.H.Q.[.&X'.J.g.0.i t <.4 / n.8 p c ~ ZXI.8 0.r.3 F.<X X>X$X%X1X+X].<X&X&X{.3X(.^.HXHXHXHXHXHXHXHXHXHXHXHXHX",
"HXHXHXHXHXHXHXHXHXHXHXHX:.0 B 0.A./ (.<X&X$Xh.h.N.m > n.t.Y.Y.S # n.D VXM s 0.c 3 G.<X+X,X4X$X*X X X:X:X>X.XbXA.*.HXHXHXHXHXHXHXHXHXHXHXHXHX",
"HXHXHXHXHXHXHXHXHXHXHX+.e.J.g.s D.g.T.&X{.<X'.c.9.A OX<X&XbXbXbXY.n.Y.CX7 n 0.N w T.&X-X=X:X].:XXXXX XXXXXvXQ.~ HXHXHXHXHXHXHXHXHXHXHXHXHXHX",
"HXHXHXHXHXHXHXHXHXlXy.].&Xf.G.a.N.+X'.R.D.N.(.&X`.y.Q.'.p.G.Q.(.r.Y.V.=.z <.0.h n v.{.2X:X:X5X+X'.,X%X%X3XN.O.HXHXHXHXHXHXHXHXHXHXHXHXHXHXHX",
"HXHXHXHXHXHXHX~.N.[.3X:XoX}.v.y.6.u.9.9.8.7.2.N.V.i 6 0.p t s t p 3.x 3 r 1.w.r V G.E.].XX{.Q.M.@X>X5X4Xw.HXHXHXHXHXHXHXHXHXHXHXHXHXHXHXHXHX",
"HXHXHXHXHXP.F.+X3X3X*X:X{.}.g.0.c.k.l.k.l.l.l.p.4 1.i.9.7.f.p.1.8.u.B l a 4.0.6 N.v.h.f.d.V A @X1X1X].y HXHXHXHXHXHXHXHXHXHXHXHXHXHXHXHXHXHX",
"HXHXHXO.g. X>X>X.X$X,X*X<X_.q.q.l.k.l.k.8.z.l.p.1.l.l.l.l.9.8 q.8.8.p.5 s n 0.5 C.N.w.A m.(.-X3X3XR.Z HXHXHXHXHXHXHXHXHXHXHXHXHXHXHXHXHXHXHX",
"HXHXO.(.bX.XoX:X:X$X,X2X+XG.x q.l.z.k.k.8.k.8.p u.l.8.u.<.i a p q.8.u.w s 4.B 7 x 0.N.mXvX5X4X[.w.:.HXHXHXHXHXHXHXHXHXHXHXHXHXHXHXHXHXHXHXHX",
"HXHXt bX+X*X=X=X%X>X,X*X$XT.V 3.c.k.k.7.8.k.9.p p.9.u 7 p p.i.6.2.p w w V 0.a v v.b.}.5X{._.e.I.HXHXHXHXHXHXHXHXHXHXHXHXHXHXHXHXHXHXHXHXHXHX",
"HXeX5.$X:X*X=X<X>X:X*X*X.X$XF.t i.l.l.8.8.z.9.v 0.t d 9.k.8.i.i.9.4.l a n t.i h G.d.6.g.U.HXHXHXHXHXHXHXHXHXHXHXHXHXHXHXHXHXHXHXHXHXHXHXHXHX",
"HXHX<.T.>X2X=X>X.X%X:X>X:X+XD.t p 1.q.i.l.l.8.i z 1.p.c.k.8.i.q.s V.h 2 i x w / h U.HXHXHXHXHXHXHXHXHXHXHXHXHXHXHXHXHXHXHXHXHXHXHXHXHXHXHXHX",
"HXHX3 J.G.].:X>X.X.X$X.X>X]._.'.J.D.0.s 1.p.v 7 g z 0.v s s v 7 c N.M.N.N.n.3 V.4 HXHXHXHXHXHXHXHXHXHXHXHXHXHXHXHXHXHXHXHXHXHXHXHXHXHXHXHXHX",
"HXHXHXy h.h.E.].>X>X>X.XXX X.X>X<X&X#Xm < f l I R P P P P T L h OX*X2X1X1X4XcXh O.HXHXHXHXHXHXHXHXHXHXHXHXHXHXHXHXHXHXHXHXHXHXHXHXHXHXHXHXHX",
"HXHXHXHX/ a.g.a.D.J.[.].>X{.>X{.{.5XQ.: P = I ( | | ,.,.! | T N 2XoX].].].`.Y.+ HXHXHXHXHXHXHXHXHXHXHXHXHXHXHXHXHXHXHXHXHXHXHXHXHXHXHXHXHXHX",
"HXHXHXHXHX  A m.y.p._.$X%X,X$X:X,X+Xz ( K P I.#.9X*.=.*.;.@.Y m -X].OXR.K.y.A h HXHXHXHXHXHXHXHXHXHXHXHXHXHXHXHXHXHXHXHXHXHXHXHXHXHXHXHXHXHX",
"HXHXHXHXHXq c D.T.h.].<X,X,X$X,X,XQ.j ( : O.-.9X9X*.=.-.&.9X .q OX<X<X-X2X5X3Xy HXHXHXHXHXHXHXHXHXHXHXHXHXHXHXHXHXHXHXHXHXHXHXHXHXHXHXHXHXHX",
"HXHXHXHXHX^ N.i u.v.T.`.Q.2X,X&X4XD.U ( P $.8X8X7X7X8X;.>.>.O.& A.1X[.[._._.a.M HXHXHXHXHXHXHXHXHXHXHXHXHXHXHXHXHXHXHXHXHXHXHXHXHXHXHXHXHXHX",
"HXHXHXHXHXfXy Y.a g.G.R.D.N.OXcX3XH.O.=.: yXjXaXpXjXjXjXpX7X*.! & @X&XK.N.K.V.I.HXHXHXHXHXHXHXHXHXHXHXHXHXHXHXHXHXHXHXHXHXHXHXHXHXHXHXHXHXHX",
"HXHXHXHXHXHXl H.K.l A G.T.u.V S./.M. .0X: 8XjXaXaXaXuXuXyX9X9X| j D 4X,X:X<XQ.+.HXHXHXHXHXHXHXHXHXHXHXHXHXHXHXHXHXHXHXHXHXHXHXHXHXHXHXHXHXHX",
"HXHXHXHXHXHX} y e.w.n N y.G.T.i.p.0.h U.! , qX:.;.;.;.;.$.&.&.R ( ; t.H.D.y.+ HXHXHXHXHXHXHXHXHXHXHXHXHXHXHXHXHXHXHXHXHXHXHXHXHXHXHXHXHXHXHX",
"HXHXHXHXHXHX) h.E.x.E.x.4.V y.K.T.R.n.~ ( 1 R @.@.X.X.| ..Q Y Y T I % w 2 / i HXHXHXHXHXHXHXHXHXHXHXHXHXHXHXHXHXHXHXHXHXHXHXHXHXHXHXHXHXHXHX",
"HXHXHXHXHXHX^ d.v.x.x.x.E.f.e.0.3.r.n.q l j > k k k j k h N B t.w w N V 6 K.n HXHXHXHXHXHXHXHXHXHXHXHXHXHXHXHXHXHXHXHXHXHXHXHXHXHXHXHXHXHXHX",
"HXHXHXHXHXHXHX4 e.w.w.e.d.d.u.d.e.t.t.t.A S S N A C t.t.w.w.g.a.0 n 0.V 9 A 5 HXHXHXHXHXHXHXHXHXHXHXHXHXHXHXHXHXHXHXHXHXHXHXHXHXHXHXHXHXHXHX",
"HXHXHXHXHXHXHX  G m m m m N M N N Z Z Z A Z F S m Z N Z Z Z Z m 5 i V V f 9 I.HXHXHXHXHXHXHXHXHXHXHXHXHXHXHXHXHXHXHXHXHXHXHXHXHXHXHXHXHXHXHX",
"HXHXHXHXHXHXHX# Z.` [ ` [ [ ` ' [ [ ` ' ' } } } [ ' ' _ { { { { S h M e ^ 5 HXHXHXHXHXHXHXHXHXHXHXHXHXHXHXHXHXHXHXHXHXHXHXHXHXHXHXHXHXHXHXHX",
"HXHXHXHXHXHXHX  } [ [ [ ` ` [ [ ` _ ` _ ` m e * m M g M _ { ` ` { [ ' ' _ P HXHXHXHXHXHXHXHXHXHXHXHXHXHXHXHXHXHXHXHXHXHXHXHXHXHXHXHXHXHXHXHX",
"HXHXHXHXHXHXHX; ^ [ _ _ [ ` _ ` ` M ; M o ] HXHX+ k S ' [ ` ^ ` [ _ ^ {   HXHXHXHXHXHXHXHXHXHXHXHXHXHXHXHXHXHXHXHXHXHXHXHXHXHXHXHXHXHXHXHXHX",
"HXHXHXHXHXHXHXHX  ,.M M m _ M M U S m $ U HXHXHXHX  m ^ S M M S ^ M M e ^ HXHXHXHXHXHXHXHXHXHXHXHXHXHXHXHXHXHXHXHXHXHXHXHXHXHXHXHXHXHXHXHXHX",
"HXHXHXHXHXHXHXHX^ $ g f q & ; q & g & U HXHXHXHXHXHX@ & * ; ; - & ; M   HXHXHXHXHXHXHXHXHXHXHXHXHXHXHXHXHXHXHXHXHXHXHXHXHXHXHXHXHXHXHXHXHXHX",
"HXHXHXHXHXHXHXHX; M.A.C.C.C.B.B.C.A.9 ^.HXHXHXHXHXHX$ M.M.M.' M.M.' C.0 HXHXHXHXHXHXHXHXHXHXHXHXHXHXHXHXHXHXHXHXHXHXHXHXHXHXHXHXHXHXHXHXHXHX",
"HXHXHXHXHXHXHXHX  / G S G G H G G S + eXHXHXHXHXHXHX  Z.' s.' B.B.B.B.+ HXHXHXHXHXHXHXHXHXHXHXHXHXHXHXHXHXHXHXHXHXHXHXHXHXHXHXHXHXHXHXHXHXHX",
"HXHXHXHXHXHXHXHX+.+ g m M e e e $   ^.HXHXHXHXHXHXHX .+ h G G G $ o @ $ L.sXHXHXHXHXHXHXHXHXHXHXHXHXHXHXHXHXHXHXHXHXHXHXHXHXHXHXHXHXHXHXHXHX",
"HXHXHXHXHXHXHXHXHX# C.C.S.A.W.W.W.C.} ^.HXHXHXHXHXHXHX2 /.!.!.B.' C.A.W.W.s.s.@ HXHXHXHXHXHXHXHXHXHXHXHXHXHXHXHXHXHXHXHXHXHXHXHXHXHXHXHXHXHX",
"HXHXHXHXHXHXHXHXHX  N C C C C C C H D . M HXHXHXHXHXHX  F b b b F F F b F F D X HXHXHXHXHXHXHXHXHXHXHXHXHXHXHXHXHXHXHXHXHXHXHXHXHXHXHXHXHXHX",
"HXHXHXHXHXHXHXHXHXHXHXdXfXdXdXdXgXfXfXHXHXHXHXHXHXHXHXHX^.sXsXsXdXdXfXhXhXfXgXHXHXHXHXHXHXHXHXHXHXHXHXHXHXHXHXHXHXHXHXHXHXHXHXHXHXHXHXHXHXHX",
"HXHXHXHXHXHXHXHXHXHXHXHXHXHXHXHXHXHXHXHXHXHXHXHXHXHXHXHXHXHXHXHXHXHXHXHXHXHXHXHXHXHXHXHXHXHXHXHXHXHXHXHXHXHXHXHXHXHXHXHXHXHXHXHXHXHXHXHXHXHX"
};
