/* XPM */
static char *result[] = {
/* columns rows colors chars-per-pixel */
"70 70 243 2 ",
"   c #000000",
".  c #090004",
"X  c #190101",
"o  c #1A0312",
"O  c #250000",
"+  c #2D0000",
"@  c #2A0A05",
"#  c #330000",
"$  c #390201",
"%  c #3A1808",
"&  c #2D1214",
"*  c #312918",
"=  c #11172A",
"-  c #2B112B",
";  c #372823",
":  c #382D35",
">  c #393636",
",  c #323231",
"<  c #1E2135",
"1  c #460200",
"2  c #4B1C00",
"3  c #4F150C",
"4  c #671A00",
"5  c #6A0F00",
"6  c #482300",
"7  c #592804",
"8  c #4B3400",
"9  c #482918",
"0  c #592C18",
"q  c #493318",
"w  c #573418",
"e  c #533607",
"r  c #692803",
"t  c #752A04",
"y  c #673506",
"u  c #7A3609",
"i  c #642919",
"p  c #67361A",
"a  c #783718",
"s  c #722918",
"d  c #462828",
"f  c #552D2A",
"g  c #4B3528",
"h  c #593727",
"j  c #462D34",
"k  c #443C3B",
"l  c #483936",
"z  c #573B32",
"x  c #683A26",
"c  c #753C25",
"v  c #6C3C38",
"b  c #794518",
"n  c #6D4E0D",
"m  c #594638",
"M  c #53412D",
"N  c #684629",
"B  c #784729",
"V  c #765224",
"C  c #674738",
"Z  c #794A37",
"A  c #68523A",
"S  c #7A5639",
"D  c #63532B",
"F  c #353945",
"G  c #483D44",
"H  c #334443",
"J  c #4A4646",
"K  c #524B4B",
"L  c #564847",
"P  c #59534B",
"I  c #4B4A59",
"U  c #564A55",
"Y  c #4C555A",
"T  c #535355",
"R  c #5C5454",
"E  c #54545C",
"W  c #5B555A",
"Q  c #5C5A5C",
"!  c #575958",
"~  c #4F574D",
"^  c #675648",
"/  c #775744",
"(  c #635C5B",
")  c #675855",
"_  c #714F49",
"`  c #6B684B",
"'  c #736C4D",
"]  c #79674C",
"[  c #69635B",
"{  c #786657",
"}  c #7D725C",
"|  c #595862",
" . c #675C62",
".. c #6C6564",
"X. c #6C6569",
"o. c #666669",
"O. c #776869",
"+. c #79746D",
"@. c #696D73",
"#. c #736D75",
"$. c #6F747C",
"%. c #6B7577",
"&. c #747374",
"*. c #7C7574",
"=. c #73757B",
"-. c #77787B",
";. c #6D7066",
":. c #5A6863",
">. c #823507",
",. c #873A17",
"<. c #8D340E",
"1. c #922D0C",
"2. c #98440E",
"3. c #8B4718",
"4. c #974719",
"5. c #8E5313",
"6. c #A5490B",
"7. c #BB5608",
"8. c #A34B16",
"9. c #B74D15",
"0. c #A9561A",
"q. c #BD5515",
"w. c #BA5619",
"e. c #B05309",
"r. c #B1641E",
"t. c #864B2A",
"y. c #87542D",
"u. c #864C34",
"i. c #87593A",
"p. c #965937",
"a. c #975228",
"s. c #B85827",
"d. c #A55932",
"f. c #AA522A",
"g. c #9B643B",
"h. c #8F6937",
"j. c #A7692A",
"k. c #AA6C3B",
"l. c #B77539",
"z. c #B46D34",
"x. c #C4540C",
"c. c #C85507",
"v. c #C35513",
"b. c #C45913",
"n. c #C65718",
"m. c #D2540D",
"M. c #CB5923",
"N. c #C27331",
"B. c #855943",
"V. c #935B47",
"C. c #815E51",
"Z. c #A45D46",
"A. c #876945",
"S. c #9A6B4A",
"D. c #986746",
"F. c #8A7349",
"G. c #9B7649",
"H. c #986A53",
"J. c #987857",
"K. c #866E56",
"L. c #A66846",
"P. c #A7744A",
"I. c #B97748",
"U. c #A57658",
"Y. c #B87A55",
"T. c #AE6E4C",
"R. c #87776A",
"E. c #847B7A",
"W. c #877977",
"Q. c #937662",
"!. c #A67862",
"~. c #B77C64",
"^. c #C47C48",
"/. c #B78139",
"(. c #CE8435",
"). c #9D825E",
"_. c #A38358",
"`. c #B8865A",
"'. c #BF824B",
"]. c #86817B",
"[. c #938479",
"{. c #9C8569",
"}. c #A88668",
"|. c #BA8766",
" X c #B89477",
".X c #B59272",
"XX c #B7A171",
"oX c #CA8649",
"OX c #C88A57",
"+X c #D48D56",
"@X c #C8985C",
"#X c #D9975A",
"$X c #DA8D4A",
"%X c #E39C5C",
"&X c #EF9D5C",
"*X c #E4A35C",
"=X c #E9A458",
"-X c #C78C64",
";X c #C69469",
":X c #D89867",
">X c #C89976",
",X c #D69B72",
"<X c #CD8C67",
"1X c #E39C64",
"2X c #E59E68",
"3X c #DCA265",
"4X c #C8A478",
"5X c #DAA676",
"6X c #D3B275",
"7X c #E4A263",
"8X c #EAA363",
"9X c #E4A36A",
"0X c #E8A869",
"qX c #E7A977",
"wX c #F4B477",
"eX c #757783",
"rX c #6E7981",
"tX c #837E81",
"yX c #778286",
"uX c #898687",
"iX c #958D88",
"pX c #9C9289",
"aX c #938E92",
"sX c #969497",
"dX c #8C9294",
"fX c #A5988A",
"gX c #A79A93",
"hX c #B09485",
"jX c #ACA297",
"kX c #979CA3",
"lX c #8B94A3",
"zX c #B2ADAE",
"xX c #A29A9F",
"cX c #D6A883",
"vX c #D4B18E",
"bX c #EBB287",
"nX c #C6BAB7",
"mX c #CBB5A8",
"MX c #E4C596",
"NX c #EBC694",
"BX c #D0C8BA",
"VX c #DFD7D1",
"CX c None",
/* pixels */
"CXCXCXCXCXCXCXCXCXCXCXCXCXCXCXCXCXCXCXCXCXCXCXCXCXCXCXCXCXCXCXCXCXCXCXCXCXCXCXCXCXCXCXCXCXCXCXCXCXCXCXCXCXCXCXCXCXCXCXCXCXCXCXCXCXCXCXCXCXCX",
"CXCXCXCXCXCXCXCXCXCXCXCXCXCXCXCXCXCXCXCXCXCXCXCXCXCXCXCXCXCXCXCXCXCXCXCXCXCXCXCXCXCXCXCXCXCXCXCXCXCXCXCXCXCXCXCXCXCXCXCXCXCXCXCXCXCXCXCXCXCX",
"CXCXCXCXCXCXCXCXCXCXCXCXCXCXCXCXCXCXCXCXCXCXCXCXCXCXCXCXCXCXCXCXCXCXCXCXCXCXCXCXCXCXCXCXCXCXCXCXCXCXCXCXCXCXCXCXCXCXCXCXCXCXCXCXCXCXCXCXCXCX",
"CXCXCXCXCXCXCXCXCXCXCXCXCXCXCXCXCXCXCXCXCXCXCXCXCXCXCXCXCXCXCXCXCXCXCXCXCXCXCXCXCXCXCXCXCXCXCXCXCXCXCXCXCXCXCXCXCXCXCXCXCXCXCXCXCXCXCXCXCXCX",
"CXCXCXCXCXCXCXCXCXCXCXCXCXCXCXCXCXCXCXCXCXCXCXCXCXCXCXCXCXCXCXCXCXCXCXCXCXCXCXCXCXCXCXCXCXCXCXCXCXCXCXCXCXCXCXCXCXCXCXCXCXCXCXCXCXCXCXCXCXCX",
"CXCXCXCXCXCXCXCXCXCXCXCXCXCXCXCXCXCXCXCXCXCXCXCXCXCXCXCXCXCXCXCXCXCXCXCXCXCXCXCXCXCXCXCXCXCXCXCXCXCXCXCXCXCXCXCXCXCXCXCXCXCXCXCXCXCXCXCXCXCX",
"CXCXCXCXCXCXCXCXCXCXCXCXCXCXCXCXCXCXCXCXCXCXCXCXCXCXCXCXCXCXCXCXCXCXCXCXCXCXCXCXCXCXCXCXCXCXCXCXCXCXCXCXCXCXCXCXCXCXCXCXCXCXCXCXCXCXCXCXCXCX",
"CXCXCXCXCXCXCXCXCXCXCXCXCXCXCXCXCXCXCXCXCXCXCXCXCXCXCXCXCXCXCXCXCXCXCXCXCXCXCXCXCXCXCXCXCXCXCXCXCXCXCXCXCXCXCXCXCXCXCXCXCXCXCXCXCXCXCXCXCXCX",
"CXCXCXCXCXCXCXCXCXCXCXCXCXCXCXCXCXCXCXCXCXCXCXCXCXCXCXCXCXCXCXCXCXCXCXCXCXCXCXCXCXCXCXCXCXCXCXCXCXCXCXCXCXCXCXCXCXCXCXCXCXCXCXCXCXCXCXCXCXCX",
"CXCXCXCXCXCXCXCXCXCXCXCXCXCXCXCXCXCXCXCXCXCXCXCXCXCXCXCXCXCXCXCXCXCXCXCXCXCXCXCXCXCXCXCXCXCXCXCXCXCXCXCXCXCXCXCXCXCXCXCXCXCXCXCXCXCXCXCXCXCX",
"CXCXCXCXCXCXCXCXCXCXCXCXCXCXCXCXCXCXCXCXCXCXCXCXCXCXCXCXCXCXCXCXCXCXCXCXCXCXCXCXCXCXCXCXCXCXCXCXCXCXCXCXCXCXCXCXCXCXCXCXCXCXCXCXCXCXCXCXCXCX",
"CXCXCXCXCXCXCXCXCXCXCXCXCXCXCXCXCXCXCXCXCXCXCXCXCXCXCXCXCXCXCXCXCXCXCXCXCXCXCXCXCXCXCXCXCXCXCXCXCXCXCXCXCXCXCXCXCXCXCXCXCXCXCXCXCXCXCXCXCXCX",
"CXCXCXCXCXCXCXCXCXCXCXCXCXCXCXCXCXCXCXCXCXCXCXCXCXCXCXCXCXCXCXCXCXCXCXCXCXCXCXCXCXCXCXCXCXCXCXCXCXCXCXCXCXCXCXCXCXCXCXCXCXCXCXCXCXCXCXCXCXCX",
"CXCXCXCXCXCXCXCXCXCXCXCXCXCXCXCXCXCXCXCXCXCXCXCXCXCXCXCXCXCXCXCXCXCXCXCXCXCXCXCXCXCXCXCXCXCXCXCXCXCXCXCXCXCXCXCXCXCXCXCXCXCXCXCXCXCXCXCXCXCX",
"CXCXCXCXCXCXCXCXCXCXCXCXCXCXCXCXCXCXCXCXCXCXCXCXCXCXCXCXCXCXCXCXCXCXCXCXCXCXCXCXCXCXCXCXCXCXCXCXCXCXCXCXCXCXCXCXCXCXCXCXCXCXCXCXCXCXCXCXCXCX",
"CXCXCXCXCXCXCXCXCXCXCXCXCXCXCXCXCXCXCXCXCXCXCXCXCXCXCXCXCXCXCXCXCXCXCXCXCXCXCXCXCXCXCXCXCXCXCXCXCXCXCXCXCXCXCXCXCXCXCXCXCXCXCXCXCXCXCXCXCXCX",
"CXCXCXCXCXCXCXCXCXCXCXCXCXCXCXCXCXCXCXCXCXCXCXCXCXCXCXCXCXCXCXCXCXCXCXCXCXCXCXCXCXCXCXCXCXCXCXCXCXCXCXCXCXCXCXCXCXCXCXCXCXCXCXCXCXCXCXCXCXCX",
"CXCXCXCXCXCXCXCXCXCXCXCXCXCXCXR CXCXCXCXCXCXCXCXCXCXCXCXCXCXCXCXCXCXCXCXCXCXCXCXCXCXCXCXCXCXCXCXCXCXCXCXCXCXCXCXCXCXCXCXCXCXCXCXCXCXCXCXCXCX",
"CXCXCXCXCXCXCXCXCXCXCXCXCXCXCX) E.CXCXCXCXCXCXCXCXCXCXCXCXCXCXCXCXCXCXCXCXCXCXCXCXCXCXCXCXCXCXCXCXCXCXCXCXCXCXCXCXCXCXCXCXCXCXCXCXCXCXCXCXCX",
"CXCXCXCXCXCXCXCXCXCXCXCXCXCXCXK.fXCXCXCXCXCXCXCXCXCXCXCXCXCXCXCXCXCXCXCXCXCXCXCXCXCXCXCXCXCXCXCXCXCXCXCXCXCXCXCXCXCXCXCXCXCXCXCXCXCXCXCXCXCX",
"CXCXCXCXCXCXCXCXCXCXCXCXCXCX` XXCXCXCXCXCXCXCXCXCXCXCXCXjXF.CXCXCXCXCXCXCXCXCXCXCXCXCXCXCXCXCXCXCXCXCXCXCXCXCXCXCXCXCXCXCXCXCXCXCXCXCXCXCXCX",
"CXCXCXCXCXCXCXCXCXCXCXCXCX-.XXXXCXCXCXCXCXCXCXCXCXCXCXCX.XjXCXCXCXCXCXCXCXCXCXCXCXCXCXCXCXCXCXCXCXCXCXCXCXCXCXCXCXCXCXCXCXCXCXCXCXCXCXCXCXCX",
"CXCXCXCXCXCXCXCXCXCXCXCXCXD 6X6XaXCXCXCX  L CXCXCXCXCXpXvXQ.CXCXCXCXCXCXCXCXCXCXCXCXCXCXCXCXCXCXCXCXCXCXCXCXCXCXCXCXCXCXCXCXCXCXCXCXCXCXCXCX",
"CXCXCXCXCXCXCXCXCXCXCXCXCXF.vXNX}.CXCXX O.O.o X aXCXzXXXNXi.CXCXCXCXCXCXCXCXCXCXCXCXCXCXCXCXCXCXCXCXCXCXCXCXCXCXCXCXCXCXCXCXCXCXCXCXCXCXCXCX",
"CXCXCXCXCXCXCXCXCXCXCXCXjXH.4X6XMX}.# L uXxXnXzXo.; . MXMXG.xXCXCXCXCXCXCXCXCXCXCXCXCXCXCXCXCXCXCXCXCXCXCXCXCXCXCXCXCXCXCXCXCXCXCXCXCXCXCXCX",
"CXCXCXCXCXCXCXCXCXCXCXCXCXn 4X@X6XNXMX).Q aXyXkXdX-.( m >X!.+.CXCXCXCXCXCXCXCXCXCXCXCXCXCXCXCXCXCXCXCXCXCXCXCXCXCXCXCXCXCXCXCXCXCXCXCXCXCXCX",
"CXCXCXCXCXCXCXCXCXCXCXCXCXE.5.>X@X6XMX4XO P ! > J R K * f v nXCXCXCXCXCXCXCXCXCXCXCXCXCXCXCXCXCXCXCXCXCXCXCXCXCXCXCXCXCXCXCXCXCXCXCXCXCXCXCX",
"CXCXCXCXCXCXCXCXCXCXCXCXCXCXR.A..XU.D.^ M J ) O.) R  .{ ) g [.VXCXCXCXCXCXCXCXCXCXCXCXCXCXCXCXCXCXCXCXCXCXCXCXCXCXCXCXCXCXCXCXCXCXCXCXCXCXCX",
"CXCXCXCXCXCXCXCXCXCXCXCXCXCXCX. m ! *.X.-.&.#.nXW...X.E.nXQ T ( CXCXCXCXCXCXCXCXCXCXCXCXCXCXCXCXCXCXCXCXCXCXCXCXCXCXCXCXCXCXCXCXCXCXCXCXCXCX",
"CXCXCXCXCXCXCXCXCXCXCXCXCX*.G O.;.&.zXX.J E F : : > F < F H ..j ) CXCXCXCXCXCXCXCXCXCXCXCXCXCXCXCXCXCXCXCXCXCXCXCXCXCXCXCXCXCXCXCXCXCXCXCXCX",
"CXCXCXCXCXCXCXCXCXCXCXCXpXd nX( Q H o ; g m / i.S.U.J.S.S / 9 d CXCXCXCXCXCXCXCXCXCXCXCXCXCXCXCXCXCXCXCXnXE.( X.R gXCXCXCXCXCXCXCXCXCXCXCXCX",
"CXCXCXCXCXCXCXCXCXCXCXCX; G O.= > / i.Y.>XcXcX6XqXwX0XqXqXcXS jXCXCXCXCXCXCXCXCXCXCXCXCXCXCXCXCXCXCXnX#.O.tXtXtXaXX.E.CXCXCXCXCXCXCXCXCXCXCX",
"CXCXCXCXCXCXCXCXCXCXCXCX[.$ d J.>X:X^.+X~.u.p.p.S.OX8X2X~.Z.<.R.CXCXCXCXCXCXCXCXCXCXCXCXCXCXCXCXCX].( uXuXyX%.&.$.aX#.O.CXCXCXCXCXCXCXCXCXCX",
"CXCXCXCXCXCXCXCXCXCXCXCXCXL Y.0X'.w.N.#Xp.1.n.7.f.4 |.>Xu s.6.>.CXCXCXCXCXCXCXCXCXCXCXCXCXCXCXCXJ *.iX*.%.$.=.=.%.%.aXW.O.CXCXCXCXCXCXCXCXCX",
"CXCXCXCXCXCXCXCXCXCXCXCXCX- G.D.U.;X,X1XT.B c r c + H.~.$ B 1 fXCXCXCXCXCXCXCXCXCXCXCXCXCXCXCXG uXuX@.=.=.$.&.=.=.eX#.uXuX  1 + CXCXCXCXCXCX",
"CXCXCXCXCXCXCXCXCXCXCXCXP n a V._ !.qX8X+Xk.i.% / P.`.hXQ.0 y zXCXCXCXCXCXCXCXCXCXCXCXCXCXCXCX& E.@.eX=.%.=.=.=.=.=.eX@.uXiXL v   CXCXCXCXCX",
"CXCXCXCXCXCXCXCXCXCXCX/ j.^.a.p.^.OX8X&X#XoXd.Z.qX8XqXbXbX!.D.mXCXCXCXCXCXCXCXCXCXCXCXCXCXCXCXo W -.eX#.=.=.=.=.eX=.=.-.%.dXpX9 ^ CXCXCXCXCX",
"CXCXCXCXCXCXCXCXCX[.i.9X2XI.T.u.`.OXk.d.L.:X<Xp.Y.k.p.T.S.N p.W.CXCXCXCXCXCXCXCXCXCXCXCXCXCXCXsX. #.=.=.=.&.=.eX$.%.=.eX-.@.aX*.[ CXCXCXCXCX",
"CXCXCXCXCXCXCX[.S.-XqX0X2XI.k.8.6.6.7.9.4.u.i.p r a u <.>.4.u % zXCXCXCXCXCXCXCXCXCXCXCXCXCXCXCXL > =.eXeX=.*.=.$.=.=.=.@.Y > U   *.CXCXCXCX",
"CXCXCXCXCXK.P.,XqX0X*X*X2X^.4.e.b.M.v.m.n.,.a s.n.7.r.s.M.b.s.<.7 gXCXCXCXCXCXCXCXCXCXCXCXCXCXCXCX; W =.rX$.#.=.eX%.o.( k : m J ..  CXCXCXCX",
"CXCXCXCXi.:XwX9X8X%X*X*X*XI.,.7.c.n.x.n.4.a.M.m.m.n.a.p 4.M.M.m.Z.;XS.jXCXCXCXCXCXCXCXCXCXCXCXCXCX*.# o.$.%.&.=.&.! M > G K W ! T (   CXCXCX",
"CXCXCXi.bX9X:X2X7X7X8X7X%XI.c e.c.n.n.4.c s.q.4.,.s t 3.u s ,.d.4.P.bXj.jXCXCXCXCXCXCXCXCXCXCXCX].x j P %.$.%. .J j l T Y E T W T Q J J CXCX",
"CXCXK.:X0X:X7X7X7X7X7X7X%Xk.s e.x.n.w.,.,.4.r 7 x ,.v.m.q.4.b y p O S.bXp.nXCXCXCXCXCXD.~.,.j x 5 u.N @ ! o.P : G R R T Y Y E E E E o.  CXCX",
"CXCXy 0X&X8X8X=X*X*X7X0X#XI.i 8.q.v.f.r i ,.<.0.9.n.v.x.n.n.q.q.8.a 2 >XqXH.CXCXCXCXX .X~.Z X Z i.4 2 ) k m : K E Y E E W W Y Y Y E T (   CX",
"CXCXB :X=X=X0X7X*X*X7X%X&XI.x ,.n.n.8.t 4.w.w.v.c.x.v.c.v.v.v.c.n.n.<.P.bXj.CXCXCXCXx `.t S  X_ # { CXCXpX  R W | E E E T T E T E | I ..@ iX",
"CXCXZ oX8X*X7X9X7X*X7XI.1XOXi.4 9.n.9.q.b.c.c.c.c.c.c.v.q.q.v.x.x.M.,.P.wXl.xXCXCX) $ B.C./ |.~.Z CXCXCXCXQ l Q Y E E E E E T E E Q [ k   CX",
"CXCXpX2.1X0X*X7X2X0X8Xa OX:XT.a >.9.c.c.7.x.x.v.b.q.q.7.q.q.c.c.n.0.s -XwX@XO.O.. 1 Z  X}.3 L.wX`.uXCXCXCXCX@ T | E E E E E T Q o.K X +.CXCX",
"CXCXA p.z.#X9X2X7X9XL.t.#X=XoXZ.i c 0.q.v.b.v.v.q.q.q.c.c.c.c.b.s.4 U.bX`.S 7 6 }.!.x l.:X.Xx I.A.  CXCXCXCXCX   .E E E E E  .Y   P CXCXCXCX",
"CXCX5 `.z.$X3X8X#Xl.i Z.#X8X7XY.p.c p 2.9.q.v.b.b.v.m.v.b.s.w.6.4 C. XD.1 N x i.;X}.N 0.&XcX_ c B.  CXCXCXCXCXiX  o.W  .Q J   I CXCXCXCXCXCX",
"CXR.a.+X8X*X*X*X7X+Xh.x :X0X1X=X$Xz.t.i r u 2.<.6.6.6.4.<.t a c i.B.i 4 B S 7 u.T.3X>XZ i.i.V.U.z   CXCXCXCXCXCX-.  K ; @ X.CXCXCXCXCXCXCXCX",
"CXw oX7X8X*X3X3X=X$XI.6 S 5X+X(.&X1X<X^.g.t.N p w x i s u.D.D.B.c r b t.>.y 6 3 V.OXqX!.p H.Z z ; ( CXCXCXCXCXCXCXCX+.CXCXCXCXCXCXCXCXCXCXCX",
"CXr +X8X1X9X3X3X0X#Xg.h _ B.;X<X@X*X=X=X1X1X:X<XOX^.+X:X>XU.c i B B N 7 _ l G U z C x 9 Z 0 @ ( @ aXCXCXCXCXCXCXCXCXCXCXCXCXCXCXCXCXCXCXCXCX",
"CXr ^.:XqX1X7X0X`.A : d C v f U.>X,X3X7X9X2X0X:X^.I.:X|.N 7 c t.Z h # !.hXL T W k : ; & = K X.Q o CXCXCXCXCXCXCXCXCXCXCXCXCXCXCXCXCXCXCXCXCX",
"CXa Z.`.qX1X9XH.U U , ; J U g   9 B.V.u.h.g.y.y.Z 0 9 1 a V b p x 4.b ,X<X9 R R R ) R ..=.=.=.. ].CXCXCXCXCXCXCXCXCXCXCXCXCXCXCXCXCXCXCXCXCX",
"CXB T.Z 5X5Xi.U  .G Q ;.:.~ P P M D k.z.j.j.l.k.Z 0 N t.u.x f V l.(.3.|.`.g Y Q =.eXdXsXaX].T k CXCXCXCXCXCXCXCXCXCXCXCXCXCXCXCXCXCXCXCXCXCX",
"CXW.d.S.S H.o.o., O.-.eX$.X.| E ! m M y i.Z 7 0 p t.t.b p c j.N.z.j.c L.k.g I +.&.lXkXkXsXL l CXCXCXCXCXCXCXCXCXCXCXCXCXCXCXCXCXCXCXCXCXCXCX",
"CXCX5 -Xt.P W.F =.uX#.%.=.eXeX@.E | j L C h m B t.B p @ w y.5.5.b p h L.oXj.z [ uXsXuX&.K uXCXCXCXCXCXCXCXCXCXCXCXCXCXCXCXCXCXCXCXCXCXCXCXCX",
"CXCXCXt H.X.) Q sXkXdXuX;.$.rX%.( : !.qXP.# f Z y q A ^ ^ P ^ ^ ^ ] M r e.I.S.h X + W.zXCXCXCXCXCXCXCXCXCXCXCXCXCXCXCXCXCXCXCXCXCXCXCXCXCXCX",
"CXCXCX[.$ O.k @.lXkXsXsXaXeXeX+.l i.qX*X0X:XH.3 L ] ' ' ' ' ' ' R.D O.CXpXZ C.W.CXCXCXCXCXCXCXCXCXCXCXCXCXCXCXCXCXCXCXCXCXCXCXCXCXCXCXCXCXCX",
"CXCXCXCX+.# K :.eXyXdXlXkXlXeXX.q ;X3X+X9XqXT.m { ` ` ' ' ` ` ` } 6 CXCXCXCXCXCXCXCXCXCXCXCXCXCXCXCXCXCXCXCXCXCXCXCXCXCXCXCXCXCXCXCXCXCXCXCX",
"CXCXCXCXCXX   Q #.%.-.eXuXyXrXY Z qX<XD.B.B O M M A ' ] ` ' ` ` ^ h CXCXCXCXCXCXCXCXCXCXCXCXCXCXCXCXCXCXCXCXCXCXCXCXCXCXCXCXCXCXCXCXCXCXCXCX",
"CXCXCXCXCXCX].O l ..X.@.&.$.@.F S.0X0XbXP...pX@ q ] ` P D ` A m   CXCXCXCXCXCXCXCXCXCXCXCXCXCXCXCXCXCXCXCXCXCXCXCXCXCXCXCXCXCXCXCXCXCXCXCXCX",
"CXCXCXCXCXCXCXCX*.+ L T o.:.E : -X+XI.,Xu sXCXCXO q * ; ; % d   ].CXCXCXCXCXCXCXCXCXCXCXCXCXCXCXCXCXCXCXCXCXCXCXCXCXCXCXCXCXCXCXCXCXCXCXCXCX",
"CXCXCXCXCXCXCXCX_ r x g , J R l |.5Xt.# CXCXCXCX# ] F.' ' A.J.S CXCXCXCXCXCXCXCXCXCXCXCXCXCXCXCXCXCXCXCXCXCXCXCXCXCXCXCXCXCXCXCXCXCXCXCXCXCX",
"CXCXCXCXCXCX% 1 a i.t.y h z ; @ b D.A.CXCXCXCXCXq A ' h.).F.F.D [.CXCXCXCXCXCXCXCXCXCXCXCXCXCXCXCXCXCXCXCXCXCXCXCXCXCXCXCXCXCXCXCXCXCXCXCXCX",
"CXCXCXCXCX+ 4 L.>.0 f / / / C A z   fXCXCXCXCXCXCX@ D F.S 8 q M S ' [ CXCXCXCXCXCXCXCXCXCXCXCXCXCXCXCXCXCXCXCXCXCXCXCXCXCXCXCXCXCXCXCXCXCXCX",
"CXCXCXCXCXCX1 4 / ^ _ J.F.).).).).).w CXCXCXCXCXCXe ).}.).)._._._._.).6 CXCXCXCXCXCXCXCXCXCXCXCXCXCXCXCXCXCXCXCXCXCXCXCXCXCXCXCXCXCXCXCXCXCX",
"CXCXCXCXCXCXCX+.CXfX  6 8 8 8 8 8 w @ % CXCXCXCXCX. e V V V n n n n S # gXCXCXCXCXCXCXCXCXCXCXCXCXCXCXCXCXCXCXCXCXCXCXCXCXCXCXCXCXCXCXCXCXCX",
"CXCXCXCXCXCXCXCXCXCXfXgXjXgXgXjXgXgXgXCXCXCXCXCXCXCXfXfXpXpX[.pXpXgXjXjXCXCXCXCXCXCXCXCXCXCXCXCXCXCXCXCXCXCXCXCXCXCXCXCXCXCXCXCXCXCXCXCXCXCX",
"CXCXCXCXCXCXCXCXCXCXCXCXCXCXCXCXCXCXCXCXCXCXCXCXCXCXCXCXCXCXBXBXBXCXCXCXCXCXCXCXCXCXCXCXCXCXCXCXCXCXCXCXCXCXCXCXCXCXCXCXCXCXCXCXCXCXCXCXCXCX"
};
