/* XPM */
static char *result[] = {
/* columns rows colors chars-per-pixel */
"70 70 241 2 ",
"   c #2A0000",
".  c #340000",
"X  c #430000",
"o  c #4C0000",
"O  c #5A0000",
"+  c #4E1A0C",
"@  c #551D16",
"#  c #6C0301",
"$  c #5E2118",
"%  c #632117",
"&  c #7B261A",
"*  c #7E5438",
"=  c #795C48",
"-  c #890301",
";  c #9C0000",
":  c #950B01",
">  c #8D1709",
",  c #901A0E",
"<  c #A30000",
"1  c #A80700",
"2  c #B50000",
"3  c #A81603",
"4  c #B81800",
"5  c #AF0C15",
"6  c #992D09",
"7  c #89261A",
"8  c #952213",
"9  c #982819",
"0  c #A72D0B",
"q  c #BC240B",
"w  c #A42515",
"e  c #AC2718",
"r  c #A42B1C",
"t  c #AA2C1B",
"y  c #B52716",
"u  c #B42D1B",
"i  c #BB2E1A",
"p  c #B6311E",
"a  c #BD311D",
"s  c #BC1C28",
"d  c #973524",
"f  c #B52D23",
"g  c #A93324",
"h  c #B63421",
"j  c #BB3522",
"k  c #BC3925",
"l  c #BE3C29",
"z  c #C51506",
"x  c #C22409",
"c  c #C22B16",
"v  c #C63619",
"b  c #C1341E",
"n  c #CC361E",
"m  c #D1351F",
"M  c #C32F20",
"N  c #C33620",
"B  c #CB3720",
"V  c #C43A24",
"C  c #CC3A24",
"Z  c #C53E29",
"A  c #CB3E29",
"S  c #D23D27",
"D  c #D43C25",
"F  c #D93E26",
"G  c #DD3F28",
"H  c #A44818",
"J  c #9D6113",
"K  c #9B4E36",
"L  c #A74733",
"P  c #B45135",
"I  c #C4432E",
"U  c #CC432C",
"Y  c #CA492E",
"T  c #D74027",
"R  c #D94027",
"E  c #D3432B",
"W  c #DA4129",
"Q  c #D5482F",
"!  c #C84832",
"~  c #CC4A33",
"^  c #D14730",
"/  c #D14B33",
"(  c #D94930",
")  c #CD5631",
"_  c #D45136",
"`  c #D15339",
"'  c #D7583D",
"]  c #D8753A",
"[  c #E47E3F",
"{  c #8E5D4A",
"}  c #A75B45",
"|  c #BC5B45",
" . c #866956",
".. c #926552",
"X. c #8C715C",
"o. c #AA654D",
"O. c #A96A54",
"+. c #BB6951",
"@. c #AC735A",
"#. c #B7735A",
"$. c #8C7562",
"%. c #957B68",
"&. c #AA7C64",
"*. c #B27A65",
"=. c #D65B44",
"-. c #C36851",
";. c #338900",
":. c #398E00",
">. c #3C9300",
",. c #419600",
"<. c #459B00",
"1. c #499E00",
"2. c #479C0D",
"3. c #4D9E11",
"4. c #4DA300",
"5. c #4EA709",
"6. c #4DA40D",
"7. c #53A600",
"8. c #54AA00",
"9. c #59AD00",
"0. c #52A60D",
"q. c #55AB0D",
"w. c #59AE0D",
"e. c #5DB200",
"r. c #5DB20D",
"t. c #5AAB18",
"y. c #5DB216",
"u. c #61B400",
"i. c #65BA00",
"p. c #61B50D",
"a. c #64B90D",
"s. c #69BC0D",
"d. c #61B615",
"f. c #64BA16",
"g. c #69BD16",
"h. c #68B51A",
"j. c #6CB41B",
"k. c #69AF2B",
"l. c #6BB525",
"z. c #76B72C",
"x. c #76B838",
"c. c #6BC10E",
"v. c #7AC22F",
"b. c #72AC4D",
"n. c #78B445",
"m. c #7FC347",
"M. c #88C83F",
"N. c #8AB84E",
"B. c #998371",
"V. c #AE846B",
"C. c #B3836D",
"Z. c #BB8468",
"A. c #A68F79",
"S. c #B48972",
"D. c #B6957C",
"F. c #97BE67",
"G. c #ADB574",
"H. c #A6BD77",
"J. c #CE9C50",
"K. c #EA944F",
"L. c #EBAC54",
"P. c #F6B760",
"I. c #8BC34E",
"U. c #94C958",
"Y. c #96C767",
"T. c #96CC67",
"R. c #9DC578",
"E. c #A3C769",
"W. c #A9C878",
"Q. c #AFC87C",
"!. c #FAC15F",
"~. c #FDD66F",
"^. c #A89481",
"/. c #B59C85",
"(. c #B7A28B",
"). c #BCA48D",
"_. c #AFBA80",
"`. c #B7B686",
"'. c #BCA892",
"]. c #BEB3A1",
"[. c #C3A58E",
"{. c #C4AE98",
"}. c #C7B59A",
"|. c #C2B5A4",
" X c #C6B9A6",
".X c #CEBAA3",
"XX c #C9B8A4",
"oX c #CABDAB",
"OX c #D1BDA7",
"+X c #B6C888",
"@X c #B1D28D",
"#X c #B9CA95",
"$X c #BEDBA7",
"%X c #C5C898",
"&X c #C3D097",
"*X c #C9C8A3",
"=X c #D5C3AC",
"-X c #D6CCA9",
";X c #D3C9AE",
":X c #D6CDAC",
">X c #C5D4AA",
",X c #D5C6B3",
"<X c #DCCDB5",
"1X c #D5CAB9",
"2X c #DDCEBA",
"3X c #CBD9B6",
"4X c #DBD2B5",
"5X c #D5D4B8",
"6X c #DED0BC",
"7X c #E0CFB7",
"8X c #E0D1B7",
"9X c #E2D3BC",
"0X c #CDE2B4",
"qX c #D3E2B6",
"wX c #D8CFC3",
"eX c #D5D1C6",
"rX c #DDD3C3",
"tX c #D6D1C9",
"yX c #DBD5CC",
"uX c #DBD9CA",
"iX c #DEDBD3",
"pX c #E4D5C1",
"aX c #E6D9C5",
"sX c #E8D9C6",
"dX c #E4DACB",
"fX c #EADDCC",
"gX c #E3DED4",
"hX c #E2DFD8",
"jX c #DAE2C4",
"kX c #D8E6C9",
"lX c #DEE6D7",
"zX c #E4E5CD",
"xX c #ECE0CE",
"cX c #EDE3D4",
"vX c #E2E0DB",
"bX c #EEE6D9",
"nX c #EBE9DB",
"mX c #F0E6D5",
"MX c #F0E7D8",
"NX c #F2EADC",
"BX c #F3EEE4",
/* pixels */
"1.1.7.a.7.s.7.7.1.1.6.6.4.7.7.a.u.7.8.p.0.7.r.u.9.j.e.s.4.4.y.w.y.4.1.4.1.w.a.r.7.4.r.q.<.4.c.5.r.p.g.1.4.4.q.4.<.q.1.w.9.8.c.4.4.4.4.a.s.i.",
"q.4.4.g.7.s.r.1.1.1.<.h.4.p.5.c.e.8.7.s.w.7.r.s.7.s.9.p.7.4.y.w.y.1.<.4.1.4.a.a.4.4.f.w.4.4.a.8.9.a.h.1.4.7.w.4.4.q.4.r.9.r.y.4.q.4.4.a.i.u.",
"8.q.<.r.8.p.p.7.1.w.1.p.8.r.<.g.9.e.9.s.u.9.p.s.7.p.r.p.r.1.r.4.w.1.1.4.5.>.w.c.1.4.f.w.4.4.r.5.5.c.p.1.,.y.5.4.d.6.5.q.4.c.y.<.w.4.4.a.i.u.",
"n.h.1.9.9.s.9.9.<.0.q.1.p.8.,.w.p.9.p.p.u.s.s.u.7.9.r.p.r.<.r.4.q.>.q.4.l.x.U.T.Y.T.R.@X$X$X0X$X3XlXzXlXkXkX0X0XqX0X3X3X$X$X@XR.@XF.5.e.u.i.",
"$X#X>X>X*X3XqX0XqXqXjXkXuXuXuXiXzXkXzXqX0X0X0X3X3X;X3X3X3X5XzXjXjXjXjXkX3XuXgXdXdXgXbXbXbXcXcXfXrXuXrXrX5X4X5X4X4X4X4X4X;X:X:X:X-X*XU.r.e.9.",
"*X#X:X4X4X:X*X-X-X-X:X4X8X8X8X6X9X9X8X4X-X-X-X<X4X2X6X9X9X7X<X<X<X7X8X9XpX9X9X9X9X8X<X<X<X7X7X9X9X9X9X9X9X7X9X9X9X9X9X9X6X6X9X5XOX#XW.c.9.9.",
"3X3XMXaX8X9X9X9X9X9X9X9X9X9X9X9X9X9X9X9X8X9X9X9X9X9X9X9X9X9XpX9X9X9X9X9X9X9X9X9X9X9X9X9XpX9X9X.X}.,XpX,X<XpX6X8X9X9X9X9X9X9X9X1X(.].T.p.7.7.",
"$X>XaXpXpX9XpX9X9X9X9XpXpXpX9XpX9XsX9XsX9X9X9X9XpXpX6XpXpX9XrXpXpXpXpXpXpXpX9XpXpXpX9X9X9X9X9X=X=X<X9XcX'.2X9X9X9X9X9X9X8X9X9XsX9XjXr.r.9.4.",
">X#X`.#X%X*X4XpXpXaXpXpXaXaXfXfXfXcXcXmXfXmXmXmXmXmXmXmXmXmXMXMXcXmXmXmXmXbXmXnXcXmXmXxXcXmXmXmXbXfXMXBX^.}.xXpX9XxX9X9X9X8X4X%X+X@Xw.w.4.<.",
"q.4.n.+X+X_._.}.{.A..XOX'. .=  .=  . . . . . .X. .X.X.X.X.%.X.$.$.%.%.%.%.B.%.%.%.B.%.%.B.%.%.%.B.B.A.%.%.%./.OX%XA.{..X{.G.G.W.m.4.r.r.4.<.",
"8.4.<.7.r.z.@X}..X(.=X=X.X= . o X X X X X X o o X X o O O # # O O O O O o o o X       . . .   . . .   X . + [.-X}.$..X}.+XU.y.7.4.7.r.r.7.q.",
"w.8.8.q.p.p.R.`.6X4X9X<X=XB.X @ @ + @ @ $ $ @ % & 7 7 7 7 7 7 7 9 7 7 9 9 9 d 9 d d 9 & & & 7 7 & 7 7 7 # O.}.,X=X,X9X`.U.p.w.,.4.4.q.y.4.8.",
"4.w.<.w.r.e.U.+X8X9X9X9X,X/.& # & > , 8 8 8 w e t i u i a i a a a a a b b c a b c b b i e w w w 9 8 , 9 - O..X2X9X9X7XF.v.9.r.1.4.<.0.0.8.4.",
"4.w.>.8.g.e.v.+X9X9X9X6X<X/.d , r w w 9 8 e a a p p p p p a p p h j j h j p h h h h h p a r 8 8 8 8 8 7 - &.<XpX9X8X8Xm.g.4.f.4.4.>.6.4.5.4.",
"5.4.4.<.f.r.s.W.4X9X9X9X<X[.K > 9 w 6 , w a u p p p k k k k k k k j k j k k k h j j j p p p w 8 8 w w 7 - S.9XsX9X9X4Xz.4.q.r.1.q.:.q.>.q.>.",
"q.4.5.>.7.s.e.E.-X9X1X6X6X'.K : r w w r a u u a b a v i i i a a a i i i u a a a a i i i i p u 9 9 w r 8 - D.fX9X9X9X%Xj.<.r.7.4.q.:.6.>.5.>.",
"4.6.1.,.:.g.e.U.%X7XD.}.aX}.K > t e w p p u a b a b a a b a a b a b b a a b a a a a b a a a p p 9 w w 9 - ).fX9XpXsX+X7.4.g.7.1.4.>.4.>.5.>.",
"4.q.1.1.,.p.i.N.&X7XA.}.aXXX{ - t w u a k u a a a a b a b b b a b a b a b a b a b a a a a a i l g 8 e 7 > }.fX9XaXpX+X4.7.g.4.4.4.y.4.4.4.8.",
"5.q.4.8.1.e.u.v.Q.sX/.OXfXoX..: r e b p V u a b a a b a b b b b b V b b b b V b b a a b a a p V f w r , 6 *XcX9XaXpXW.4.q.h.4.1.q.r.4.w.4.r.",
"8.r.8.q.9.p.i.z.Q.pX2X<XfX,XO.: r u b a l u b b V b b b a b a b V a b b b a b b b b b b a b u I f e r , d 1XcX8XpXpXN.1.w.r.1.<.0.q.0.w.>.r.",
"9.p.w.7.7.s.u.z.W.9XpX9XxX,X@.: t a a p I p b b V b b b b N b b c v b b b b b N b b b b b b p ! a u r - K rXdX8XpX9Xx.4.q.0.<.<.4.4.q.<.1.g.",
"u.u.9.1.7.p.i.s.E.6XpX9XxX2X@.> t b b p ! j a V b b b b N b b n 8.r.J b V N b b b b V b b a p ! u N r - O.dXfXrXpX7Xj.7.8.0.,.<.4.4.7.,.7.p.",
"e.e.7.1.7.9.s.i.U.<XaX6XxX6XV.> p b b a I a a b b b b b b V N b a.r.J v b N b b b b b b b a k I y N g - @.xXaX6XpX<Xw.9.7.4.,.<.7.4.3.7.8.g.",
"u.8.7.0.1.9.c.i.I.-XaX6XxXrXV., p b V a I k a b b V b V n b N N c x n b b V b V N b V b b i I I i B g - S.bXfX6XpX*X4.8.8.7.,.,.1.1.w.4.7.g.",
"u.7.4.q.1.4.s.i.I.%XpX9XxXpXV.7 p N b a I k a b N V b b v N b a b N b b b v V N V b b b N i Z I i C y 8 &./.,XpXpX#X1.q.r.5.<.4.<.4.q.>.8.f.",
"u.1.w.q.,.8.u.e.v.&XaX6XfXuXD.9 p b b a I V i b N n N C C A D D C T D C C C N N b b N N b i U P a V u -  XiXXX2X9XQ.,.w.p.4.4.5.<.q.6.>.w.r.",
"9.1.w.q.>.w.9.e.l.#XpXrXfXgX/.d u N b a I V b C D T R R R R R T R T R T R R F D A n N b N i Y j b V e > OXBXaXpX9XY.,.q.q.4.w.4.>.q.>.4.r.4.",
"8.4.q.y.1.w.8.y.l.%XpX9XdXcX(.L y N N v ! U m R T R T T T R D T T T T T D T T T R R D A N a ! p b N f 6 OXBX9XpXsXN.;.q.w.4.5.>.5.5.>.4.w.1.",
"4.4.<.d.7.8.7.f.t.#X9XpXaXbX[.L y B D D Y U m T T T D R T T R R T R R R R T T T R F T T D N I p v V e d ,XBXpXaX9Xn.;.r.r.8.r.4.q.>.>.q.4.4.",
"8.1.7.d.q.8.4.d.0.+XpXpXaXnX'.P i C D D U U D R R R R R R R W W R W R R R R R R R D F T D A ~ c B k q K rXbX9XpXpXx.>.q.r.8.y.4.4.<.<.5.q.4.",
"q.,.8.p.w.1.1.d.7.+X9XpXpXbX{.P c B D D A A m D D D D D D D D F F D D D D F F F D F D D B D ~ D D j 3 o.aXcXpXpXpXx.4.4.r.4.r.q.4.<.4.4.q.4.",
"q.1.1.q.g.1.1.d.7.E.9XpXpXNX].+.x A W T V C A U U ^ ^ _ _ _ ( _ _ / / _ / / / / Q U A S A C Z D D B 3 @.gXgXpXpX;Xt.q.4.r.8.w.4.5.>.5.>.4.4.",
"0.1.,.7.g.q.<.a.e.M.-XpXpXbX X-.q M m F D A D E E E U Q Q E Q Q Q Q E Q E Q ^ E E U U D A B B T T A 4 S.cXfXpX9X*X1.q.1.8.p.9.<.4.>.6.4.4.4.",
"1.<.>.1.r.r.<.a.a.z.%XpXpXBXoX#.z _ [ _ D R F R G F G F G G G G G W G G W F R R W F F F R W T R T A 4 D.BXsXpX9X@X1.q.4.1.w.7.,.5.>.>.q.4.4.",
"1.1.:.4.4.a.4.u.c.f.+XpXpXNX;X#.U !.~.P.! n D C A S F E E W W Q R E E Q E T T T E A A D C D R T T A 4 ).BXpXpX9X@Xq.q.4.4.r.7.:.4.4.>.4.4.4.",
"4.1.>.4.1.e.e.u.a.r.H.pXpXbX1X#.] ~.~.!.P c ~ A E / / / _ _ _ _ _ _ _ _ _ _ _ ~ E Q U C U U F D A N y {.NXpXpXpXY.q.q.1.4.p.q.,.4.q.1.<.4.<.",
"4.<.<.4.1.8.9.e.r.p.F.9XpXMX2X*.Y K.P.K.g N ` S F F W W W G W W G W G G R R W R R R D C ' E D T U v g .XNXaXpXpXI.w.5.4.8.r.8.<.q.q.4.4.4.<.",
"1.1.0.4.7.9.9.u.e.w.N.9XpXmXwXZ.a =.-.) } c =.T D R W W W R W W W W W W W W W W R R R E =.A R T S c H ,XBX{.=XdXn.q.4.>.w.w.4.>.r.4.4.q.<.4.",
"1.1.q.4.w.r.7.9.9.w.z.pXpXcXpXS.u K.* +.J.5 ' E R R G G F G G G G G G G G W W W R R R U ` C R F S q P 2XNX[.OXfXk.y.4.4.q.q.4.4.r.4.q.4.<.5.",
"1.1.q.1.7.r.1.9.7.7.t.pX9XcXdXD.s K.J.L.L.5 / U D T E ( ( ( ( ( ( ( ( ( ( ( E W E T D U ~ D R D A 4 o.tXNX}.7XuXy.4.>.8.q.4.:.w.q.4.7.>.4.q.",
"4.1.4.4.8.r.4.4.7.7.w.<XpXxXgXD.j ] L.L.J.5 A A A U U ^ ~ / Q ~ / / / / ^ U U U U A C C C D T F U 2 #.gXgX<XdX3Xr.8.<.5.8.4.>.f.q.4.4.>.4.4.",
"5.4.4.8.9.r.8.7.4.4.p.%XpXfXfX/.! q f i g j R D F S F F F D D F G F F F F F T R D F F R R R T R A 1 *.cXxXpX6XF.r.4.8.4.4.4.4.y.8.4.4.4.q.q.",
"q.q.4.e.r.7.q.t.7.1.u.G.pXsXfX/.| c N G W D T T F F F D D F S D S D D D D D D D D D T D D T D T V 3 /.mXfXpXaXx.r.4.w.4.4.<.8.r.r.8.4.1.4.w.",
"q.4.<.e.e.4.4.t.0.1.9.N.pXsXgX[.| x V D D N A A E U ^ ~ / / ` ` ` ` / ` ` / / / U E U A V C D D b 3 /.NXsXsX1Xk.q.4.8.4.4.<.q.r.f.8.4.1.4.w.",
"5.4.4.r.8.4.<.6.d.1.w.n.pXpXxX'.| x V m T Z A B V C S U E S E S E T E E E T E E T A C C A C F T a 0 [.BXaX9XxX5.q.4.4.<.5.<.w.5.r.7.4.1.1.w.",
"7.4.4.8.8.>.<.4.d.w.w.x.sX1X^.(.+.z l D D A A n D F F F F F F D F D F D D D D D D D n C U C D T y 0 XXNXpXpXuX4.4.4.q.q.4.4.r.<.r.q.4.>.4.q.",
"4.7.4.9.4.>.<.<.q.w.9.z.pX6XmX*X-.z k C D U U C R T F T F F F F F S T T R T T T D R D U ~ D D D y H OXNXrX9XuXr.<.4.w.5.4.<.w.4.w.y.1.,.1.8.",
"1.q.4.4.4.>.<.4.4.w.p.l.pXpXNX X+.q V T m U U n S F S T F S D F D D D T T D F F D D D U ~ m D U 3 L 1XcX6X6XkXr.<.<.f.5.4.4.q.5.q.y.1.1.7.1.",
"1.0.1.4.<.<.6.6.4.4.p.h.9X9XcX X#.x V D D U ~ n D D D D D D D D D D D F D F D D D D B ~ Y B F Z 1 } eXcX6XpX3Xq.5.4.c.6.<.4.q.q.1.y.4.q.q.1.",
"1.3.<.4.>.4.6.6.4.<.p.d.-X6XcXoX#.4 V C D C U n D D D D D D D D D D D D D D D D D D B ` Z D F V 1 O.uXxX9XpX#X8.8.q.r.8.>.5.4.q.1.q.4.y.q.,.",
"<.3.1.4.<.1.6.<.4.4.w.w.Q.9XxX,X*.q N D D Z ~ C D D D D D D D D D D D D D D D D D D B ` A D F j ; &.xXfX9XaXn.7.7.a.9.4.,.1.1.q.1.7.4.r.q.>.",
"3.,.1.1.>.6.6.<.q.4.w.r.N.9XfX1XS.3 N D D b Y b D D D D D D D D C D D C D D D D D D B ` N F C i : S.cXdX9XdX3.4.8.a.e.7.1.<.1.w.1.1.4.f.5.>.",
"1.3.4.1.4.1.4.6.0.1.p.8.z.9XfX2XV.r N D D C ! B D D D D D D D D D D D D D D B D D D C ` B D N f 3 D.vXpX9X5X,.1.9.p.9.r.1.1.7.h.4.4.8.g.4.<.",
"7.w.w.1.f.<.>.q.4.<.p.1.j.6XsXwXZ.g y A D C Y C B D D B D D D D D D D D D D D D D B A ~ n C j i 3 ).cXpX9X3X<.1.p.u.u.s.7.1.0.p.7.e.u.r.4.r.",
"d.7.w.1.f.4.4.q.1.1.w.7.h.6XsXwXS.g 3 C D N I B D C D D B D D B D D D D D D D D D B U ! n N M f 6 }.cXpX9X@X4.1.u.7.r.r.7.1.7.p.4.u.e.8.8.q.",
"0.4.7.7.r.4.4.6.<.8.9.9.p.7XaXwXD.L 3 j D B Z V B D B D D D D D D D D D D B D C D B Z Z n i j e 6 =XfX9X9XR.6.4.9.7.s.w.7.1.4.g.7.u.e.9.r.4.",
">.4.4.4.y.4.q.<.1.0.4.p.p.7XpXpX/.L 1 p N D V B B B B B B B B B n n B B B C C B B B Z k i b k e H ,XfX9X5XU.8.4.w.1.g.q.7.,.7.s.p.s.9.g.q.1.",
"4.4.4.4.r.w.q.>.4.4.8.a.9.4XpX9X/.} < f a b j N N Z A A U ~ U ! ! A ^ U A Z Z Z V C j y a i j 3 } 1XsX9X1Xn.4.5.7.1.h.4.1.,.7.s.s.s.e.p.1.4.",
"5.4.4.<.w.w.q.<.4.1.q.g.7.7XpXrX/.} ; r i u a v C V B C C C C C C C B B B B C C C j y u i a h ; O.2XpX8XrXk.4.y.1.0.h.4.7.7.7.p.p.u.e.y.>.4.",
"r.4.<.4.r.4.q.4.7.7.q.a.7.*X9X2X(.} < r e a a b C D D C C C C D S C C D S C D B N i a i a i r ; *.wXpX<XuXt.6.6.1.0.r.7.0.w.7.r.u.u.e.7.4.4.",
"r.9.<.4.q.4.7.4.q.8.8.r.w.H.pX7X'.o.: g r r h h j A A E Q U A E A S F A A Z k j j j k N j g d : C.6XpX9XtXx.6.4.1.q.8.1.w.p.7.r.e.9.9.<.8.5.",
"r.f.<.<.7.1.4.>.p.7.8.1.h.H.9X<X[.o.; ; ; ; ; ; < ; < 1 2 2 2 2 2 2 1 < < ; < < < < < 1 ; ; < ; S.2X9X<XyXm.6.<.1.w.1.4.0.p.7.r.8.e.7.<.5.<.",
"5.a.4.<.4.1.1.>.p.<.7.<.l.`.%.}.).S.*.S.S.&.C.S.S.S.S.S.*.*.*.*.*.*.*.*.*.#.@.O.O.o.o.o.} } } } D..XA.}.iXBX6.>.1.q.1.7.1.j.7.7.8.8.4.q.5.<.",
"<.r.8.<.4.1.4.1.r.<.7.0.k.xXwXdXfXvXnXbXnXNXMXMXMXMXMXMXNXNXNXbXNXNXMXMXgXmXgXbXcXcXcXfXdXgXaXrX2XpX XpXcXNXx.,.0.1.4.1.w.r.7.7.8.4.4.5.5.<.",
"4.w.w.4.5.4.6.6.t.6.t.E.aXfXxXxXxXxXcXcXcXmXcXMXbXNXNXNXNXBXNXNXNXNXNXNXNXNXNXNXBXNXNXNXNXNXMXMXbXmXmXcXfXsXsXF.6.6.4.4.y.8.8.4.4.4.q.6.4.4.",
"4.5.q.<.<.<.6.6.q.Y.|.,X9X7X2X<X8X7X4X9X9X2X9X7X7X6X7X9X9X9X9X9X9X9X9X9X9XpX6X9X9X9X9X7X7X2X7X2X<X7X<X9X6X2X=X;Xm.>.q.4.y.8.8.8.>.4.6.4.4.4.",
"<.4.5.<.>.4.2.4.t.Y.yX2XpXrX9XpXpXpX9X9X9XpX7X6X7X2X2X<X<X2X7X2X<X<X2X2X7X2X2X7X9XpXpXpXpXpXpXpXpX9XpXpXpXrX1XiX>.q.5.4.4.q.4.4.4.>.8.4.4.r.",
"<.<.<.<.>.2.>.>.n.iXwX,X=XoXoXoX X X X X|. X|.|.|.|.|.].].].{.|.|.].].].|.|.|.|.|.|.|.XX|.|.|. X XoXoXoXoX=X1XuXR.y.>.6.4.5.5.<.>.>.4.>.4.y.",
"6.>.>.2.2.2.>.3XiXiXiXyXyXiXyXiXyXyXyXyXyXyXyXyXyXtXtXyXtXtXtXtXtXtXeXtXtXeXtXtXeXtXyXtXtXtXtXtXtXtXtXtXtXtXtXuXeX3X;.>.;.2.6.>.>.>.>.>.4.y.",
"6.>.>.3.>.>.b.kXiXvXhXhXiXiXvXvXhXhXhXhXhXhXhXhXvXvXvXvXvXvXvXvXvXvXvXvXvXvXhXvXhXhXhXhXvXiXvXvXhXvXhXhXvXhXhXhX$X$Xb.>.;.6.4.<.>.>.>.:.8.4."
};
