/* XPM */
static char *result[] = {
/* columns rows colors chars-per-pixel */
"70 70 237 2 ",
"   c #000001",
".  c #030709",
"X  c #050517",
"o  c #170D12",
"O  c #24001E",
"+  c #1A310A",
"@  c #24380D",
"#  c #000127",
"$  c #1C0026",
"%  c #06152B",
"&  c #091630",
"*  c #230726",
"=  c #24012B",
"-  c #29172B",
";  c #280D33",
":  c #2C1835",
">  c #311C31",
",  c #0E213B",
"<  c #152337",
"1  c #292625",
"2  c #2D2C2C",
"3  c #302F29",
"4  c #2B3628",
"5  c #31312C",
"6  c #292835",
"7  c #312639",
"8  c #2B3939",
"9  c #323434",
"0  c #343A33",
"q  c #35353A",
"w  c #313B3D",
"e  c #3A3B3B",
"r  c #0F4D00",
"t  c #254709",
"y  c #2B5609",
"u  c #2A4617",
"i  c #2D5213",
"p  c #355E14",
"a  c #166300",
"s  c #356A09",
"d  c #366F0D",
"f  c #397302",
"g  c #3B7508",
"h  c #3A6B16",
"j  c #32512D",
"k  c #324935",
"l  c #355338",
"z  c #3A6923",
"x  c #2A6B35",
"c  c #40780A",
"v  c #417516",
"b  c #417222",
"n  c #416134",
"m  c #2D0E48",
"M  c #1D2B43",
"N  c #282A48",
"B  c #322D48",
"V  c #2D3243",
"C  c #273448",
"Z  c #2A3548",
"A  c #363B4A",
"S  c #343D4D",
"D  c #2E2D50",
"F  c #312A52",
"G  c #343551",
"H  c #353E51",
"J  c #463A4E",
"K  c #38424B",
"L  c #354253",
"P  c #394355",
"I  c #314F51",
"U  c #3C4758",
"Y  c #306B5C",
"T  c #424343",
"R  c #444854",
"E  c #444C5C",
"W  c #4B545D",
"Q  c #555759",
"!  c #447148",
"~  c #4B5465",
"^  c #535A66",
"/  c #5D626D",
"(  c #656A76",
")  c #67707D",
"_  c #767676",
"`  c #298A00",
"'  c #3C8305",
"]  c #368D00",
"[  c #3A8D00",
"{  c #359200",
"}  c #3C9400",
"|  c #3E9A01",
" . c #3A9A07",
".. c #35A200",
"X. c #358B36",
"o. c #38A233",
"O. c #438502",
"+. c #458B03",
"@. c #46880A",
"#. c #429600",
"$. c #4A9600",
"%. c #459B01",
"&. c #499E01",
"*. c #49920C",
"=. c #459C0A",
"-. c #4B9D0A",
";. c #529D02",
":. c #539A0A",
">. c #488913",
",. c #489B17",
"<. c #559A15",
"1. c #45A201",
"2. c #4CA202",
"3. c #4DAB00",
"4. c #4DA30B",
"5. c #49A608",
"6. c #51A503",
"7. c #59A500",
"8. c #54AA03",
"9. c #59AD04",
"0. c #52A60A",
"q. c #55AB0B",
"w. c #59AE0B",
"e. c #54B200",
"r. c #5CB203",
"t. c #5BB803",
"y. c #5CB20C",
"u. c #4CA213",
"i. c #4FA01C",
"p. c #53A614",
"a. c #56AC12",
"s. c #5AAE11",
"d. c #52A51A",
"f. c #59A619",
"g. c #5AAD1A",
"h. c #5CB312",
"j. c #5FB810",
"k. c #5DB219",
"l. c #61B503",
"z. c #6BB700",
"x. c #63B904",
"c. c #6ABC02",
"v. c #62B50B",
"b. c #64B90C",
"n. c #6ABD0B",
"m. c #64AB17",
"M. c #61B612",
"N. c #64BA12",
"B. c #69BC13",
"V. c #65B91B",
"C. c #47A225",
"Z. c #59A827",
"A. c #5EB321",
"S. c #47AD3E",
"D. c #6CAE28",
"F. c #69BA22",
"G. c #6BA739",
"H. c #6AC106",
"J. c #6CC016",
"K. c #6DC020",
"L. c #3A955E",
"P. c #3BB145",
"I. c #3BA96B",
"U. c #38BA69",
"Y. c #4DB54A",
"T. c #76AB49",
"R. c #76AA4D",
"E. c #7EB255",
"W. c #48946C",
"Q. c #739262",
"!. c #42A971",
"~. c #42B975",
"^. c #7FA563",
"/. c #4BC256",
"(. c #83B758",
"). c #86A968",
"_. c #8DB06E",
"`. c #96BA7A",
"'. c #88C156",
"]. c #93C26B",
"[. c #A2C67D",
"{. c #747986",
"}. c #7C8589",
"|. c #868B95",
" X c #96999B",
".X c #96A788",
"XX c #9CB489",
"oX c #A2B98C",
"OX c #A3AA9B",
"+X c #A6B895",
"@X c #999CA0",
"#X c #A5A7A5",
"$X c #ACADAA",
"%X c #A6AAB3",
"&X c #ADB5B0",
"*X c #B4B3B4",
"=X c #B7B9B8",
"-X c #A3C486",
";X c #ABC694",
":X c #B3CB9D",
">X c #B9C9A8",
",X c #BFD2AB",
"<X c #BCC2B2",
"1X c #C2C9BB",
"2X c #C7D3BA",
"3X c #C5C5C4",
"4X c #C9CAC5",
"5X c #C7C9CE",
"6X c #CCCCCC",
"7X c #D0CECF",
"8X c #CED6C5",
"9X c #D2D9CA",
"0X c #CECED1",
"qX c #D1CFD2",
"wX c #D3D3D3",
"eX c #D8DCD5",
"rX c #DBDBDB",
"tX c #E0DFDF",
"yX c #DEE1D9",
"uX c #E2E4DD",
"iX c #DFDEE2",
"pX c #E0DEE1",
"aX c #DEE1E3",
"sX c #E7E7E7",
"dX c #E8E7E5",
"fX c #E7E8E5",
"gX c #E7E6E9",
"hX c #E8E7E8",
"jX c #E7E9EA",
"kX c #EAEAEB",
"lX c #F0EFEE",
"zX c #F1F1EE",
"xX c #EEEEF1",
"cX c #EDF0F2",
"vX c #F2F3F3",
"bX c #F8F8F8",
"nX c #FBFCFC",
/* pixels */
"2.&.8.N.7.B.7.6.6.%.5.0.2.6.8.b.l.6.9.v.6.;.w.l.9.n.7.y.8.2.q.w.k.&.&.2.&.9.b.v.6.2.b.q.#.8.N.8.r.v.N.6.2.6.8.&.5.q.&.w.9.8.N.8.&.2.6.v.n.z.",
"q.5.6.N.9.b.v.$.&.&.&.a.6.w.q.B.x.7.7.b.9.6.r.b.6.n.r.y.9.2.a.q.h.&.&.2.&.2.b.b.1.6.N.w.2.1.y.8.8.N.N.;.&.q.w.%.6.0.2.y.r.y.N.2.8.q.&.v.c.l.",
"q.w.&.v.9.v.v.6.&.w.%.q.w.w.2.N.v.7.7.v.9.9.l.n.6.v.y.y.y.2.w.8.q.%.-.2.6.&.w.b.&.4.M.8.&.2.y.2.6.B.v.;.$.w.0.1.M.8.6.q.2.N.q.&.y.2.&.v.z.l.",
"&.y.2.w.9.b.l.7.$.0.a.2.v.6.%.v.v.7.b.v.l.z.n.l.2.8.r.v.y.%.0.2.2.#.0.2.y.6.2.B.2.8.w.6.%.4.y.%.6.B.y.$.%.q.1.w.V.6.q.&.&.N.y.2.w.#.2.l.l.l.",
"1.2.8.8.9.x.v.9.1.%.h.8.q.8.} 8.w.q.b.l.l.H.n.r.6.6.9.M.v.$.0.4.4.#.0.0.2.9.2.y.r.8.8.y.2.2.8.2.8.B.v.[ ;.2.w.w.q.w.6.} 2.y.b.y.%.} 9.v.r.9.",
"a.%.8.r.l.l.n.l.6.} 0.r.9.j.$.0.s.8.v.b.l.H.n.9.7.8.8.N.M.#.q.8.-.&.2.w.4.8.6.y.y.9.2.y.q.4.2.y.9.v.v.$.6.2.y.4.6.y.&.} 8.2.y.N.%.&.w.v.9.8.",
"y.1.8.l.b.9.n.9.8.2.4.y.9.N.&.&.9.;.6.c.z.c.n.a.q.l.2.w.k.i.d.k.-.4.6.8.y.6.2.y.N.8.2.y.y.2.3.M.7.r.N.6.r.8.8.5.r.9.%.2.8.2.8.N.9.2.r.v.8.6.",
"y.1.6.r.N.7.v.9.8.q.1.9.8.M.9.2.7.q.6.w.x.x.N.8.&.z.v.7.r.| ..q.4.d.Z.d.h.4.&.9.N.8.&.q.w.&.q.y.w.7.v.w.B.8.2.9.r.9.&.r.7.q.8.M.w.2.v.v.8.2.",
"w.4.2.8.N.6.9.9.2.w.&.8.6.r.N.w.6.s.f.2.M.V.x.-X2X8X8X8X,X-XT.7.3.{ 3.| 2.p.=.6.B.y.&.2.q.&.3.9.w.;.w.r.N.8.2.8.q.y.2.v.8.w.y.9.r.&.r.y.2.%.",
"q.2.&.6.v.8.;.9.2.q.%.2.2.8.N.y.0.2.6.7.7.3.[.sXzXkXkXhXjXfXyX8X2X,X;XE.6.&.{ u.V.w.6.2.8.&.&.2.7.6.7.v.b.8.&.6.8.b.y.M.6.j.y.2.8.8.y.y.2.%.",
"4.2.&.;.l.v.2.6.w.w.%.2.6.q.F.F.4.f.>X9X2X,XrXhXfXsXsXsXfXjXhXjXkXkXkXyX4X<X).%.k.g.8.2.6.2.&.6.6.9.&.9.N.2.%.1.3.b.B.y.9.V.w.6.6.2.y.y.4.8.",
"8.8.8.8.y.v.2.8.w.M.4.&.j.a.x.t...;XkXjXkXkXhXfXsXfXsXsXsXsXsXsXjXfXjXjXkXkXiX-Xr.1.u.8.3.&.q.6.6.w.&.w.N.2.2.5.2.l.J.r.v.N.9.&.2.2.q.y.8.9.",
"3.9.5.9.v.y.9.e.9.N.2.-.y.r.'.'.`.yXfXsXsXsXsXsXsXhXsXsXsXsXfXsXjXsXsXsXsXsXhXhX>XR.%.y.5.%.8.q.q.9.&.s.s.&.w.%.2.v.v.r.v.9.y.1.&.%.0.8.8.2.",
"2.q.&.6.M.r.r.r.w.b.-.u.8.:XuXuXfXjXsXsXsXsXsXjXfXhXsXsXgXhXhXsXfXsXsXhXsXsXsXhXiX3X_.9.u.4.4.q.M.$.&.v.0.2.a.%.6.l.l.l.9.2.v.2.&.%.4.4.6.&.",
"4.2.2.} M.l.l.l.v.b.,. .-XdXhXhXhXsXsXsXsXsXsXsXsXsXsXhXsXfXsXsXsXsXsXhXsXsXsXfXrX6X4X(.1.g.} 4.M.&.;.w.2.2.2.} 8.r.l.r.2.q.j.2.0.#.5.5.4.=.",
"0.2.2.[ 6.b.r.l.n.V.{ ).yXhXfXdXsXhXfXsXsXsXsXsXhXhXfXsXsXsXhXhXhXsXsXfXfXhXsXjXsX5X6X&X8.5.=.6.M.w.8.6.2.9.&.%.7.l.r.8.&.M.q.&.p.#.%.4.4.} ",
"6.q.&.#.#.N.v.l.J.l.G.9XkXsXfXhXsXhXsXfXhXsXsXsXsXsXsXsXsXhXsXfXdXsXsXsXfXsXdXsXsXsXrX6XXX{ 5.4.6.B.9.;.2.y.4.2.9.l.9.6.6.N.0.&.8.-.1.&.5.} ",
"0.w.;.-.$.v.b.l.K.t.:XhXsXhXsXsXsXsXsXsXsXhXjXsXsXsXfXhXsXsXsXhXjXsXsXsXhXhXsXsXsXdXkXwX6XXX&.2.q.B.y.6.2.y.r.1.6.v.r.&.w.B.q.&.5.s.2.2.2.4.",
"a.w.&.6.7.7.l.M.t.D.yXkXsXsXdXsXsXsXsXsXsXhXsXsXsXsXsXsXsXhXsXsXsXsXsXjXsXsXsXsXsXsXhXsX6XqX`.2.k.w.v.6.2.y.q.2.2.v.7.&.w.V.0.%.q.w.2.q.1.y.",
"w.y.6.9.9.v.l.V.e._.fXhXsXsXhXhXsXjXsXsXsXsXdXsXjXsXsXhXfXhXsXsXdXsXsXsXsXhXjXsXsXsXsXsX6X7X1Xm.y.:.w.6.2.y.8.2.&.v.6.2.w.h.&.%.8.4.8.w.%.y.",
"r.b.8.6.7.b.l.V.e.`.kXhXsXhXsXsXsXsXhXsXsXsXhXsXsXsXfXsXfXsXsXsXhXsXfXhXhXsXhXsXsXsXsXkXwX6X4XT.t.-.6.6.6.w.6.%.2.v.8.2.w.q.#.$.2.2.9.&.&.B.",
"l.l.7.;.6.v.z.F.3.[.fXfXfXsXsXsXjXsXsXsXfXhXsXsXhXsXhXsXhXsXhXsXsXsXhXsXfXsXsXsXsXhXdXhXwX6X4X(.r.0.6.6.6.8.4.} 2.b.7.2.q.q.} %.2.4.4.#.6.b.",
"r.r.6.&.&.9.n.F.3._.sXhXsXhXsXsXsXsXfXhXsXsXsXjXsXsXfXsXsXsXhXsXsXsXsXsXsXsXdXsXhXsXsXhXwX6X7X(.3.p.8.6.6.w.4.#.6.b.9.8.8.2.} %.6.2.0.6.7.N.",
"x.r.6.q.&.8.H.J.e.F.9XhXsXsXsXsXsXsXsXhXdXsXsXsXsXhXhXsXsXhXhXfXsXjXsXsXhXsXsXjXdXfXjXhXrX6XwX+X8.k.8.&.2.v.2.2.9.N.4.8.w.1.%.&.&.&.w.6.;.B.",
"x.3.2.s.&.2.n.x.F.3.,XjXsXsXsXsXsXfXsXsXsXsXsXsXsXsXsXsXsXsXsXsXsXsXfXhXhXsXsXhXsXsXsXhXtX5XqX4XT.r.p.$.8.b.8.9.l.v.&.q.y.0.| 1.%.2.w.$.6.M.",
"r.&.q.s.#.8.r.M.e.T.eXjXsXsXsXsXsXsXsXsXjXsXsXsXdXjXhXdXsXsXsXsXdXsXsXsXsXsXfXsXhXhXsXjXfX4X6XqX+Xt.k.#.q.y.8.y.l.m.$.w.j.2.1.q.} q.4.#.w.y.",
"9.%.s.s.#.w.y.y.9.2XkXfXsXsXsXsXsXhXhXsXsXsXsXsXsXhXsXsXsXjXsXhXjXsXdXsXsXsXhXsXsXsXfXhXsX4X6X7X=Xm.t. .8.r.t.b.v.q.+.q.y.1.y.5.%.q.%.%.w.6.",
"6.2.w.s.5.q.g.3.`.fXjXfXsXsXsXsXsXhXfXhXsXhXsXsXsXhXfXsXsXsXsXhXsXsXhXsXsXsXhXsXsXfXsXhXrX5X6XwX3X^.t.u.q.b.x.r.8.0.] q.w.2.q.} 4.4.] 2.w.-.",
"6.2.2.M.q.6.g.e.;XkXsXsXsXsXsXsXsXsXfXhXsXsXsXhXsXsXhXhXsXsXsXfXfXsXsXsXfXsXsXsXsXsXsXhXeX5X6X7X3X_.9.g.9.b.n.r.6.5.] w.y.8.q.2.0.=.{ q.6.2.",
"8.&.q.M.9.6.d.e.,XlXsXsXsXsXsXsXhXsXjXfXfXhXsXsXsXhXfXsXsXsXsXsXhXsXhXsXhXhXhXsXsXsXsXsX6X6X6X7X3XOXD.r.w.t.t.8.0.:.#.w.y.6.j.8.2.%.&.4.0.4.",
"q.$.2.y.w.&.d.9.:XkXdXsXsXsXsXsXsXhXhXfXsXsXfXsXsXsXsXsXhXfXhXhXsXhXfXhXsXhXsXsXsXsXdXrX6X6X6X7X=X*X^.2.h.r.r.8.%.0.2.6.y.6.w.q.5.&.1.&.q.6.",
"q.&.#.h.N.%.,.e.;XkXdXdXsXsXhXvXhXkXvXkXhXhXsXsXfXhXhXsXsXsXsXsXsXsXsXsXsXsXhXfXdXdXkXrX6X6X6X6X*X*XOX;.8.9.r.8.#.0.0.%.9.w.9.2.1.1.0.&.6.5.",
"0.&.#.6.N.8.,.e.].fXjXsXjXvXvXvXzXzXvXzXvXvXkXjXfXfXfXsXsXsXfXfXsXsXfXfXsXsXsXsXsXsXhXrX5X6X0X3X*X*X*X^.2.h.9.8.%.%.0.&.6.v.w.&.5.| 4.4.2.2.",
"-.%.} &.h.j.-.y.H.:XyXaXhXvXcXvXvXvXvXvXvXvXvXvXpXsXsXsXsXsXsXfXsXjXgXgXsXsXsXsXsXdXkXrX4X6XqX3X*X*X*XOX<.8.8.6.&.%.q.2.&.v.q.} 0.%.| 0.1.1.",
"&.&.} -.0.b.r.l.H.3.T.yXvXzXvXvXvXvXvXvXvXvXcXvXxXvXcXvXcXkXkXkXsXsXhXsXsXhXsXsXdXkXdX6X6X6X7X3X*X*X*X*X_.5.g.2.2.q.9.1.2.y.0.[ -.2.} 2.2.&.",
"2.&.%.2.1.9.:.b n ! r <XnXvXcXcXzXvXvXzXxXvXxXbXvX&X X#X5XaXsXjXcXzXfXfXsXsXsXsXfXfXwX6X7X6X7X1X$X*X*X=X$XG.e.-.2.w.q.%.8.v.q.#.-.a.%.&.2.2.",
"&.&.&.%.' j V D F D G M %XvXnXbXbXvXbXbXnXnXnXgX^   # # # H ~ / ) =XxXsXsXsXsXsXhXrX5X6X6X7X4X_.R.OX=X*X=X.X8.5.&.y.q.%.8.j.5.&.q.a.&.1.&.%.",
"&.@.z k V B V 0 9 9 V V X R 0XjXwXnXaXcXwX6XcX@X  E R R P S N N   X iXxXsXsXsXsXdXwX5X6X6XwX&X6.2.).#X$X=X$XG.3.5.q.1.&.9.w.&.%.h.2.-.q.&.-.",
"$.1 m w 9 5 2 3 3 5 2 K E , N U & |.W ^ W   P % q 2 2 9 w q 9 e 2 T sXsXsXsXsXsXsX6X6X6X8XqXXX1.A.8.f.T.).).Z.2.0.w.-.&.w.8.%.5.j.2.6.4.%.6.",
"%.y * 2 5 9 9 5 9 6 7 & , U S C H X C , M E A A 9 e e 0 0 q e 9   $XvXsXsXsXsXhXsX6X6X6XqX1XG.| g.q.&.e.e.1.2.-.h.0.%.1.q.8.} w.q.2.8.%.-.q.",
"2.%.f u 1 * - * 1 i @ }.{., U U L E L E E C L S         o       $XvXhXsXsXsXsXkXrX5X7X6X7XoX2.,.w.q.0.k.g.d.2.&.h.2.2.2.8.2.} M.w.1.2.} 2.6.",
"0.2.3.2.;.+.O.+.>.%.Q.%X{.U S L H L C ( %X/ M Z  X X_ Q Q _ #XrXvXhXsXhXfXsXhXsX6X7X6XwX=Xf.1.4.y.8.y.w.1.8.0.&.w.8.8.2.2.2.&.j.9.1.2.2.6.q.",
"s.q.2.y.b.9.w.y.Z.{ }.)   ~ Z H H S E , }.|.< X wXnXxXhXfXkXvXkXsXsXsXsXhXkXhXwX6X6X6X1X(.1.-.2.j.e.y.2.%.2.h.4.8.8.9.2.&.&.8.j.y.8.2.&.2.w.",
"q.4.&.r.r.$.&.s.g.} Q %X^ L H L L H E M |.|.C   =XxXdXfXfXfXfXfXsXsXsXsXkXrXqX3X6XqX4X_.3.d.%.2.w.w.2.&.&.2.w.4.5.2.2.1.1.&.q.h.N.r.2.%.2.w.",
"q.5.2.r.9.2.} 4.M.*.& ( ^ C L H H L M ) %X~ L   $XzXpXuXfXjXfXsXsXaXgXjXiX3X6XrX7X<X_.3.a.1.%.0.q.8.1.2.3.&.w.2.1.2.2.2.2.&.q.8.j.8.2.%.&.q.",
"q.2.2.y.8.| %.&.M.:.V N Z P H S H H L K D C E   $XzXkXlXxXgXxXkXhXkXxXiX0XwXwX=X.X;.8.g.6.2.5.0.a.5.&.2.6.2.j.0.&.&.q.5.&.&.8.2.y.q.2.#.&.q.",
"6.6.5.9.2.} %.%.w.:.C L P L H L H H S S H H E   3XbXsX1XXXE %XxXsX,X;X+X<X6X_   a -.p.w.2.6.4.2.4.} 2.2.%.1.y.q.&.2.h.8.&.%.q.2.w.k.&.$.&.6.",
"$.6.2.8.2.} #.&.2.$.V H L L H L S S S L L L S 1 _ }.J a ` # # ~ J ] e.3.<.;   > z 2.6.y.&.5.w.2.2.2.2.q.%.2.8.y.&.&.h.q.%.2.y.4.q.h.1.&.6.&.",
"$.4.6.2.%.#.5.4.4.+.w P L L K H S P L H G L A 1     X h ,.S U C < <.F.s.&.o e = g 2.q.y.2.%.y.6.&.w.4.8.&.%.4.q.1.2.b.8.%.2.q.q.&.h.2.q.q.&.",
"&.:.2.2.%.5.4.4.4.$.4 G K A S H H A A L P K O f j q > h &.k G U A 0.&.0.8.4 9 = f 6.q.b.2.5.w.4.%.q.q.2.2.} 2.9.8.w.y.8.%.&.6.0.%.q.4.s.a.} ",
"$.&.&.2.%.%.0.&.6.2.g = B V S P P A A H 7 O x -.i > - s 2.j G H w 8.&.6.6.u 7 - s 2.y.y.8.y.0.2.%.-.j.&.&.%.%.8.2.t.r.2.%.&.2.6.&.2.2.y.0.} ",
"=.$.&.&.%.4.4.&.6.2.y.$.y 4 : ; : ; 6 8 I !.U.&.s > 7 u 2.z F H w ;.6.6.6.p - 2 i &.y.9.y.y.%.2.&.%.y.4.6.#.%.2.9.b.r.6.&.&.&.q.2.&.2.h.q.} ",
"$.4.2.&.4.2.-.4.0.&.v.r.9.6.' X.X.L.W.!.~.I.U.&.s - 9 1 $.h D L k $.w.4.2.g = 9 @ $.v.r.y.2.2.8.&.&.w.8.w.=.#.2.9.b.9.v.;.$.6.h.6.&.7.N.2.%.",
"0.s.6.2.w.%.%.q.0.&.v.6.M.9.o.Y./.Y.X.U.~.! C.-.f - 0 * +.,.m U 8 $.v.0.2.>.= 0 = *.N.v.r.| 5.9.%.2.0.8.5.%.%.&.l.l.v.M.6.&.q.M.6.7.v.y.2.y.",
"M.8.6.2.h.1.5.0.%.6.w.7.M.4.X.Z.Y.P.g U.W.! 6.-.' - 0 = g <.B H V $.y.6.r.<.= 0 = g b.v.2.%.y.q.} &.0.2.4.&.2.2.l.7.v.M.6.&.6.v.6.r.l.8.7.9.",
"0.&.6.6.j.1.2.4.#.q.8.w.v.,.,.9.S.P.O.I.Y V p.5.;.1 5 - p p.8 H N @.r.2.b.;.= 0 : s 9.9.&.8.j.9.%.&.5.2.6.5.0.2.9.6.v.w.;.$.;.N.6.l.r.y.y.2.",
"%.2.2.5.y.5.0.%.%.8.2.y.v.} 2.7.C.C.@.L.I m >.N.s.o 5 $ c y.k G D h 6.8.b.;.$ 4 $ @.y.2.2.9.b.y.&.%.2.2.%.2.4.3.6.&.M.w.$.#.6.v.b.l.9.b.w.%.",
"%.2.6.&.w.w.8.%.2.2.3.b.9.2.9.8.2.s.-.8 H F z b.*.  X . +.t.l D H k &.e.b.@.  o   O.v.2.2.9.b.8.&.2.&.4.#.2.1.0.6.2.M.6.&.$.7.v.n.v.9.v.%.&.",
"8.2.1.&.q.q.4.1.2.2.9.N.2.8.w.2.&.j.4.6 H G l l.@.o t   [ r.z D P V +.j.n.f . t   $.y.6.&.8.v.6.&.4.4.2.&.&.1.y.2.6.h.6.;.6.8.v.N.l.r.9.| 1.",
"y.2.&.2.8.8.8.2.2.2.q.v.6.y.8.2.&.h.2.k H H l ;.&.&.&.@.-.e.z D U V +.y.w.$.w.m.' -.j.6.1.9.y.2.%.8.y.-.6.1.a.q.%.q.y.2.6.v.w.9.l.r.l.8.&.1.",
"y.9.&.%.6.2.2.&.q.9.8.r.r.w.6.2.&.w.$.o 8 $ v 2.2.2.4.y.4.q.s - 6 t &.y.6.2.b.N.2.&.w.9.8.r.w.&.%.q.a.4.q.4.8.1.%.q.8.&.8.h.q.w.9.l.7.&.8.1.",
"y.N.2.| &.5.2.%.y.8.8.2.9.y.2.%.2.q.'       f 1.q.2.q.h.-.-.+     + 6.q.2.2.y.h.#.&.q.y.r.y.y.} &.h.0.w.-.a.w.| -.w.2.2.w.v.9.w.9.r.6.&.w.-.",
"8.M.5.&.2.2.&.#.y.0.2.1.4.j.0.} 2.4.' @ d + f 2.0.&.a.s.%.5.s y t y 2.4.%.2.j.k.} 2.2.9.b.y.s.[ 0.y.4.5.} s.4.} 2.0.&.2.q.M.6.6.6.7.&.4.4.%.",
"&.j.8.%.&.&.2.5.y.1.2.2.2.h.s.%.2.2.2.&.6.$.%.8.2.%.q.q.&.1.1.&.%.5.%.2.2.2.8.q.&.1.%.4.b.N.6.%.y.q.2.#.#.h.=.| 0.2.2.&.w.v.&.6.6.6.2.0.5.&.",
"1.y.w.&.&.-.4.4.a.4.2.1.1.2.w.5.2.2.2.q.1.&.5.8.2.&.q.q.1.&.5.4.&.4.&.&.4.2.q.q.%.2.&.8.y.y.8.8.w.&.&.%.&.q.5.-.0.1.1.2.y.8.6.8.2.2.q.0.&.2.",
"2.4.q.&.%.%.4.4.w.q.%.&.&.%.0.q.1.2.1.w.4.%.2.8.1.2.8.q.2.%.6.y.&.%.%.5.2.1.0.0.1.1.5.w.3.9.6.8.2.%.-.%.%.2.2.4.%.%.0.3.y.5.5.6.$.&.0.5.&.1.",
"&.&.4.&.-.#.=.%.a.a.| %.&.| 1.1.q.0.&.5.a.4.&.3.9.1.j.q.%.%.8.h.&.%.#.&.&.%.5.1.%.1.0.y.2.2.2.2.%.&.%.#.%.1.2.&.%.0.4.1.8.w.5.2.%.%.2.&.&.y.",
"%.%.&.%.=.=.%.} 4.h.&.%.| %.%.&.a.4.%.&.1.a.4.2.y.9.N.4.{ %.1.k.5.} =.=.} | =.| =.| 5.w.2.1.&.| #.%.%.#.} &.%.| 5.k.%.=.&.a.0.1.%.} %.%.1.N.",
"-.} } 5.=.} } | %.a.5.| | | | %.a.5.} | } u.a.%.e.r.y. .{ } %.q.%.} =. .}  . . .| { %.0.%.=.| 5.#. .|  .} } } %.q.5.} =.{ u.4.%.| { =.} 2.h.",
"4.[ } u.=.] } =.} 4.4.} { } %.%.5.| } } { { a.%.1.t.3.| ] } | u.} } =.} ] }  .} } { } q.&.} | 4.=.] =.4.] } } 0.0.} { %.] =.5.| | ] } } 6.0."
};
