/* XPM */
static char *result[] = {
/* columns rows colors chars-per-pixel */
"70 70 236 2 ",
"   c #000001",
".  c #000008",
"X  c #111208",
"o  c #000016",
"O  c #17031E",
"+  c #20141F",
"@  c #172C0B",
"#  c #232F1A",
"$  c #000429",
"%  c #1C0125",
"&  c #051529",
"*  c #191B28",
"=  c #001734",
"-  c #23012A",
";  c #28072C",
":  c #261728",
">  c #2A1C2B",
",  c #2F1037",
"<  c #0F253D",
"1  c #15283E",
"2  c #272927",
"3  c #2B242A",
"4  c #2D2C2D",
"5  c #312A2D",
"6  c #2A3525",
"7  c #33372C",
"8  c #282734",
"9  c #2D2B32",
"0  c #2A3638",
"q  c #333432",
"w  c #343A32",
"e  c #35383B",
"r  c #3A3B3E",
"t  c #0B5200",
"y  c #2F5114",
"u  c #3B7907",
"i  c #37740A",
"p  c #396716",
"a  c #324623",
"s  c #365522",
"d  c #38473C",
"f  c #375837",
"g  c #3B5A3B",
"h  c #3B652C",
"j  c #407F0F",
"k  c #437718",
"l  c #457928",
"z  c #446C38",
"x  c #477732",
"c  c #120043",
"v  c #2B164F",
"b  c #281B4B",
"n  c #1A2A44",
"m  c #1F3046",
"M  c #292749",
"N  c #2D2B4C",
"B  c #32294C",
"V  c #2A3446",
"C  c #2D354A",
"Z  c #313744",
"A  c #333B46",
"S  c #33334C",
"D  c #333C4C",
"F  c #2C2451",
"G  c #2D2951",
"H  c #2F3451",
"J  c #323553",
"K  c #353E52",
"L  c #393B56",
"P  c #344342",
"I  c #35444E",
"U  c #3D444C",
"Y  c #3C5642",
"T  c #354252",
"R  c #3A4454",
"E  c #3D4956",
"W  c #434548",
"Q  c #434A57",
"!  c #454C5B",
"~  c #495259",
"^  c #51575C",
"/  c #446342",
"(  c #60605F",
")  c #4B5462",
"_  c #575E66",
"`  c #5E5E72",
"'  c #5C626D",
"]  c #636566",
"[  c #676872",
"{  c #71767C",
"}  c #0F9D00",
"|  c #368D00",
" . c #398F01",
".. c #2D9B00",
"X. c #369300",
"o. c #3C9400",
"O. c #369904",
"+. c #3D9A01",
"@. c #2FA000",
"#. c #3CA300",
"$. c #43850D",
"%. c #468B0A",
"&. c #429601",
"*. c #459B01",
"=. c #499E01",
"-. c #47930B",
";. c #459D0A",
":. c #4B9C0B",
">. c #509E07",
",. c #468413",
"<. c #4B8A19",
"1. c #499516",
"2. c #4B9D13",
"3. c #55971A",
"4. c #44A201",
"5. c #4CA202",
"6. c #49A607",
"7. c #4DAA01",
"8. c #4DA30A",
"9. c #51A603",
"0. c #54AA03",
"q. c #5AAD04",
"w. c #52A60A",
"e. c #59A20F",
"r. c #55AB0B",
"t. c #59AE0B",
"y. c #53B201",
"u. c #5CB204",
"i. c #57B008",
"p. c #5CB20C",
"a. c #4DA212",
"s. c #4FA11B",
"d. c #51A513",
"f. c #55AB12",
"g. c #59AE12",
"h. c #53A61B",
"j. c #56A91A",
"k. c #5AAD1B",
"l. c #5CB212",
"z. c #5DB517",
"x. c #61B503",
"c. c #63BA03",
"v. c #69BC01",
"b. c #62B50C",
"n. c #64BA0C",
"m. c #6ABD0C",
"M. c #62AD1A",
"N. c #61B612",
"B. c #64BA13",
"V. c #6ABD13",
"C. c #62B51A",
"Z. c #66BB1B",
"A. c #4B8627",
"S. c #548A2A",
"D. c #559723",
"F. c #518332",
"G. c #569236",
"H. c #5AA923",
"J. c #5FB320",
"K. c #66AC2B",
"L. c #63B423",
"P. c #6CB52A",
"I. c #75B737",
"U. c #69C108",
"Y. c #6CC117",
"T. c #699848",
"R. c #75B445",
"E. c #78AE52",
"W. c #79A95A",
"Q. c #7DA961",
"!. c #83BB57",
"~. c #819F73",
"^. c #82A16D",
"/. c #85B766",
"(. c #8AAD75",
"). c #96BC7D",
"_. c #82C054",
"`. c #95C66E",
"'. c #95C176",
"]. c #6E7683",
"[. c #717684",
"{. c #7D828E",
"}. c #878C95",
"|. c #8A8D92",
" X c #979799",
".X c #99B885",
"XX c #9DAB96",
"oX c #A5B19A",
"OX c #999DA6",
"+X c #A9AFAD",
"@X c #ABACAE",
"#X c #AFB0B1",
"$X c #B4B3B4",
"%X c #B7B7B8",
"&X c #BCBCBD",
"*X c #A4C987",
"=X c #AAC896",
"-X c #B1CB9C",
";X c #B3D39C",
":X c #B5CFA7",
">X c #B5C7A8",
",X c #C2CABB",
"<X c #C7DABA",
"1X c #CBE0BF",
"2X c #BFBFC0",
"3X c #C0BFC0",
"4X c #BDC1C4",
"5X c #C6C6C6",
"6X c #C7CAC6",
"7X c #CCCCCC",
"8X c #CFD8C8",
"9X c #D3D6CF",
"0X c #CFCDD0",
"qX c #D0CFD1",
"wX c #D3D3D3",
"eX c #D7D8D8",
"rX c #DBDBDC",
"tX c #D6E4CD",
"yX c #DAE3D6",
"uX c #E1E4DD",
"iX c #E3ECDB",
"pX c #DEDDE3",
"aX c #DFE0E2",
"sX c #E7E7E7",
"dX c #E8E6E7",
"fX c #E7E9E6",
"gX c #E8E9E7",
"hX c #E7E7E8",
"jX c #E8E7E9",
"kX c #E6E9EB",
"lX c #EAEAEA",
"zX c #EBEFEA",
"xX c #F1F1EF",
"cX c #F0EFF1",
"vX c #F3F2F3",
"bX c #F8F8FA",
/* pixels */
"5.=.r.N.q.m.>.>.>.=.6.w.w.9.0.m.x.>.q.N.e.>.t.x.q.V.q.q.9.5.t.l.l.=.=.=.=.q.n.b.9.5.N.0.*.0.z.y.u.b.N.9.=.9.q.4.5.t.5.t.q.9.B.0.=.=.9.b.m.v.",
"r.6.9.B.t.b.b.>.=.>.=.g.9.r.0.V.x.0.q.b.q.9.u.x.9.m.q.t.0.5.r.r.p.4.=.5.=.9.n.b.=.5.N.t.=.5.p.0.0.m.B.>.=.t.f.&.0.r.=.p.p.p.B.5.r.0.=.b.v.v.",
"r.t.5.b.q.b.b.>.=.r.=.r.t.r.5.B.b.q.q.b.q.q.b.m.5.b.x.b.p.5.w.q.w.=.=.5.9.=.p.B.*.0.l.0.5.5.p.5.>.V.n.>.*.t.8.4.z.0.0.w.5.B.p.=.p.8.=.b.v.x.",
"=.p.5.q.x.b.v.9.&.r.r.5.b.9.*.p.u.q.b.x.x.v.x.m.9.0.u.b.p.&.r.6.8.*.w.8.p.5.5.B.5.0.p.9.&.5.i.*.9.V.x.&.*.9.5.g.C.0.0.*.*.B.p.5.t.&.9.x.x.x.",
"4.5.9.0.u.v.b.q.=.*.p.9.q.q.o.0.e.q.m.x.c.U.m.x.9.5.q.n.N.&.r.8.8.&.w.r.5.r.=.p.p.9.0.p.=.8.9.5.q.B.b.%.>.9.r.p.q.t.9. .9.p.b.p.*.&.q.p.u.u.",
"r.*.0.u.x.u.m.x.9.+.8.u.q.N.&.w.M.9.b.m.c.U.m.q.q.9.9.n.N.&.r.w.=.=.5.r.5.q.0.p.p.9.9.N.r.7.5.p.t.x.b.&.9.=.p.8.9.b.=.+.q.5.p.N.*.=.t.b.q.9.",
"l.4.7.c.n.q.m.q.0.5.6.p.q.N.=.=.9.9.0.x.c.v.v.9.q.b.9.t.N.&.8.r.=.5.0.w.p.9.5.p.B.r.5.p.p.5.5.N.q.q.b.9.x.9.q.9.t.q.&.5.9.5.q.B.0.5.u.n.0.9.",
"p.5.9.u.B.0.b.q.9.t.5.q.0.n.r.9.9.q.>.x.x.x.m.q.=.b.q.=.b.0.5.p.8.0.r.5.p.5.&.t.B.q.=.t.t.4.t.b.t.q.b.q.N.q.5.0.u.t.=.q.0.r.0.B.p.5.b.p.0.5.",
"t.8.>.0.b.9.q.r.5.t.5.0.5.p.N.t.9.q.9.9.x.x.N.q.=.0.b.9.t.r.=.w.w.=.t.9.9.5.*.0.Z.p.=.9.t.=.5.0.x.>.q.t.B.q.4.0.u.p.5.l.0.p.p.0.u.5.u.p.5.&.",
"r.5.=.9.b.0.9.q.5.r.=.5.5.q.B.p.9.9.q.>.q.x.b.q.=.&.b.t.r.0.:.8.r.*.0.r.9.5.&.5.N.q.5.5.0.4.5.5.q.9.0.x.n.0.4.5.0.b.u.b.9.b.l.5.0.9.p.p.5.&.",
"5.5.=.>.b.b.5.9.t.r.&.5.9.5.V.b.9.5.9.r.9.x.t.9.9.h.J.L.0.5.+.X.j.a.2.k.k.h.-.8.b.0.9.5.9.5.4.5.9.0.>.q.N.9.&.5.7.b.Y.p.0.V.p.5.5.7.u.p.9.0.",
"0.9.0.0.u.b.5.9.p.n.0.5.n.u.U.N.9.5.=.r.e.M.J.:.=.5.@.y.Z.C.K.H.u.7.5.x.u.#.X.j.C.7.5.0.0.=.r.0.9.e.=.t.N.5.6.=.5.c.Y.q.b.B.q.5.5.=.r.p.0.i.",
"9.i.7.t.p.p.u.u.p.H.l z F.A.C.U.7.6.=.8.H.#.#.O.=.'.;X=XT.T.~.>X<X<X<XtX8X>X/.q.u.2.4.p.5.&.q.w.q.0.=.M.g.=.f.=.5.n.n.x.b.0.u.5.=.*.w.t.9.0.",
"5.i.=.5.c.c.b.D.z S F G F v d K.k.4.8.=.} /.tXyXgXbXxX{ c b c L ` { }. XeXvXyX-XP.X.;.g.5.6.5.f.b.=.=.t.0.=.t.*.9.x.u.x.p.5.p.5.=.&.w.5.8.6.",
"6.5.5.-.G.F.g M b A e w e d N N / H.z.G.:XyXbXpXpXbX X  Q P E D 1 = $   ^ kXcXhX>X(.5.l.8.r.&.w.C.=.>.q.5.9.=.+.0.q.u.u.5.t.p.5.w.&.8.6.r.+.",
"r.5.5.A.; v 9 e 7 5 4 4 w 9 U R F Y g ~ OX[ { ) & _ 0 e 3 8 e e r e W 4 ] kXhXhXpX6X).u.j.5.*.6.b.t.q.9.5.q.*.*.q.x.u.9.=.l.p.5.f.o.=.:.8.o.",
"6.r.=.-.s - 4 9 7 7 q r : 2 $ n E H H C $ n = m R n D r W w 7 5 w W q   %XvXsXkXeX7X6XR.4.1.=.6.0.Z.q.9.5.t.9.5.0.x.q.9.9.Z.r.=.8.=.=.4.8.o.",
"w.r.>.>.:.k a - - - ,   P W {.].n R K T R L Q K C E D       2 3       @XxXdXsXgXaX7XqX=X4.&.8.5.9.Z.u.>.5.p.i.5.9.b.x.=.0.Z.r.=.0.g.=.5.5.7.",
"t.t.=.9.9.x.M.3.3.S.j ^.aXOX@X].R D T T T M ].OX) V R  X|.( r w ] OXeXvXdXsXsXsXjXkXrX6X*X0.5.f.t.q.b.9.5.p.r.5.5.b.q.=.q.C.w.&.r.t.=.q.=.i.",
"t.p.>.q.0.x.c.v.v.N.5.1XlX X[ $ ) C T K D ! n }.}.= $ eXbXdXuXdXxXvXlXdXsXsXsXdXdXdXlXwXwXoXt.0.C.9.p.>.8.t.q.6.5.b.9.=.t.N.=.*.0.6.r.t.&.p.",
"x.b.q.9.q.b.x.x.N.9.I.gXwX_ OX) R K T K D ~ < }.}.n   5XxXsXlXkXdXuXdXdXsXsXsXhXdXsXkXuX6XqX).0.Z.=.q.9.9.r.0.&.=.b.0.=.g.r.&.=.5.5.q.=.=.B.",
"x.x.0.=.>.x.x.v.M.7.`.xX7X. [.` V R D T T m ].+X~ T   2XxXsXdXsXdXdXgXdXsXgXsXsXjXdXdXsX7XqX>Xc.C.9.9.9.9.0.9.o.9.b.q.9.e.r.o.*.5.9.8.&.9.n.",
"x.q.0.=.=.r.m.v.J.7.*XbX2Xo m C K K K K T D R T V Q   3XvXsXsXhXsXsXdXdXsXhXsXsXsXsXsXjX7XqX,XU.0.0.9.9.9.t.8.&.9.b.q.0.0.5.o.=.0.5.0.>.0.V.",
"x.q.9.e.=.q.U.v.z.y.*XvX4Xo ! R D K T K K T C C R Q   5XlXsXhXfXsXdXgXdXsXdXhXsXhXsXsXdX7X9X,XP.0.p.r.*.5.b.5.=.q.V.0.6.i.5.&.=.=.=.r.>.>.V.",
"c.9.0.f.=.5.m.c.C.y.=XbX2Xo E T T K K K T D R R R I   wXlXsXsXsXsXdXhXsXhXfXhXsXsXfXsXdXqX7X,XI.7.Z.0.*.0.b.9.y.x.b.=.q.l.r.+.5.&.5.r.*.0.n.",
"u.4.t.f.o.q.u.u.Z.#.-XvX7X$ R K T D K K D T K C ! & ] lXhXsXsXhXhXfXfXdXsXdXdXhXsXdXdXkXwX6X7XW.4.Z.q.&.r.n.y.n.N.q.*.t.p.6.6.7.+.r.w.&.t.t.",
"q.=.g.t.&.t.u.p.q.5.<XcXaX0 D ) K D T K C T R ~ W   %XvXdXsXsXsXsXfXhXsXfXdXfXhXsXsXdXlXrX7XqX.X7.C.p.+.w.u.u.u.b.q.&.e.t.=.t.6.&.r.&.=.p.e.",
"9.5.t.g.8.t.0.J.4.=XdXdXvX X  * Z W Q ! Q W A      XvXdXsXdXkXsXhXdXsXhXhXsXhXsXsXdXsXlXrX6XqX>Xq.w.z.=.t.c.U.u.9.e.| w.t.5.0.o.w.8.| 8.t.=.",
"5.5.=.C.q.9.j.y./.uXkXsXgXlX#X] *           8 { 7XvXsXsXsXsXsXhXsXhXfXsXsXfXhXsXsXdXsXkXrX7XqX6XR.4.z.p.0.n.U.u.w.=.| r.p.0.r.=.w.;.o.w.9.=.",
"q.=.0.C.0.0.0.u.<XlXsXhXhXlXvXlXeX6X&X@X%X6XrXxXvXfXsXfXsXsXhXfXfXdXhXsXhXdXsXhXsXsXfXkXeX6X7XqX.X+.k.p.u.u.u.y.9.w.&.t.p.0.z.0.5.=.*.6.r.6.",
"w.*.9.b.t.2.4._.sXdXsXsXhXsXsXsXzXxXvXxXvXxXlXsXsXsXsXsXsXsXsXsXhXdXdXhXgXsXdXfXsXdXdXdXqX6X7XwXoX=.5.f.p.q.u.0.=.w.>.9.t.9.t.r.5.4.4.=.r.0.",
"f.*.&.p.C.2.+.`.sXsXsXfXsXhXsXdXdXsXsXsXsXsXsXsXsXsXsXsXsXsXsXhXsXhXsXhXsXhXsXhXdXsXkXrX7X7X7X7X%XE.*.d.q.0.u.9.&.w.w.=.r.q.q.9.4.;.w.=.8.=.",
"w.=.+.0.B.j.O.`.sXjXsXfXdXhXsXdXhXdXfXhXhXfXhXfXsXhXdXsXdXhXfXdXsXfXfXhXsXdXfXhXhXsXkXwX7X7X7X7X$X(.5.2.9.u.0.0.=.&.w.=.9.u.t.=.6.+.8.7.4.5.",
"=.&.o.=.p.C.#.R.yXjXsXsXsXfXhXhXfXsXhXdXhXdXsXhXdXhXfXhXfXsXhXsXdXhXdXsXhXsXhXsXfXsXkXwX7X7X7X5X$XoXM.=.5.0.0.7.5.=.r.5.5.b.w.&.r.&.&.r.5.=.",
"=.=.o.:.t.N.0.c.<XcXsXsXhXsXsXfXhXsXsXsXsXsXsXdXfXhXhXsXhXsXsXhXhXhXsXsXhXdXsXgXdXsXlXwX6X7XqX3X#X$XQ.4.a.9.i.5.5.t.r.4.5.l.w. .:.8.o.=.5.=.",
"5.=.&.=.5.u.z.y.`.uXjXsXhXfXsXsXdXsXhXfXhXdXsXhXhXsXfXdXsXhXhXfXsXfXjXsXsXsXsXhXsXdXjXqX7X7XqX3X#X%XXX9.4.t.p.5.4.t.r.*.9.b.t.&.=.f.*.=.5.=.",
"=.=.=.=.=.9.b.u.v.1XcXuXhXfXhXjXhXsXdXhXsXhXsXhXsXhXsXhXdXfXhXdXfXdXfXhXsXdXhXsXsXkXeX6X7X7X7X&X#X%X#X!.+.k.0.5.=.p.r.*.0.p.0.*.t.f.=.5.=.*.",
"=.=.9.=.0.q.k.y.!.uXjXdXdXsXsXsXfXhXhXfXhXfXdXfXdXfXdXsXsXhXsXhXhXsXhXdXfXhXsXsXsXsX7X7X7X7XwX%X#X$X%XXX9.t.0.9.4.0.5.*.i.p.=.*.l.5.=.r.=.=.",
"=.*.w.5.t.l.h.4.*XgXdXdXhXsXhXsXsXhXsXsXsXdXdXsXhXfXhXfXfXsXsXsXsXhXhXsXdXsXsXkXsX7X6XwX7X7X7X%X$X$X$X#X/.0.8.5.t.r.=.=.g.r.*.4.l.6.8.0.*.w.",
"=.*.0.5.0.p.s.4.`.dXjXdXfXdXsXsXsXfXhXdXhXfXhXhXsXdXsXhXsXjXsXsXdXsXsXsXfXsXsXdXsX0X7X7X7X7XwX&X#X%X$X%XoXk.5.:.p.r.+.5.t.0.&.r.t.5.0.&.=.r.",
"=.*.5.5.0.p.8.=.q.-XuXlXdXdXsXdXkXdXsXsXsXsXsXdXdXfXhXdXfXhXsXjXfXsXsXdXdXsXsXgXsX7X7X7X0X6XsX6X>X%X$X$X$X(.4.2.p.6.4.9.9.5.+.N.t.5.5.&.5.9.",
"w.0.5.7.p.p.9.r.=.5.`.<XdXjXsXdXdXsXsXgXjXsXhXfXsXhXsXhXhXsXsXsXhXhXfXhXdXdXsXkXeX6X7XqX7X7XkXfXlX$X+X#X$XoXk.=.t.9.9.5.5.5.5.l.0.7.4.=.9.r.",
"f.r.5.u.b.9.w.g.8.2.0.9.-XdXdXdXsXhXsXsXfXhXsXhXsXsXfXsXsXhXsXgXsXsXhXsXdXdXdXdXqX7X7XqX5XrXxXvXiX).R.W.W.W.L.5.r.7.0.5.=.5.0.p.p.0.5.=.5.t.",
"f.8.=.p.u.>.=.k.r.=.J.+.9.tXjXsXfXhXhXsXsXhXhXsXdXhXsXdXdXfXhXsXsXsXfXdXdXdXcXrX6XqX7X6X0XcXvXtX_.0.7.O.+.=.p.8.8.5.9.5.=.4.g.p.N.u.5.=.5.t.",
"r.6.5.p.0.5.+.w.C.5.q.H...=XlXlXsXsXsXsXsXdXdXhXsXsXsXsXsXsXhXfXgXsXdXsXkXgXrX7X7X7XqXqXlXlX<XI.7.H.8.2.j.8.f.8.8.5.5.4.5.=.t.9.N.0.5.*.=.r.",
"q.5.5.i.0.*.&.=.N.t.x.r.5.9.-XyXsXlXfXlXkXdXdXhXfXsXfXsXuXsXfXkXhXhXsXkXsXqX6X7XqXqX,X:X;X!.4.7.j.5.=.5.5.5.p.r.=.=.r.0.4.=.r.5.l.t.5.&.9.w.",
"9.9.0.0.5.+.&.=.r.t.q.p.w.X.5.P.*XpXhXkXhXsXsXsXfXsXsXhXlXvXfXaXsXfXkXsX6X5XwXeX,X.XR.0...#.j.a.5.&.6.5.&.7.i.t.=.5.l.0.=.*.r.5.f.g.=.&.=.9.",
"=.9.9.9.4.o.&.=.=.t.p.p.5. .h.0.| W _ ^ ' cXcXkXlXlXvXlXyX4XkXbXcXlXrXqXwXaX#X[ T.*.4.k.3.h.r.5.5.5.5.f.=.4.0.g.=.=.z.0.*.5.r.5.0.z.=.=.9.=.",
"=.>.9.9.*.+.6.8.=.9.b.l.0.&.w.L.1.0 n m $ OX<XyXaX9X&X(.h   |.5X$X)./.).$X X    %.s.j.b.5.=.t.0.5.g.6.t.=.&.0.p.5.4.l.0.4.5.r.8.=.g.8.r.r.=.",
"&.>.=.5.&.:.8.w.8.=.x.b.9.=.5.N.w.Y L E L t y.p % .   i l J =     5.4.9.t   w 5 <.r.0.p.5.=.t.6.&.r.r.5.=.&.=.0.9.t.n.9.=.5.6.0.=.t.5.g.f.o.",
"&.=.=.5.*.6.8.=.9.=.p.t.5.5.&.l.p.h H I H / k.u O d , D.A.F R Q ~ k.:.k.l , w > $.5.p.u.q.l.0.6.*.=.l.=.=.+.*.9.5.p.u.5.&.=.9.9.=.5.9.t.r.o.",
":.&.=.=.&.8.8.=.0.=.t.x.0.q.=.p.U.F.G I H f 7.,.5 7 - <.<.B T S Y r.9.q.,.; q 3 $.5.p.0.p.p.&.5.=.*.l.6.0.*.&.9.0.m.u.9.=.=.=.r.=.=.5.N.0.o.",
"=.>.=.=.6.8.=.8.e.=.b.q.q.q.=.t.U.D.F I N z q.-.6 5 - 3.3.Z K J Y 9.t.r.%.> q 3 %.0.p.u.p.7.5.0.=.=.r.r.r.*.&.=.x.x.q.b.>.=.9.N.9.=.0.N.5.&.",
"e.g.r.5.t.=.*.r.9.=.b.9.p.r.&.r.m.3.N R N z u.&.6 q - 3.w.P K J g 9.g.q.-.5 q 3 $.0.N.n.u.+.0.w.*.8.r.8.0.=.*.=.b.b.x.N.9.=.e.b.9.q.x.t.5.t.",
"b.0.0.=.l.5.=.w.=.=.q.9.N.0.&.0.c.e.I R G x p.=.s 8 ; k =.g J K g 9.p.9.>.a 8 3 $.i.N.u.5.*.p.i.&.=.w.w.8.=.5.5.x.9.N.N.9.&.9.p.9.u.x.0.0.u.",
"w.=.9.9.p.5.6.6.&.r.q.q.N.=.=.q.0.0.d K F F.l.r.p 8 3 p w.z G K f 9.t.9.B.h ; 3 j p.0.u.=.0.p.i.=.*.6.6.8.=.0.5.q.>.u.x.>.=.>.Z.0.u.u.u.p.=.",
"*.=.5.7.l.9.r.*.=.0.5.p.b.+.9.9.0.t.f L F F.p.p.l ; 5 a 5.x F K f 9.5.0.n.k ; 8 s q.p.5.5.0.b.p.=.*.=.8.*.5.6.7.0.=.N.0.=.&.9.b.b.x.q.C.t.=.",
"*.5.5.=.t.t.6.&.5.=.9.n.i.5.q.9.9.l.x G N F.n.B.<.- q : :.A.F K f 0.5.q.B.k ; q 6 >.b.9.5.q.b.0.=.=.=.0.&.5.=.7.0.>.b.9.=.&.q.b.m.b.x.u.=.*.",
"q.5.5.=.r.t.r.=.5.5.0.B.5.0.t.5.=.p.A.F J z N.p.<.- w - ,.D.M L f 9.5.t.m.k - e : $.p.0.=.q.p.9.=.9.6.5.=.5.5.g.=.9.N.9.>.9.q.x.n.x.x.q.+.5.",
"p.5.4.5.0.5.0.5.5.9.q.l.9.t.q.=.=.t.A.N K f C.0.$.> w ; k h.V L A -.5.t.p.j ; w > ,.p.0.4.q.p.5.*.0.f.=.0.=.w.r.*.r.t.9.0.b.e.q.x.q.x.9.=.5.",
"p.0.4.4.9.5.5.4.t.i.0.i.u.p.9.5.=.t.<.N T Z 3.9.$.+ 6 O 1.d.P L S l 9.e.i.$.% 4 # -.p.0.9.p.t.=.&.r.g.8.w.w.r.6.*.r.0.=.0.b.r.t.x.q.q.=.0.8.",
"p.B.5.&.=.8.5.&.p.0.9.5.t.p.9.*.6.0.%.C T C l 7.j . . . -.9.f J K h 9.w.9.i . . @ =.0.p.u.p.p.o.=.l.r.r.=.g.f.+.=.t.8.5.e.b.q.q.q.q.9.=.w.6.",
"9.z.0.&.=.5.=.&.p.6.5.=.0.l.w.o.8.5.&.d K J f 5.i y p X -.5.f J K d =.w.=.i y p @ 5.7.r.N.p.t. .w.g.8.8.+.f.d.X.8.0.5.5.r.N.9.0.9.q.=.6.8.=.",
"5.p.r.=.5.=.6.5.p.8.5.=.5.l.g.&.5.5.-.d L A l 9.>.:.f.>.*.5.h K K f =.=.=.8.t.g.&.5.=.9.n.b.0.*.l.r.5.&.&.l.=.&.8.=.5.=.t.t.9.>.9.9.>.d.6.=.",
"4.p.t.=.=.=.d.w.l.8.4.5.=.5.p.6.5.5.&.# 2 O 1.i.4.=.0.r.6.8.y * % p 6.4.8.5.r.r.4.5.=.9.i.p.9.9.p.5.5.*.*.f.5.6.8.6.5.5.p.9.5.0.5.=.r.w.=.=.",
"5.7.r.=.=.*.:.6.r.0.*.=.4.&.6.r.5.6.$.. .   %.9.5.5.0.t.=.&.X .   p 6.=.5.4.w.8.=.4.7.i.0.q.0.q.5.&.=.=.=.=.5.8.4.*.8.7.t.0.0.0.*.*.w.8.=.7.",
"=.4.6.=.;.&.:.*.f.l.&.&.=.+.4.5.6.t.%.i D.y %.0.0.7.p.0.&.*.u D.p u *.=.=.*.6.=.*.6.6.p.5.5.5.5.*.*.*.+.*.4.=.=.&.w.w.4.7.f.0.=.=.&.5.=.=.i.",
"&.=.=.&.;.;.*.o.8.z.4.&.*.*.&.=.l.8.4.8.6.k.8.=.p.0.z.6.o.&.7.l.w.&.+.;.o.+.6.+.*.&.6.r.=.5.4.+.&.=.&.&.o.=.&.+.6.z.;.;.=.r.f.#.&.+.=.&.4.B.",
"=.o.+.;.-.o.o.+.+.r.6.+.+.+.&.&.f.;.o.+.X.8.j.*.y.p.l.+.X.o.+.f.;.o.;.o.o.X.O.o.o.o.;.r.=.*.;.;.&.+.o.*.o.+.o.*.r.6.o.*.X.a.6.*.+.o.&.o.5.g.",
"8.o.o.a.;.X.o.;.o.8.w.+.X.o.*.;.6.=.o.o.X.X.f.;.5.y.y.o.| o.*.6.&. .=.X.X.;.O.o.o.| X.w.=.X.+.a.o.| ;.2. .o.+.8.8.X.| &.| a.6.;.o.X.o.o.w.0."
};
