/* XPM */
static char *result[] = {
/* columns rows colors chars-per-pixel */
"70 70 231 2 ",
"   c #000000",
".  c #01000B",
"X  c #071B01",
"o  c #10140A",
"O  c #140017",
"+  c #102B00",
"@  c #362D33",
"#  c #094F00",
"$  c #28550C",
"%  c #2F6109",
"&  c #326602",
"*  c #397707",
"=  c #3F622A",
"-  c #4A4645",
";  c #6C7777",
":  c #8D7657",
">  c #907675",
",  c #1D9B00",
"<  c #388A01",
"1  c #269B00",
"2  c #2C9C00",
"3  c #369503",
"4  c #3D9400",
"5  c #349B00",
"6  c #3B9C00",
"7  c #3A8F17",
"8  c #09A400",
"9  c #35A200",
"0  c #3CA200",
"q  c #3C9A38",
"w  c #439600",
"e  c #459B01",
"r  c #499E01",
"t  c #47940D",
"y  c #469D0A",
"u  c #4C9D0C",
"i  c #529C01",
"p  c #569B04",
"a  c #4B8F12",
"s  c #469A13",
"d  c #4B9D14",
"f  c #4C9B18",
"g  c #44A200",
"h  c #4CA202",
"j  c #49A707",
"k  c #4DAB00",
"l  c #4DA40B",
"z  c #52A503",
"x  c #5DA407",
"c  c #54AA03",
"v  c #5AAD03",
"b  c #51A60B",
"n  c #54AA0B",
"m  c #59AE0B",
"M  c #4FB200",
"N  c #55B200",
"B  c #5CB203",
"V  c #5DB905",
"C  c #5DB20B",
"Z  c #4DA213",
"A  c #4EA516",
"S  c #53A513",
"D  c #5BA216",
"F  c #55AB12",
"G  c #5AAD12",
"H  c #52A51B",
"J  c #56AA1B",
"K  c #5BAC1C",
"L  c #5DB211",
"P  c #5DB21C",
"I  c #62AB06",
"U  c #62B503",
"Y  c #64BA04",
"T  c #69BC01",
"R  c #62B50C",
"E  c #64B90C",
"W  c #6ABE0C",
"Q  c #62AD17",
"!  c #61B512",
"~  c #64BA12",
"^  c #69BC13",
"/  c #63B71A",
"(  c #4E9A31",
")  c #649E37",
"_  c #73913A",
"`  c #4AA42C",
"'  c #5AA824",
"]  c #66A923",
"[  c #70AA2F",
"{  c #63B522",
"}  c #69A438",
"|  c #6CAA3C",
" . c #72AD38",
".. c #68B23A",
"X. c #6BC106",
"o. c #6BC115",
"O. c #35AB50",
"+. c #37BD6F",
"@. c #439B45",
"#. c #6B9D49",
"$. c #709F54",
"%. c #53AC50",
"&. c #6CA445",
"*. c #73A946",
"=. c #78B249",
"-. c #79A65A",
";. c #7CB355",
":. c #7D8C71",
">. c #4BB668",
",. c #6FAF70",
"<. c #00C268",
"1. c #32CA77",
"2. c #46C776",
"3. c #949C59",
"4. c #A0925F",
"5. c #88A44A",
"6. c #95A65B",
"7. c #87B75A",
"8. c #829A71",
"9. c #A7996B",
"0. c #A3827A",
"q. c #B09174",
"w. c #85A86C",
"e. c #89B468",
"r. c #8CA777",
"t. c #91B477",
"y. c #A4A269",
"u. c #A9A571",
"i. c #90C563",
"p. c #79B889",
"a. c #38D184",
"s. c #4ACB80",
"d. c #979794",
"f. c #BB948A",
"g. c #95A787",
"h. c #9CB887",
"j. c #9EAA93",
"k. c #A1AB96",
"l. c #A3AA9C",
"z. c #A6B898",
"x. c #AAADA5",
"c. c #ADACAB",
"v. c #B7A9A8",
"b. c #AEB9A5",
"n. c #B3BBAA",
"m. c #B4B3B4",
"M. c #B9B9B6",
"N. c #B7B6B8",
"B. c #B8B6B9",
"V. c #BABABB",
"C. c #C19388",
"Z. c #C49B9B",
"A. c #DC9D9F",
"S. c #CCA794",
"D. c #DA96A6",
"F. c #E78DA8",
"G. c #E297A5",
"H. c #E694AB",
"J. c #EA95AD",
"K. c #E499AC",
"L. c #E99AAA",
"P. c #E896B2",
"I. c #EB9AB2",
"U. c #F198B2",
"Y. c #CCAAA7",
"T. c #D8A9A7",
"R. c #E4A2AC",
"E. c #EBA4AC",
"W. c #E5ACAB",
"Q. c #EAADAD",
"!. c #E6B2AE",
"~. c #E9B1AE",
"^. c #EBADB2",
"/. c #E8A8B5",
"(. c #F2AAB4",
"). c #E5B2B2",
"_. c #EBB3B2",
"`. c #ECB7B7",
"'. c #F1B4B6",
"]. c #F3B7B9",
"[. c #8AC99F",
"{. c #ACC492",
"}. c #ABC699",
"|. c #97CEAB",
" X c #B7C3A9",
".X c #BACDAA",
"XX c #BDD2AB",
"oX c #BCC4B3",
"OX c #A8D6BA",
"+X c #C2C5BC",
"@X c #C2CBB8",
"#X c #C3D2B5",
"$X c #C9D6BB",
"%X c #BFBDC0",
"&X c #DABDC3",
"*X c #E7BAC3",
"=X c #C4C6C1",
"-X c #C6C9C2",
";X c #C9C9C5",
":X c #CCCCCC",
">X c #CED6C6",
",X c #D4DACD",
"<X c #CFCED0",
"1X c #D1CFD1",
"2X c #CFD3D2",
"3X c #D3D2D3",
"4X c #D7DBD3",
"5X c #DDDDDD",
"6X c #E7C7CA",
"7X c #E6CCD1",
"8X c #F2CFD6",
"9X c #ECD4D4",
"0X c #EAD9DA",
"qX c #F5D4D8",
"wX c #DDE1D7",
"eX c #E1E3DD",
"rX c #E7E7E7",
"tX c #E9E6E6",
"yX c #E5E8E7",
"uX c #EBE9E6",
"iX c #E6E7E8",
"pX c #E9E7E9",
"aX c #E6EBE9",
"sX c #EAEAEB",
"dX c #F5E6E8",
"fX c #F2F0EE",
"gX c #EEEEF1",
"hX c #EDF4F3",
"jX c #F2F2F2",
"kX c #F3F9F6",
"lX c #FAFAF8",
/* pixels */
"h r n ~ v E x z h e h b z z c W V h v R x u m B v W v v c h c L C r r z r v ~ U z h R n e c ~ c B R ~ z r z n r r n h v B c ~ c r h h R W T ",
"n l z ~ m R C r r r r G z n c ^ U c v R v z I Y c W v C c h n n m r e h r h E E h h ~ n r h C c c ^ ~ p r n m r c n h C n C E h n c r R T U ",
"n n h C v R U z r n r n m n h ~ R v v Y I v Y W h R C C C h n c n r r h z r C ~ r z ~ c r h C h z ^ R h e m l h ! b c b h ~ C e C h r R T U ",
"g C h v I E U c e n m r R c e C R x E I U Y R Y z v V C C r b h l w b h m z g E h z n z e j C w i ^ R w e c h n / b c r w ~ B h m w h U U U ",
"h h c c B Y E v r e C j v z w c m m ~ R U X.W v z h v R ~ w n l l w n b j n u R v c c C r j c g c ^ R w r i n C c m z 4 j R ~ m e w n R B v ",
"n e c B U I ^ I z 4 b B v ~ w b n c I W U X.W v v z z ~ R w b b h e H P S J S / { n h ! F j h C v R ! w z h C j c C r w c z L ~ e r v R v z ",
"L g z U E v W v c h u B B ~ r r n z v Y Y T T c c U z m L r h m f H g g N k g k V c A / K J ' / n I E c v z n c m m e h z h c ~ c h C R c z ",
"C j z B E v R v c n j v c R n z z x h B U U W v r R m h R b l n 0 g  .{..X.X.X}.i.v 3 c c 2 g B G K R v ^ c h c C m r m c c c ~ C h U R c h ",
"n h h c E z v m h m h b h V ~ n z x z z I U R v e z C n L n 6 ] {.XXwXyXpXiXsXiXeX>X.X#X#X}.e.Q I r c ! ~ v r c C C h C c m C n B h C C h w ",
"n h r z R z z v j n r h h c ~ R z z v z v U R v H f / B v v z }.yXaXpXyXrXrXtXyXsXsXsXiXiXpXyX>XoXh.x v { n e j c E C C c L C h c h B C j e ",
"c j r z R I h z n n e h z c ^ R z z z n v m U b r h h 7.#X>X>XrXrXrXyXrXyXrXrXyXrXrXtXrXyXrXpXiXsXuX#X .V h y j h E ^ C c ^ C h z z C C z c ",
"v h c c C R h c U ! p h C c ~ E z r h m c n G r | ..v #XgXsXiXrXrXrXrXrXpXtXyXtXrXuXrXrXrXrXpXrXrXuXjX,Xt.D e Z h Y o.B R E c h h g n L c v ",
"k v b v C V c v I E z r C V E E k u r l b J g e.4X,X$XrXpXrXrXrXrXrXrXrXpXrXrXrXrXrXrXrXrXrXyXuXrXrXrXiX<Xb.] e l E R U E c C h r w b v c h ",
"h n r j R B U B m ! r z c E E Y c k z e b H g #XfXpXsXyXyXtXrXrXrXrXrXrXrXrXrXrXrXrXrXrXyXrXiXtXrXrXtXyX<X1X{.6 S R U U m h ~ h h w l h c h ",
"j h r w ! R U U R ~ w r z V C N c h b r ' 2 e.rXyXrXtXrXpXyXrXrXrXrXrXrXrXrXrXpXrXrXrXrXtXpXrXrXpXyXiXiX3X:X-X-.g / U v h c C h b 4 h l l w ",
"b h h < z E v U W E w e h B C c c h l s 0 | ,XiXrXtXrXrXyXiXtXrXrXrXrXrXrXrXrXyXrXrXrXrXiXyXtXyXtXyXiXuXiX5X:XoX .c L c r ~ c r n 4 u l Z 3 ",
"c b z w w ~ U U ^ R i w r v C h c B l s 6 .XgXiXyXtXyXuXpXrXrXyXrXrXrXrXpXuXyXiXtXyXrXrXrXrXpXuXyXiXyXuXrXiXyX:XoX7.c S h ^ b h j u r r j 3 ",
"b m r u w R E U W U z z c c E c j m H 6 =.wXpXiXiXtXtXiXrXrXrXrXrXrXyXpXrXiXtXtXiXrXrXrXrXrXrXrXrXtXrXpXrXrXtX3X:X+X .r G ~ z r c G h h h h ",
"n n i z z v U U T R i b ! r ! m r n J 5 h.rXpXrXrXyXrXpXrXyXrXrXtXiXrXrXrXrXiXyXyXpXrXrXrXrXrXrXrXrXrXrXrXrXpX5X;X1Xh.6 K / l r n m h n r n ",
"m ! z v x R U U U v i m L h v C r h ' 2 {.pXrXrXrXrXrXrXrXrXpXrXtXyXrXrXyXrXtXyXrXrXyXpXrXrXrXrXrXrXrXrXrXrXpXrX:X<Xz.r P L h w b z c m r C ",
"B R v z v E U U U v U m z n k ~ b 4 J 5 }.sXiXpXpXrXrXyXrXrXrXrXiXuXrXrXpXrXrXrXrXtXiXuXrXrXpXrXiXyXpXrXrXrXiXeX;X1Xn.z n n w e h h v r r ^ ",
"U I v r z U U T v v ^ i e c h C v w H 9 h.aXyXrXrXrXyXtXiXrXrXrXyXiXpXrXyXtXrXrXrXyXrXrXrXrXyXrXrXrXrXrXrXrXrXyX:X3Xn.z n S w e h h j w v R ",
"B B z h r v W T v B R c n r h L n j Z g ;.wXiXrXyXrXrXrXuXrXrXrXrXrXrXrXyXrXrXrXrXrXpXrXyXrXuXiXtXtXiXuXrXrXyXtX:X1Xn.v k l 4 e z z b r z R ",
"U B z b r c X.T B E b h m r r L n F Z e h >XsXyXrXrXrXrXpXrXrXpXtXyXrXrXrXrXpXrXyXrXrXrXrXrXpXtXiXyXyXiXrXrXrXiX<X:X:X;.M A w e r u m c i ^ ",
"Y h j m r h Y V V C h h C j e G b b H 5 t.eXuXrXuXrXrXyXrXrXrXrXiXyXyXpXrXrXrXrXiXyXiXrXpXrXiXyXuXiXrXyXtXyXyXsX3X;X3Xb.B F 6 j e h n e z E ",
"V r n G w c E B U h e c C b 6 b l S 6 ;.wXsXyXyXrXrXrXrXrXrXrXrXiXtXiXtXuXrXrXrXtXyXuXrXrXrXtXyXpXtXyXtXrXpXyXiX3X:X<X-X=.g l c w b b w x R ",
"c r L n w G v B v r b z m L 4 h h H 5 .XsXiXrXrXtXrXrXrXrXrXrXrXyXtXyXyXrXyXrXpXtXiXyXiXrXtXiXiXrXrXyXpXyXtXyXiX3X:X:X<Xr.0 K h e n w e m z ",
"z h m Q h v c m h u n r n ~ h h Z g D ,XiXrXtXrXyXrXyXtXrXpXrXrXpXyXtXiXrXrXrXrXyXiXtXrXrXyXyXtXrXrXiXtXyXiXpXpX<X:X:X3Xk.g J 4 j b < h m u ",
"z h b ! b z c ~ h h F j c ~ m g H 6 *.wXuXrXpXrXrXrXtXrXpXrXrXrXrXrXrXrXrXrXpXyXrXrXrXrXpXrXiXiXrXrXiXyXyXrXpX5X;X:X<X2Xb.] c y n e 3 b h h ",
"c r b ! c z h ~ z z m v c C C r H 5 ;.eXrXrXrXtXiXrXsXiXyXrXrXrXrXrXrXrXrXrXyXtXrXrXrXrXrXuXyXtXrXrXrXrXrXiXrX:X<X:X<X<Xm.w.N J j w e b n h ",
"n e z R m r z L z C B C j m C r H 5 =.eXiXrXiXjXjXjXjXkXsXfXsXrXrXrXrXrXyXrXtXiXpXrXrXrXrXrXiXyXtXyXrXrXrXiXyX:X:X:X2X=Xm.k.I n l g h r n z ",
"n e w L ~ e u R c E c c h c ~ j S r m ,XiXfXkXjXjXjXjXjXjXkXjXjXiXyXiXyXpXpXtXyXtXtXrXyXyXrXtXyXiXtXyXpXyXiXyX<X:X:X2XY.m.m.-.j d g b r j h ",
"b e 4 z ~ z e L C Y c h h j / j j l 2 }.pXjXhXjXjXfXjXjXjXfXjXjXjXrXtXuXyXtXrXrXyXrXrXtXrXrXrXrXpXrXrXyXrXyXrX:X:X:X3XV.c.V.l.u j 6 l k h r ",
"r e 4 r C R r V o.R z S S j M 6 D ) p e.fXhXjXjXfXfXjXfXjXjXfXjXjXjXdXeXtXuXsXsXaXyXyXtXrXrXyXrXrXrXiXtXuXiX5X:X:X:X:XV.m.m.M.8.g s w b h h ",
"h r 4 u n R c B X.L t r g x 6.S.A.T.T.A.9XlXjXjXjXjXhXfXfXjXjXjXjX0X).).!.*X7X9X0X0XtXyXyXrXrXrXyXiXyXrXiXrX<X:X:X:X:XM.m.m.M.x.) g 4 r h r ",
"h r w u h B U B E c i  .u.S.^.(.(.(.^._.W.6XdXkXkXkXkXkXkXjXkXlX0XR.(.!.!.W.W.W.W./.`.dXpXrXrXrXtXrXrXtXrX3X:X:X:X:X1Xk.x.m.m.m.g.z s e h r ",
"r e e r r c N C N 6.S.T.(./.I.K.K.K.J.K.(.Q.W.qX9X9XdX7XdX6X6XqX).K.J.R.)._._.^.E.I.K.tXpXrXrXrXiXuXyXiXyX;X1X:X:X<Xn.i r.B.B.B.m.*.e Z e l ",
"r r h z c v B C N y.I.E.J.F.J.J.L.J.J.K.^.~.Q.W.E.W.!.W.W.Q.R.W.R.K.I.P.K.L.P.K.P.H./.iXrXrXrXrXpXrXuXiX5X;X:X:X<X;Xw.5 } r.g.j.x.-.0 f e l ",
"e e n h n C z v c I q.G.U.U.U.I.U.J.K.^.]._.!.!._.~.~.~.`._.~.).Q.J.I.I.I.I.I.J.P.D.8XiXyXrXrXrXrXrXrXiX3X:X:X:X1X Xr y m k 6 r Q b e y l l ",
"u e c r v v r z v c g _ 9.q.C.f.C.9.u.T.0.T.`.Q.Q.~.Q.'.T.T.`.!.^.H.F.F.F.F.F.H./.0XsXyXrXrXrXrXrXrXyXiX1X:X:X<X:Xe.2 J n S t G c h j e y e ",
"r r h h c C j h z v D 0 , 9 e g v 8 } : ; v.W._.^.!.!.*X> v.).).^.8X9X6X*X*X6X0XsXsXtXuXrXrXrXrXiXiXiXeX:X:X:X1Xb.z y z c h 4 L m j r w h l ",
"n h h z B m z z r z B F d S Z l { 9 6.0.  > `.^.~.Q._.T.@ ; D.].R.0XhXaXsXaXaXsXiXyXyXyXrXrXrXrXuXiXiX<X:X:X3X+X=.k n h h h h ~ c j h r j b ",
"F n h B R c c G i r C z r h S r ' 9 6.T.- Z.].Q.!.Q._.`.@   ).].K.7XaXiXtXtXtXyXrXrXrXtXiXiXyXpXiXrX3X:X:X:X:Xe.j F c h r h b C B c h r z m ",
"n b r V B i r G n e m h e l h r K 0 3._.~.].).!.Q.).Q.].Y.S.]._.K.7XdXiXiXyXiXiXrXrXrXpXrXyXpXaX3X:X:X:X:X<Xh.g S h h h h g n C ~ v j r r m ",
"F h g V c h 4 b ! h m z w l r h K 1 9.~.~.Q.Q.~.!.).Q.~.`._.^._.L.7XsXiXyXrXiXiXiXsXiXyXiXyXaX5X:X3X3X:X<X+X*.k A h h h h r n c L v h e h m ",
"n h h B c w w h L m B n j r l n S 2 y.~.Q.~.Q.^.Q.~.~.~.Q.Q._._.H.0XhXsXgXsXsXsX3X#XyXaXiXiX4X:X;Xz.k.V.V.c.| k u h b l r r n g L G g w r n ",
"z z h c j 6 w r b C v C h 4 b n d 9 y.Q.~.~.~.^.^.!.Q.^._._.!.(.D.z.#XXX#X3X:X%Xg.) 4XyX4X;Xg.e.-.3 $.c.N.x.| k d h C n r e n h n L h w r z ",
"i z z c r 4 w r h v C C j < n n f 9 6.Q.^.~.].).^.'.]._.W.!.).I.Z.v N c c w.c.m.l.&.Y.2X<X=X*.1 j g &.c.N.x.| N d r L b r h n b c L r r z r ",
"w l z h e 6 l b r h C R z w b C d k ] A.'._.> T.~._.0.T._.).(.P.Y.Q ' ' c w.m.B.l.p oX1X2X-X;.k ` v ' x.B.c.} c Z h C n e h c b h G z n n r ",
"r p r h w h l l z r R C z h u ~ h n v 4.G.(.D.W._.'.f.W.(./.D.&X.XU j J k $.m.B.x.z b.<X:X-X=.g f c Q l.B.c.#.k n n C c r h j c r b h G S 4 ",
"w r r h e h l e z r m C c h w C C n C h 5.q.D.R.D.R./.T.D.k.>.OXoXv y S k #.c.B.x.i h.3X2X=X&.0 f u v j.B.m.-.g S E C h e e r b r z h m n 3 ",
"u w r r w l Z r z h m R c c r L ^ R c m N 0 ' ,.p.p.p.p.1.1.<.OX@Xc l S g } x.N.m.#.t.:X<X+X) g d s c g.B.B.r.g n E B z r e i n r e z L b 4 ",
"i p h h j h r j c r m v v m r m W R z R F p ` 1.a.<.2.2.s.|.+.[. Xz F S h R l.N.m.w.e.;X<X=X} g d Z k r.N.V.j.i v R v R z w x ! z r v ~ h 6 ",
"b F b h m e r S z e R z m m w v R R R m e z ` >.>.>.G @.O.OXOX|.n.z / F h U j.m.m.j.=.=X1X+X&.k s Z k :.m.m.x.) B ! R ~ z r b R z v U m h v ",
"! c c r L h r b u h v v ~ x w v B B R z r D q q q O.r q 7 [.4X2Xz.h K c G N j.V.V.c.7.+X<X-X=.k s d k $.M.%XN.#.B n ! R z e z ! z v U c v v ",
"b h z z C j h l w c v m R e e v v v z z h P ..' %.O.h @.0 t.:X1XM.z n b ! v 8.c.c.8.[ +X3X:Xe.M d y j ) l.c.d.a v z R I z w i ^ c B U m C r ",
"w h h k L k n w e c h C ~ 4 h c c m z h z E { z ` ( h ( 5 e.:X<X+X*.g J Y n X     # v }.1X1Xh.N d e r &   o   w n r ~ b i w z E R Y I E n e ",
"r h h e F m c w r h k E v g v z h G n r c L F l j r n d 6 ;.;X<X:Xe.5 K X.u . X . = v z.1X1X Xc r u r $ .   O Z k h L z e e x R W R v R g r ",
"c h h e b m z h h h v ~ h v m h r C v r c C g y s y h d g { oX:X<Xz.6 P R h t D * a N h.:X<X+X} e n b < t a * m h z R z z c z U E U V v w h ",
"B j r h v k k h z h m C z m c r h m b r c n e e l j r b Z h  X3X3XoX6 P C h E R g H k t.1X1X<X*.3 F F h k g n n e n m h z C x m U v U k r j ",
"C n r r l h z r v N c c m m z h u m r r v n e l y y F C H r g.3X:Xg.g K z h R L e d c e.;X5Xn.f 6 F C l n b n h e m c r n L c m v I v r b h ",
"C ~ h 6 h h h w L c c h C C z e e n w h v b j e e f K G r d + - @ # S m h h ~ L w r n & @ -   * l G b n g F F 4 u n h h v R x m v v z r n h ",
"k ~ z w r h e w L k z r c L b 4 h h r h j c S e l S F m h <     . % h z r j C L 4 h h +     o < n L l h 4 L S 3 j z h h z ~ c z c v r l l e ",
"h C b r h h h h n l h h j G C w h h h h h z l w l j n n u w & 7 $ * g r h h b n e h e * a a % e m n h w w L e w l h h r n R h h z h z l l e ",
"g m n r r h Z n b b l h h h m j h r h b h r e e y l n n j h k c g l y h h j c n g j r N V R c c n j j r r S h l b g h h L h j c r r n S r r ",
"h z n g l l l l F b e g r 6 b n h j h n j w h g r h k n l l b G F l j l h r b l e l l v c b b b b e u l h h h j r 6 b k m c c z e u b h r j ",
"h h l h l l l e n n 4 j l l l l n n j j n j r c v j C n g l n G l b l Z l l l l l l b b z j l l l b l l l l g l y b l j b F k j h l b h g C ",
"l l Z b Z l l y l F y l l l l l F l l h l F l j C n L l l l l b l l l g l n b l l l j n h h j 6 u l j l l e l e l L l l l b l j h l l l l ~ ",
"l b b Z b b l j j F j j l l l l l Z j l j A A e M m l j l l l b l l l l Z l l l l j g S b l l l y w y l l l l j n l y b b Z l h y y l l l L ",
"l l l l l n l Z l l l b F l F l b b b l l l Z j n l b l l b b A l b b F l j y g u 6 y b l j e Z y w l l b l j Z b 6 y l y l j j y j w 4 b z "
};
