/* XPM */
static char *result[] = {
/* columns rows colors chars-per-pixel */
"70 70 225 2 ",
"   c #000001",
".  c #0A000D",
"X  c #001200",
"o  c #080612",
"O  c #082400",
"+  c #233412",
"@  c #223414",
"#  c #284A0C",
"$  c #156000",
"%  c #356A0A",
"&  c #3A7407",
"*  c #477A1F",
"=  c #4D3241",
"-  c #674747",
";  c #725D68",
":  c #8B6C71",
">  c #3D8402",
",  c #358F00",
"<  c #2F9700",
"1  c #2D9C00",
"2  c #369300",
"3  c #3C9500",
"4  c #359C00",
"5  c #3D9B00",
"6  c #34A200",
"7  c #3CA200",
"8  c #3EAA00",
"9  c #429500",
"0  c #4A9007",
"q  c #449D00",
"w  c #499E01",
"e  c #459A0B",
"r  c #4B9E0B",
"t  c #479811",
"y  c #4B9D12",
"u  c #549D16",
"i  c #46A100",
"p  c #4CA401",
"a  c #44AB00",
"s  c #4DAA01",
"d  c #4FA70D",
"f  c #51A601",
"g  c #53AB02",
"h  c #59AE02",
"j  c #52A60C",
"k  c #54AB0B",
"l  c #5BAD0C",
"z  c #4DB100",
"x  c #55B202",
"c  c #5CB303",
"v  c #5DB901",
"b  c #56B308",
"n  c #5CB30A",
"m  c #4DA313",
"M  c #4EA218",
"N  c #54A717",
"B  c #55AA13",
"V  c #5BAD12",
"C  c #5AAD1B",
"Z  c #5CB113",
"A  c #61B502",
"S  c #64BA04",
"D  c #69BC03",
"F  c #61B50B",
"G  c #64BA0B",
"H  c #69BD0B",
"J  c #66AD1F",
"K  c #63B414",
"L  c #64B912",
"P  c #6BBA14",
"I  c #61B31C",
"U  c #68B91D",
"Y  c #70BD1E",
"T  c #5EAA23",
"R  c #5EB220",
"E  c #64AA27",
"W  c #63AB2B",
"Q  c #68B225",
"!  c #72B827",
"~  c #68AB37",
"^  c #6DB334",
"/  c #6FB13E",
"(  c #74B837",
")  c #6BC103",
"_  c #6BC10C",
"`  c #769E40",
"'  c #6E9854",
"]  c #6DA846",
"[  c #77A847",
"{  c #6FB140",
"}  c #79B54B",
"|  c #76A856",
" . c #7CB358",
".. c #7C8973",
"X. c #76A060",
"o. c #82A349",
"O. c #85B353",
"+. c #81B858",
"@. c #839B74",
"#. c #87B666",
"$. c #94B167",
"%. c #89AB74",
"&. c #90AD7E",
"*. c #8CB473",
"=. c #93BA77",
"-. c #AFA36E",
";. c #89C258",
":. c #8CC265",
">. c #95C66C",
",. c #97C578",
"<. c #A2CA7F",
"1. c #94918E",
"2. c #AD8B8D",
"3. c #BD9596",
"4. c #98AD8A",
"5. c #99B686",
"6. c #9EAE93",
"7. c #AAB48A",
"8. c #A2AE99",
"9. c #A4B19A",
"0. c #A7BB9A",
"q. c #A29FA3",
"w. c #A7A6A7",
"e. c #ABB2A4",
"r. c #AEB7A7",
"t. c #B2B7AD",
"y. c #B0ADB1",
"u. c #B4B4B5",
"i. c #B7B5B8",
"p. c #B8B6BA",
"a. c #BABAB9",
"s. c #CA9B90",
"d. c #C89A9A",
"f. c #E08C9F",
"g. c #C2B493",
"h. c #D3B29C",
"j. c #DB98A4",
"k. c #E78FA8",
"l. c #E593A6",
"z. c #E399A7",
"x. c #E596AC",
"c. c #EB94AD",
"v. c #E49BAB",
"b. c #EA9BAD",
"n. c #ED96B1",
"m. c #E69CB1",
"M. c #EB9BB2",
"N. c #D8A7A8",
"B. c #DBAFB0",
"V. c #E5A5A9",
"C. c #EAA4AD",
"Z. c #E5ADAC",
"A. c #EAADAD",
"S. c #E5B2AE",
"D. c #EAB1AE",
"F. c #E5A4B3",
"G. c #ECADB2",
"H. c #E7AAB8",
"J. c #F8A9B4",
"K. c #E5B4B3",
"L. c #ECB2B2",
"P. c #ECB5BA",
"I. c #EBBBBA",
"U. c #F1B4B6",
"Y. c #F3B5B8",
"T. c #F2BABB",
"R. c #9DC585",
"E. c #A6C889",
"W. c #ABC699",
"Q. c #AFD296",
"!. c #B1D29A",
"~. c #AEC4A1",
"^. c #B4C8A6",
"/. c #B5C4AB",
"(. c #B9C7AE",
"). c #BCD6AA",
"_. c #BBC6B3",
"`. c #BDC8B5",
"'. c #C2CBB9",
"]. c #C2CABC",
"[. c #C6D7BB",
"{. c #E6C2BD",
"}. c #C8E3BD",
"|. c #BFBEC0",
" X c #C0BFC2",
".X c #E9BBC6",
"XX c #F5BDC1",
"oX c #C6C5C6",
"OX c #C6CBC1",
"+X c #C9CCC6",
"@X c #CDCDCC",
"#X c #CCD4C6",
"$X c #D0D0CF",
"%X c #CFCED0",
"&X c #D1CFD2",
"*X c #D2D2D3",
"=X c #D7DAD5",
"-X c #DBDCDB",
";X c #E8C5C9",
":X c #E7D7D4",
">X c #EFD1D7",
",X c #ECD5DA",
"<X c #ECDBDD",
"1X c #CFE0C4",
"2X c #D5E1CA",
"3X c #D9E2D2",
"4X c #D9E3D5",
"5X c #E2E6DE",
"6X c #ECDFE0",
"7X c #E6E6E6",
"8X c #EBE5E5",
"9X c #E6E8E6",
"0X c #E8E8E7",
"qX c #E7E7E8",
"wX c #EAE7E8",
"eX c #E6EAE9",
"rX c #E8E8E9",
"tX c #F1E6E8",
"yX c #F3EDEC",
"uX c #EBF0E7",
"iX c #F4F1EF",
"pX c #EDEBF1",
"aX c #EEF1F2",
"sX c #F3F3F3",
"dX c #F7F6F8",
/* pixels */
"i i g G h D f f f q s p f s g D A f h F f f h A h D h A s p h h n q w p w h S c s p A g 9 g S s c A G f i g g i i h w c h g G f q i f S D D ",
"h p s G h A A 0 w w q l f h g H A f g A h f A A g S h h h p k h n i q w w p S S q s G h i p v g g D H w q h l 9 g g p c c c F s g f w A D D ",
"g h i A h A A f w g i g h h p G A h h A A h A D p A A A c i k g g q w p g q c ) 9 g F g i p v p w H A f 9 b s i F g s g i G c q n s q A D A ",
"i c p h A A A f 9 g b i G f q c A h A A A A D A f g c A c q g p s 3 f s h g i G s g x g q i b 9 f H A 9 9 g i h L g g q 9 H h s c 9 f A A A ",
"i p g g c D D h q q b s h g 3 g h h H A A ) D c f p h G c 9 g s p 5 g g p g i c x g g h q s g s h H A > p s h x h n f 3 s c G h i 3 h c c c ",
"b 5 g c A h D A g 3 s c g v 9 f h f A D S ) ) h g f g G G 5 g s d y M C N C N I L g s F f s i c h A S 9 f p b p s A q 3 g s c G 9 w c A h g ",
"b i f A D h D h g i i c h G i p g f g S S D D g g A f Z U t d Z 5 4 6 8 a 6 1 z v s m Z Z j s L h h D f h f g p c h 9 i g p g H h i n D g s ",
"b s f c S g A h g h p h g S g f f g f c A S D k r U l 5 z 6 i s W E.).).!.E.R.R.>.U 4 s s 4 s Z J k K h H g s h c h i h g g g F c i c A f p ",
"b p i g S f h h s h i h s c F h f h f f A F G h 5 1 c +.R.).#X2X4XsXsXdXdXiXsX0X5X2X^.>.:.} Q g h i x K S g i s x c s A g h c h h i c c s 9 ",
"g p w f A g f g p s 9 p p g G c f f h j f c v P { =.}.uXdXdXdXdXdXdXsXaXsXaXaXaXrXaXaXrX0X5X=X[.E.#.Q c U g i s g S c c g n F i g f c c p 9 ",
"s s q f A A w s h h 5 p s s H A f r p s h $.g.h.B.{.6XdXsXaXaXaXaXaXsXsXiXiXiXiX:XI.;X>X<X0XeXiX7X=X`. .v d e p s A H n g P c i s p c c g g ",
"f s g f A A p h n F p w c x H S a 4 j $.h.G.J.L.L.D.D.;XuXdXsXdXsXsXsXaXdXdXiX;XZ.A.Z.Z.S.K.K.K.;X8XaX=X>.i 7 p s A _ c c D h i s w g n g g ",
"f h s g c v h x h H f i c c S H O.7.V.G.H.F.b.b.C.M.G.A.K.,XiX6XdXyXiXuX>XiX,Xb.C.C.L.L.U.G.F.C.z.:XwXwX-X~.#.i p S S c S g c i i q g g g f ",
"p g q s D c c c h S w p h G v ! z.J.C.b.c.m.v.M.b.x.C.L.S.A.U.Z.{.I.K.K.V.P.Z.b.b.c.M.M.M.M.m.n.l.,XuXrXqX*X].| i K A A x s G p i 9 p s g i ",
"f p i 9 n A A A A A 9 i g c v c -.k.M.n.n.n.M.n.n.b.Y.U.L.D.A.D.Z.D.D.D.D.D.U.b.M.n.n.m.m.n.M.k.H.tXeXqXqX@X@X/.h c A c p g c p g 3 p s p 5 ",
"f i p 2 p D c S D S 9 9 s c c s a [ s.j.x.v.x.z.s.L.B.d.U.D.L.G.D.D.U.D.L.D.D.b.k.c.b.c.c.c.x.H.8XeXeXrXrX-X@X+X=.x I g w F h i j 3 q p p 2 ",
"f g w 9 9 H A A D A 0 9 f h c s h s a y ` o.o.W K g.; u.K.L.D.L.Z.Y.N.1.K.L.A..X.X.XH.m.H..X>XwXeXrXrXrXrXrX0X*X].=.b s f G f i s q i q p 3 ",
"f l f w 9 A S A D A f f g g v g p Z d q 6 6 s a } g.= ..N.P.A.D.Z.T.: 1.y.P.C.;XpXrXwX8XqXrXaXeX8XwX8XeXrXrXrXqX@X#X=.q k P f i s k i s i s ",
"g h p f f h A A D A w f F w A c i h g q B d N v E.{.-   P.L.A.L.Z.XX: X 2.T.C..XqXwXrXpXqXqX0XeXrXqXeXeXrXrXrXrX*X%X+X .x Q f q g h p g i x ",
"h n p g h A A A A h f j n i h c i i k q s B a ,.:XP.S.B.P.S.D.L.A.T.N.; A.U.C.H.rX7XrXeXqX8XrXeXeXqXrXrXrXrXrXrX<X+X%XR.s I i q g s g h q n ",
"c A h f g S A A A h A h p g s D g 3 g i q s A 1X<XV.U.U.A.K.L.D.D.A.P.I.U.D.V..XpXeXqX8X0XqXqXwXqXqXqXqXrXrXrXrX-X@X&XW.x B 9 q p p g q w H ",
"A A g w f A D D h h D f w g i n g 9 s s t 6 ;.9X:XZ.D.D.D.L.A.D.L.L.D.D.D.K.C.P.rXeXrXeX0XeXqX8XrXrXrXqX0XrXrXrX-X@X&X^.h s 3 q p s f 9 f A ",
"A c g w q c D D h c A f g w s n g p i s M 1 <.uX<XZ.S.K.A.L.D.L.D.K.S.D.D.P.v.;XyXqXeXeXeXrXqX0XrXrXqXrXqXrX0XwX7XoX*X_.h 7 3 q f f f f g H ",
"v c f f i g ) S c G g s x w q n g k i i M s ).aX<XA.L.D.U.U.D.A.Y.U.D.D.G.H.x.<XrXeXqXrX0XrXrXrXqXrXrXrXrXqX0XwX7X%X%X].( a t q w w j f w H ",
"S s s l q s S S v c w q b g 5 h s j p d a Y 3XpX8XF.L.XXj.d.K.L.N.j.U.H.P.z.H.wXeXeX0X8XrXrXrXqXqX0XrXrXrXqXrXqXqX&X@X@X#.a t i 9 p n q f S ",
"c i k g 3 g S c v s q g n g 3 g p s q N x Q.wXqXrX.Xf.P.d.3.;XT.d.2.XXG.l.F.qXrXeXqX8XqXrXrXrXqXrXrXqXqXrXqX0XrXrX*X@X&XE.8 m s 5 j s 3 k A ",
"h q h l 9 h c c h q f g x h 9 s p s t s >.5XqXeXeX8X.Xm.n.M.J.J.C.F.v.M.;X8XwXrXrXqXqX0XeXrXqX0XrX0XrX0XrX0XrXrXrX*X@X&XW.i Z i q s 9 q A f ",
"g p g n p g h c s p g q x P i i i i i c [.wX0XqXrXeXaXrX<X;XXX.X.X;X:XqXaXrXqXrXqX0XrXeXeXqXrXrXrXqXrXqXrXqXrXrXrX*X@X&X/.h s 5 p s , p g w ",
"s p p K g s f F p p h p s G b i p p 7  .5XeX0X0XrXeXeXeXrXaXrXaXiXwXrXrXwXqXqXqX0XqXrXrXrXqXrXqXrX0XrXqX0XqX0XrX7X@X@X%XoX{ x d g 9 2 g f i ",
"f q g F g f s F f f h x g n c q w m 8 >.0XeXqX0XqXqXqXrXqXqXqXqXqX0XrX0XqXqXqXrXrXrXqXrX0XrX0XrXqXrX0XrX0XeXqXrX*X@X@X%X+X%.c d s q q s k s ",
"g q p A h w p A f x c c s b c i s d 7 ,.eXrXeX0XrXqXrXrXqX0XqX0XrXqXrXrXrXqXrXrX0XqXrXqXqXrXqXrXrX0XqXrXrXqXeX7X@X@X@X*XoX4.c h i i i q g f ",
"k w 9 c G q p F f S h g p g G i f r 5 #.7X0XeX0XrXrXrXqXqXeXqXrXrXrXqX0XrXrXrXqXrXrXqX0XrXrX0XrXqXrXqXrX0XqXrX7X@X@X@X*X|.e.^ i i i s q s p ",
"g q 3 g H g q S c S g f p s F p s i q W 3XwXqXrXqXrX0XrXrXqXrXqXqXrXqXrXrXrXrX0X0XrXqX0XqXrX0XrXqX0XqXrX0XqXrX7X@X@X@X&Xa.u.#.5 d 5 p s i p ",
"w q 3 i n c i c ) A i f s s n p s i t 6 W.rXqX0XrXrXqXrXrX0XrXrXrXrXrX0X0XqXrXqXrXqXrXrXrXqXrXqXrXrXqXrXeXqXrX7X@X@X&X@Xi.i.8.w s 9 5 s p i ",
"w w 3 i g c g c ) c w w f w n w p f 5 5 / 4XwX0X0XqX0XqX0XqX0XqXqX0XqXrXrXrXqXrXqXrXrXqX0XrXrXrXqX0XrX0XrXrXrX*X@X@X&X@Xi.u.u.X.7 m 2 i p i ",
"s q 9 i i c c c D h w f f w n f i h d 5  .4XrXqXrXrXrXrXqXrXrXrXrXrXrXqX0XqX0XrX0XrXrX0XrXqX0XqXrXrXrXqXrXrX-X@X@X@X@X@Xu.u.p.8.g j q i i q ",
"w q w w q g c c A h q f f p h g i n N 1 E.qXqXeXqX0XqXrXrXqXrXqXqX0XrX0XqXrXrX0XqXrX0XrXrXqX0XrXrXqXqX0XrX7X@X@X$X@X$X+Xt.i.u.u.%.s r p q q ",
"q q s i g h c c c h w w g w g g f h M < R.wXqXqX0XrXqXrXqX0XrX0XrXrXqXrXrXqXrXqXrXrXrXqXrXrXqXrX0XrX0XqXrX=X@X%X@X@X&XoXy.i.u.i.r.W i j i q ",
"q i g p h c s h h h f 3 g s p g b g s q C [.wXrXrXqXrX0XrXrXrXqXrXqXrXqXrXrXrX0X0XqXrXqX0XqX0XqXqX0XqX0XwX-X@X%X$X$X+X5.&.t.i.u.p.&.s j q f ",
"q 9 g w g h w f g g g 9 9 f p g n g p j 5 P !.3X0XrX0XrXqX0XrXrX0XrXrXqX0XqXrXqXrXqXrX0XrXrXrXrXrXrXrXrXrX*X@X%X@X&X0.s c 5.u.u.p.u.] 4 w h ",
"i q s w g c i s f f h p q p w p n s 9 c p g x Y Q.4XrX0XqXqXrX0XrX0XqXrXrXrX0XrXqXrXqXrXrXrX0XqXrXrXrXwX7X@X@X@X&XOX} i s E | %.4.4.| 4 p f ",
"f g s g c h f f f w h f i i s i n s 3 c h g Q x a #XaX0XrXrXqXqXqXrXrXrXqXrXqXrXrX0X0XrXqX0XqXrXrXqXrXaX*X@X&X@X$X5.s d i i 6 c x p p i f g ",
"k g i b A f f F f w c f w p s i h g q g c h v C s ).rXeXqXrX0XqXrX0X0XqXrXrXqXrXqXrXqXrXqXrXeXrXqXrXwX-X@X@X@X&X~.g g p i i B L n g s q p l ",
"h s i c c w w l k q h i q s q i g i s f c c b b s :.4XrXrXrX0XqXqXrXqXrXrXrXwXqXrX0XrXqXqXqX0XqXrX7X*X@X@X@X&X/.Q i j i i q h n G h s i p h ",
"g p i c x i 3 f F p c s 9 s 9 s g q p s c c g g k 7  .).3XrXwXrXrXrXqXqXqXeXqXqX0X0XrX0XrXrXqXrX7X@X@X@X%X*X@X .8 M p i i w h g n h i q w k ",
"g p s h g 5 9 w n h c h s q i g p q f i g v s s s d a 8 } $X-X=X=XqXyXwXwXrXrX8XrXrX0XrX0XrXrX7X&X&X@XoXoXoXr.~ 5 p g g p i g i b h i 9 p g ",
"f f s g s 5 q q f n h c s 3 p g q i h q s v g a i i C d c (.&X@X@X=X4X3X3X3X0X5X=Xu.'.0XrX7X=X].(.0.#.9.u.u.r.~ 5 s b g i q h p h n q 9 w f ",
"w f s g i 2 9 i w h A c i , g n w i g g s c g i i s s d s ~.*X@X%X].( S U ! 0.u.y.8.#.$X*X@X@X*.s i 6 5.p.i.e.^ q q n j q q h s g F i w s w ",
"9 f f p q 5 p s q p A n g 5 f n q s h g i c h i g g s m 7 5.*X@X&X'.I s k s 4.i.p.6.} @X@X@X@X#.4 T i *.u.i.e.E i p S g 9 s g f p l i g k q ",
"w w w p q i d p p w A A g w q G p s h s f v g w g b s M 6 *.$X@X&X'.N g C s &.i.p.8.( ].&X@X@X .< R z X.u.i.e.J i n c f q i s g w g s h k 5 ",
"9 w w p q i f q f w n c s s 9 S c h h p c c s w f c f y 5 | @X@X&X_.f i j a #.i.p.6.P '.%X%X+X[ < M v ] y.i.e.T s G c s q w w f w p s n g 2 ",
"9 q w w 3 p s q f p h c f h q n H A g h c p w q p c g j q W `.%X&X/.g p d s  .u.p.8.D (.*X%X+X{ 4 y x T e.p.e.W s G c s w q w g w q p n g 2 ",
"w f p w s i i f g i c h h h w h D A g F g p h q p n g g p f /.%X&X/.h f r c } y.p.r.! W.&X&XOX/ 5 d g h 9.i.u.] h K A A w 9 g F f w g F p 9 ",
"f l g p n q q k f q A f A k 9 h S A c A w f h q w c h f d g ~.*X&X/.A g f v ( r.u.u.+.,.$X&X]./ 4 d k s 4.i.u.%.x K A F f w j A f g A c p x ",
"F g g i b i i g q p c f D g 9 h A h A f w k c 9 p h g f M s 0.@X&X/.A g h c J 9.i.i.*.;.@X&X].^ 2 d d i 5.i.i.6.A g F A f w f A s c A g h h ",
"f w p f c p p i 9 h g h A i 9 h h h g f w S n p A h i s y x =.@X&X/.h s S A h 8.u.u.6.! ].*X].^ 5 r d i 4.u.u.9.J p K h f 9 f H h c c c c i ",
"9 w i g n s g q q g s c n 3 f g f h f p f S c c G s f i m x #.@X&X(.g g G n s 6. X X0.E '.&XOX} 6 e m i %.a.oXt.E i K h w 9 f S D A h D g 9 ",
"q p s i g c s 9 p i s S h i h f s l g i g S c G h q s q r s  .oX&X].W s H g s @.w.q.' l '.&X@X+.5 m q p ' w.w...w s c f q q g S D A A c i i ",
"g s s 9 g h s i p w g S p g h i i n h q g v A n i q i q i s / OX&X@X+.x K s n       & c t.*X@X5.6 N f p $       9 g n p f f g A S A c h 5 i ",
"c i q i g s g p s s h c f c h i i h g q g c n g q p i s p s j `.*X&X5.g Z s n + # . * z 0.*X$X~.5 j l w # + @ @ w g h f f h h h A c A f q s ",
"c h q i g i f i h g g h c c s w w h w q h n n q s f p n i d s ^.%X%XW.x j s c V w 0 u z 5.&X&X_.N s Z s r j r 0 q h g w f A f h A h h w g s ",
"v G s 5 p f i 9 b g s s h n s 9 q g 9 s g h g q g p g n q d 5 ~.*X=X^.s p s c F 9 p N s ,.*X*X@X] z B g i b n 5 q h i p h A j h h h f q g i ",
"f G s 3 i i i 9 c g f i g c g 3 p s 9 f s g s q k q f l q m 5 &.&X@X%.p r i n n 5 i d s +.].*X8.g n j i 3 Z j , s s p p f G h f g g w s p q ",
"i n g q i i p q c i p i i n b 9 p p i p i s i s p q g g q i d O     $ j i i h g 9 p q f &   o X g h p 9 9 n q 3 s p p q h h f f f f p m i q ",
"i n d d i d d s n s d d i s d d i i p d m d s g i i g h i i 9 . O   % d s i g g q p i h #     # J w i w q g i p s q p i n g s d i p g j d q ",
"q s j q d j s d d m d q d d g g d d d d s 5 j d d d g b q d j u M & > s p w s s q i p b 0 u t 0 f 9 q q w d d m i 5 s s h g g f d j g i q s ",
"i d d i i d m q g b d d q d d d s s i s b p i s d d j d d d j d d d i i q 5 p i q i p b s g s s q q q 9 q d d i 5 k s p s b g i d d p d i b ",
"q j d j d j d m d d d d q d 5 d k s d d d k p j v m d i d d i Z j m 5 5 d 5 i d d 5 i b i i d d j d d 3 d d q 5 p Z q a i s s q d d j d p G ",
"q 3 5 d d 5 2 d d d p 5 d d 5 q B i d 5 d d j d x v d d d d d d d d q d d d d 4 d d B g q 5 d d k d d d d d d d d d d d d d d d d d d d s n ",
"p 2 3 d q 2 2 i 2 s s d d 2 i 9 d d d d d 4 d d i v d d d d d k 5 d d d 2 d d 2 2 2 3 s i j d d d d d d d d d d d d d d d d d d d d j j f p "
};
