/* XPM */
static char *result[] = {
/* columns rows colors chars-per-pixel */
"70 70 239 2 ",
"   c #000000",
".  c #060604",
"X  c #0D0101",
"o  c #150000",
"O  c #190702",
"+  c #081403",
"@  c #1C1400",
"#  c #1C160A",
"$  c #1C1818",
"%  c #3C0D0A",
"&  c #221300",
"*  c #241D03",
"=  c #291E00",
"-  c #172403",
";  c #1F3D01",
":  c #282406",
">  c #2A3A0F",
",  c #34340A",
"<  c #25221A",
"1  c #2B2619",
"2  c #332C16",
"3  c #342E1C",
"4  c #2A2724",
"5  c #2C2A2A",
"6  c #332D22",
"7  c #312F2C",
"8  c #383426",
"9  c #3A352A",
"0  c #3E3A2E",
"q  c #343332",
"w  c #393833",
"e  c #3E3B31",
"r  c #4E0807",
"t  c #690B0B",
"y  c #43352B",
"u  c #403B2E",
"i  c #5C312C",
"p  c #413D32",
"a  c #423E3A",
"s  c #65352F",
"d  c #264804",
"f  c #2D5804",
"g  c #36570A",
"h  c #374814",
"j  c #2E6400",
"k  c #366B06",
"l  c #387505",
"z  c #3A7D01",
"x  c #3C6617",
"c  c #3E5823",
"v  c #3A4533",
"b  c #474F0E",
"n  c #447B07",
"m  c #466D1A",
"M  c #49472A",
"N  c #445525",
"B  c #454136",
"V  c #484635",
"C  c #464339",
"Z  c #49453B",
"A  c #4C493E",
"S  c #574B39",
"D  c #4B5734",
"F  c #537231",
"G  c #423F40",
"H  c #4B4744",
"J  c #4D4A42",
"K  c #524D44",
"L  c #554D46",
"P  c #575549",
"I  c #5A554C",
"U  c #5B5852",
"Y  c #624641",
"T  c #66584D",
"R  c #625D54",
"E  c #665E55",
"W  c #5A6645",
"Q  c #66635B",
"!  c #6A665A",
"~  c #6B7352",
"^  c #686460",
"/  c #6D6A63",
"(  c #726D65",
")  c #746F69",
"_  c #777269",
"`  c #7C7771",
"'  c #870102",
"]  c #B80D11",
"[  c #9E332E",
"{  c #D41616",
"}  c #E80D0D",
"|  c #FC0202",
" . c #C62823",
".. c #817D79",
"X. c #2E8300",
"o. c #398601",
"O. c #3A8E00",
"+. c #3C9300",
"@. c #478806",
"#. c #419600",
"$. c #4C9402",
"%. c #459A00",
"&. c #4A9E00",
"*. c #4D940C",
"=. c #4C9B0A",
"-. c #559E08",
";. c #4C8616",
":. c #528B17",
">. c #518F15",
",. c #559C13",
"<. c #5B9A19",
"1. c #4DA300",
"2. c #4EA702",
"3. c #4EA40D",
"4. c #52A600",
"5. c #54AA00",
"6. c #59AD00",
"7. c #53A60D",
"8. c #59A00D",
"9. c #55AB0D",
"0. c #59AE0D",
"q. c #5DB200",
"w. c #56B00D",
"e. c #5DB20D",
"r. c #5AA716",
"t. c #5EB316",
"y. c #66BA07",
"u. c #61B60D",
"i. c #63BA0D",
"p. c #68BD0D",
"a. c #61AC11",
"s. c #61B616",
"d. c #64BA16",
"f. c #69BD16",
"g. c #6AB318",
"h. c #69BD1C",
"j. c #58832A",
"k. c #5C902B",
"l. c #639D2B",
"z. c #6C8E3B",
"x. c #67A62A",
"c. c #6DB627",
"v. c #72B52D",
"b. c #6CA636",
"n. c #72A838",
"m. c #6AC10D",
"M. c #6BC116",
"N. c #70C51A",
"B. c #71C622",
"V. c #6F8E47",
"C. c #7AA948",
"Z. c #7CA951",
"A. c #84B94D",
"S. c #89AC5A",
"D. c #91AE5A",
"F. c #8AB759",
"G. c #878379",
"H. c #928D7A",
"J. c #8E9679",
"K. c #94AE6C",
"L. c #94B569",
"P. c #A4B77A",
"I. c #90C45B",
"U. c #A0C377",
"Y. c #9A958F",
"T. c #A49E92",
"R. c #A5A987",
"E. c #A8B788",
"W. c #A9A598",
"Q. c #B1AB96",
"!. c #B3AD9A",
"~. c #B0BC92",
"^. c #B5B39A",
"/. c #BBB49D",
"(. c #A9A7A4",
"). c #AFB1AA",
"_. c #B7B3A5",
"`. c #BCB6A3",
"'. c #BEB9A5",
"]. c #BDBBAD",
"[. c #BCBAB5",
"{. c #C4BB9D",
"}. c #C3BDA4",
"|. c #C3BDAB",
" X c #B2C78D",
".X c #B9D29B",
"XX c #BBC6A6",
"oX c #BDCBA8",
"OX c #C8C4A7",
"+X c #C6C1AB",
"@X c #CBC5AB",
"#X c #CFC8AD",
"$X c #D0C8A7",
"%X c #D2CBAE",
"&X c #CAC5B7",
"*X c #D5CEB2",
"=X c #D3CCBD",
"-X c #CAD7BC",
";X c #D7D0B4",
":X c #D9D2B5",
">X c #DBD5BB",
",X c #DCD4BB",
"<X c #E0D9BF",
"1X c #CAC8C4",
"2X c #D4CEC3",
"3X c #D0CECB",
"4X c #D5D2C4",
"5X c #DBD4C3",
"6X c #D4D1CE",
"7X c #DDD8C8",
"8X c #D8D6D4",
"9X c #DDDAD5",
"0X c #E2DAC3",
"qX c #E4DCCB",
"wX c #E6DDCB",
"eX c #E3DDD2",
"rX c #E2DEDA",
"tX c #DAE8C3",
"yX c #EAE1CD",
"uX c #EDE4D3",
"iX c #ECE6DB",
"pX c #E8E5DC",
"aX c #F0E7D5",
"sX c #F1E8D7",
"dX c #F0E7D9",
"fX c #F2E9D9",
"gX c #F8EEDD",
"hX c #EAF0D5",
"jX c #FAF0DE",
"kX c #EBE9E6",
"lX c #F5EEE2",
"zX c #F2EFE9",
"xX c #F7F1E5",
"cX c #F9F1E4",
"vX c #F9F4ED",
"bX c #FAF4EC",
"nX c #F9F6F2",
"mX c #FEFAF4",
"MX c #FEFEFD",
/* pixels */
"#.1.e.1.5.M.N.5.5.1.1.1.w.e.5.5.d.&.6.4.&.0.5.1.N.w.1.5.1.+.+.9.v.&X%X|.(.@X;X:X@X/.XX X]./.].r.5.2.1.#.5.4.&.a.5.$.6.f.0.2.+.1.2.1.6.i.N.M.",
"#.%.d.u.2.m.i.i.2.%.2.1.4.t.7.4.v.&.&.4.$.a.e.%.f.M.5.1.1.C.K.E.oXyXwX#X*X;X*X*X:X:X}.`.%X,XOX.X5.2.%.e.0.&.&.f.&.&.9.h.0.$.1.1.%.1.6.i.N.q.",
"%.&.u.u.5.m.i.i.5.%.2.+.$.t.l.n. XXX~.b.<.t.e.%.5.M.w.1.Z.eXyXyXkXfXfX,X%X*X*X*X*X*X,X,X;X*X;X`.XX3.1.1.e.%.9.9.1.$.e.h.4.%.7.9.$.1.q.u.m.q.",
"%.1.6.e.y.m.q.m.5.+.w.1.+.l.x.mXbXpXpX6X@XL.c.+.1.i.i.A.6XlXjXfXdXdXdXaX0XwX0X*X*X*X*X*X;X;X*X;X'.].'.L.0.5.u.4.&.&.e.f.%.%.t.9.%.$.q.y.i.q.",
"#.4.4.q.i.m.q.e.5.#.g.z.MXbXmXlXuXgXfXbXbX.XF.$.#.5. X8XrXbXfXaXaXfXfXfXgXaXdX0X*X*X*X*X:X:X:X,X;X%X;X}.F.h.u.&.#.1.e.e.%.%.t.1.#.&.q.u.q.q.",
"O.4.1.5.e.i.5.e.q.#.9.z.~ bXbXfXlXdXgXiXsXbX.XF.Z.-X1XpXmXjXsX1XqXfXfXfXeX=X&XwX:X:X;X:X+X+X}.^.%X;X;X*X4Xd.t.%.O.0.0.5.%.5.9.%.#.5.6.y.q.u.",
"O.1.1.4.q.i.2.q.6.%.4.7.;.<.gXaX4X&X5XfXfXjX6X3X8X8XmXbXhXaX4XpXfXfXfXfXeXgXeX|.|./.#X;X$X!.'.+X'.;X;X;X'.8XB.4.$.e.5.1.1.9.2.O.&.6.6.q.q.u.",
"@.%.4.4.6.m.1.2.6.5.&.9.+.n. X4XkXnX1X=XgXcXxXcXbXxXhXjXsX4X&XiXfXfXfXfXfXfXfXdXeX7X+X0X0X>X;X:X%X*X*X;X#X_.].E.9.5.5.1.1.e.2.+.&.6.q.u.q.6.",
"#.#.4.4.5.M.2.1.5.d.1.0.+.b._.zXMXMXMX|.eXzXlXgXdXqX4XqXiXgXvXfXsXfXfXsXfXfXsXsXfXgXeXuXfXaX;X*X;X*X*X;X;X%X:X$XP.5.4.4.1.e.5.+.5.5.6.i.6.5.",
"4.1.1.4.5.i.q.1.2.e.2.7.3..X8XMXMXMXMX8X=XcXrX|.Y.) Z P ` _.uXgXsXsXfXfXsXfXfXfXfXdXuXuXfXfX>X;X*X;X*X;X;X:X:X7X=X6.1.5.1.w.f.1.5.1.6.i.0.4.",
"&.4.M.6.%.a.y.1.1.9.w.9.S.(.kXMX8XkXMX9X2X2XY.! / / B u 3   / 5XgXaXsXfXsXfXfXsXdXaXaXfXfXaXaXyX:XyX>X:X;X%X>X7X&XF.2.1.2.e.e.2.2.1.5.p.6.&.",
"$.$.b , , , , g n >.c.A.(.. rXnX4 [.MXrXW.R / / E / A 0 C Z & q =XgXsXfXfXfXfXdXdXfXsXfXfXfXfXfXuXgX<X+X#X:X>X0X;X&X2.%.5.e.w.w.1.$.6.f.5.&.",
"*.b L L C p M M O X 3XMXrX1X1XnX).kXMX8X/ & R a U ) Z e p e Z 8 B qXgXaXfXfXfXaXaXfXfXsXfXfXsXfXsXfXuX%X^.#X>X>X>X+Xn.+.w.e.5.0.&.%.6.f.4.%.",
"V.= G y 0 A 0 N D @ ` 9XzX1X` rXMXnX9X1XO Q }.W.^ e u a p p C Z   T.lXaXfXfXsXsXfXfXfXsXaXfXaXfXsXfXgX>X#X'.>X7X7X>XP.%.e.e.2.9.#.%.6.f.4.%.",
"L 0 p a J X n <.v V 6 R Y.P   Y.9XrX8X` X H }.yX`.Q . 4 Z p B C * ) iXfXaXdXsXsXfXfXfXfXfXfXfXfXsXfXfX,X#X+X%X:X>X%XOX1.5.9.5.1.#.&.6.f.5.$.",
"Z u Z Z   @.5., 3 p Z 6 X B B 4 ` W./ * A   H.:X:X}.Q.7 * A p V 1 I wXgXaXaXsXsXfXsXsXfXfXfXsXfXfXfXfXuX>X^.#X:X;X:X'.C.2.9.0.+.+.&.6.f.6.1.",
"= H 3   $.1.h = C e p Z A B p B :   3 Z J   _ %X<X}.}.+XH   p Z & I wXgXaXsXsXfXsXfXfXfXfXsXsXfXfXfXfXaX,X#X/.;X:X;X%X X&.7.0.+.+.1.6.f.9.4.",
"m   h &.1.g o C u p u Z C 0 p p B Z B B K # R @XyXaX}.#X%X_       H.fXfXaXfXfXfXfXfXsXsXfXfXfXsXsXfXsXsX,X;X}.!.*X:X@X[.a.f.4.%.$.-.i.p.4.4.",
"$.1.e.1.n & B e p p B B B p p p p e p B A 1 P $XaXgXeX>X<X:X!.G.H.=XsXfXfXfXfXsXfXsXfXfXfXfXfXfXfXfXfXsX,X;X,X+X}.:X*X@XP.c.4.$.4.4.p.g.4.1.",
"#.&.w.9.h 8 Z e p p B p p C p p p p Z u Z < R @XwXfXuXsXsXyXyX0X0XuXfXfXfXfXfXsXfXfXsXfXfXsXsXfXsXsXfXfXsX0X%X;X/.;X;X,X*XD.2.2.0.5.p.p.$.1.",
"%.1.a.n O H C p u B B p p p p p p B B 0 A   _ %X,XaXsXsXfXfXfXfXsXfXfXfXsXfXfXfXsXsXfXfXfXsXfXfXfXfXfXfXfX0X*X*X}.*X;X*X;XP.5.6.i.6.u.u.%.&.",
"7.6.6.N 3 Z B p a B u p p p p u p B p p Z   H.:XwXfXsXsXfXsXdXsXsXsXsXfXfXfXsXfXfXfXfXsXfXsXfXsXfXsXsXfXfX0X*X*X*X:X*X;X*X~.4.q.y.6.u.a.#.1.",
"9.5.@.O Z p p C B p p p p p p p Z p 0 B B   Q.:XuXfXfXfXfXsXfXsXfXsXfXfXfXsXfXsXfXfXfXsXfXfXsXfXfXfXsXsXfXuX:X*X*X*X*X:X%XOX5.i.u.0.u.5.O.&.",
"9.1.N = Z p u Z Z 0 p p p p u C B 0 p Z 1 Z OX:XwXfXsXsXfXfXfXsXfXfXfXsXfXsXfXfXfXsXfXfXsXfXfXfXsXfXfXsXgXuX:X*X:X*X*X*X:X|.6.m.y.6.u.4.o.%.",
"9.@.y B a u B B B B u p p p p C 6 4 u Z   G.:X;XyXfXsXsXsXfXfXfXsXfXfXsXfXfXfXsXsXfXfXfXsXfXfXsXfXfXfXdXfXwX%X:X*X:X*X*X,X@Xg.m.6.5.9.4.X.#.",
"9.n O J p p C u p C p p p u C u 5 6 0 9 4 /.:XwXgXsXfXsXfXfXsXfXsXfXfXsXfXsXfXfXfXfXsXfXsXfXfXsXfXfXfXfXfXqX:X*X*X*X;X*X*X|.c.m.5.1.0.%.X.&.",
"e.m = Z p B p p u B B p p a a v C w C # ! ,X;XyXgXsXfXsXfXsXfXsXfXfXfXfXsXfXsXfXfXsXfXsXfXfXfXfXfXfXfXfXfX5X@X:X*X*X;X*X*X/. Xy.5.1.9.&.O.&.",
"a.D 9 a B B p p p u C p p Z p v i t v   H.,X;XuXsXsXfXfXfXsXfXfXfXsXsXfXfXfXsXfXfXsXfXfXfXsXsXfXfXdXfXfXfXfX|.#X:X*X*X:X*X<XOXP.x.1.7.7.%.&.",
"-.S p p Z p p p p p p B Z p u Z s t w   Q.:X>XfXsXsXfXsXfXfXsXfXsXfXfXfXfXfXsXfXfXfXsXfXfXfXfXfXsXsXfXaXfXsX|.@X:X;X*X*X*X*X$X/.{.S.&.0.4.%.",
"-.V Z p p p p p p p p Z C u p L t r 9 4 }.:X;XaXfXsXfXsXfXfXfXfXfXfXsXsXsXfXsXfXsXfXfXfXfXfXsXsXfXfXfXfXfXsX>X;X;X*X;X*X*X<X}.@X,X}.,.w.7.#.",
">.V J p p p p p B J p p B u A Y r % 5 p @X,X%XyXgXsXfXfXsXfXsXsXfXsXfXfXsXfXfXfXfXfXsXfXfXfXfXfXsXfXfXaXfXuX5XqX*X*X*X:X;X#X|.<X*X#XE.7.0.#.",
"*.S I Z 9 p 9 y I C 0 p u e I i r r 6 K %X;X,XsXaXiXsXsXfXfXfXfXfXfXsXfXfXfXsXsXaXfXfXfXsXfXsXfXfXfXfXfXfX2XeXaX>X*X>X:X;X}.eXgX0X*X}.b.0.&.",
",.E Z R T Z U ` R 9 p p 0 H T r '  .2 P ;X%X0XgXdXaXaXfXfXsXsXfXsXfXfXsXfXfXsXfXdXdXdXfXfXsXsXfXfXfXsXfXfX7XwXlXuX*X>X*X:X@X7XgXuX>X$XE.9.9.",
"-._ p Z ! ! ` / ( R 9 a 9 R s   { } + ! ;X;X,XfXfXaXfXfXfXfXfXfXsXfXfXsXfXsXdXlXlXgXdXfXfXfXfXfXsXfXsXfXfXqXuXfX5X:X*X*X:X}.qXfXfXwX*X}.L.1.",
"&.~ V a 6 A ^ Q ( Q Z 6 I E r t } {   _ ,X%X5XfXdXaXfXsXfXsXfXsXfXfXfXfXfXdXgXfXfXlXfXfXsXsXfXsXsXfXfXfXsXsXfXuX,X;X*X:X%X|.dXfXfXuX:X:X/.F.",
"-.k.M K 6 K ) Q E / y Z ! i ' } |  .  G.,X:XaXfXuXfXfXsXfXfXfXsXfXsXsXfXfXdXfXlXdXgXfXfXfXfXfXfXfXfXsXfXfXfXdXgX5X*X*X*X;X#XeXfXfXfXuX:X;X+X",
"&.<.T T 6 Z ) U / Q K ! Y t ] | | [   H.:X,XsXsXfXfXfXsXfXfXsXfXfXsXsXfXfXaXgXfXdXlXdXfXfXsXsXfXfXsXaXfXfXfXfXiXwX;X*X;X*X`.eXgXsXsXfX0X:X}.",
"&.4.V.S ! 0 ^ ` _ T Q U . w ] | | s   Y.,XwXfXsXfXfXfXfXsXfXfXfXfXfXfXfXfXsXdXlXgXfXaXfXfXfXfXfXfXfXfXfXfXaXfXaXfXaX;X#X`.5XfXfXfXsXgXwX:X+X",
"#.$.&.~ S I L Q S ! l.r.~   i [ s v O !.wXfXaXfXsXfXsXfXsXfXfXfXsXfXfXsXfXfXdXdXfXsXsXfXsXfXfXsXsXsXfXfXfXsXaXsXfXwX:X#X&XfXfXfXsXfXaX0X{.XX",
"%.#.1.9.j.F F j.>.t.1.7.3.m .   w o e *XuXdXfXfXuXfXsXfXfXfXsXsXsXfXdXfXfXfXfXfXsXfXfXfXsXfXfXsXfXfXfXfXuXqXfXfXfX,X*X:X@XuXfXfXsXsXuXOX[.r.",
"1.O.&.0.&.%.0.9.w.s.1.1.9.#.*.V.H H +XaXsXaXfXuXiXsXdXsXfXfXfXfXfXfXfXfXfXfXfXfXfXfXfXfXsXfXfXfXfXfXsXgX0X&XfXfXsX,X:X@X&XgXdXdXaXfXaX,X+XC.",
"1.#.+.1.9.1.1.0.w.d.%.2.0.1.+.u.c.P.jXfXfXfXfX9XfXfXsXfXfXsXfXsXfXaXsXfXfXfXfXfXfXfXsXfXfXfXsXfXfXfXfXyX|.2XgXfXwX%X:X%X*XdXfXaXfXfXfX5XOX X",
"5.%.#.%.3.1.%.7.e.t.+.1.w.0.#.5.c.Z.hXfXgXfXuXyXxXaXaXdXfXfXfXfXfXfXdXuXfXfXfXfXfXfXfXfXfXsXfXsXfXfXfXyX%X#XiXfXaX:X*X`.=XgXfXsXaXaXyX>X$XoX",
"u.1.1.1.1.1.1.1.e.e.+.#.w.d.%.1.M.b.hXmXxXfXaX6XmXmXvXgXaXfXsXfXgXnXrXqXfXsXfXfXfXfXfXsXfXsXfXfXsXfXsXsX<X|.qXgXwX*X%X}.yXfXuXaXgX0X#X{.R.v.",
"e.1.3.%.1.3.1.1.w.u.#.+.5.f.5.1.e.x.U.fXvXaXgX7X6XkXkXnXgXfXsXlXMX9X&XgXdXaXfXsXfXaXuXaXfXfXsXfXfXfXfXfX,X@X0XfXfX0X;X!.OX}.%X}.5X<XOXP.0.2.",
"e.%.3.1.1.3.1.%.w.w.$.%.4.e.e.1.e.q.b.XXmXxXfXfXwX=XrXmXnXmXlXbXrX&XgXfXaXfXfXfXfX0XwXfXfXsXfXfXfXsXfXwX,X+XqXfXwX0X*XE.L.S.E.E.~.{.P.1.w.1.",
"i.%.1.1.3.3.1.1.0.0.%.1.1.5.m.5.q.q.F J.MXmXxXsXgXfX2XrXvXmXmXmX2XuXfXaXfXfXaXfXgX=X<XfXaXfXsXfXfXfXaX*X{.|.fXwX*X*X{.Z.1.%.s.0.=.F.1.2.0.1.",
"i.%.+.3.3.1.+.1.w.5.#.4.5.1.M.6.6.=.  Q 6XnXbXsXlXfXuX2X^ (.nX9X7XgXdXfXfXfXfXdXgX2X}.<X,XyXfXfXfXfX0X*X|.gXyX*X#XR.S.&.1.%.0.0.+.w.1.1.5.#.",
"M.%.%.3.9.+.+.2.w.4.+.2.q.%.m.5.4.> p 6   n.MXvXnXxXfX;X@   (.qXfXaXsXfXsXfXfXsXfXdX&X`.%XyXfXyXyX<X*XQ.*XgXuX|.P.$.%.2.2.#.0.t.+.e.1.1.1.+.",
"M.2.+.w.%.#.t.2.7.1.+.2.1.1.e.i.f = L : N :.t.4XkXmXmX(.  w 5XjXsXfXfXfXfXfXsXdXaXaXgX5XOX>X5X;X<X<X%X&XdXfXwX|.8.%.%.e.1.1.e.t.%.1.%.1.9.9.",
"e.w.2.3.+.%.t.1.1.%.1.e.1.+.6.@.X J 8 < 1.+.l.Z..XvX9XG.  R wXfXsXfXfXfXfXsXfXfXfXaXgXqX@X*X;X#X@XW.T.0XfXdX0XE.#.1.1.1.1.2.w.e.2.1.%.1.0.9.",
"q.e.2.2.O.1.t.1.1.#.1.e.1.+.@.X Z A   l 1.1.t.2.x.L.).Z X ..iXgXgXaXfXfXaXfXfXaXfXaXfXaX|.:X#X+XY.  5 %X:X0X$XD.%.5.7.+.1.5.5.e.w.+.1.1.t.w.",
"e.e.4.#.X.1.s.5.%.%.2.5.5.%.6 a H 1 d 1.1.2.9.1.1.3.b.O # T.mXmXlXaXfXxXxXdXdXgXdXfXsXgX5X^.].fX!.o 9 W.XX^.K.%.1.1.t.+.1.2.2.w.e.%.1.1.s.t.",
"i.e.5.%.O.1.s.9.%.1.5.1.w.g 2 B H   l 4.1.2.5.1.1.9.F 3   (.nXkXmXdXlXmXmXvXxXnXfXfXfXaXfXuXdXcXW.< X J.0.=.1.0.1.%.M.+.%.%.2.e.w.1.%.%.f.i.",
"m.e.w.1.%.1.t.t.#.1.0.5.k & Z A X g 1.9.2.w.2.1.1.9.D e @ (.6X1XnXnXnXvXkXnXmXmXvXfXaXgXcXjXfXgXQ.<   j.0.#.&.t.9.%.e.1.1.%.1.w.w.2.%.5.f.e.",
"i.e.5.5.1.+.w.M.1.%.i.n & Z p J   @.#.9.7.e.1.1.1.*.* H   C.3..XrXMXkX1X[.zXvXpXmXlXxXkXpXkX4X&XY.8 : N 9.%.#.9.t.1.1.1.%.+.%.7.5.5.1.e.e.5.",
"f.0.1.5.4.O.5.B.1.#.r.  9 p J   f 8.#.7.4.t.5.1.1.;.o C 1 ,.1.5.U.~.~.I.I.[.V.G.hXlXtXXXE.L.A.y.V.O 9 v 1.1.+.%.M.w.+.2.#.%.+.5.5.5.1.M.e.5.",
"M.6.1.5.5.#.&.p.s.1.;   4 w Z   @.7.%.4.0.s.5.1.&.m 3 6 C 7.%.i.y.0.%.1.r.P . $ Y.A.L.b.+.w.M.2.:.o B @ #.1.1.O.w.t.#.%.1.#.O.9.1.1.q.i.6.1.",
"M.0.1.0.5.$.&.f.i.f   q . q   d 4.&.#.1.1.d.5.1.4.W K @ P 2.1.f.u.1.&.4.,.y H # W r.=.$.1.e.e.2.*.O C   z 1.1.+.w.s.1.2.9.%.O.9.1.4.q.i.q.5.",
"f.6.4.u.4.1.&.f.i.g   q $ $   z 9.&.%.&.1.s.5.4.,.^ I   D 2.5.M.e.&.9.5.:.= a 6 j.5.%.1.1.e.e.q.-.& H   k &.2.+.2.s.1.0.9.+.O.1.1.5.i.y.5.e.",
"p.4.4.g.1.4.%.i.u.@.  7 5   d $.d.7.&.&.1.s.5.4.:.E L   N 2.e.i.5.&.s.0.m   I 9 j.5.%.&.0.e.e.q.8.= a = d 1.1.%.5.w.1.e.2.+.+.1.&.6.p.y.q.f.",
"i.&.6.f.&.&.#.u.u.d.;   <   z %.a.9.$.%.1.f.5.4.m 6 K   x 1.e.i.1.1.f.0.c   U   ;.1.#.%.w.f.i.i.-.2 u 8 : %.%.%.9.0.%.w.1.%.%.%.&.q.p.6.q.M.",
"a.1.u.f.&.&.$.q.u.q.8.    ; %.4.u.7.#.%.1.e.5.5.h 3 K   x 5.s.6.&.5.i.5.V < H   ;.$.%.%.w.d.e.i.&.: 6 Z   o.%.+.0.9.%.0.%.1.2.1.&.q.i.4.e.M.",
"5.5.g.i.&.$.4.6.q.6.6.$.  z &.0.d.0.#.4.e.w.&.4.4 6 K   x 5.s.4.&.w.w.1.w w 5   @.%.&.1.e.e.q.e.#.- & a   j %.+.0.7.%.w.%.1.7.1.1.q.q.&.u.f.",
"1.6.M.q.+.#.5.6.5.0.6.5.4.$.1.e.d.s.#.0.M.5.%.@.  $ q   k 9.s.&.%.t.5.*.< < 4   @.%.&.4.e.5.5.q.#.-   w   d 1.+.w.2.%.w.%.1.3.1.2.6.5.&.i.s.",
"$.u.M.%.O.4.5.5.5.0.0.4.&.5.5.e.f.5.w.d.t.1.1.z   4 5   l 9.0.#.1.0.1.&.    6 . o.#.4.1.4.u.4.#.1.d   q   + #.+.w.+.7.1.+.1.9.1.2.e.#.1.f.e.",
"2.i.m.%.%.6.5.5.4.9.s.1.1.1.5.i.i.5.i.d.w.%.1.k   4 5   l 0.0.#.1.9.&.1.<.c   + $.%.4.4.5.u.5.%.1.f   5 5   o.%.2.+.w.1.+.2.5.1.5.w.+.2.f.9.",
"w.p.6.1.5.w.5.1.1.9.s.5.%.1.5.i.i.w.f.e.1.+.1.f   5 5   l 0.w.%.1.5.&.5.f.e.7.5.e.1.5.&.4.s.w.1.1.k   q .   j 1.1.%.9.+.+.7.1.+.w.5.%.5.d.5.",
"e.f.1.1.e.e.4.&.&.7.s.5.1.1.5.i.i.e.f.2.%.1.1.j   q 4   l e.9.%.1.1.&.5.M.q.2.5.i.5.4.&.1.u.0.1.1.$.    + j 1.4.9.1.1.1.+.1.1.5.e.1.$.9.d.5.",
"e.M.%.4.u.9.1.&.%.7.s.5.%.1.5.i.e.d.e.%.1.1.+.1.f   $   o.w.2.$.1.1.1.0.d.5.&.5.h.w.1.%.4.e.0.&.%.4.6.=.5.1.%.1.t.9.+.3.1.1.1.t.0.#.1.0.s.4."
};
