/* XPM */
static char *result[] = {
/* columns rows colors chars-per-pixel */
"70 70 235 2 ",
"   c #000000",
".  c #060604",
"X  c #0D0101",
"o  c #150000",
"O  c #190702",
"+  c #081403",
"@  c #1C1400",
"#  c #1C160A",
"$  c #1C1818",
"%  c #221300",
"&  c #241D03",
"*  c #291E00",
"=  c #3D1C16",
"-  c #172403",
";  c #1F3D01",
":  c #282406",
">  c #2A3A0F",
",  c #34340A",
"<  c #25221A",
"1  c #2B2619",
"2  c #332C16",
"3  c #342E1C",
"4  c #1D1D21",
"5  c #252525",
"6  c #292626",
"7  c #2E2B25",
"8  c #2B2A2A",
"9  c #332D22",
"0  c #312F2C",
"q  c #383424",
"w  c #3A3425",
"e  c #31362F",
"r  c #3A352A",
"t  c #3E3A2E",
"y  c #343332",
"u  c #3B3634",
"i  c #3E3B31",
"p  c #36383B",
"a  c #43372A",
"s  c #403B2E",
"d  c #413D32",
"f  c #423E3A",
"g  c #264804",
"h  c #2D5804",
"j  c #36570A",
"k  c #374814",
"l  c #2E6400",
"z  c #366B06",
"x  c #387505",
"c  c #3A7D01",
"v  c #3C6617",
"b  c #3B442F",
"n  c #3E5823",
"m  c #474F0E",
"M  c #447B07",
"N  c #466C1A",
"B  c #49472A",
"V  c #445525",
"C  c #454136",
"Z  c #494631",
"A  c #464339",
"S  c #49453B",
"D  c #4D493E",
"F  c #574B39",
"G  c #4A5535",
"H  c #505A33",
"J  c #537231",
"K  c #424245",
"L  c #4B4744",
"P  c #4D4A42",
"I  c #524E45",
"U  c #5A4F42",
"Y  c #58554A",
"T  c #5C5953",
"R  c #62594C",
"E  c #625D54",
"W  c #645E56",
"Q  c #5A6645",
"!  c #66635B",
"~  c #696659",
"^  c #687251",
"/  c #686460",
"(  c #6D6A63",
")  c #726E67",
"_  c #777266",
"`  c #76726B",
"'  c #7C7771",
"]  c #817D79",
"[  c #2E8300",
"{  c #398601",
"}  c #3A8E00",
"|  c #3C9300",
" . c #478806",
".. c #419600",
"X. c #4C9402",
"o. c #459B00",
"O. c #4A9E00",
"+. c #4D940C",
"@. c #4C9B0A",
"#. c #559E08",
"$. c #4C8616",
"%. c #528B17",
"&. c #518F15",
"*. c #559B13",
"=. c #5B9A19",
"-. c #4DA300",
";. c #4BA407",
":. c #4FA800",
">. c #4EA60D",
",. c #52A600",
"<. c #54AA00",
"1. c #59AD00",
"2. c #53A60D",
"3. c #59A00D",
"4. c #55AB0D",
"5. c #59AE0D",
"6. c #5DB200",
"7. c #56B00D",
"8. c #5DB20D",
"9. c #5AA716",
"0. c #5DB216",
"q. c #66BA07",
"w. c #61B60D",
"e. c #64BA0D",
"r. c #68BD0D",
"t. c #61AC11",
"y. c #61B616",
"u. c #64BA16",
"i. c #69BD16",
"p. c #67B419",
"a. c #69BD1C",
"s. c #58832A",
"d. c #629A32",
"f. c #64A529",
"g. c #6DB826",
"h. c #6DA636",
"j. c #71B131",
"k. c #6AC10D",
"l. c #6BC116",
"z. c #70C51A",
"x. c #71C622",
"c. c #6F8E47",
"v. c #7AA948",
"b. c #7CA951",
"n. c #83B84C",
"m. c #8AAD5A",
"M. c #91AE5A",
"N. c #89B659",
"B. c #878379",
"V. c #928D7A",
"C. c #8E9679",
"Z. c #94AE6C",
"A. c #95B66A",
"S. c #A4B77A",
"D. c #90C45B",
"F. c #A0C377",
"G. c #9B958D",
"H. c #999590",
"J. c #A49E92",
"K. c #A5A987",
"L. c #A8B788",
"P. c #A9A598",
"I. c #B1AB96",
"U. c #B3AD9A",
"Y. c #B1BD91",
"T. c #B5B39A",
"R. c #BBB49D",
"E. c #A9A7A4",
"W. c #AFB1AA",
"Q. c #B7B3A5",
"!. c #BCB6A3",
"~. c #BEB9A5",
"^. c #BDBBAD",
"/. c #BCBAB5",
"(. c #C4BB9D",
"). c #C3BDA4",
"_. c #C3BDAB",
"`. c #B2C68E",
"'. c #B7D09A",
"]. c #BBC6A5",
"[. c #BCC2B0",
"{. c #C8C3A6",
"}. c #C6C1AB",
"|. c #CBC5AB",
" X c #CFC8AD",
".X c #D0C8A7",
"XX c #D2CBAE",
"oX c #C7C2B2",
"OX c #CBC6B8",
"+X c #D5CEB2",
"@X c #D3CCBD",
"#X c #CAD7BC",
"$X c #D7D0B4",
"%X c #D9D2B5",
"&X c #DBD5BB",
"*X c #DCD4BB",
"=X c #E0D9BF",
"-X c #CAC8C4",
";X c #D4CEC3",
":X c #D0CECB",
">X c #D5D2C4",
",X c #DBD4C3",
"<X c #D4D2CE",
"1X c #DDD8C8",
"2X c #D8D6D4",
"3X c #DDDAD5",
"4X c #E2DAC3",
"5X c #E4DCCB",
"6X c #E6DDCB",
"7X c #E3DDD2",
"8X c #E2DEDA",
"9X c #DAE8C3",
"0X c #EAE1CD",
"qX c #E7E9CA",
"wX c #EDE4D3",
"eX c #EDE6DA",
"rX c #E8E5DC",
"tX c #F0E7D5",
"yX c #F1E8D7",
"uX c #F0E7D9",
"iX c #F2E9D9",
"pX c #F8EEDD",
"aX c #EAF0D5",
"sX c #F9F0DF",
"dX c #EBE9E6",
"fX c #F5EEE2",
"gX c #F2EFE9",
"hX c #F7F1E5",
"jX c #F9F1E4",
"kX c #FAF4EC",
"lX c #F9F5EE",
"zX c #F6F6F6",
"xX c #FBF6F0",
"cX c #FEFAF4",
"vX c #FEFEFE",
/* pixels */
"..-.8.-.:.l.z.:.<.-.-.-.5.w.,.,.i.O.1.,.O.5.<.-.z.5.-.<.-.| | 4.j.oXXX^.E.|.$X%X.XT.[.`.^.R.].9.<.,.;...<.-.O.8.,.X.<.i.5.,.| O.:.-.<.e.z.l.",
"..o.u.w.:.k.e.e.:.;.:.o.,.y.2.,.r.o.,.O.X.w.8.O.i.l.<.O.:.v.Z.L.OX0X0X X$X$X$X$X%X*X).R.XX*X{.'.,.,.o.8.5.O.-.i.O.O.5.l.5.o.-.-.O.-.1.e.z.6.",
"o.O.w.w.1.k.e.e.:.| <.o.o.0.p.0.r.0.0.h.=.t.w...<.l.8.-.b.7X0X0XrXiXiX&XXXXX+X$X+X+X*X*X$X+X$X~.].o.-.:.8.o.5.5.,.O.5.a.,.o.4.4.O.O.1.r.k.6.",
"o.-.1.8.q.k.6.k.:.| 7.-...0.0.e.9.e.p.e.u.e.e...-.e.k.b.<XfXsXiXuXuXuXwX4X0X4XXX+X+X+X+X+X$X+X+X~./.!.A.5.,.w.-.O.X.w.p.o.o.0.5...X.q.w.w.6.",
"..,.,.6.e.k.1.8.<...0.0.0.0.w.jXwXpXiXkXcX9.0.u.| 1.`.3X8XlXiXwXuXiXiXiXiXwXiX6XXX%X+X+X%X%X%X&X%X$X%X).N.a.8.-...,.5.8.o.O.0.-.| -.1.w.1.q.",
"} ,.-.<.8.e.<.8.6...5.e.e.hXkXiXiXiXpXuXyXjXe.t.b.#X-XrXxXsXiX-X1XiXyXiXwXOXOX6X%X%X$X%X}.}.).T.+X$X$X X>Xa.8.O.} 5.5.<.o.,.5...| 1.1.q.q.w.",
"} -.-.,.6.e.:.1.1.;.,.2.&.pXpXtX:XOX,XiXiXjX<X:X2X2XxXkXaXtX>XrXjXiXiXiX0XpX0X^._.R.|.$XXXI.~.{.!.$X$X$X!.2Xx.,.X.8.<.-.-.5.-.} o.1.,.q.1.w.",
" .o.,.,.1.k.:.:.<.<.O.4.pXpX`.:XgXzX-X@XiXfXgXjXlXjXaXsXiX>XOXuXiXiXyXyXiXuXpXwX7X1XoX4X4X&X$X%X X$X$X$X XQ.^.L.5.<.<.-.-.7.:.| -.1.1.w.1.1.",
"....,.,.<.l.:.-.:.u.-.5.sXjXW.gXvXvXvX_.7XhXjXpXuX5X>X5XuXiXkXiXwXiXiXiXiXiXyXiXiXiX0XrXiXwX%X$X$X+X$X+X$XXX%X.XS.,.<.,.-.8.<.| <.,.6.e.1.,.",
",.O.,.#.<.8.6.-.:.8.-.jXvXsX2XvXvXvXvX2X;XjX8X_.G.` S Y ' Q.wXpXiXiXiXiXyXiXiXiXwXiXwXwXiXiX*X$X+X$X+X+X+X$X$X,XOX1.-.,.-.8.0.-.<.-.1.r.8.-.",
"O.,.r.#.o.t.q.:.:.4.sXvXvXE.dXvX<XdXvX8X@X,XH.W ( ( C s 9   ( ,XsXtXiXiXiXiXiXiXwXuXiXyXiXiXwX0X%XwX*X%X$XXX&XqXOXD.-.-.:.8.8.:.,.-.<.r.1.-.",
"X.X.N , , , , j M &.sXvXP.X 8XzX5 /.vX8XP.E ( ( W ( S t A D @ r @XpXwXiXiXiXiXiXiXyXiXiXwXiXsXiXwXiX4X{.|.%X&X1X%XoX-.O.<.8.7.7.-.o.1.i.,.X.",
"+.m F L A d B B @ . :XvX8X/.:XzXW.dXzX2X( % W d T ` A s d i L q C 5XiXiXiXiXiXwXiXiXyXiXiXyXwXiXyXiXwX+XR.|.,X*X&X}.j.| 8.8.:.7.O.O.<.i.,.o.",
"c.= A t t D t V G @ ` 3XzX-X' 8XvXzX8X-XO ~ ^.P./ u s f d d f S   J.jXuXiXiXiXwXiXiXiXiXiXiXiXiXiXyXyX=X X~.&X,X1X,XS.o.8.8.:.5...o.1.i.,.o.",
"I r d d P X M =.t A 9 W H.I   H.3X8X2X] X K ).0X!.! . 9 A d Z A & ) eXiXtXiXwXiXiXiXyXyXiXiXyXyXyXiXyX*X X}.$X%X%X+X{.-.<.5.-.:...O.1.p.,.X.",
"S t L S    .<., 3 C A 9 O C C 7 ] J.( & D   V.%X$X).I.8 & D d A 1 Y 6XpXwXiXiXiXiXiXiXiXyXiXiXiXiXiXyXwX%XT.|.$X+X$X~.v.-.4.5.| | -.1.i.1.,.",
"* P 3   o.-., : S t d S D C d C :   3 S P   _ XX=X~.).}.L   d S % Y 6XpXtXiXiXyXyXiXiXiXtXiXiXiXiXiXiXiX*X XR.$X$X$XXX`.O.2.5.} ..,.1.i.5.,.",
"N   k o.O.j o D s d d S C t i d C S C C I # T  X0XiX).XXXX_       V.iXiXtXyXiXiXiXiXyXyXiXiXiXtXyXiXyXiX*X+X).U.+X%X X/.t.i.,.o.X.#.w.r.,.,.",
"o.-.0.,.M % C C d d f C C C d d d i d C D 1 Y .XwXpX6X,X4X$XU.B.V.+XyXiXiXiXyXiXiXyXiXiXiXiXiXiXiXyXyXyX*X+X*X{.).%X+X XS.g.,.o.,.,.q.i.O.,.",
"..O.5.4.k w A d s d C d d A d d d d S s S < E |.6XyXwXyXiX0X0X4X4XwXiXiXiXiXiXyXiXiXyXiXiXiXiXiXyXyXyXyXiX4X+X$X~.+X+X%X+XM.-.,.t.,.r.e.O.O.",
"o.,.5.$.O P C d d C C d d d d d d C d i D   _ XX*XyXiXyXiXiXyXiXyXiXyXyXyXiXiXiXyXyXiXiXiXiXiXiXiXiXiXyXpX4X+X+X_.+X$X+X%XS.,.1.w.1.e.w.o.O.",
"*.1.,.V 3 S f d d A s d d d d d d C d d D   V.%X6XiXyXyXiXiXyXyXyXyXiXiXiXiXyXiXiXiXiXyXtXiXiXtXiXyXiXyXyX5X+X+XXX$X+X+X$XY.,.6.e.1.w.t.| -.",
"5.<. .O D d d A C d d d d d d d S d d C d   I.%XwXiXiXiXyXiXyXiXyXiXyXiXiXyXiXyXiXiXiXyXiXiXiXiXiXiXyXyXyXiX%X+X%X+X+X%XXX{.,.r.w.5.w.<.} O.",
"5.-.m * D d s A A t d d d d s A C t d S 1 S {.%X6XiXyXiXyXiXiXiXiXiXyXiXiXyXiXiXiXyXiXiXiXiXtXiXyXiXiXyXiXwX$X+X%X$X+X+X%X}.1.r.q.1.8.,.} o.",
"2. .a A f s C C C C s d d d d C 9 7 d C   B.%X%X0XiXiXiXiXiXyXyXiXyXiXiXyXyXiXiXiXiXiXiXiXiXtXiXiXiXiXiXiX6X+X$X+X%X+X+X%X{.p.k.1.,.5.-.{ | ",
"4.x O P d d A s d A d d d s A t 7 7 d r 1 R.*X6XiXiXiXiXyXiXiXiXiXiXyXiXiXiXiXyXiXiXtXiXiXtXiXiXiXiXiXiXiX6X$X+X+X+X$X+X%X_.g.k.<.-.5.o.[ -.",
"5.N * S s C d d s C C d s A d f d t C # ~ XX$X6XiXtXiXiXyXiXyXiXyXyXiXiXiXiXiXyXiXtXtXiXiXiXtXiXiXyXiXiXiX,XoX%X+X+X+X+X%X(.`.q.<.-.5.o.} O.",
"8.H r C Z f d d d s C C f A d b K p C   G.*X+XyXiXiXiXiXiXiXiXiXiXiXiXyXyXyXiXiXiXiXiXiXiXiXiXiXiXiXiXiXiXiX_. X%X+X$X%XXX%X{.L.f.-.2.2.o.O.",
"#.U d A A d d d d d d A A d d p p p i   I.%X*XiXiXiXiXiXyXyXiXyXiXiXiXyXiXiXiXyXtXiXiXiXiXiXiXyXiXiXyXtXiXtX{.|.$X$X+X$X%X%X XR.(.m.O.4.,.o.",
"+.Z S d d d d d i d d A A s i e 6 4 r 6 ).*X$XyXiXiXyXiXyXyXiXyXyXyXiXiXiXyXiXiXiXiXiXiXiXyXiXiXyXiXiXiXiXtX@X$X$X+X$X$X+X*X{.{.*X).*.0.4...",
"+.Z I d d d f d C I d d C s K K 4 p 9 f {.*XXX6XiXiXyXyXyXiXiXiXiXiXyXiXiXiXyXiXiXiXiXtXiXiXyXiXiXiXiXtXpXwX,X6X+X+X$X$X%X X_.*X$X XL.2.4.o.",
"&.F Y S r s w s Y A i d s e K 4 p 5 9 I XX$X*XyXiXyXiXyXiXyXyXiXyXiXiXiXyXiXyXiXtXiXiXiXiXiXiXiXyXiXiXiXiX;X7XuX&X+X$X$X%X~.7XpX4X+X(.h.5.o.",
"#.W F W Y S T ' T r C d i K K K 5 5 2 Y +X$X6XyXuXwXyXiXiXyXyXiXiXiXiXyXiXiXyXiXfXuXyXiXuXiXyXiXiXiXiXyXiX5X5XpXwX+X&X+X$X|.5XiXwX*X.XL.4.2.",
"X.` d S ~ ( ' ( ) T r b K 8 4 e 5 ..+ ~ %XXX&XiXuXyXyXiXiXiXiXiXiXyXiXyXiXyXiXfXiXfXyXiXiXiXiXiXyXiXiXiXuX5X7XpX,X$X+X+X$X_.5XiXiX6X+X).A.-.",
"O.^ Z f 9 S / / ) ! A 0 e e e 5 >.O.. ) %XXX4XyXyXuXyXiXyXiXiXyXiXiXyXiXiXuXfXiXfXfXiXiXiXiXyXyXyXiXyXiXyXyXiXuX*X+X+X$X+X_.uXuXiXwX%X%X(.N.",
"#.d.d I q I ) W ! ( e e 8 5 4 o.O...  B.%X%XiXyXyXiXiXiXyXiXiXyXyXiXiXiXiXuXiXfXiXiXiXiXiXiXiXiXiXiXyXiXiXiXyXiX4X+X+X+X$X{.wXiXiXiXwX%XXXoX",
"O.*.R R q A ) T ( ! e e e 5 o.o...o.  V.*X*XiXwXyXyXiXiXyXiXiXiXiXiXiXuXiXiXiXiXuXiXiXiXiXyXyXiXiXyXyXiXiXtXiXuX6X$X+X$X+X).5XiXiXtXiX4X$X{.",
"O.#.c.F ~ t / ' ` R L 5 5 >.>.o.>.O.  J.*X6XiXyXiXiXiXyXiXiXyXiXiXiXiXiXyXiXiXfXiXiXiXiXiXiXiXiXiXiXiXiXiXyXuXyXpXtX%X XQ.,XiXiXiXiXiX0X$X}.",
"o.X.#.^ F Y U ! U ~ d.9.o.o.o.>.o.o.O U.0XiXyXyXiXiXiXyXiXyXiXyXyXiXiXiXiXuXiXuXyXiXiXiXyXiXiXyXiXiXyXiXiXuXyXiXiX6X%X XOXpXiXiXiXiXtX1X(.].",
"o.o.O.<.s.J J s.&.0.-.:.>.>.O.o.o.O.u  X0XuXuXyXwXyXiXiXiXyXiXiXyXiXiXiXiXiXiXiXiXiXyXyXiXiXiXyXyXiXiXiXwX4XuXiXiX%X+X+X|.7XpXuXiXiXqX|./.9.",
"O.} O.5.O.o.4.5.7.u.-.-.4.| +.o.o.o._.tXiXiXiXwXrXiXiXyXiXiXyXiXiXyXiXiXiXiXiXiXiXiXiXiXiXiXyXiXtXiXyXpX4XOXiXiXyX$X%X|.OXiXiXuXyXiXwX*X{.v.",
",.o.| -.4.-.-.5.7.u.o.-.5.,.| 8.g.S.jXiXiXwXiX3XiXyXiXiXiXyXiXiXiXyXyXiXiXiXiXiXiXiXiXiXiXiXiXiXiXiXpX0X).;XpXiX6X+X%XXX+XiXiXiXyXyXpX,X{.`.",
"<.o.o.O.>.-.O.>.8.0.| -.7.5.| <.g.n.eXyXiXpX0X7XhXiXyXiXiXiXyXyXyXiXuXwXiXiXiXiXiXiXiXyXyXiXiXiXiXtXpX6XXXOXtXiXtX%X+X!.@XpXiXiXwXiX0X*X.X].",
"w.O.O.O.-.-.O.:.8.8.| | 5.u.O.:.u.j.aXcXkXyXyX1XcXcXkXiXyXyXiXiXfXxX8X5XiXiXiXiXiXiXiXiXiXiXiXiXiXiXyXyX=X).5XfX6X+X+X!.0XtXwXtXpX4X X~.K.j.",
"8.-.;.;.o.>.:.-.4.8.| | <.i.<.-.e.f.F.aXkXwXpX1X2XrXdXkXfXiXyXiXcX3XOXiXiXyXiXuXiXtX6XiXiXiXiXiXiXiXiXiX*X|.4XiXiX=X$XU.).).+X).4X*X{.S.4.<.",
"e...;.;.-.>.-.O.5.8.-.o.,.8.w.-.w.6.h.[.cXhXiXiX6X@X8XvXxXcXfXcX8XOXpXiXyXyXiXyXiX4X6XpXiXiXiXiXiXiXiX6X%X{.5XiX6X4X+XL.A.M.L.L.Y.(.S.,.7.-.",
"8.o.-.-.>.>.o.-.5.5.O.-.-.,.k.<.6.6.J C.vXcXhXuXpXiX;X8XzXxXcXcX:XwXiXiXiXiXyXiXiX@X=XiXyXiXiXiXiXiXwX+X!.oXiX0X$X+X(.b.-.o.y.4.@.N.-.:.5.-.",
"e.o.| >.>.-.| -.5.<...,.<.-.l.<.1.X.  ! <XxXkXuXfXiXwX;X/ E.xX3X5XiXiXiXiXyXyXyXpX>X).=X%X0XiXiXiXiX4X+X}.iX0X+X XK.m.O.-...5.8.| 7.o.:.<...",
"l.;.| >.4.| | :.5.-.| <.<.-.e.<.,.> f 9   h.cXxXcXpXpX@X@   P.5XiXtXiXiXiXyXiXyXiXiXoX!. X0XiX6X0X=X+XI.@XiXwX).S.X.O.:.:...5.0.| 7.-.-.-.| ",
"l.:.| >.o...0.:.4.-.| -.:.O.e.e.h * I : V %.0.<XdXcXcXE.  u ,XjXuXiXiXiXiXiXiXiXyXiXjX>X{.*X4X$X=X=XXXOXyXiX0X_.3.o...5.O.-.8.0.O.-.o.-.4.4.",
"8.8.:.4.| o.0.-.-.O.-.8.:.| <.M X P u - ;.| f.b.'.hX3XB.  W 7XiXtXiXiXuXyXiXiXiXiXtXpX6X{.%X%X X XP.J.4XiXiX4XL.o.-.-.:.-.:.7.8.:.-.o.-.5.4.",
"6.8.-.-.} -.0.:.-.| :.7.:.|  .X D P   z -.-.7.:.h.A.W.S X ] iXiXiXiXiXiXuXiXiXiXyXyXiXwX_.%X|.oXG.  8 XX%X4X.XM.o.-.5.| -.<.<.8.7.| -.-.0.7.",
"8.8.,...[ -.u.-.O.O.-.<.<...q d D : k ;.;.-.7.-.-.4.d.% # J.cXcXhXiXiXhXgXiXuXiXiXiXyXpX1XQ.^.yXI.o r P.].T.Z.o.-.-.0.| ;.:.:.7.8.o.-.o.u.0.",
"e.8.<.o.} :.u.4.| -.<.-.7.j 2 A P   c -.-.<.:.-.;.4.J 2   E.cXdXxXiXfXcXcXkXhXxXiXyXyXyXiX0XwXsXP.< X C.5.@.-.5.-.O.i.| o.o.:.8.7.-.o.;.i.8.",
"e.w.4.-.| -.0.8.o.-.8.<.z % A P X k O.5.:.4.-.-.;.4.G t # E.:X-XcXxXkXkXdXlXcXcXhXyXtXiXhXpXpXsXI.<   s.5...O.0.4...8.-.-.o.O.7.7.<.o.<.u.8.",
"k.8.<.,.:...8.a.-.o.w.M % A d P    .o.4.>.8.:.O.o.@.* L   v.>.'.8XvXdX-X/.gXlXdXcXgXfXgXrXfX>XoXH.q : V 4.o...4.0.:.:.:...| ..4.:.<.-.8.8.<.",
"i.5.,.,.-.} <.x.-.| *.  r f I   h 2...2.,.y.<.-.-.$.O A < 9.-.<.F.Y.Y.D.D./.c.H.aXhX9X].L.Z.n.e.c.O t b :.-.| | u.7.| -.o...| <.<.<.-.l.8.<.",
"l.1.-.,.<...-.e.u.-.;   6 u S    .2.o.,.2.u.<.-.O.N 3 9 S ,...e.8.4.o.O.9.Y . O C.n.Z.h.O.7.l.-.%.o d @ ..-.:.} 8.0.| O.:.| } 4.-.-.6.e.1.-.",
"l.5.,.5.,.o.-.i.e.j   y . y   g ,.O.o.O.-.u.,.,.,.Q I O I <.-.l.e.-.O.,.3.w K % ^ *.@.o.-.8.8.:.+.O A   c -.-.} 7.u.-.:.4.| } 4.-.,.6.q.6.<.",
"i.1.,.w.,.,.-.i.e.h   y $ $   c 5.X.o.O.-.u.<.,.*.! T   G <.<.l.w.O.4.<.%.* K 9 s.,.o.O.-.8.8.1.#.% L   z O.:.| <.0.-.5.4.| } :.-.<.e.e.6.8.",
"r.,.,.i.-.,.X.e.w. .  0 8   g o.p.2.O.O.-.i.<.,.%.E I   n :.0.e.<.O.u.7.N   T w s.,.o.O.5.8.8.6.3.* f % g -.-.o.<.8.-.8.<.o.} -.O.<.k.q.6.u.",
"e.X.<.l.O.-...8.w.u.;   <   x o.w.2.o.o.O.i.<.,.N q I   v -.8.w.-.-.a.7.n   T   $.-.o.o.7.l.e.8.#.2 s w : ..-.o.4.4.o.7.:...o.o.O.6.r.<.6.l.",
"8.-.w.i.O.X.X.6.w.1.3.    ; o.,.w.2.| O.-.8.,.<.k 3 I   v <.u.<.-.,.8.1.Z < K   $.O...O.8.u.0.e.O.: 9 S   { O.| 5.4.o.5...-.:.-.-.6.e.,.w.i.",
",.<.p.e.o.o.,.6.6.1.1.X.  M O.8.i.5.| -.8.8.-.O.7 9 I   v ,.u.-.O.8.7.-.i u 8    .o.O.O.8.8.6.6.o.- & f   l o.| 4.2.o.7.o.-.4.O.-.6.6.X.e.i.",
"O.1.i.6.....<.6.<.5.1.1.,.X.-.w.u.0...8.l.<.o. .  $ y   x 4.8.-...8.<...< 5 6    .o.-.-.8.<.<.6.| -   p   g -.| 5.-.o.7...-.4.-.:.<.<.O.w.u.",
"X.e.z...} -.,.<.,.5.8.O.-.<.<.8.i.<.8.i.0.-.-.c   5 8   z 9.8...-.5.-.@.    8   { ..,.,.<.w.<...-.g   y   + ....5.| 4.-.| :.4.:.:.8...-.i.5.",
"<.e.k.O.o.<.<.<.,.4.0.-.O.-.<.8.e.<.8.u.4.o.;.z   6 8   x 4.5...-.4.O.-.*.n   # X.o.<.-.,.8.<.O.:.h   8 0   { o.-.| 7.O.| :.-.o.:.8.| -.p.5.",
"7.e.6.O.<.8.<.-.-.4.u.<.O.-.<.e.e.7.l.8.:.| -.l   8 8   x 5.5.O.:.<.O.<.a.e.,.,.8.-.,.-.<.0.8.O.:.l   y     l O.:.o.4.O.| >.:.| 7.<.O.<.u.<.",
"8.i.-.-.8.8.-.-.O.2.u.<.O.-.<.e.8.8.0.:.;.o.-.h   y 5   x 8.4...-.-.O.<.l.1.-.<.e.<.-.O.,.8.5.-.O.o.    + z O.-.5.-.o.-.| :.-.:.8.-.o.5.u.,.",
"8.i.O.,.8.5.-.O.o.4.0.<.o.:.<.e.8.l.7.;.-.:.| -.j   $   { 7.:.O.:.-.O.5.u.<.-.<.i.5.-.o.-.w.5.-.O.,.1.@.<.,.O.-.0.4.| >.-.-.O.0.5.o.O.8.y.,."
};
