/* XPM */
static char *result[] = {
/* columns rows colors chars-per-pixel */
"70 70 236 2 ",
"   c #000000",
".  c #060604",
"X  c #0D0101",
"o  c #150000",
"O  c #190702",
"+  c #081403",
"@  c #1C1400",
"#  c #1C160A",
"$  c #1C1818",
"%  c #221300",
"&  c #241D03",
"*  c #291E00",
"=  c #172403",
"-  c #1F3D01",
";  c #282406",
":  c #2A3A0F",
">  c #34340A",
",  c #25221A",
"<  c #2B2619",
"1  c #332C16",
"2  c #342E1C",
"3  c #1D1D21",
"4  c #252525",
"5  c #292626",
"6  c #2E2B25",
"7  c #2C2A2A",
"8  c #332D22",
"9  c #312F2C",
"0  c #383424",
"q  c #3A3425",
"w  c #32362F",
"e  c #3A352A",
"r  c #3E3A2E",
"t  c #343332",
"y  c #3B3634",
"u  c #3E3B31",
"i  c #36383B",
"p  c #43372A",
"a  c #403B2E",
"s  c #413D32",
"d  c #423E3A",
"f  c #264804",
"g  c #2D5804",
"h  c #36570A",
"j  c #374814",
"k  c #2E6400",
"l  c #366B06",
"z  c #387505",
"x  c #3A7D01",
"c  c #3C6617",
"v  c #3B442F",
"b  c #3E5823",
"n  c #474F0E",
"m  c #447B07",
"M  c #466C1A",
"N  c #49472A",
"B  c #445525",
"V  c #454136",
"C  c #494631",
"Z  c #464339",
"A  c #49453B",
"S  c #4D493E",
"D  c #574B39",
"F  c #4A5535",
"G  c #505A33",
"H  c #536F31",
"J  c #423F40",
"K  c #444446",
"L  c #4B4744",
"P  c #4D4A42",
"I  c #524E45",
"U  c #57554B",
"Y  c #5C5953",
"T  c #63594C",
"R  c #625D54",
"E  c #645E56",
"W  c #5A6645",
"Q  c #66635B",
"!  c #6A655B",
"~  c #687251",
"^  c #686460",
"/  c #6D6A63",
"(  c #726E67",
")  c #777266",
"_  c #76726B",
"`  c #7C7771",
"'  c #837E6D",
"]  c #817D79",
"[  c #2E8300",
"{  c #398601",
"}  c #3A8E00",
"|  c #3C9300",
" . c #478806",
".. c #419600",
"X. c #4C9402",
"o. c #449A00",
"O. c #4A9E00",
"+. c #4D940C",
"@. c #4C9B0A",
"#. c #559E08",
"$. c #4C8616",
"%. c #538A16",
"&. c #518F15",
"*. c #559B13",
"=. c #5B9A19",
"-. c #4DA300",
";. c #4BA407",
":. c #4FA800",
">. c #4EA50D",
",. c #52A600",
"<. c #54AA00",
"1. c #59AD00",
"2. c #53A60D",
"3. c #59A00D",
"4. c #55AB0D",
"5. c #59AE0D",
"6. c #5DB200",
"7. c #56B00D",
"8. c #5DB20D",
"9. c #5AA715",
"0. c #5DB216",
"q. c #66BA07",
"w. c #61B60D",
"e. c #64BA0D",
"r. c #68BD0D",
"t. c #61AC11",
"y. c #61B616",
"u. c #64BA16",
"i. c #69BD16",
"p. c #67B419",
"a. c #69BD1C",
"s. c #58832A",
"d. c #5C902B",
"f. c #629737",
"g. c #64A529",
"h. c #6DB826",
"j. c #6DA636",
"k. c #71B131",
"l. c #6AC10D",
"z. c #6BC116",
"x. c #70C51A",
"c. c #71C622",
"v. c #6F8E47",
"b. c #7AA948",
"n. c #7CA951",
"m. c #83B84C",
"M. c #8AAD5A",
"N. c #91AE5A",
"B. c #89B659",
"V. c #878379",
"C. c #928D7A",
"Z. c #8E9679",
"A. c #94AE6C",
"S. c #95B66A",
"D. c #A4B77A",
"F. c #90C45B",
"G. c #A0C377",
"H. c #9B958D",
"J. c #999590",
"K. c #A49E92",
"L. c #A5A987",
"P. c #A8B788",
"I. c #A9A598",
"U. c #B1AB96",
"Y. c #B3AD9A",
"T. c #B1BD91",
"R. c #B5B39A",
"E. c #BBB49D",
"W. c #A9A7A4",
"Q. c #AFB1AA",
"!. c #B7B3A5",
"~. c #BCB6A3",
"^. c #BEB9A5",
"/. c #BDBBAD",
"(. c #BCBAB5",
"). c #C4BB9D",
"_. c #C3BDA4",
"`. c #C3BDAB",
"'. c #B2C68E",
"]. c #B7D09A",
"[. c #BBC6A5",
"{. c #BCC2B0",
"}. c #C8C3A6",
"|. c #C6C1AB",
" X c #CBC5AB",
".X c #CFC8AD",
"XX c #D0C8A7",
"oX c #D2CBAE",
"OX c #C7C2B2",
"+X c #CBC6B8",
"@X c #D5CEB2",
"#X c #D3CCBD",
"$X c #CAD7BC",
"%X c #D7D0B4",
"&X c #D9D2B5",
"*X c #DBD5BB",
"=X c #DCD4BB",
"-X c #E0D9BF",
";X c #CAC8C4",
":X c #D4CEC3",
">X c #D0CECB",
",X c #D5D2C4",
"<X c #DBD4C3",
"1X c #DDD9C6",
"2X c #D4D2CE",
"3X c #DCD5CB",
"4X c #D8D6D4",
"5X c #DDDAD5",
"6X c #E2DAC3",
"7X c #E4DCCB",
"8X c #E6DDCB",
"9X c #E3DDD2",
"0X c #E2DEDA",
"qX c #DAE8C3",
"wX c #EAE1CD",
"eX c #EDE4D3",
"rX c #EDE6DA",
"tX c #E8E5DC",
"yX c #F0E7D5",
"uX c #F1E8D7",
"iX c #F0E7D9",
"pX c #F2E9D9",
"aX c #F8EEDD",
"sX c #EAF0D5",
"dX c #F9F0DF",
"fX c #EBE9E6",
"gX c #F5EEE2",
"hX c #F2EFE9",
"jX c #F7F1E5",
"kX c #F9F1E4",
"lX c #FAF4EC",
"zX c #F9F5EE",
"xX c #F6F6F6",
"cX c #FBF6F0",
"vX c #FEFAF4",
"bX c #FEFEFE",
/* pixels */
"..-.8.-.:.z.x.:.<.;.-.-.5.8.,.<.i.-.,.,.O.5.<.-.x.5.-.<.;.| | 4.k.OXoX/.W. X%X&X XR.{.'.{.E./.0.<.<.-.| <.,.O.8.,.O.<.i.t.,.| o.-.-.6.e.x.z.",
"..o.u.w.:.l.e.e.:.-.<.o.,.y.2.,.r.O.,.,.X.t.w.O.u.z.<.O.-.b.A.P.+XwXwX.X%X%X%X@X&X=X_.E.oX=X}.].,.-.o.8.4.O.-.i.O.O.4.a.8.o.-.-.-.-.1.w.x.6.",
"o.O.w.w.6.l.e.e.:.| <.o.o.0.p.0.e.9.0.j.=.0.8...1.z.8.-.n.9X8XeXtXpXpX*XoXoX@X%X@X@X&X=X@X@X&X_.[.@.-.-.8.o.5.5.X.O.5.a.<.o.4.4.o.O.6.e.l.6.",
"o.-.1.8.6.l.6.l.:.| 7.-...0.0.e.0.e.p.e.u.e.e...-.e.w.m.4XiXdXpXpXuXuXeX6XwX6XoX@X%X%X@X@X@XoX%X^./.^.S.5.<.w.-.,.X.w.u.O.o.0.4...O.6.r.w.6.",
"..,.,.6.w.l.6.8.1...0.0.0.0.w.kXeXaXaXlXvX9.0.i...1.G.0XtXzXpXuXeXpXpXpXaXrXpX6XoX%X@X@X&X%X&X*X%X@X&X[.B.a.8.-...,.5.w.o.O.0.-.| -.6.w.6.q.",
"} ,.-.<.8.r.<.8.1...5.e.e.jXlXpXgXpXpXeXuXkXe.9.n.$X>X0XvXjXuX;X7XpXuXpXwX+X#X8X&X&X&X&X|.}._.R.@X%X%XoX:Xa.8.X.} 5.5.<.o.,.4.| | <.6.6.6.8.",
"} ,.-.<.6.e.:.1.1.o.,.2.&.aXaXeX:X+X<XpXuXkX2X>X2X2XvXzXsXeX,XtXaXrXpXpXwXaX9X/.`.Y. X%X.XY.^.}.~.%X%X%X~.4Xc.,.X.8.<.-.-.7.<.| X.6.,.q.6.w.",
" .o.-.,.1.l.-.:.<.<.-.4.aXaX'.>XfXxX;X#XaXgXjXkXzXjXaXaXuX,X+XrXuXpXpXpXpXuXaXeXeX3XOX6X6X*X%X&X.X@X%X%XoX!./.P.5.<.,.-.-.7.-.| -.<.1.e.1.1.",
"....,.,.<.z.:.-.<.z.-.7.dXdXQ.hXbXbXbX`.9XjXgXaXiX7X,X7XrXpXlXpXuXpXpXpXpXpXuXpXpXgX9XeXpXuX%X@X%X@X%X%X%XoX&XXXD.,.,.,.-.7.1.| <.<.1.e.1.<.",
",.O.,.X.<.w.6.-.-.8.-.dXbXkX4XbXbXbXbX4X:XkX0X`.J.( A U ` !.eXaXeXpXuXpXuXpXpXpXuXiXeXeXpXpX<X@X@X%X@X@X@X%X%X1X#X1.-.,.-.8.u.-.<.,.1.e.t.-.",
"X.,.r.1.o.t.q.-.-.4.jXbXbXW.fXbX4XfXbX0X#X:XJ.! / / Z a 2   / <XdXeXpXpXuXpXuXuXuXyXyXpXuXuXuXwX&XwX=X&X&XoX*X6X+XF.-.-.<.8.8.:.-.-.<.r.1.-.",
"O.X.M > > > > h m +.jXbXK.X fXxX4 (.bX0XI.R / / Q / A r Z S % w #XdXuXuXpXpXuXuXuXpXpXpXpXuXuXpXeXaX6X|. X&X*X1X%XOX-.o.1.7.4.7.-.O.1.i.<.X.",
"+.n D A Z s N N @ . >XbX0X(.>XxXQ.fXxX4X/ % R s R ( S u s u A 0 Z 7XaXuXuXuXpXuXuXuXuXpXpXuXuXuXuXpXeXoX!..X=X<X*X|.k.| 8.8.:.7.-.o.1.u.,.X.",
"V.; A e r S r B F @ _ 5XxX;X` 0XbXxX0X;XO ! /.I.E y a d s u Z S   K.kXrXuXuXyXyXuXuXpXpXpXpXpXpXuXpXpX-X.X_.&X1X1X<XD.o.8.7.-.4.| X.6.u.,.o.",
"U r s s P X m =.r Z 8 E J.I   J.5X0X5X` X Z _.wX~.E . 6 A V V Z & ( rXpXuXpXuXuXiXpXpXpXuXuXpXpXpXpXpX=X.X`.@X&X*XoX}.-.1.7.<.-.| O.1.i.,.O.",
"Z r A A    .<.> 2 V Z 8 O V V 6 ` I./ & L   C.%X=X_.U.9 # D a Z < U 8XaXuXeXpXpXpXpXpXuXpXpXpXuXpXpXpXeX&XR..X%X@X%X^.b.-.4.4...| ,.1.p.<.,.",
"* P 2   X.-.j * A u s A S V s V ;   2 A P   ) oX-X_._.}.L   s A % Y 8XaXyXuXuXpXpXpXpXuXuXpXpXpXuXuXpXyX=X.XE.%X&X%XoX'.O.2.5.| ..,.<.p.5.,.",
"M   j o.-.h o Z r s r A Z r s s V A V V I # R .XwXuX`.oXoX)       V.pXpXuXpXpXpXuXuXpXpXpXpXuXuXpXpXpXuX=X%X_.Y.@X&X.X(.t.i.,.o.O.#.w.e.,.,.",
"X.-.8.-.m % V u s s V V V s s s s u s V S < I .XyXpX9X*X6X@XY.V.C.@XuXpXpXpXpXuXpXpXuXpXpXpXpXpXpXuXpXuX=X%X=X|._.&X@X.XD.h.,.X.,.,.q.i.,.,.",
"..-.7.4.j e Z s a V V s s Z s s s s A a S , Y .X8XpXeXpXuXwXwX6X6XeXpXpXuXpXpXuXpXuXpXpXuXpXuXpXpXpXpXuXuX6XoX%X^.oX%X&X%XN.:.-.t.,.r.r.O.O.",
"o.,.5.%.O P Z s s V d a s s s s s V V r S   ) oX&XuXpXuXpXpXpXpXpXpXpXpXuXpXpXpXpXpXuXpXpXuXpXpXuXpXpXuXpX6X@X@X_.@X%X@X%XD.,.,.e.<.e.w.o.O.",
">.,.,.B 2 Z d s V V a s s s s a s V u s C   C.&X8XpXuXpXpXuXuXuXpXpXpXpXpXpXuXpXuXpXuXpXpXuXpXuXuXpXpXpXpX6X@X@X@X%X@X%X%XT.,.q.e.1.w.t...-.",
"5.,. .O S s s Z V s s s s s s s A s s V s   U.=XeXpXuXpXpXpXpXpXuXpXuXpXpXuXpXuXpXuXpXpXpXpXuXpXpXpXpXuXaXeX&X@X@X@X@X%XoX}.,.e.w.5.w.<.} O.",
"4.-.n * S s a Z Z r s s s s s V s a s A < A }.&X8XpXuXpXuXpXuXpXpXpXuXpXpXuXpXpXpXpXpXuXuXpXpXpXpXuXuXuXpXeX&X@X&X@X@X%X%X|.1.l.q.1.8.,.{ o.",
"4. .p Z V s V V V V s s s a V V 8 6 s A   V.&X%XwXpXuXpXpXuXpXpXpXuXpXpXuXuXpXpXuXpXpXpXuXpXpXuXuXpXpXuXpX8X@X%X@X%X@X@X&X|.p.l.1.,.5.,.[ ..",
"4.m o P s s V a s V s s s s Z a 6 6 u e 5 ~.&X8XaXuXuXpXpXuXpXuXpXpXuXpXpXpXpXuXpXpXuXpXuXpXpXuXpXpXuXpXpX7X%X%X@X%X%X@X&X`.h.l.<.-.5.o.[ O.",
"8.M * S a V s s a V V s a Z s d s e V # ! &X%XwXpXuXpXpXpXpXuXpXuXuXpXpXpXpXpXuXpXuXpXuXpXpXpXpXpXuXpXuXpX<X|.&X@X@X%X%X@XE.'.q.<.-.5.O.} -.",
"t.G q d V d s s s s V s d d s v L i V   C.=X@XeXpXuXpXuXuXpXpXpXpXpXpXuXuXuXpXpXpXuXpXpXpXuXuXpXpXpXpXuXpXaX|. X&X@X@X%X@X-X}.P.g.-.2.2.o.O.",
"#.D d s Z s s s s s s V Z s s i i i u   U.=X=XpXpXpXpXpXpXpXpXuXpXpXpXuXpXpXpXuXpXpXuXpXpXpXpXpXuXuXpXuXpXuX|..X&X&X@X@X@X@XXXE.).n.>.7.,.o.",
"+.C Z Z V a s s s s s Z Z a v t 4 3 q 5 ).=X%XyXpXpXuXpXpXuXpXuXuXuXpXpXpXuXuXpXuXpXpXpXpXpXuXuXpXpXuXpXpXeX#X%X@X@X@X@X@X-X}.}.&X}.*.9.2...",
"&.C I s s s V s V P s s Z a K K 3 i 9 d |.=XoXwXpXpXuXpXpXpXpXpXpXpXuXpXpXpXpXpXpXpXpXpXpXpXpXpXuXpXpXuXaXeX3X7X@X@X@X&X%XoX_.=X%X.XP.2.9...",
"+.D U S e a 0 a U Z s s a w J | i 4 8 I oX%X=XuXpXuXuXuXpXuXuXpXpXuXpXpXuXuXpXuXyXpXuXuXpXpXuXpXpXpXuXpXpX:X7XpX*X@X*X@X&X~.eXaX6X@X).j.4.-.",
"+.T S E Y A Y ` Y e s v v K ;.| 4 4 1 U @X@X6XpXpXpXuXpXpXpXpXuXpXuXpXpXuXpXuXpXgXiXyXpXuXpXpXuXpXpXpXpXpX3X7XkXyX%X&X@X&X X6XpXeX*XoXD.4.2.",
"#.' s d ! ! ` / ( R e V K | | w 4 K + Q &X@X=XuXrXeXpXuXuXuXpXpXpXpXuXpXpXuXpXgXpXgXpXpXuXpXpXuXpXyXuXpXpX7X9XpX6X%X%X@X&X`.7XpXuXwXoX_.S.-.",
"O.~ C d 2 A Q Q ( Q Z 0 | | w 4 K o.. ) =XoX1XpXpXuXpXpXpXpXuXpXuXuXpXpXpXpXaXiXgXgXpXuXpXpXpXpXpXuXpXpXuXuXpXpX=X%X@X%X@X`.iXpXpXeX%X&X).B.",
"X.f.N I 8 U ( Q Q / w o.| 7 3 K o.o.  ' &X&XpXpXeXuXuXpXpXuXpXpXpXpXpXuXpXpXpXgXpXpXpXuXpXuXuXpXpXpXpXuXpXpXiXpX<XoX%X@X%X X9XpXuXpXeX&X@XOX",
",.=.T T 9 Z _ Y / Q ....w 4 K | o.o.  H.=X&XpXeXpXpXpXuXpXpXuXuXpXuXuXpXpXuXaXiXpXgXiXuXpXuXuXpXuXpXuXpXpXuXpXiX8X&X@X&X%X_.8XpXpXuXaX6X&X_.",
"O.,.v.D ! r Q ` _ ..| 4 4 K 4.-.2.o.  H.=X7XpXpXpXpXpXpXuXpXpXpXpXpXpXpXrXuXpXgXaXpXuXpXpXpXpXpXuXpXpXpXpXyXiXyXpXyX&X X!.<XpXpXuXuXpXwX&X|.",
"o.O.X.~ D U D ! -.| o.K K o...4.o.o.o Y.8XaXuXpXuXpXuXpXuXpXpXpXuXpXpXuXpXpXpXpXuXpXpXpXuXpXpXuXpXpXpXpXpXyXyXpXpX8X&XXX+XaXpXpXuXpXuX6X_.[.",
"o...-.5.d.H H | | o.| <.4.>.o.o.o.o.u @X8XpXuXpXeXpXuXpXpXpXuXuXuXpXpXuXpXiXpXpXpXpXuXuXuXpXpXuXpXuXuXpXyX7XpXpXpX=X&X&X`.9XaXpXuXpXwX.X(.*.",
"X.| O.5.-.o.| ..o.| | -.4.| +.o.o.o.`.eXpXuXaXwXrXpXuXuXpXpXpXpXpXpXpXpXpXpXpXpXpXpXuXpXpXpXpXpXuXpXuXaX6X+XpXpXyX=X%X X+XpXuXuXuXpXyX=X|.b.",
"-...| O.4.-.-.......-.:.4.:.| 8.h.D.dXpXuXpXuX5XiXpXpXpXpXuXuXpXpXyXyXpXpXpXpXuXuXpXpXpXpXuXpXpXpXuXpXwX`.:XaXpX8X@X%XoX#XuXpXuXyXpXpX1X}.'.",
"1.o...-.>.-.O.4...y.| -.8.8.| 1.a.m.pXpXaXpXeX9XjXuXeXpXpXuXpXpXpXpXrXeXpXpXuXpXpXuXuXpXuXpXpXpXpXuXpXeXoX XyXpXyX%X@X~.#XaXpXpXyXyXwX=XXX].",
"w.-.-.o.-.-.-.-.7.8.| ..7.y.o.-.a.j.sXvXjXuXuX3XvXvXlXaXuXuXpXuXgXcX0X7XpXpXpXpXpXpXpXpXpXpXuXpXpXpXuXuX-X`.7XgX8X@XoX_.eXuXeXyXaX6XoX^.L.k.",
"8.-.>.o.o.>.-.-.7.8...| <.a.<.-.e.g.G.sXzXuXpX3X2XtXhXzXgXpXpXpXvX5X+XpXpXpXpXpXpXyXeXpXuXpXpXpXuXpXpXpX=X}.6XpXpX-X%XY.)._.@X_.6X=X|.D.4.<.",
"e.o.;.-.-.>.-.o.4.8.O.o.-.w.8.-.8.6.j.{.vXjXpXaX8X#X0XbXcXvXgXvX0X+XaXpXuXpXpXpXpX6X8XpXuXpXpXpXpXuXpX8X=X}.7XpX8X6X@XP.S.N.P.P.T.).D.,.7.-.",
"8.o.;.;.>.>.-.-.4.8.O.-.-.<.r.<.6.6.H Z.bXvXjXuXaXpX>X0XzXcXvXvX>XeXpXuXpXpXuXuXgX#X-XuXuXpXpXpXuXaXyX@X~.OXpX8X%X@X).n.-.o.y.5.;.M.-.:.4.-.",
"8.-.| >.>.-.| -.4.<...,.<.-.z.1.6.X.  Q 2XzXlXuXgXpXeX:X^ W.zX5X7XaXeXpXpXpXuXuXaX:X_.-X&X8XpXpXuXpX6X@X`.aXwX%XXXL.M.O.-...5.5.| 4.-.:.:.o.",
"z.-.| >.4.| o.-.7.-.| <.1.o.r.1.,.: V 8   j.bXzXvXaXaX#X@   W.7XpXyXpXuXuXpXpXiXpXpX+X~..XwXpXwXeX-X&XU.+XaXeX_.D...o.<.-.o.4.y...7.-.-.-.| ",
"z.:.| >.o...0.:.4.-.| :.-.-.8.e.g * I ; B &.0.,XfXvXvXW.  y <XdXpXuXpXpXpXpXpXpXuXuXaX:X}.-X=X@X-X@XoX+XuXpXwX X2.X.o.8.o.-.8.y.o.-.o.-.4.4.",
"8.8.:.4.| ..0.:.-.o.-.8.-.| 1. .X I q , @.| g.n.].jX5XV.  E 8XpXyXpXpXpXpXuXpXiXpXuXaX7X|.&X&X.XXXI.K.6XpXiX6XT.o.-.-.-.-.:.4.8.-.-.o.-.4.4.",
"6.8.:.;.| -.0.-.-.| -.8.-.|  .X A S   l ;.-.7.:.j.S.Q.A X ] pXpXpXuXpXpXyXpXpXpXpXuXpXeX_.=X XOXH.  7 oX&X-XXXN.o.-.4.| -.:.1.8.8...-.-.0.8.",
"8.8.<.| } -.u.:.-.o.-.1.<.o.8 s L < f O.-.;.4.-.-.>.f.% @ I.vXvXjXuXpXjXjXpXpXpXuXpXuXaX<XR./.pXY.X r L./.R.A.o.-.-.0.| -.-.:.7.7.o.-.o.i.0.",
"w.8.<...} -.0.4.| -.<.-.7.h 1 Z L   x ,.;.<.:.-.;.4.H 1   W.vXfXvXiXgXvXvXlXkXcXpXuXpXuXpXeXuXkXI., o V.5.>.-.4.-.o.z...o.o.:.8.7.-.o.-.i.8.",
"r.8.4.-.| -.0.0.| -.8.<.l % Z P X h o.4.-.7.:.-.-.4.F r # W.>X;XvXcXcXlXfXxXvXvXlXpXeXaXdXdXpXdXY.,   d.5...O.0.4.o.8.-.o.o.-.7.7.<.o.:.u.7.",
"r.8.1.<.-.| 8.z.-.-.w.m % A u P    .o.4.4.8.-.-.-.@.& L   b.>.].0XbXfX;X(.hXzXtXvXgXhXfXtXfX<X+XJ.8 ; B 4.o...4.0.-.-.:.o.....4.:.<.-.w.8.1.",
"i.5.-.,.-.} <.c.-.| 9.  e s L   g 2...2.,.0.<.-.>.m o Z , 9.;.1.S.'.T.F.F.(.v.] sXkXqX[.P.S.m.e.v.O r v -.-.| | z.7...-.o.o.| <.<.1.-.z.7.:.",
"z.1.-.<.<...O.w.y.-.-   4 u A    .2.o.,.4.y.<.-.O.M 0 8 Z ,.o.8.y.9.o.-.9.U . $ Z.n.S.j.o.7.z.-.%.o s @ o.-.-.| 7.0...o.-.| | 4.-.-.1.l.6.-.",
"z.5.,.8.,.X.,.i.r.h   t . t   f ,.-.o.-.,.u.<.-.,.W I @ U :.-.i.e.-.O.,.*.p L # ~ *.@.O.-.8.e.:.+.O Z   x -.-.| 7.u.-.:.4.o.} >.-.-.6.r.6.,.",
"i.1.,.w.<.-.O.i.w.g   t $ $   x 4.X.o.O.-.y.<.,.=.Q U   G -.1.z.w.O.4.<.%.* d 8 s.,.o.o.-.7.8.1.#.% L   l O.-...<.0.-.4.4.| | -.-.1.r.w.1.8.",
"r.,.,.i.-.,.o.e.p. .  t 9   f o.y.2.O.O.-.u.<.,.%.R I   B :.8.r.<.O.y.5.M   U r s.,.o.-.7.8.8.6.3.* A % f -.-.o.<.8.o.8.:...| o.O.1.l.6.6.i.",
"e.O.,.i.O.O...w.w.e.-   ,   x X.w.2.X.o.O.u.<.,.M 0 I   c -.8.8.-.-.a.7.b   Y   $.-.o.X.8.u.l.8.#.1 a 0 ; ..o.o.4.4.o.8.-.o...-.O.6.r.1.6.x.",
"t.,.w.i.-.O.X.6.w.1.#.    - o.,.w.4...o.,.w.,.<.b 1 I   c <.y.1.-.,.w.1.C , K   $.O...o.8.y.8.e.@.; 8 Z   { o...7.4.o.5.o.o.:.-.X.6.e.,.w.i.",
",.<.p.e.o.X.-.1.q.<.1.X.  x O.5.p.4...-.8.8.O.O.< 8 I   c <.0.<.o.8.8.;.w y 6    .o.O.-.8.8.6.6...= & d   l o.| 4.4.o.8.o.-.4.-.,.6.6.O.w.i.",
"-.1.i.6.....1.1.<.8.<.<.,.O.-.8.u.0...8.z.1.o...  $ t   l 4.8.-.o.8.1.+., 4 4    .o.O.,.8.<.<.6.| =   i   f -.| 7.-.o.8.| -.4.-.-.1.1.o.w.y.",
"O.w.z.o.} ,.-.<.,.5.w.O.O.,.<.w.i.<.8.i.0.-.-.z   4 7   z 9.8...-.5.o.O.    7   { o.,.-.<.8.<...-.f   t   + o.| 4...4.-.| -.4.:.:.7...-.i.8.",
",.w.r.o...<.<.<.,.4.0.,.O.,.,.w.e.1.8.u.7.o.-.l   5 7   z 4.4...-.4.O.-.9.b   # X.X.<.-.<.8.1.o.:.g   6 9   { o.-...8.o.| :.:.o.:.7...-.i.4.",
"5.r.6.-.<.8.<.,.-.4.y.<.O.,.<.w.e.7.z.7.-.| -.g   7 7   z 4.8.o.-.<.O.<.i.8.,.,.7.-.,.-.,.0.8.O.-.l   t     k O.-.o.4.o.| 4.-.| 7.1.o.1.u.<.",
"8.i.-.O.7.8.-.-.O.2.y.<.o.-.1.w.8.8.u.:.o.-.-.k   t 5   x 4.4.o.-.-.O.<.i.6.;.<.l.<.-.O.,.8.8.-.O.o.    + l -.-.7.-.-.-...-.-.:.7.-.X.4.y.,.",
"7.i.-.,.w.8.-.O.o.4.y.<.o.;.1.r.7.z.7.-.-.-.| -.g   $   { 0.<.o.-.-.O.8.u.1.O.<.i.7.-.o.,.8.4.-.o.,.1.#.<.-.o.-.0.4.| >.-.-.o.y.7...-.w.y.,."
};
