/* XPM */
static char *result[] = {
/* columns rows colors chars-per-pixel */
"70 70 239 2 ",
"   c #000102",
".  c #040307",
"X  c #160A04",
"o  c #0D1A02",
"O  c #0C130A",
"+  c #161608",
"@  c #020815",
"#  c #041419",
"$  c #151916",
"%  c #1C1D1C",
"&  c #280702",
"*  c #330B00",
"=  c #2A180B",
"-  c #391E05",
";  c #341C0B",
":  c #391E0A",
">  c #271B15",
",  c #241E1B",
"<  c #311D11",
"1  c #3E1D13",
"2  c #112608",
"3  c #1A3503",
"4  c #1A2518",
"5  c #232D08",
"6  c #38200A",
"7  c #3C210D",
"8  c #2B340B",
"9  c #33380B",
"0  c #2C2615",
"q  c #24211E",
"w  c #2D221D",
"e  c #362214",
"r  c #3A2213",
"t  c #33231C",
"y  c #3C241B",
"u  c #3A2A19",
"i  c #323718",
"p  c #0F1E22",
"a  c #121E22",
"s  c #181E21",
"d  c #201F20",
"f  c #0C2325",
"g  c #152422",
"h  c #1E2123",
"j  c #242222",
"k  c #2B2422",
"l  c #252C23",
"z  c #332621",
"x  c #332B25",
"c  c #3C2A22",
"v  c #392A24",
"b  c #2C3826",
"n  c #333828",
"m  c #3B3F31",
"M  c #431406",
"N  c #47260C",
"B  c #562B0A",
"V  c #452816",
"C  c #4C2B14",
"Z  c #4D2D1B",
"A  c #542E12",
"S  c #532E1F",
"D  c #563015",
"F  c #5C3314",
"G  c #54331B",
"H  c #5C361C",
"J  c #783C00",
"K  c #613414",
"L  c #653916",
"P  c #61361A",
"I  c #653A1A",
"U  c #693C1B",
"Y  c #452E23",
"T  c #493628",
"R  c #583624",
"E  c #583629",
"W  c #643B24",
"Q  c #683C27",
"!  c #663D31",
"~  c #284B06",
"^  c #2B5703",
"/  c #355509",
"(  c #294B15",
")  c #334916",
"_  c #385114",
"`  c #2E6604",
"'  c #336503",
"]  c #346B01",
"[  c #3A690B",
"{  c #387402",
"}  c #3C7C01",
"|  c #3D730A",
" . c #3B6516",
".. c #3E7910",
"X. c #334927",
"o. c #3A5629",
"O. c #304F32",
"+. c #354A36",
"@. c #4A5715",
"#. c #69431E",
"$. c #46670B",
"%. c #467908",
"&. c #4E7113",
"*. c #58442A",
"=. c #4D5629",
"-. c #46583B",
";. c #6E4222",
":. c #6C462B",
">. c #724324",
",. c #73462B",
"<. c #774829",
"1. c #754B2D",
"2. c #7B4B2D",
"3. c #7C532D",
"4. c #6E4533",
"5. c #664833",
"6. c #754A33",
"7. c #7D4C33",
"8. c #7B5734",
"9. c #4E682E",
"0. c #476639",
"q. c #004645",
"w. c #4B6B44",
"e. c #637C46",
"r. c #706554",
"t. c #477D72",
"y. c #883D00",
"u. c #804600",
"i. c #834F36",
"p. c #835135",
"a. c #845C33",
"s. c #895837",
"d. c #845339",
"f. c #8B563C",
"g. c #8D593C",
"h. c #905933",
"j. c #925B3E",
"k. c #A15D39",
"l. c #8C6339",
"z. c #93673B",
"x. c #9A6C3E",
"c. c #C66F3F",
"v. c #8E5A40",
"b. c #915741",
"n. c #955D42",
"m. c #985F44",
"M. c #956242",
"N. c #9B6345",
"B. c #976A47",
"V. c #9D6C44",
"C. c #9C744B",
"Z. c #A36A47",
"A. c #A36D49",
"S. c #B16F46",
"D. c #A27445",
"F. c #A77947",
"G. c #A67349",
"H. c #AA764C",
"J. c #A77B4A",
"K. c #AC7C4B",
"L. c #B5754D",
"P. c #B17D4E",
"I. c #BA7A52",
"U. c #C27B55",
"Y. c #2E8300",
"T. c #378701",
"R. c #398E00",
"E. c #3D9300",
"W. c #438606",
"Q. c #419600",
"!. c #459B00",
"~. c #499E00",
"^. c #4D960B",
"/. c #53910D",
"(. c #529B0B",
"). c #488713",
"_. c #548D1C",
"`. c #4C9212",
"'. c #4DA300",
"]. c #4FA800",
"[. c #4DA60A",
"{. c #4EA50D",
"}. c #52A600",
"|. c #54AA00",
" X c #59AE00",
".X c #52A60D",
"XX c #59A40D",
"oX c #55AB0D",
"OX c #59AE0D",
"+X c #5CB200",
"@X c #56B00D",
"#X c #5CB20D",
"$X c #58A517",
"%X c #5EB316",
"&X c #64B904",
"*X c #61B60D",
"=X c #63BA0D",
"-X c #68BD0D",
";X c #62A714",
":X c #61B616",
">X c #64BA16",
",X c #68BD16",
"<X c #64BB1C",
"1X c #6ABE1C",
"2X c #548D22",
"3X c #528B2D",
"4X c #5A962A",
"5X c #6AA93B",
"6X c #6AC10D",
"7X c #6BC116",
"8X c #6EC21C",
"9X c #70C51A",
"0X c #6FC422",
"qX c #66854C",
"wX c #AF804D",
"eX c #B2824F",
"rX c #B68550",
"tX c #B88751",
"yX c #B68850",
"uX c #BC8A53",
"iX c #AF886A",
"pX c #C78457",
"aX c #C28C55",
"sX c #CC8D5A",
"dX c #D3875A",
"fX c #D48C5D",
"gX c #D98D5F",
"hX c #CB915A",
"jX c #D7905F",
"kX c #E1905F",
"lX c #DD8F61",
"zX c #DD9161",
"xX c #CD987A",
"cX c #E18F63",
"vX c #E39364",
"bX c #6B9B89",
"nX c #D6AE90",
"mX c #E9B191",
"MX c #9FF3D8",
/* pixels */
"Q.'.#X~.].7X9X].|.'.'.'.OX#X}.}.,X~. X}.~.OX|.'.8XOX}.}.'.E.Q.oXoX!.~.:X:XXXXX!.E.'.,XOX}.|.'.'.].].'.E.}.}.~.#X(.~. X,XXX}.E.~.}.}. X=X8X,X",
"Q.!.,X*X].6X=X=X].'.].!.}.:XXX}.1X!.~.}.!.*X*X~.,X,X|.~.}.Q.!.,X X~.~.:X1X*X}.'.Q.#X,X}.'.'.'.>X'.].!.#XOX~.'.,X~.~.XX1X#X!.'.'.~.(. X*X9X&X",
"!.~.*X*X X6X=X=X].E.|.!.'.%X.X'.<X~.!.~.Q.#X*XQ. X7X#X'.W.R.'.,XW.} ~.*X1X*X~.~.'.#X>X'.'.'.'.>X].E.'.].#X!.OXOX~.~.#X1X}.!.oX.X~.~. X-X-X&X",
"!.'. X#X&X6X+X6X].E.@X'.E.oX.X!.>X~.!.!.!.;X*XQ.!.=X=X3 o 2 #X[ % @ ] OX1XXX!.~.}.*X>X'.Q.Q.|.%X'.E.].'.OX}.*X'.(.~.#X,X!.!.:XoXQ.!.+X-X*X X",
"Q.}.}. X=X-X+X#X XQ.%X.XE..XoXE.%X~.E.~.~.OX>X!.!. X*X3 j $ ~ b u E _ &.8X}.Q.!.OX*X>X!.Q.Q.@X*XE.].oX{.!.8X*X'.Q.}.#X#X!.~.%X'.Q.~.+X*X+X+X",
"R.}.'.|.*X-X|.#X+XE.@XoXE.{.@XE.oX~.R.'.}.OX>X'.'.!.%X3 $ q j   r.mXB.9._. XQ.~.#X@XOXQ.Q.E.#X@XE.@X.X'.E.<X#X!.R.OXOX|.!.}.oXQ.Q.}.+X+X+X*X",
"R.}.'.}.+X=X]. X X'.]..XE.'.@X!..X~.R.|.oX|.>X#X'.!. X3 , j j @ 6.dXmXiX@ ).!.(.#XOXoXQ.'.Q.>X@X'.@X{.E.'.oX8X}.!.;X|.'.'.oX}.R.Q.+X+X+X+X*X",
"W.!.}.}. X-X'.].].].'..XE.E.{.'.'.'.R.|.oX}.,X*X X!.'.~ j j h @ W Z.mXnX7.*.[  XoXoX X'.oX'.7X@XoX].E.E.oX'.%X>XoX X|.'.'.#X].R.(. X X*X+X+X",
"Q.Q.'.]. X7X].'.|.7X].oXE.E..X!.!.|.R.|.|.'.,X,X X'.^ l h h s y A Q xXxXL.2.-...[.'.'.~.@X'.>XoXoX!.T..XOX~.}.1X*X~.}.}.'.#X XE.|.}. X-X X}.",
"}.'.'.'.|.#X X'.'.#X]..X{.E.'.[.'.@X|.OX|.}.*X,X|.] q h j t s R K X L.vXkXh.N h '.}.'.Q.>X'.oX%X'.E.'.!.~.~.}.0X>X X}.}.~.#X:X'.|.}. X-X*X~.",
"~.}.%X|.'.6X=X'.'.oX@X.X!.'.{.'.!.#X=X#X}.'.*X,X^ $ % p Z H 4 Z K = p.U.gXh.< O.'.|.}.Q.>X'.oX>X!.'.'.~.}.}.|.>X,X;X}.~.].#X#X].}.(. X*X X~.",
"!.~.0XoXE.#X,X'.'.'.%XoXE.{.@X'.'.oX,X@X!.~.#X[ 2 % .   - K C ,.i.B 2.L.gXp.M *.=.(.oX'.#X'..X%X!.'.~.~.}.*X#X}.*X*X}.!. X#X@XoX~.!. X,X}.~.",
"!.XX<XXXQ. X=X X'.E.%X@X'.'.@X{.'.|.=X|.R.!..Xo k E :.3.8.p.>.j.j.>.p.L.dXj.;.L x  .*X'.oX}.'.@X!.'.'.].'.,X:X!.OX=X}.Q.@X#X}.@X~.!. X,X}.!.",
"(.-XoXOX|.'.#X=X'.E.~.@X'.E.{.@X'.|.=X XQ.!..X+ V a.yXfXhXeXN.j.n.n.n.m.N.rXx.A j &.*X'.'.'.'.oX!.!.|.@X'.,X,XQ.}.#X}.Q.#XOX}.OXQ.!. X1X}.!.",
"*X:X!.}.@X~. X7X'.E.E.@X{.R.'.@X|.#X=X|.Q.{ 3 $ R J y.g.8.1.,.f.m.m.m.n.n.rXK.7.x &.>X}.'.}.!.oX'.E.@XoX'.,X-X~.~.+X}.'. XoX}.'.Q.!. X,X}.~.",
",X~.R.'.].'. X7X@X!.'.{.{.'.E.'. X,X*XT.} 3 % s * r.bXq.& 1.>.f.m.m.m.m.m.eXP.b.E 9.OX}.'.oX!..XE.E.@X|. X,X#X(.~.}.|.|.'.oXoXQ.Q.~. X-X X(.",
"*X~.}.XX}.'.|.#X XQ.'.'..XoXE.E.oX8X[ j 4 , j j   bXMXt.u.tXN.m.m.n.m.m.N.rXH.g.>.Y X.{.'.oX'..XE.E.+X].=X7X X'.}.'.}.OX~.XXOXE.Q.~.+X,XXX}.",
"}.}.>X!.'.!.@X:X.X.X.XQ.'.|.[.T.X.X.b j   V H = W iXnXC.p.N.b.n.n.N.b.N.K.uXH.j.b.5.O.@XR.<X'.!.].'.].|.=X#X'.'.#X'.OX!. X>X}.Q.~.}.*X-X(.}.",
"~.~.*X}.~.!.oX:X{.oXoX!.'.'.T.( j j # j a.2.B N :.k.c.S.L.I.I.Z.b.n.V.P.fXuXeXD.Z.4.-.$XE.<X'.'.'.'.].+X6X=X|.@X*X~.'.!.|.:X}.~.}.}.&X,X}.}.",
"Q.~.#XOX~.Q.'.:X'..X%X'.!.E.X.l h % h 5.rXx.L <.>.2.n.eXsXzXcXI.M.N.P.sXfXuXuXtXN.4.-.(.!.>X!.!.'.].+X#X7X@X|.7X#X'.~.Q.@X,X}.'.;X}.-X-X~.~.",
"Q.].@X>X~.Q.'.%X!.oX.X~.].].o.l h @ 8.rXZ.n.N.eXtXH.N.eXaXaXaXtXeXeXjXU.<.F.uXeXZ.7.G m } %XE.'.'.].=X#X6X].].8X@X|.!.!.=X=X}.|.*X X*X*X!.~.",
".X|. X>X!.Q.'.%XQ.OX'.E.@X@X4Xw.x v.wXuXN.N.N.x.l.a.4.l.l.l.Z.P.uXuXhXL.B F.aXeXN.i.D k %.@XE.|.|.+X=X#X@X'.'.7X@X#XE.!.=X=X'.+X=X X*X;XQ.~.",
"oX|.'.>X].E.!..XQ.:X~.Q.@X@X%X$Xw.D.rXF.g.v.7.A * & - B K Q g.G.eXeXwXz.,.K.uXrXN.2.A k 3X`.R.|.@X#X#X#X].!.|.7X*X@XE.E.=X+X X=X*X#X*X XR.~.",
"@X'.'.7X#XE.'.'.Q.OX!.Q.@XoX>X#XXX-.R U v j k j H L L K i.Z.m.m.N.N.1.>.N.P.uXrXZ.7.A j h e.R.}.|.6X+X#X'.!.#X X*X*XE.E.6X+X X6X&X X#X}.T.!.",
"oX!.!.7X8XE.].'.E.].'.'.#XoX>X#X'.).e.c j g h h c Y Y y T 4.,.j.n.>.6.N.P.uXeXZ.m.m.i.= O l w.0.} >X X*X!.~.:X~.#X,XQ.'.6X+X+X6X X}.OX'.T.E.",
"oX'.'.#X7X=X].'.'.'.E.@X~.#X:X|.'.Q.2Xw.0.e.qXe.qXw.a f # $ V 4.d.<.b.A.P.eXZ.j.m.j.p.Q Q W E k -._.%.}.Q.'.OX~.|.=X=X'.+X-X6X6X|.'.OX!.Y.~.",
"@X|.].@X7X%X'.'.'.'.!.#X'.oX%X|.!.'.|.].}. X,X}.*X5Xj j < r , # T n.m.m.n.n.n.m.m.2.:.m.m.N.m.Q t x k ' ~.'.|.~.'.*X*X|.+X6X&X&X|.'.OX!.R.'.",
"#X@X|.|.#X%X'.!.'.'.!.#X'.oX#X'.'.'.'.'.}.}.,X#X*X5Xj > ; < < + = V d.m.m.n.N.b.Q <.f.n.G.uXlXU.pXI.Y $ ^ }.'.~.'.|.#X+X+X+X+X+X'.'.XX.X!.~.",
" X*X].'.#X,X].E.|.'.Q.#X.X'.@X'.!.'.!.'.].'.-X&X*X4Xj V B N N W ,.! f.N.n.m.m.b.l.V.H.G.wXsXzXzXvXgXp.Y O.}.~.~.'.~.@X#X+X+X+X+X].!.{.oX'.Q.",
"|.#X].'.|.7X].'.oX'.Q.oX.X'.oX'.!.!.Q.'. X'.=X X%X4Xk W >.Q U f.N.N.m.M.M.m.M.V.tXuXtXuXyXuXlXlXvXgXH.4.+.^.}.'.'.Q.|.@X|.|.+X+X|.Q.!.%XoXE.",
"'.|.].!.|.7X|.E. X].E.'.oX!.oX'.E.'.'.'.oX X=X|. X2Xz d.j.j.g.n.m.b.n.b.n.b.A.tXtXyXyXtXtXtXuXlXzXlXuXa.. m W..X}.!.'.oX|.|.@X|. XQ.E.XXoX!.",
"'.].|.!.].7X@XE.].|.E.'.oXE..X!.E..X{.'.|.+X=X'. X2Xz V.L.P.H.H.H.H.H.H.H.G.rXtXtXtXtXuXtXtXuXpXsXpXuXl.= j ).oXXX~.!.|.|.|.#X].oX~.E.~.oX~.",
"}.}. X~.'.,XOXQ.].@XR.].@XE.@XE.R..X.X!.'.#X7X!.'._.x wXaXuXyXuXuXuXtXuXtXuXtXtXtXtXrXP.eXP.P.P.eXyXyXx.W , 9.oXoX'.!.'.|.|.@X'.oX'.E.Q.oX.X",
"~.~.}.}.~.:XOXE.'.%XE.E.[.E.'.'.R.'.oX!.E.oX7X#X!.4Xx J.uXuXyXtXyXyXuXyXyXtXtXtXtXuXP.N.n.N.m.n.H.uXuXH.p.r 4 o.|. XE.'.'.|.@X'.|.'.'.oX@X'.",
"~.~.}.(.!.>X#XQ.'.%XE.E.{.'.E.'.E.'.oX'.E.|.>X#X` +.x J.aXyXtXtXyXyXtXyXyXrXyXrXtXtXrXP.g.Q W R d.H.tXtXD.D w 0.#X'.'.'.'.|.#X].'.'.'.#XoX'.",
"(.}.}.~.~.:X:X!.'.%X'.E.{.!.'.E.!.@X'.'.'.'.=X#XX.p u Z.tXyXtXyXtXtXtXrXyXaXaXpXuXyXyXuXa.* +   R j.rXaXwX7.Y 0.,X'.'.'.'.|.:X X'.'.'.%XoX'.",
"}.}.}.~.!.#X<X~.!.@XoX'.'.'.!.'.E.#X].'.'.'.oX%X0.q V i.H.yXyXtXyXrXtXtXuXfXlXlXuXrXtXtX6.. h $ y >.K.uXeXN.! 0.#X@X'.'.'.@X#X|.!.'.'.%XoX'.",
"~.}. X}.~.OX:X~.'.oX@X.X!.!..X'.E.#X'.'.!.!.oXO.v r r M l.uXuXtXyXyXfXzXlXvXzXuXuXH.N.G.:.X 4 3X9.V *.C.aXeX6.O o..X'.E.'.@X X].].!.'.%X.XE.",
"!.~.}.XX~.'.#X'.'.@XOXoX!.Q..XoXE..X].'.[  .9.> = 6 r   8.P.eXtXrXyXI.U.U.L.Z.x.H.Z.j.p.E $ 4 $XE.( O a.rXuXa.& h `.'.E.|.#X'.].|.!.'.#X].E.",
"Q.Q.}.OX!.'.OXoX.X%X}.}.'.Q.'.%X|.'.@XW.T v 0 Z Z V 7 # ! N.eXuXuXuXD.n.M.>.B W b.m.g.H u g n `.!.E.g 4.Z.rXz.H l `.].'.#X#X'.].].].|.#X'.E.",
"~.W.~.OX'.!.oXOXOX:X~.'..XQ.~.,X%XE.&.T v.6.W b.m.7.; $ Y 1.wXhXlXlXtXrXrXV.g.b.M.N.g.V q -.^.XX!.E.4 Z a.yXyXx.f !.@X}.#X#X'.'.'.@XoX@X!.E.",
"}.Q.E.~.oX~.'.oX#X:X!.}.@X'.E.#X7X].$.T v.M.p.,.m.b.; % > W eXhXfXlXlXpXG.N.m.m.m.N.g.7 j o.!.'.!.R.$ * <.yXaXF.1 9 `.7X X'.'.'.'.%X#X'.E.'.",
"|.!.Q.~.{.'.'..XOX:XQ.!.@XOXQ. X,X|.&.T n.N.d.- 6.7.; j @ Z D.eXtXlXlXI.b.n.m.n.N.j.i.y b  .'.'.~.| 9 :.l.rXuXK.3.T ( #X|.'.|.!.E.>X@X'.'.'.",
"*X'.'.~.'.'.'.'.OX*XE.Q.@X,X!.'.,X#X&.Y n.p.K I A r : j , N F x.uXtXuXK.n.n.m.n.M.i.H w &.OXOX!.` e 3.H.uXrXeXtXrX5./ }.|.!.@X'.Q.%XoX'.'.].",
"#X'.{.'.!..X'.'.@X=XQ.Q.|.,X|.'.=X#X&.v ,.>.L I N = k j j < & V.hXuXK.N.M.n.m.N.N.2.; j | OX=XQ.] u b.P.uXyXfXaXa.T / Q.|.'.%X'.Q.#X|.].oX}.",
"#XE.{.'.'..X'.!.@X#X!.!.'.*X#X'.#X+X$.z F I U I Z 0 _ _ n d X 3.D.D.N.b.n.N.j.s.d.W = j | %X=XQ.| 0 6.F.uXyXjXI.B t ^ E.].!.>XoX'.#X'.].@X|.",
"=X'.'.'.{..X'.!.oX@X~.'.}.}.-X|.+X+X%.w P U I I u _ '.!. .q < ; r L f.N.M.m.i.F : ; r j | #X=XE.%.o   z.uXtXuXD.K z ^ E.'.!.%X@X!.#X'.].oX'.",
"6XE.E.{.[.'.E.'.oX|.Q.}.}.'.7X X X+X|.W.t u c u $.%X~.~.| % X W z.K.N.n.N.i.P 7 : : < j ] #X#X'.| o & p.L.aXx.W c ' !.'.'.Q.@X#XQ.@X!.'.|.!.",
"7X'.E.[.oXE.E.].@X'.E.|. X!.-X X|.|.|.].] ^ ^ ^ @X@XE.} 9 u E M.P.uXP.V.p.H 6 ; ; : e j { *X*X!.}.~ + E 8.B.:.c ` !.!.|.'.Q.oX:XQ.@X'.'.'.Q.",
"7X'.E.{.!.E.%X]..X'.E.].'.'.#X=X].].@X X].E. X].@X@XoX5 > G N.P.uXtXyXD.B : 7 r V N < q [ oX,X'.|.'.3 o o o O ` '.!.!.@X'.'.@X:X!.'.Q.'.oX.X",
"#X#X].{.E.!.%X].'.!.'.#X].E. X6X|.].].'.].!.@X].oX@XoX3 y ;.P.tXtXuXH.f.7 % Z L P C ; e w ^ :X'.|.|.[.{.{..X.X!.!.'.'.'.'.'.@X*X].'.!.'.oXoX",
"+X#X].[.R.'.%X'.'.Q.'.#X].E.].#X X'.'.'.!.'.@X].'.@X^ l R g.rXuXtXH.f.S , , Z U U K C : q i *X}.'.~.@X.X'.oX'.E.!.'.oXE.'.]. X#X@XE.'.'.%X@X",
"#X#X}.Q.T.'.>X].!.!.].|.|.].].#X|.].'.'.'.'.@X'.'.W., X 6.G.uXtXP.j.S . h < A U I U L C w ) >X}.!.E.oX.X'.'.'.'.'.'.%XE.!.'.].#X#X!.'.'.:X:X",
"=X#X|.Q.R.'.%XoXQ.'.].].@X|.].+X@X.X'.'.'.|.].'.'.W.j   a.uXtXuXK.;.y p , < A I I I I I Y o.>X X'.'..X%XoXQ.'.oX'.!.,XQ.'.!.'.#X@X'.!.!.,X#X",
"-X#XoX'.E.'.%X#X!.'.@X|.@X].E.+X>X.X'.oX'.@X'.'.~.T.k ! V.tXuXP.M.Z q h k k y A I U I I I *.=. X'.!.'.#X@XQ.'.%XoX!.#X'.'.Q.'.@XoX|.Q.].,X#X",
"-X#X X|.'.E.#X8X'.!.=X|.].'.'.6X=X.XQ.oX.X#X'.'.'.).x m.P.uXrXM.! s a b ) _ o.e D I I I #.H w &.'.Q.'.oX.X!.Q.oX%X'.'.'.!.Q.!..X|.|.'.=X#X|.",
",XOX'.}.~.Q.}.0X'.Q.,X|.'. X X,X}.XXQ.oX}.:X|.'.'.%.x J.aXrXN.Q X j k ) #X'.$.j < D U I U F 6 k @.'.%X%X'.'.E.!.>X@XQ.'.!.!.E.].}. X'.7X#X}.",
"9X X'.|. XQ.~.-X>X'.*X|.!.#X=X|.}.XX!.'.oX:X|.'.` g e F.aXrXN.Q   j / ~.oX/ n j = A U I I I H v @.7XoX'.'.'.'.R.#X:XQ.!.'.E.E.oX~.}. X-X+X'.",
",XOX}.;X}.!.~.,X-X=X=X|.|.*X X!.}.~.!.~.'.:X}.] h y 4.K.uXrXH.g.R j W.}.[ n k t C P U I U U U Y @.>X'.E.'.'.'.E.@X:X'.].oX!.R..X~.}.+X-X+X}.",
",X X}.*X}.(.~.,X=X,X#X}.#X,X|.!.XX~.!.~.'.,XW.T R 1.Z.rXtXtXtXP.b.x (.~.w e 6 N P I I I I P P c $.#X!.!..X'.'.E.|.%X'.oXoXE.R.'.}.}.-X-X X#X",
"-X}.}.>X(.}.!.-X*X-X+X X*X=X~.~.>X.X~.~.'.[ *.wXwXeXyXyXyXyXuXuXK.x $X(.j e 6 7 N V C I R t t /.6X|.E.'.#X'.'.!.|.OX~.*X].Q.E.'.~. X-X+X X>X",
"=X~. X,X~.~.Q.*X*X*X*X;X*X|.!.~.#XXX!.!.~.~ 5.H.uXuXuXuXuXuXaXtXV.v ;X(.> w t t , , t S =.&.%.#X+X'.E.|.%X'.!.!.OXOX!.@X'.!.Q.!.~.+X-X X&X9X",
"*X(.*X,X~.~.!.+X;X+X*X*X+X~.!.(.#XXXQ.!.[.| T d.D.wXJ.J.J.J.K.N.6.9 *X|.8 8 9 8 9 9 8 5 OX>X#X=X|.E.'.oX%X!.!.E.oXoX!.@X!.'.}.'.~.+X-X}.#X,X",
"}.}.,X*X!.~.(.+X+X X X+X}.~.~.*X>XOXQ.'.#XOXR.k x x x x x x x x 9 #X@X].|.=X#X X X!.!.'.#XOX+X+X'.E.|.#X#X'.'.E.oXXX!.@XQ.'..X'.~.+X+X~.*X,X",
"~.+X,X X!.Q.|. X XOX X X}.~.'.*X>X:X!.OX7X XQ.T.{ ] ).).{ %./.{ W.#X|.'.|.6X+X|.|.E.].].#X|.}.+XQ.'.#X>X#X'.'.E.@X}.!.@XQ.'.oX'.'. X|.~.*X>X",
"!.*X9X!.R.}.}.}.}.OXOX~.~.}.}.*X>X}.OX,X%X'.'.@X!.Q.].8XQ.oX@XQ.}.OX'.'.#X=X+X|.].E.|.'.}.*X|.Q.'.|.+X#X#X+XQ.E..XQ..X'.Q.'.@X'.].#XQ.'.,XOX",
"}.=X-X!.!. X X}.}.OX%X}.~.}.}.*X-X|.*X:X@X!.'.oXE.!.|.,XQ.oX@X!.'.oX~.'.6X=X X|.|.!.|.'.}.*X X!.'.|.*X=X#X'.!.!.'.!.@X!.E.].].!.].@XQ.}.>XOX",
"XX-X+X'.}.OX}.}.~.oX:X}.~.}.}.=X=X@X7X#X'.Q.'.'.E.!.oX:X!.OXOX!.'.}.~.|.7X#X].|.#X'.}.'.}.:XOX'.'.'.=X=X X'.'.'.'.!.oX!.E..X'.E.@X|.!.|.>X}.",
"#X,X'.~.#XOX}.'.~..X:X|.!.'.|.=X#X=X,X].!.'.'.'.!.!.oX:X~.#XoX!.'.}.~. X,X+X'.|.=X|.'.!.}.*XOX~.!.'.#X*X|.~.'.'.@X'.'.'.Q.'.'.].#X'.~.XX>X}.",
"#X,X'.}.*XOX'.~.~..X:X|.!.'. X=X#X:X@X!.'.'.Q.'.}.!.oX@X!.@X'.~.'.~.~.OX,X|.~. X,XOX'.!.}.#XOX~.~.}.+X#X|.'.!.'.%XoXE.{.'.'.!.%XoX!.~.#X:X}."
};
