/* XPM */
static char *result[] = {
/* columns rows colors chars-per-pixel */
"70 70 223 2 ",
"   c #000000",
".  c #00020E",
"X  c #170405",
"o  c #0E110C",
"O  c #020716",
"+  c #06141A",
"@  c #171A1C",
"#  c #24160B",
"$  c #351D0B",
"%  c #381E0A",
"&  c #2C1D16",
"*  c #261A18",
"=  c #361E15",
"-  c #172912",
";  c #1B3618",
":  c #3D210D",
">  c #23221E",
",  c #2C211B",
"<  c #202E1A",
"1  c #342115",
"2  c #3C2212",
"3  c #34231B",
"4  c #3B241A",
"5  c #3B291E",
"6  c #2B3B19",
"7  c #021A21",
"8  c #151E22",
"9  c #191F21",
"0  c #142425",
"q  c #1D2122",
"w  c #162529",
"e  c #232222",
"r  c #2A2422",
"t  c #272A27",
"y  c #352824",
"u  c #352924",
"i  c #3D2B23",
"p  c #2B3828",
"a  c #35352B",
"s  c #323E31",
"d  c #431D08",
"f  c #44250D",
"g  c #492408",
"h  c #572C0D",
"j  c #59300F",
"k  c #442511",
"l  c #452617",
"z  c #4C2B12",
"x  c #432B1C",
"c  c #4C2E1C",
"v  c #542D12",
"b  c #542D15",
"n  c #4C311A",
"m  c #5C3315",
"M  c #53321C",
"N  c #5C351C",
"B  c #633816",
"V  c #623619",
"C  c #653A1A",
"Z  c #6A3C1B",
"A  c #432D22",
"S  c #492E24",
"D  c #542F22",
"F  c #4B3728",
"G  c #583829",
"H  c #5F3E31",
"J  c #653B26",
"K  c #6A3C22",
"L  c #723F2C",
"P  c #653F32",
"I  c #284408",
"U  c #2B5508",
"Y  c #33570F",
"T  c #36451D",
"R  c #365B1C",
"E  c #336D04",
"W  c #3A7706",
"Q  c #3E7C0C",
"!  c #3A6714",
"~  c #3B7514",
"^  c #3F7B11",
"/  c #2A452A",
"(  c #35472A",
")  c #3C592B",
"_  c #334734",
"`  c #3A4332",
"'  c #304C35",
"]  c #3B6328",
"[  c #6D421E",
"{  c #71431F",
"}  c #437B09",
"|  c #4A7013",
" . c #427818",
".. c #435426",
"X. c #444C34",
"o. c #554D32",
"O. c #495A3A",
"+. c #6E4221",
"@. c #684325",
"#. c #734424",
"$. c #75452C",
"%. c #794829",
"&. c #7C4A2D",
"*. c #684434",
"=. c #774B34",
"-. c #6C5139",
";. c #795637",
":. c #45672A",
">. c #4A633E",
",. c #526A3A",
"<. c #4D7535",
"1. c #527932",
"2. c #5C5645",
"3. c #466541",
"4. c #536C44",
"5. c #597647",
"6. c #81532F",
"7. c #824E35",
"8. c #855135",
"9. c #875A34",
"0. c #83523A",
"q. c #8B553C",
"w. c #8D593D",
"e. c #915B3E",
"r. c #9E632C",
"t. c #8E6236",
"y. c #84623D",
"u. c #8D6339",
"i. c #96683B",
"p. c #8D5740",
"a. c #955D42",
"s. c #975C42",
"d. c #8D6841",
"f. c #936243",
"g. c #9A6244",
"h. c #966D43",
"j. c #9D6A44",
"k. c #9C7144",
"l. c #A16544",
"z. c #A56947",
"x. c #A16E45",
"c. c #A36E48",
"v. c #A27244",
"b. c #A87947",
"n. c #A57449",
"m. c #AA754B",
"M. c #AD7C4C",
"N. c #B2704D",
"B. c #B17D4E",
"V. c #B77851",
"C. c #977C6C",
"Z. c #C97A4D",
"A. c #3B8503",
"S. c #348C00",
"D. c #3A8E00",
"F. c #3C9300",
"G. c #399204",
"H. c #3D9900",
"J. c #468809",
"K. c #419600",
"L. c #459B00",
"P. c #499E00",
"I. c #4A9408",
"U. c #459C0D",
"Y. c #4C9C0C",
"T. c #539909",
"R. c #498814",
"E. c #54871E",
"W. c #4A961A",
"Q. c #589B1A",
"!. c #4CA300",
"~. c #4DA603",
"^. c #4DA40D",
"/. c #4FA80D",
"(. c #53A600",
"). c #54AA00",
"_. c #59AD00",
"`. c #52A60D",
"'. c #55AB0D",
"]. c #59AE0D",
"[. c #5DB200",
"{. c #56B00D",
"}. c #5DB20D",
"|. c #58AB16",
" X c #5DB316",
".X c #61B500",
"XX c #62BA00",
"oX c #69BB00",
"OX c #61B50D",
"+X c #63B90D",
"@X c #69BC0D",
"#X c #61B616",
"$X c #63BA16",
"%X c #69BD16",
"&X c #62B81B",
"*X c #51872C",
"=X c #6BC107",
"-X c #6CC016",
";X c #748E4A",
":X c #AF814C",
">X c #B3824F",
",X c #B68550",
"<X c #B88751",
"1X c #B78851",
"2X c #BB8A53",
"3X c #AA8873",
"4X c #C48456",
"5X c #C28C55",
"6X c #CE8559",
"7X c #CC8C5A",
"8X c #D4895C",
"9X c #D48C5D",
"0X c #CF905B",
"qX c #DD8F61",
"wX c #DB9061",
"eX c #E39569",
"rX c #76CCB7",
"tX c #B59580",
"yX c #B2BA9F",
"uX c #C59B84",
"iX c #E9B597",
"pX c #80D1BB",
"aX c #EDC0A3",
/* pixels */
"P.P.(.+X_.@XT.(.P.P.^.^.(.(.).+X.XT._.OX].P.OX[._.%X_.OX!.!. X'. XP.!.P.!.}.+XOX(.!.}.'.L.(.-X~.}.}.%XP.(.!.'.P.P.'.P.'.[.(.-X!.!.P.(.@X@XoX",
"'.!.!.%XT.@XOXP.P.P.L.&X!.}.!.-X.X_.T.@X}.T.OX@X).@X[.OX).!.#X'. XP.L.!.P.P.+X+X!.!.$X'.!.!.+X(._.@X%XP.P.).}.P.!.'.P.}.).}.$X!.'.(.P.+XoX.X",
"~.{.L.}.(.OX@XP.P.'.P.}.).}.P.%X_._._.OX.X_.OX@X(.OXOXOX}.P.}.!.].L.P.J.J.H.'.-XJ.I.#X].!.!.}.!.T.%XOXP.L.]./.!.#X'.!.'.P.+X{.P.}.!.P.+XoX.X",
"P.}.P._._.@X[.).P.`.'.!.}.(.K.}.OX_.OXOX.X@X@X.X(._.}.OX}.L.}.!.'.K.'.( O T P. .e - J.).L.!.}.L.(.%X}.P.L.'.!.{.$X(.'.P.L.+X}.!.].F.(..X.X.X",
"!.~.(.).[.+X+X_.P.L.}.~.).).F.(.].].@X.XoX=X@X_.(.P._.+XOXK.}.P.].J.5.tX3Xo :.) t - } }.P.~.!.!._.%XOXJ.P.!.'.'.].'.).F.(.}.$X}.P.F.).OX_._.",
"{.L.).[..X[.@X.X(.H./.}.(.@XF.'.].).OX@X.X=X@X(._.(.).OX#XL.].`.T.5.C.aX3X  e e > q W #X!.(.!.}._.}.OXK.(.P.{.~.(.OXP.F.}.!.}.$XL.P.].+X_.).",
"}.~.~.}.@X_.@X_.(.~.!.}.).%XL.P.(.).).@X.XoX@X(.(.OX(.].$XP.!.'.6 3XaXeXg.. 9 e e e W }.'.!.!.}._._.@XT.].(.(.~.}._.H.!.(.(.).%X).!.}.+X_.(.",
"}.~.).[.-X).+X_.(. X!.OX(.+X].(.T.].P._.oX.X@X_.P.%X].(.}.(.J.) b uXaXZ.&.. e e e e W {.}.!.].}.].(.OX(.%X_.!._.}.).L.}.!.].'.}.}.P.OX]._.!.",
"'.!.(.(.%X(._.].!.}.P.}.!.}.%X'.(.].(.(..X.XOX_.P.!.OX!. XT.:.G z.uXiXs.h : > q q e Y L.].P.'.).OXP.}.).+X_.!.).(.}.!.}.!.}.}.).}.P.}.'.~.L.",
"/.!.P.(.OX_.(.}.(.'.L.(.!.~.%X}.).(._.P._.}.OX_.(.K.}.}.).( 4 #.Z.eX6XJ g V r q e > e I _.P.P.!._.(.)._.+X_.H.).!.+X).+X!.}.}.!.).!.}.}.!.L.",
"~.!.L.(.}.OX!.(.'.'.P.!.(.(.%X}.).P.(.).(.].]._.!.(.).%X).3.1 %.8X8Xl.z g m 9 x M e q e I P.L.(.T._.!._.+X(.H.!.!.+X%X}.(.-X'.(.!.).}.}.).'.",
"}.).(.'.OXOX!.[.OXOX^.L.+X(.=X+X(.!.P.'.].'.`.T.P.].{.+XE.o.k { 8XZ.0.b K $.A m m + O @ @ U `.(.P.OX!.'. X!.!.P.!.+X-X[.@X}.'.P.!.P.'.}.(.).",
"!.{.!.'.}.[.).[.].+X`.P.}.[.=X-X).!.L.^.`.^.'.P.P.].'.} r N B %.6XV.p.@.0.a.#.Z C n z x e * I '.].).P.}.].L.'.P.!.OX@X[.=X~.}.!.P.P.`.'.(.!.",
"!.'.L.~.%X[.[.[.].+XP.!.).}.=X}.).^./.L.'.P.`.K.P.].'.~ r z 9.M.m.z.s.p.a.s.e.v.2X6X<Xh.N y U `.OXP.T.}.`.!.}.L.!.OX[.OX[.!. X!.P.K.^.P.'.L.",
"`.!.!.H.#XOX.X.X+X@XH.(.).}.}.[._.!.'.L.'.L.!.D.(.].OX} e J x.2Xg.p.g.g.g.a.8.u.j.V.z.r.Z i ; ~ #XP.P.].!.!.!.H.).[.[.[.!.'.}.!.'.D.^.H./.H.",
"'.P.`.D.(.@X_..X@X@XL.~.~.).+X~.).!.`.H.^.L.!.D.'.).%X| y q.m.<Xg.s.s.g.g.e.K v 1 . O.-.V 4 8 e R.]._.(.!.'.P.P._..X[.(.P.}.(.!.'.S.^.L./.F.",
"!.'.P.K.D.%X_.@X@X@XT.K.(.(.+X!.(.}.'.H.Y.L.!.F.(.(.! x V q.m.<Xg.a.a.g.a.a.e.m.j.  rXpXo X q @ t s ( (.!. X!.!.).+X_.(.P.%XP.P.(.H.!.H.^.F.",
"P.].P.P.I.OX@X.X@X.XP.(.'.(.+X).!.'.'.P.!.!.'.}.).(.( G 7.q.c.<Xm.g.a.a.g.a.s.c.j.K yXyX=.% 3 c # @ e R ! ~ }.!.(.OX_.P._.%X!.!.!. XP.!.!.~.",
"(.'.(.(.P._..X.XoXOXP.T.#XL.+X'.!.'.'.L.'.~.(.+X(.P...P s.g.m.2X5X>Xg.a.a.s.z.z.l.l.Z.Z.s.G g C @.F @ e t s R.!.!.+X(.(.'.%X!.P.'.].!.'.!.}.",
"(.].(.'.).OX.X.X.X[.T.]. XP._.}.!.!.'.P.'.'.~.+XP.L.,.H g.B.<X2XwX7XM.g.p.z.8X9X8X1XN.e.V h h [ b.d.. 8 e e t ~ P.OX(.P.].}.P.L.'.`.'.}.L.}.",
"_.OX].(._.@X[..X.X_.}.#X!.{.!.+X!.K.'.^.L.{.).+XP.Y o.L g.,X2X,Xc.Z.7XB.n.B.7X0X0X2Xv.g.i.b.i.8.v.m.d.t O e t :.!.OX(.(.].'.L.L.!.!.'.L.P.%X",
".X.X_.P.T.OX.XoX_._.@XP.L.).!.}.).L.!.^.H.!.+X}.J.e b 6.g.>X2X>Xm i.wX2X2X<X>Xb.b.M.f.u.:X>XM.g.p.M.2X;.i 9 X.~ !.OX_.(.(.`.D.L.!.!.(.K.(.@X",
"[._.(.P.(._.@XoX)..X}.(.'.!.!. X'.^.L.^.!.P.+X[.J.r b $.g.M.2X,X#.t.5X2X2X>Xg.&.C +.b 2 l N 7.s.s.m.2X2Xd.t R.K.(.+X).).!.!.D.P.!.!.^.(.(.%X",
"[._.!.`.!.(.=X=X[.+X'.!.'.!.P. X^.'.L.!.!.).%X} >.q z %.s.,X2X,Xe.;.9.n.m.c.g.e.7.B j m h l S H H =.t.i.;XQ.(.(._.@X!.).).!.L.P.P.P.].(.T.%X",
"XX!.!.'.P.!.@X[.[.+XP.!.}.!.L.'.!.'.P.D.J.J.Q.O.r * J 8.g.m.,X,Xm.9.K 7.p.s.w.q.;.N N V J y 7 + 7 = l p R.-X~.{._.OXP.'.}.'.L.!.L.P.'.K.(.+X",
"XXP.'.'.K.).XX[.+X~.!.(.}.!.H.'.L.`.K.< e 9 e = $ $ 0.g.s.a.n.2X2XM.p.Z 8.a.K x 8 e e e e * e e e r s J.'.}._.+XOX}.K.].}.!.~./.H.'.^.K.].].",
").P.}.].K.]._.[.).L.^.(.'.{.F.~.L.J./   G 0.=.J g v Z 8.g.a.g.c.c.l.a.e.=.F x 1 & q e 3.R.R.J.W } } J.H.'.[.[.+X}.].J.'.{.!.{.~.K.'.K.L.}.T.",
").!.'. XP.'.).}.~.P.'.!.'.-XH.!.A.' S 8.z.V.V.j.6.$.#.&.0.a.a.s.s.s.a.q.G . @ = = * r ,.). XOXP.].(.+XL.{.[.[.[.(.(.S.`.'.!.~.G././.G.!.].P.",
"!.!.P.#X(.(.!.%X!.(.'.!.).$X}.!.; . @.wXqXqXqX7XB.g.g.9.Z w.s.s.a.g.e.c $ k : 2 : : y 5.!.OX(.P.).!.}.OX_.+X=X[.(.P.S.].}.).}.!.{.H.F.'.!.!.",
").P.).#X'.(.!.%X!.).{.{.).}.}.!.' G a.8XqXqXqX7X>X>XB.>Xb.g.s.s.a.g.a.q.q.=.m h h h 5 5.).'.].(.!.P.).OX_.}.[.).P.`.D.].}.!.$X!.~.H.P.^.'.!.",
"'.L.(.].].P.P.#X(.}.}.}.~.}.$XU 9 ;.V.wXqXqX7X2X1X<X<X2X2XM.j.s.a.a.s.g.g.f.&.&.=.7.F 5.!.).).].!.!.!.'.}.[.[.(.P.'.P.(.OX!.}.'.!.L.!.P.'.!.",
"'.P.L.].%XP.P.#X!.@X).[.~.(.Q > X u.7XwXqX8X<X,X1X1X<X<X1X2XM.s.g.g.g.g.g.g.g.g.j.j.*.4.L.).P.'.'.!.P.!.].)._.).K.`.'.L.OX).].!.~.H.^.L.!.!.",
"`.L.K.).%X'.L.+X[.@X).).!.!. .t d i.2X2X5X5X2X2X2X<X2X>X,X2X>X>X>X>X>X>X,X,XB.B.,X,X-.4.L.(.K.^.#X'.P.I.(._._.).L.P.'.L.(.}._.L.!.F.^.!.!.!.",
"P.P.F.P.}.OXL.}.@X+X(.P.(.!.~ u L v.2X1XM.m.m.n.m.2X>X2X,X,X2X2X<X2X2X2X<X<X2X2X2X2X;.4.L.~.G.P.#X].).L.!.).).).!.L.'.!.!.}.(.F.'.H.H.'.!.!.",
"P.P.D.P.!.+X~.XX@XOXP.P.(.P.~ i a.M.2X2Xv.0.e.a.v.2X2X1X2X,X2X,X<X2X,X,X<X<X,X,X2X2X;.4.P.L.L.L.'.$X).P.~.~.{.!.!.'.'.!.!.}.(.D.P.!.F.!.!.L.",
"!.P.H.P.P.[.[.[.+X}.P.!.(.P. .F m.<X2X2Xw.d Z v.2X,X>X2X2X>X,X>X<X,X<X<X<X<X,X2X2X2X;.4.L.P.P.P.!.}.'.!.~.).}.~.!.{.'.!.~.+X'.K.!.'.L.P.L.!.",
"!.L.P.P.P.).[.[.OXOXP.(.).E _ F :X2X<XB.=.  d k.5X2X,X,X<X7X7X7X<X1X,X,X<X<X<X<X,XM.-.4.L.P.L.!.P.'.}.!.!.{.).!.P.{./.P.(.}.).L.'.'.!.!.P.P.",
"P.P.`.!.(._.[.[._.].P.P.(.- * N :X2X>Xa.H O X h.,X,X,X<X<X8XqXqX4X5X2X,X<X<X<X2XM.q.G 4.L.P.!.'.'.{.}.!.~.}.!.~.!.'.!.L.'.}.!.H.}.!.!.'.P.P.",
"P.P.'.!.'.}.(._._.].T.K.(.; 4 #.>X2X:X%.l 7 8 0.g.g.>X2X2X2X7XwXwXwXwX2X,X,X<X2Xb.n * 5.L.P.'.!.}.}.!.).~.}.!.~.'.'.P.P.'.'.P.P.}.!.`.!.L.`.",
"P.L.'.!.(.}.!.(.(._.(.K.H.; l { :X5X>XN * 0 8 J 8.a.c.n.n.u.t.l.V.N.N.1X1X1X<X,Xg.* 8 s <.U.'.L.{.{.!. X}.(.~.!.}.~.L.~.'.(.G.{.'.!.(.F.!.'.",
"!.P.~.!.).}.!.!.(.(._.P.P./ D 7.>X2Xm.S s ) 9 k #.a.a.a.e.$.V Z a.g.j.<X5X5X<Xx.$.r 8 e e J.'.P.}.).~.}.(.!.!.H.+X~.!.!.~.!.H.$X'.~.!.H.!.!.",
"`.!.!.~.[.}.).(.(.P.}.P.P./ P l.1XM.p.i ^ I.t # G f.g.a.s.s.a.g.B.,X2X9XqX9X5Xt.v e 9 e e R.!.P.}.).}.}.!.P.}.L.}.~.(.!.!.!.!. X).~.!.!.`.'.",
"'.'.!.[.}.(.'.|.!.P._.P.!./ *.g.>Xm.q.u R.(.R.O.H g.g.a.g.s.s.g.>X7XqXqX9X5X2Xt.g e & = , O.! !. X[.}.~.!.L. X!.}.~.{.!.!.P.(.}.}.).!.P.!.].",
"'.!.L.[._.(.P.|.'.P._.P.P._ -.m.2XM.q.S :.Y.[.1.G q.a.g.a.f.s.g.b.4X9X8X5X1X2Xt.d e & f z u ..(.}.).~.L.P.L.}.P.'.!.).P.!.P.{.}.$X).!.L.!.].",
"^.!.!.}.).!.K.^.#XP.].P.L._ y.5X2Xm.p.+.S ) '.<.i V q.g.g.s.a.g.a.n.2X2X2X1X2X;.  e & z Z A ) !.).{.!.H.(.P.{.P.'.!.!.P.!.L.{.!.+X(.!.L.P.].",
"(.!.!._._.H.P.P.#X].]._.P.( d.5X<X,XM.M.j.;.,./ , f [ 8.g.g.f.s.a.m.2X2X2X>Xm.=.X e & z Z A :.'.'.~.P.!.!.~.}.!.!.!.'.^.!.!.}.P.}.'.!.F.P.'.",
"(.!.!.).!.H.L.L.'.].[.}.!.p -.b.5X5X2X2XV.p.u 7 > $ g K q.a.g.s.a.j.k.x.>X>X0.D * , = z C A :.!.!.F.!.'.H.!.{.'.H.!.}.`.!.L.'.!.'.}.P.K.P.(.",
"P.'.!.(.P.H.L.P.!.].}.}.!.; = #.8X7X<X<Xn.;.y w y : $ f B q.g.f.a.7.m h i.:Xz O e $ $ z B A O.!.!.!.!. XL.!.).}.L.P.$X'.!.P.{.!.'. XP.P.(.!.",
"P.`.P.(.L.L.U.^.!.!.OX}.(.- l #.<X4X<X5Xu.4 r  .*Xt 1 : f C q.g.s.q.q.q.8.+.2 * , $ % f k 4 ../.!.{.!.}.P.L.!.'.~.!.-X/.L.!.'.'.P. XP.].'.P.",
"I.^.L.!.H.!.^.^.!.P.OXOX(.E T J u.B.2XV.=.  e ^ {.;XX.1 & f C q.n.m.n.m.u.J k & e 3 1 3 = ,.} ~.H.'.'.!.P.H.!.(.(.{.}.).H.!.!.'.P.'.!. X'.K.",
"K.Y.L.P.H.!.^.L.(.P.].}.(.(.E r d i.B.s.@.# a Q `.&X5.> > & d [ M.2X2X2XB.p.z @ t s ` a ` T.^.!.L.L. XH.P.L.L.(.(.+X[.~.L.I.P.'.P.(.!.}.'.F.",
"T.P.P.P.F.^.^.L.`.!.}.].).).P.I.a F o.S i ` J.L.P.O.5 : 2 @ x { a.M.2X,X2Xm.z @ >.Q.|.T.T.|.H.!.P.K. XP.`.K.H.!.).+X_.(.P.L.P.].P.P.!.$X^.H.",
"P.`.(.P.!.P.P.^.`.P.OX).].(.P.OX} R | | ! E `.P.Q e 1 : % & 3 D L v.5X<X2X:Xz + 4.P.OX_.=X~.!.'.!.P.].!.'.L.H.P..XOX_.OXP.I.(.#X(.!.(.%X!.L.",
"P.].].P.$XH.L.'.(.I.OXP.}.(.P.).OX+X].}.P.P.].P.} e 4 f f f & 9 d t.<X<X2XM.M * 4.'.%XOX[.H.~./.P.P.'.P.`.P.L.P.OX_..X@X(.P.'.OX(._..X}.!.}.",
"#X(.}.P.&X!.L.'.P.P.].(.OXT.P.(._.[.OX(.I.'.].K.J.e D B V f & e # $.c.,X2XM.+.x 3.'.}.OX!.L.{.{.P.L.'.L.^.!.!.!._.(.OXOX(.P.(.OX!..X.X).).'.",
"'.P.(.(.+X!.!.^.L.(.)._.@XP.P._._._._.(.P.OX XW ) & N [ C f & e @ M q.>X5XM.[ 4 3.{.(.[.L.).}.}.P.H.`.L.^.!.^.!.[.T.OX}.(.P.P.%X).[..X).}.!.",
"L.!.!.~.$X~.'.L.P.'.!.}.+XH.(.).).].(.!.(.OXY.T y k m Z B v 4 q 8 = [ m.2XM.&.S 3.!.}.P.!.).}.}.P.L.P.'.P.!.~.!.'.P.%X].(.K.(.@XOX@X_.%X'.P.",
"L.!.!.P.}.'.'.H.!.P.(.+X).!.].(.!.].(.!.(.].p & k B Z B C Z M 9 9 # b e.B.,Xg.*.3.!.}.!.!.[.+X).P.!.L.'.H.~.!./.(.(.#X(.P.K.(.OX@X@X_.+XP.P.",
"'.!.!.L.'.'.'.L.!.!.'.%X!.].'.!.P.}.(.P.(.T.e c B Z C Z C M u e e @ 4 L n.2XB.;.O.~.OX!.!.).+X(.P.!.!.P.P.!.!.{.P.'.#XP.(.(.(.OX+X.X.X}.H.!.",
"}.!.L.!.}.~.'.!.(.!.'.@X(.}.).!.P.].(.P.).T.t M B Z C Z C 3 + e e 8 e d i.2X2X9.p R.}.'.P.).}.!.P.~.}.L.^.!.^./.P.'.].(.].OXT.OX.X[..X!.P.!.",
"}.).L.!.'.!.(.L.{.).(.}.).}.!.!.L.'.P.!.).T.t 1 z C C C C z & 9 e 9 3 h k.2X2X;.  e R.).(.}.}.P.L./.'.!.`.'./.!.L.'.(.P.`.OXT.}._._._.I.~.!.",
"}.$X!.H.!.P.!.L.}.~.).!.}.}.!.L.L.'.K.!.).'.K.>.x Z Z Z C B z & 9 * N j.>X2X<Xv.P X _ 4.,.].OXF.P.}.'.'.P. X'.L.P.].!.!.'.OX(.OX_._.).P./.!.",
"~.}.!.H.!.P.P.H.}.!.(.L.(. X'.K.!.!.P.~.!.(.!.) u N m B C Z V z @ J i.<X5X<X<X>Xj.;.;.-.e W.}.F.`. X^.^.H. X^.F.!.`.P.!.P.%X(.(.(._.!.`./.L.",
"!.}.(.P.!.!.!.P.}.H.!.!.!.}.'.L.!.P.!.!.!.(.!.Y e e & z C C Z N O y.2X1X1X1X1X1X2X2X2Xm.9 W.(.K.}.'.!.L.L. XP.H.'.P.(.P.].OX(.P.(.!.!.^.^.P.",
"!.{.{.P.^.P.`.^. XP.!.!.!.!.{.~.!.!.!./.~.P.~.(.A.J.O.y 5 5 5 i 8 G u.<X2X2X2X2X5X2X2Xf.q W.).(.}.P.P.P.P.'.!.^.^.P.!.!. X~.(.(.!.!.'.^.P.!.",
"!.(.'.P.L.L.Y.^.{.~.L.L.P.H.'./.P.~.!.'.!.H.~.!.!.!.Q ] R ) ] <.*XO.G i.k.k.k.k.k.k.p.2.:.).).'.!.H.P.L.L.P.!.^.P.H.'.~.}.).(.~.P.P.`.!.P.~.",
"!.!.^.P.U.L.Y.P.|.'.H.H.L.H.!.~././.L././.^.!.!.).!.{.~.H.L.~.}.L.~ o 0 w w w w w w + ] !.!.!.!.L.L.P.H.L.!.!.!.H.'.^.!.~.{.~.!.P.K.!.L.!.}.",
"H.L.P.H.H.U.L.H.^.&XL.!.H.!.G.H.|.^.~.H.!. XU.P.}.~.-XL.H.L.!. XL.H.U.H.H.G.W.G.U.H.P.|.L.!.L.H.K.Y.H.U.F.^.H.H.!. XG.^.!././.L.H.H.P.H.P.%X",
"P.K.H.U.H.G.H.L.H. X!.L.H.H.H.L.'.^.L.H.H.^./.H.[.).}.H.G.H.H.{.H.H.U.G.H.H.H.G.H.F.H.'.L.H.H.^.H.H.F.^.G.H.H.P././.S.H.S.^.^.L.H.F.L.F.!.}.",
"`.D.H.^.U.D.G.U.F.^.^.F.F.F.L.H.^.H.H.G.G.G.|.H.~.).).F.S.F.G./.G.G.^.G.S.H.G.H.F.S.F.'.P.H.F.^.H.G.H.^.G.F.F.^./.G.S.L.S.^.H.H.F.G.F.S.(.!."
};
