/* XPM */
static char *result[] = {
/* columns rows colors chars-per-pixel */
"70 70 246 2 ",
"   c #000000",
".  c #0E0000",
"X  c #180000",
"o  c #140013",
"O  c #230000",
"+  c #2C0300",
"@  c #3C0100",
"#  c #380400",
"$  c #391A04",
"%  c #2B1614",
"&  c #301016",
"*  c #3B2514",
"=  c #3C292A",
"-  c #39322E",
";  c #382B35",
":  c #3C3537",
">  c #2B2A2A",
",  c #221E27",
"<  c #480000",
"1  c #560401",
"2  c #571703",
"3  c #581B13",
"4  c #461901",
"5  c #671803",
"6  c #492504",
"7  c #5B2708",
"8  c #49281B",
"9  c #552917",
"0  c #4B351C",
"q  c #573518",
"w  c #593B00",
"e  c #662704",
"r  c #742903",
"t  c #783205",
"y  c #682B18",
"u  c #683618",
"i  c #763A18",
"p  c #6B2B13",
"a  c #452A26",
"s  c #4C3424",
"d  c #493529",
"f  c #563825",
"g  c #473938",
"h  c #543836",
"j  c #4F2C2B",
"k  c #673827",
"l  c #783924",
"z  c #65332A",
"x  c #6D5502",
"c  c #76441D",
"v  c #6D5218",
"b  c #684C12",
"n  c #5A492A",
"m  c #4A4239",
"M  c #564638",
"N  c #684728",
"B  c #79482A",
"V  c #694738",
"C  c #7B4835",
"Z  c #675637",
"A  c #75583C",
"S  c #725526",
"D  c #736437",
"F  c #584309",
"G  c #3A3644",
"H  c #443E45",
"J  c #3E4044",
"K  c #494447",
"L  c #544B4B",
"P  c #584946",
"I  c #5D5549",
"U  c #534C53",
"Y  c #5B4E54",
"T  c #4D545A",
"R  c #545554",
"E  c #54545C",
"W  c #5C565A",
"Q  c #5B5758",
"!  c #4C4D56",
"~  c #694C45",
"^  c #685748",
"/  c #785847",
"(  c #625C5D",
")  c #665855",
"_  c #735450",
"`  c #796449",
"'  c #686559",
"]  c #766758",
"[  c #71674C",
"{  c #5E5B62",
"}  c #595B67",
"|  c #4F5761",
" . c #625D63",
".. c #695B61",
"X. c #5C6A6B",
"o. c #6A6362",
"O. c #68676A",
"+. c #746A69",
"@. c #79746B",
"#. c #6A6C72",
"$. c #696B75",
"%. c #736E72",
"&. c #6D757A",
"*. c #6C7578",
"=. c #737476",
"-. c #7B7475",
";. c #72757B",
":. c #7A737B",
">. c #71797C",
",. c #7D7B7B",
"<. c #7E7A74",
"1. c #6F7169",
"2. c #5E625D",
"3. c #843504",
"4. c #853A19",
"5. c #943106",
"6. c #864619",
"7. c #984618",
"8. c #944E0C",
"9. c #A54904",
"0. c #A44C17",
"q. c #AB5318",
"w. c #BE5613",
"e. c #B8571B",
"r. c #B55008",
"t. c #824C25",
"y. c #864827",
"u. c #97572A",
"i. c #844D34",
"p. c #875839",
"a. c #975C3D",
"s. c #924B25",
"d. c #B75A28",
"f. c #A65429",
"g. c #986739",
"h. c #886B3E",
"j. c #BB6528",
"k. c #A86939",
"l. c #B56E39",
"z. c #A77439",
"x. c #B97536",
"c. c #CC5404",
"v. c #C4540C",
"b. c #C95507",
"n. c #C25513",
"m. c #C35914",
"M. c #C25A1B",
"N. c #CA5717",
"B. c #C14800",
"V. c #C97331",
"C. c #D37801",
"Z. c #895B45",
"A. c #8F594A",
"S. c #89664A",
"D. c #976747",
"F. c #947A4B",
"G. c #8D6957",
"H. c #966A55",
"J. c #8E7553",
"K. c #977A54",
"L. c #82724A",
"P. c #A86C47",
"I. c #AC754C",
"U. c #B67748",
"Y. c #A67757",
"T. c #B67C57",
"R. c #A36E53",
"E. c #85756A",
"W. c #987B6B",
"Q. c #867C78",
"!. c #876B60",
"~. c #B07B62",
"^. c #C17B60",
"/. c #4FA70D",
"(. c #B28437",
"). c #DE8635",
"_. c #9D8455",
"`. c #A68558",
"'. c #B7875A",
"]. c #B28849",
"[. c #9E8164",
"{. c #89817D",
"}. c #95867A",
"|. c #B78766",
" X c #BA8C73",
".X c #BD9D75",
"XX c #AB8F6D",
"oX c #B1A07F",
"OX c #CC884A",
"+X c #D3864A",
"@X c #C68758",
"#X c #D38B57",
"$X c #D79557",
"%X c #C7925C",
"&X c #E49C5C",
"*X c #DDA65A",
"=X c #E6A45B",
"-X c #F1A25D",
";X c #C49567",
":X c #D79869",
">X c #C89675",
",X c #D69877",
"<X c #C98967",
"1X c #E69D66",
"2X c #EF9D6C",
"3X c #DCA667",
"4X c #DAA476",
"5X c #C5A46D",
"6X c #E4A363",
"7X c #EAA362",
"8X c #E3A36A",
"9X c #E8A968",
"0X c #E6A975",
"qX c #F2AF72",
"wX c #ECC17B",
"eX c #697182",
"rX c #757984",
"tX c #6C6F88",
"yX c #8A7F8A",
"uX c #6F818F",
"iX c #838384",
"pX c #8A8788",
"aX c #958A87",
"sX c #95928E",
"dX c #878A92",
"fX c #8A9198",
"gX c #979598",
"hX c #8F918B",
"jX c #A2958C",
"kX c #A69B86",
"lX c #A59B94",
"zX c #BDA895",
"xX c #999AA3",
"cX c #8E99A0",
"vX c #A8A7A7",
"bX c #B8AFA9",
"nX c #A59BA5",
"mX c #D7A787",
"MX c #D0B489",
"NX c #ECB484",
"BX c #C2BBA7",
"VX c #C09F80",
"CX c #EBC593",
"ZX c #D3C1B3",
"AX c #EDCE98",
"SX c None",
/* pixels */
"SXSXSXSXSXSXSXSXSXSXSXSXSXSXSXSXSXSXSXSXSXSXSXSXSXSXSXSXSXSXSXSXSXSXSXSXSXSXSXSXSXSXSXSXSXSXSXSXSXSXSXSXSXSXSXSXSXSXSXSXSXSXSXSXSXSXSXSXSXSX",
"SXSXSXSXSXSXSXSXSXSXSXSXSXSXSXSXSXSXSXSXSXSXSXSXSXSXSXSXSXSXSXSXSXSXSXSXSXSXSXSXSXSXSXSXSXSXSXSXSXSXSXSXSXSXSXSXSXSXSXSXSXSXSXSXSXSXSXSXSXSX",
"SXSXSXSXSXSXSXSXSXSXSXSXSXSXSXSXSXSXSXSXSXSXSXSXSXSXSXSXSXSXSXSXSXSXSXSXSXSXSXSXSXSXSXSXSXSXSXSXSXSXSXSXSXSXSXSXSXSXSXSXSXSXSXSXSXSXSXSXSXSX",
"SXSXSXSXSXSXSXSXSXSXSXSXSXSXSXSXSXSXSXSXSXSXSXSXSXSXSXSXSXSXSXSXSXSXSXSXSXSXSXSXSXSXSXSXSXSXSXSXSXSXSXSXSXSXSXSXSXSXSXSXSXSXSXSXSXSXSXSXSXSX",
"SXSXSXSXSXSXSXSXSXSXSXSXSXSXSXSXSXSXSXSXSXSXSXSXSXSXSXSXSXSXSXSXSXSXSXSXSXSXSXSXSXSXSXSXSXSXSXSXSXSXSXSXSXSXSXSXSXSXSXSXSXSXSXSXSXSXSXSXSXSX",
"SXSXSXSXSXSXSXSXSXSXSXSXSXSXSXSXSXSXSXSXSXSXSXSXSXSXSXSXSXSXSXSXSXSXSXSXSXSXSXSXSXSXSXSXSXSXSXSXSXSXSXSXSXSXSXSXSXSXSXSXSXSXSXSXSXSXSXSXSXSX",
"SXSXSXSXSXSXSXSXSXSXSXSXSXSXSXSXSXSXSXSXSXSXSXSXSXSXSXSXSXSXSXSXSXSXSXSXSXSXSXSXSXSXSXSXSXSXSXSXSXSXSXSXSXSXSXSXSXSXSXSXSXSXSXSXSXSXSXSXSXSX",
"SXSXSXSXSXSXSXSXSXSXSXSXSXSXSXSXSXSXSXSXSXSXSXSXSXSXSXSXSXSXSXSXSXSXSXSXSXSXSXSXSXSXSXSXSXSXSXSXSXSXSXSXSXSXSXSXSXSXSXSXSXSXSXSXSXSXSXSXSXSX",
"SXSXSXSXSXSXSXSXSXSXSXSXSXSXSXSXSXSXSXSXSXSXSXSXSXSXSXSXSXSXSXSXSXSXSXSXSXSXSXSXSXSXSXSXSXSXSXSXSXSXSXSXSXSXSXSXSXSXSXSXSXSXSXSXSXSXSXSXSXSX",
"SXSXSXSXSXSXSXSXSXSXSXSXSXSXSXSXSXSXSXSXSXSXSXSXSXSXSXSXSXSXSXSXSXSXSXSXSXSXSXSXSXSXSXSXSXSXSXSXSXSXSXSXSXSXSXSXSXSXSXSXSXSXSXSXSXSXSXSXSXSX",
"SXSXSXSXSXSXSXSXSXSXSXSXSXSXSXSXSXSXSXSXSXSXSXSXSXSXSXSXSXSXSXSXSXSXSXSXSXSXSXSXSXSXSXSXSXSXSXSXSXSXSXSXSXSXSXSXSXSXSXSXSXSXSXSXSXSXSXSXSXSX",
"SXSXSXSXSXSXSXSXSXSXSXSXSXSXSXSXSXSXSXSXSXSXSXSXSXSXSXSXSXSXSXSXSXSXSXSXSXSXSXSXSXSXSXSXSX%.+.%.sXSXSXSXSXSXSXSXSXSXSXSXSXSXSXSXSXSXSXSXSXSX",
"SXSXSXSXSXSXSXSXSXSXSXSXSXSXSXSXSXSXSXSXSXSXSXSXSXSXSXSXSXSXSXSXSXSXSXSXSXSXSXSXSXSXSXSXK Q.pXpX,.) {.SXSXSXSXSXSXSXSXSXSXSXSXSXSXSXSXSXSXSX",
"SXSXSXSXSXSXSXSXSXSXSXSXSXSXSXSXSXSXSXSXSXSXSXSXSXSXSXSXSXSXSXSXSXSXSXSXSXSXSXSXSXSXSXQ pXaX%.:.iXdXiXQ {.SXSXSXSXSXSXSXSXSXSXSXSXSXSXSXSXSX",
"SXSXSXSXSXSXSXSXSXSXSXSXSXSXSXSXSXSXSXSXSXSXSXSXSXSXSXSXSXSXSXSXSXSXSXSXSXSXSXSXSXSX' {.sX#.;.;.*.*.uXsX{.) {.SXgXQ.SXSXSXSXSXSXSXSXSXSXSXSX",
"SXSXSXSXSXSXSXSXSXSXSXSXSXSXSXSXSXSXSXSXSXSXSXSXSXSXSXSXSXSXSXSXSXSXSXSXSXSXSXSXSXpX%.sX$.;.;.;.>.>.*.#.uXgX{.^ + < 1 ~ SXSXSXSXSXSXSXSXSXSX",
"SXSXSXSXSXSXSXSXSXSXSXSXSXSXSXSXSXSXSXSXSXSXSXSXSXSXSXSXSXSXSXSXSXSXSXSXSXSXSXSXvX{ fX,.*.>.*.;.;.>.>.&.&.&.rXgXaXE._   SXSXSXSXSXSXSXSXSXSX",
"SXSXSXSXSXSXSXSXSXSXSXSXSXSXSXiXSXSXSXSXSXSXSXSXSXSXSXSXSXSXSXSXSXSXSXSXSXSXSXSXY sXiX$.;.*.;.;.;.;.&.>.&.;.tXtXrXdXsX1.@.SXSXSXSXSXSXSXSXSX",
"SXSXSXSXSXSXSXSXSXSXSXSXSXSXSXM SXSXSXSXSXSXSXSXSXSXSXSXSXSXSXSXSXSXSXSXSXSXSX%.,.hX$.>.;.;.>.;.>.=.;.=.;.;.;.rX>.*.rXfXyX} ,.SXSXSXSXSXSXSX",
"SXSXSXSXSXSXSXSXSXSXSXSXSXSXjXE.SXSXSXSXSXSXSXSXSXSXSXSXSXSXSXSXSXSXSXSXSXSXSXo.hX;.>.>.*.;.;.;.>.*.>.=.=.;.=.1.-.:.:.$.rXfXyX^ %.SXSXSXSXSX",
"SXSXSXSXSXSXSXSXSXSXSXSXSXSXZ.}.SXSXSXSXSXSXSXSXSXSXSXSXSX}.bXSXSXSXSXSXSXSXSX+ -.=.>.>.>.=.=.*.*.;.;.;.;.;.;.;.=.:.>.*.*.}  .P >   E.SXSXSX",
"SXSXSXSXSXSXSXSXSXSXSXSXSX^ MXkXSXSXSXSXSXSXSXSXSXSXSXSXoX XSXSXSXSXSXSXSXSXSXL   ..#.=.:.;.>.>.;.*.*.;.=.;.;.;.;.>.*.rXO.W g g W { G . -.SX",
"SXSXSXSXSXSXSXSXSXSXSXSXlXD.AX_.SXSXSXSXd Q.SXSXSXSXSXSXXX.XSXSXSXSXSXSXSXSXSXSXaXX = ..#.>.;.;.;.>.;.;.;.*.;.:.:.&.>.O.Y g g W E T }  .a X ",
"SXSXSXSXSXSXSXSXSXSXSXSX^ .XCX5XQ.SXSX  I P   ( SXSXSX}.MXXXvXSXSXSXSXSXSXSXSXSXSXSXQ.X ; W #.%.;.:.=.;.;.;.;.:.&.>.O.) H g Y Y E | E ..H Q.",
"SXSXSXSXSXSXSXSXSXSXSXSXq VX3XAXMX_   ) pXlXvXfX! Y  .kXAX'.{.SXSXSXSXSXSXSXSXSXSXSXSXSX<.X ; E #.$.:.;.;.;.:.;.>.*.W L ; R R E R R Q L : SX",
"SXSXSXSXSXSXSXSXSXSXSXSXo.XX5X5XMXAXzX^ =.gXxXvXgX=.K / .X>X/ SXSXSXSXSXSXSXSXSXSXSXSXSXSXSX,.J U { O.*.;.;.&.>.*.Q U = U R T T R R '   SXSX",
"SXSXSXSXSXSXSXSXSXSXSXSXSX@ 5X;X5X0XCX.X  +.{ Y W O.o.% ~ / Q.SXSXSXSXSXSXSXSXSXSXSXSXSXSXSXSX@.  P Y ' #.&.tXrXO.^ = U E T T E E (   SXSXSX",
"SXSXSXSXSXSXSXSXSXSXSXSXSXlXb .X5X'.`.S.% M P P K ! R ) h O ] SXSXSXSXSXSXSXSXSXSXSXSXSXSXSXSX1 l k $   ;  .&. .Q g g E E E E E o., Q.SXSXSX",
"SXSXSXSXSXSXSXSXSXSXSXSXSXSXQ.  ` ^ Y ..tX..+.bXpX2.1.<.zXpXm - SXSXSXSXSXSXSXSXSXSXSXSXSXSXh r S.1 ] SXQ.  g ..L - R E | E W { K Y SXSXSXSX",
"SXSXSXSXSXSXSXSXSXSXSXSXSX+.I ' ' pXBXU $...L ' R : K K ' R ( ( a SXSXSXSXSXSXSXSXSX/  Xp.X q k V 4 SXSXSXSX%.O   I ' E T E W Q   SXSXSXSXSX",
"SXSXSXSXSXSXSXSXSXSXSXSX  }.nXR o.H K ; G H / k A ` _ Z.N h ^ + o.SXSXSXSXSXSXSXSX}.p.mXY. X~.G.O lXSXSXSXSXSXSX-.O : { {  .'   SXSXSXSXSXSX",
"SXSXSXSXSXSXSXSXSXSXSXSXX Q.Q.  G V B H.~.Y.I.%X4X0X0X0X0X:Xp.% SXSXSXSXSXSXSXSXSXSX< R.A z Y.0XmX/ SXSXSXSXSXSXSXSX,.o , g   SXSXSXSXSXSXSX",
"SXSXSXSXSXSXSXSXSXSXSXSX- $ $ G.'.$XV.:XmXi s.f.u.U.:X,XU.D.5.S.SXSXSXSXSXSXSXSXSXSXG.5 H._ q u.>Xe SXSXSXSXSXSXSXSXSXSXSX{.SXSXSXSXSXSXSXSX",
"SXSXSXSXSXSXSXSXSXSXSXSXSX# mXmX'.l.l.&X@X5 s.q.d.y.R.<Xy.d.5._ SXSXSXSXSXSXSXSXSXSXP @ W.'.:XT.f + SXSXSXSXSXSXSXSXSXSXSXSXSXSXSXSXSXSXSXSX",
"SXSXSXSXSXSXSXSXSXSXSXSXSX< >XD.U.%X$X$Xx.l.C y y e y A.l y 1 G.SXSXSXSXSXSXSXSXSX@.  / n k.1X:XG.e aXSXSXSXSXSXSXSXSXSXSXSXSXSXSXSXSXSXSXSX",
"SXSXSXSXSXSXSXSXSXSXSXSX< / i.a.a.;X9X&X+Xk.D.B f Z.S.XXG.d 1 W.SXSXSXSXSXSXSXSXSX   XXXA.C i.B G.< SXSXSXSXSXSXSXSXSXSXSXSXSXSXSXSXSXSXSXSX",
"SXSXSXSXSXSXSXSXSXSXSXB U.P.C D.k.#XqX2X1XT.s.a.,X0X9XwXNXmXA.W.SXSXSXSXSXSXSXSXO e S.I.2XNXS.V G.  SXSXSXSXSXSXSXSXSXSXSXSXSXSXSXSXSXSXSXSX",
"SXSXSXSXSXSXSXSXSXQ.K.0X+Xl.a.D.,X+XV.P.Y.,X#Xg.^.@Xu.T.@XD.A.A.SXSXSXSXSXSXSXz r V s P.OX:XH.& P O SXSXSXSXSXSXSXSXSXSXSXSXSXSXSXSXSXSXSXSX",
"SXSXSXSXSXSXgXJ.z.:XqX2X+XI.P.9.f.0.r.B.7.D.P.i 5 l p 3.r t B 7 0 SXSXSXSXSX@.1 i.y.a a N 7   g )   SXSXSXSXSXSXSXSXSXSXSXSXSXSXSXSXSXSXSXSX",
"SXSXSXSXJ.z.:X4X0X9X=X&X#XP.7.b.w.d.N.N.M.t 5 f.q.r.n.d.e.w.M.f.z ~ Q.sXSXhX< B 6.u = j * $ L -.( : SXSXSXSXSXSXSXSXSXSXSXSXSXSXSXSXSXSXSXSX",
"SXSXyXz.6X=XqX7X1X=X3X-X#Xp.5.N.n.n.v.M.4.4.V.c.c.N.d.y.l d.M.N.0.Y.<X;Xp.@ C i.l d ! |  .%.:.,.> Q.SXSXSXSXSXSXSXSXSXSXSXSXSXSXSXSXSXSXSXSX",
"SXSXP.NX*X*X7X1X1X6X3X=X$Xt.8.N.c.B.M.f.4.d.N.n.7.i u i 4.l 7.q.e.7.>X,Xk 4.y.l s K O.rXcXcX,.,.  SXSXSXSXSXSXSXSXSXSXSXSXSXSXSXSXSXSXSXSXSX",
"SX1 NX1X3X3X3X7X7X6X9X7X@XB 3.m.B.N.d.i 4.0.3.3 9 t 9.c.c.r.4.p l z d d u c B u H } $.dXxXfX>.-.  SXSXSXSXSXSXSXSXSXSXSXSXSXSXSXSXSXSXSXSXSX",
"SXr &X&X1X3X=X=X6X6X1X#X@XA r e.n.c.0.9 p p 4.0.e.N.v.w.w.m.v.q.0.4.< q y.B q * } eX<.aXgXdXpXY +.SXSXSXSXSXSXSXSXSXSXSXSXSXSXSXSXSXSXSXSXSX",
"SXr #X-X6X3X=X6X1X8X9X<Xi.R.2 0.n.M.4.5 7.e.n.b.c.v.n.w.w.w.b.c.j.y.9 y.t.u i.i.K X.hXlXvXrXO.  SXSXSXSXSXSXSXSXSXSXSXSXSXSXSXSXSXSXSXSXSXSX",
"SX1 ].$X9X1X6X6X3X6X6X:Xl T.i 3.d.N.v.n.M.e.n.v.v.w.w.v.b.v.v.N.s.3 i s.c 9 k.OXP.h ) o..._ u ) SXSXSXSXSXSXSXSXSXSXSXSXSXSXSXSXSXSXSXSXSXSX",
"SXV 8.@X1X=X&X=X6X6X7XU.1 A.D.2 7.r.c.c.N.M.e.n.n.n.n.r.v.r.e.f.p u 6.6.3 a.$X=X&X$X^.T.].0Xu.SXSXSXSXSXSXSXSXSXSXSXSXSXSXSXSXSXSXSXSXSXSXSX",
"SXSXM a.T.1X7X=X9X9X$Xk.P.p.C Z.2 7.q.w.n.v.c.c.v.v.b.b.b.N.d.l 7 6.t.u y.@X9X8X*X=X9X6XqX].Q.SXSXSXSXSXSXSXSXSXSXSXSXSXSXSXSXSXSXSXSXSXSXSX",
"SXSXSX8 p.U.#X=X6X1X7X$XU.U.p.p.D.1 l s.q.w.N.N.M.m.m.m.e.d.6.9 c y.u 9 P.$X2X0X8X=X=XqX#X_ SXSXSXSXSXSXSXSXSXSXSXSXSXSXSXSXSXSXSXSXSXSXSXSX",
"SXSXSXV I.$X7X=X3X8X=X7X1Xx.P.q R.I.y.5 e 6.5.7.0.0.q.9.0.4.9 N y.y.a s 8.#X8X6X8X4X3XU._ SXSXSXSXSXSXSXSXSXSXSXSXSXSXSXSXSXSXSXSXSXSXSXSXSX",
"SXSXSX] k.1X=X3X3X1X=X9X:Xp.k j = S P.U.a.i z y y u e p z 2 c t.y.z p.S.aX}.H.F.G.W.}.SXSXSXSXSXSXSXSXSXSXSXSXSXSXSXSXSXSXSXSXSXSXSXSXSXSXSX",
"SXSXSXSXt :X9X3X6X8X8XR.M I K % - G = h.:X1X:X%XOXz.@X|.V e t.t.5 R.(.}.SXSXSXSXSXSXSXSXSXSXSXSXSXSXSXSXSXSXSXSXSXSXSXSXSXSXSXSXSXSXSXSXSXSX",
"SXSXSXSXe T.I.-X-X4XZ.U ) g K 2.o.| | G M T.:X%XU.u.T.H.2 B i.q 3 |.z.aXSXSXSXSXSXSXSXSXSXSXSXSXSXSXSXSXSXSXSXSXSXSXSXSXSXSXSXSXSXSXSXSXSXSX",
"SXSXSXSX~ P.p.P.4XS.O.@., { ;.:.;.$.} E L ; . k g.D.k < c t.k q i.A.1 SXSXSXSXSXSXSXSXSXSXSXSXSXSXSXSXSXSXSXSXSXSXSXSXSXSXSXSXSXSXSXSXSXSXSX",
"SXSXSXSXSXe |.i.h o.rX> <.dXrX&.;.-.-...|  .R 0 S S.N k t.c e x.).).r.aXSXSXSXSXSXSXSXSXSXSXSXSXSXSXSXSXSXSXSXSXSXSXSXSXSXSXSXSXSXSXSXSXSXSX",
"SXSXSXSXSX* D.~.j ,.T  .lXgXfXrX*.-.-.rX#.U : S.G.o 3 i.B 9 S V.C.).9.aXSXSXSXSXSXSXSXSXSXSXSXSXSXSXSXSXSXSXSXSXSXSXSXSXSXSXSXSXSXSXSXSXSXSX",
"SXSXSXSXSXh q C V ) ; rXfXgXxXcXdX;.&.rX#.= D.0X0X<Xl 7 7 H.A.b k.x.r SXSXSXSXSXSXSXSXSXSXSXSXSXSXSXSXSXSXSXSXSXSXSXSXSXSXSXSXSXSXSXSXSXSXSX",
"SXSXSXSXSXpX# M a g g ;.rXuXfXgXnXsX*.;.K A 4X7X1XqX0X`.V H.C 0 Z N + SXSXSXSXSXSXSXSXSXSXSXSXSXSXSXSXSXSXSXSXSXSXSXSXSXSXSXSXSXSXSXSXSXSXSX",
"SXSXSXSXSXSX@ E.M - m ( #.*.rXiXhXuX;.( 0 ;XqX&XU.g.;X~.y f I ' @.Z [ SXSXSXSXSXSXSXSXSXSXSXSXSXSXSXSXSXSXSXSXSXSXSXSXSXSXSXSXSXSXSXSXSXSXSX",
"SXSXSXSXSXSXP [ ] I m g L o.O.eX>.*.#.G A 0X$XqX3XT.C 2 Z ^ [ ] E.$ {.SXSXSXSXSXSXSXSXSXSXSXSXSXSXSXSXSXSXSXSXSXSXSXSXSXSXSXSXSXSXSXSXSXSXSX",
"SXSXSXSXSXSXSX  @.] [ M h g L { #.X.T G '.9XP.k.%X:XZ.n ] [ D [ Z X SXSXSXSXSXSXSXSXSXSXSXSXSXSXSXSXSXSXSXSXSXSXSXSXSXSXSXSXSXSXSXSXSXSXSXSX",
"SXSXSXSXSXSXSXo.6 ^ m m P d = g m I R h %XqX8X~.C 7 d m m g m ^   SXSXSXSXSXSXSXSXSXSXSXSXSXSXSXSXSXSXSXSXSXSXSXSXSXSXSXSXSXSXSXSXSXSXSXSXSX",
"SXSXSXSXSXSXSXSX. M 0 0 0 s q 9 0 m a j t.x.<X,XZ.  d a d s M   -.SXSXSXSXSXSXSXSXSXSXSXSXSXSXSXSXSXSXSXSXSXSXSXSXSXSXSXSXSXSXSXSXSXSXSXSXSX",
"SXSXSXSXSXSXSXSXX [.F.F._.K.J._.S.+ /.s q V V j N J.J.J.K.K.`.S aXSXSXSXSXSXSXSXSXSXSXSXSXSXSXSXSXSXSXSXSXSXSXSXSXSXSXSXSXSXSXSXSXSXSXSXSXSX",
"SXSXSXSXSXSXSXSXI f Z Z Z n Z n n /././.  e #   F D D D D A [ 6 +.SXSXSXSXSXSXSXSXSXSXSXSXSXSXSXSXSXSXSXSXSXSXSXSXSXSXSXSXSXSXSXSXSXSXSXSXSX",
"SXSXSXSXSXSXSXSXSX  ^ N n Z n 6 K /./././.aXbX/./.  [ [ D a 0 q Z ] o.SXSXSXSXSXSXSXSXSXSXSXSXSXSXSXSXSXSXSXSXSXSXSXSXSXSXSXSXSXSXSXSXSXSXSX",
"SXSXSXSXSXSXSXSXSX@ [.K._._._.`.F.u /././././././.w XX_.F._._.`._.K.K.2 SXSXSXSXSXSXSXSXSXSXSXSXSXSXSXSXSXSXSXSXSXSXSXSXSXSXSXSXSXSXSXSXSXSX",
"SXSXSXSXSXSXSXSXSX  A S v v b x S w   /./././././.  S x x x x v v v ` < P SXSXSXSXSXSXSXSXSXSXSXSXSXSXSXSXSXSXSXSXSXSXSXSXSXSXSXSXSXSXSXSXSX",
"SXSXSXSXSXSXSXSXSXkXkXkXlXSXSXlXlXkXSXSXSXZXZXZXbXjXjXlXlXjXlXlXjXkXkXkXSXSXBXBXSXSXSXSXSXSXSXSXSXSXSXSXSXSXSXSXSXSXSXSXSXSXSXSXSXSXSXSXSXSX",
"SXSXSXSXSXSXSXSXSXSXSXSXSXSXSXSXSXSXSXSXSXSXSXSXSXSXSXSXSXSXSXSXSXSXSXSXSXSXSXSXSXSXSXSXSXSXSXSXSXSXSXSXSXSXSXSXSXSXSXSXSXSXSXSXSXSXSXSXSXSX"
};
