/* XPM */
static char *result[] = {
/* columns rows colors chars-per-pixel */
"70 70 246 2 ",
"   c #000000",
".  c #0B0000",
"X  c #130000",
"o  c #1C0000",
"O  c #060817",
"+  c #2D0100",
"@  c #270302",
"#  c #370401",
"$  c #3C1D07",
"%  c #2C0D18",
"&  c #392518",
"*  c #362C11",
"=  c #271C24",
"-  c #381526",
";  c #382926",
":  c #3B3127",
">  c #292934",
",  c #392B34",
"<  c #3B3738",
"1  c #2E2629",
"2  c #14202E",
"3  c #430100",
"4  c #4B0400",
"5  c #570500",
"6  c #471903",
"7  c #591A03",
"8  c #451414",
"9  c #661602",
"0  c #482305",
"q  c #562505",
"w  c #46261A",
"e  c #592A18",
"r  c #49321B",
"t  c #5A3410",
"y  c #652604",
"u  c #633502",
"i  c #773907",
"p  c #652C16",
"a  c #772B16",
"s  c #66371C",
"d  c #743A1B",
"f  c #792805",
"g  c #452C26",
"h  c #493627",
"j  c #563727",
"k  c #483838",
"l  c #553C35",
"z  c #4E2D27",
"x  c #693924",
"c  c #753D27",
"v  c #623B32",
"b  c #76312B",
"n  c #664A00",
"m  c #77451C",
"M  c #6C4B18",
"N  c #4B432D",
"B  c #574836",
"V  c #524937",
"C  c #684428",
"Z  c #7B442B",
"A  c #794727",
"S  c #775926",
"D  c #664833",
"F  c #764B38",
"G  c #67563D",
"H  c #765839",
"J  c #6D5222",
"K  c #77623B",
"L  c #796029",
"P  c #5C4200",
"I  c #3C3C45",
"U  c #493B44",
"Y  c #4B4747",
"T  c #574948",
"R  c #5C5548",
"E  c #494A57",
"W  c #554C55",
"Q  c #4D565A",
"!  c #54545B",
"~  c #5D535C",
"^  c #5B595D",
"/  c #585756",
"(  c #644B44",
")  c #62554D",
"_  c #675847",
"`  c #785847",
"'  c #655958",
"]  c #755854",
"[  c #6B644A",
"{  c #6D694E",
"}  c #77684A",
"|  c #696559",
" . c #746B52",
".. c #756754",
"X. c #797557",
"o. c #595B63",
"O. c #665D63",
"+. c #5E6164",
"@. c #5E6574",
"#. c #686668",
"$. c #756967",
"%. c #7B766C",
"&. c #686A75",
"*. c #766E75",
"=. c #6E7276",
"-. c #6D757B",
";. c #6C7978",
":. c #747476",
">. c #72757B",
",. c #73797C",
"<. c #7A7678",
"1. c #6F7C6F",
"2. c #5A644E",
"3. c #843605",
"4. c #843A17",
"5. c #8D2D01",
"6. c #803720",
"7. c #874419",
"8. c #96481D",
"9. c #964D0D",
"0. c #BC590D",
"q. c #BA5616",
"w. c #A74E11",
"e. c #864828",
"r. c #974B26",
"t. c #8B5527",
"y. c #94592A",
"u. c #854C37",
"i. c #875537",
"p. c #985B37",
"a. c #A85826",
"s. c #B75A25",
"d. c #A7532C",
"f. c #9A6339",
"g. c #856537",
"h. c #A46328",
"j. c #BA6B2A",
"k. c #A6643C",
"l. c #B77135",
"z. c #BF611B",
"x. c #C5550B",
"c. c #C55918",
"v. c #CF4F01",
"b. c #CC7411",
"n. c #C25B26",
"m. c #C47638",
"M. c #CA752D",
"N. c #895A47",
"B. c #915C4A",
"V. c #86684A",
"C. c #9A6647",
"Z. c #88714C",
"A. c #956755",
"S. c #8D7453",
"D. c #827159",
"F. c #987958",
"G. c #8E6F4E",
"H. c #A76B47",
"J. c #A97448",
"K. c #B97646",
"L. c #A57757",
"P. c #B67B56",
"I. c #A86B50",
"U. c #887667",
"Y. c #847A78",
"T. c #8E796A",
"R. c #AB7A64",
"E. c #C47947",
"W. c #C77C53",
"Q. c #4FA70D",
"!. c #D38539",
"~. c #9C8158",
"^. c #B9855B",
"/. c #AC8853",
"(. c #97847C",
"). c #938577",
"_. c #A48565",
"`. c #B68866",
"'. c #B49872",
"]. c #C6844A",
"[. c #D88748",
"{. c #C98959",
"}. c #D28B58",
"|. c #DB995B",
" X c #CA9755",
".X c #E69C5B",
"XX c #E5874B",
"oX c #D0A15A",
"OX c #E4A35C",
"+X c #EAA35D",
"@X c #E4A557",
"#X c #ECA44F",
"$X c #CA976A",
"%X c #DB9B66",
"&X c #C89875",
"*X c #C58F6A",
"=X c #E59D63",
"-X c #E99D67",
";X c #ED9C6A",
":X c #DDA465",
">X c #DAA76A",
",X c #D9A875",
"<X c #CAA76F",
"1X c #E4A364",
"2X c #EAA462",
"3X c #E3A36A",
"4X c #EBA56B",
"5X c #EBAA6C",
"6X c #E4AA6A",
"7X c #E9AB74",
"8X c #E6A976",
"9X c #EFAE70",
"0X c #E6C67F",
"qX c #747C82",
"wX c #787A82",
"eX c #6B7983",
"rX c #877E82",
"tX c #7E8285",
"yX c #6E8085",
"uX c #8D8583",
"iX c #868588",
"pX c #958A87",
"aX c #8C8B94",
"sX c #928E95",
"dX c #8E949B",
"fX c #93969C",
"gX c #989599",
"hX c #9D928A",
"jX c #A4958B",
"kX c #A8988C",
"lX c #A69B94",
"zX c #9799A3",
"xX c #8D96A0",
"cX c #A6A3A5",
"vX c #B8AFAF",
"bX c #A6A0A0",
"nX c #D0AD85",
"mX c #E9AA83",
"MX c #EFB587",
"NX c #CBBCBA",
"BX c #CC8F84",
"VX c #DDC596",
"CX c #E7C68A",
"ZX c #EBCB96",
"AX c #DDCBB2",
"SX c None",
/* pixels */
"SXSXSXSXSXSXSXSXSXSXSXSXSXSXSXSXSXSXSXSXSXSXSXSXSXSXSXSXSXSXSXSXSXSXSXSXSXSXSXSXSXSXSXSXSXSXSXSXSXSXSXSXSXSXSXSXSXSXSXSXSXSXSXSXSXSXSXSXSXSX",
"SXSXSXSXSXSXSXSXSXSXSXSXSXSXSXSXSXSXSXSXSXSXSXSXSXSXSXSXSXSXpXuXuXpXuXhXlXvXNXSXSXSX  # 3 3 + SXSXSXSXSXSXSXSXSXSXSXSXSXSXSXSXSXSXSXSXSXSXSX",
"SXSXSXSXSXSXSXSXSXSXSXSXSXSXSXSXSXSXSXSXSXSXSXSXSXSXSXSXSX= iXrXrXiXiXY.Y.>.-.qX*.O.$.$.$.) k k gXbXSXSXSXSXSXSXSXSXSXSXSXSXSXSXSXSXSXSXSXSX",
"SXSXSXSXSXSXSXSXSXSXSXSXSXSXSXSXSXSXSXSXSXSXSXSXSXSXSXSX~ sXfX>.eXeXeXtXrXiXaXaXsXsXsXdXdXaXgXhX).<.%.*.' . w ) $.$.Y.SXSXSXSXSXSXSXSXSXSXSX",
"SXSXSXSXSXSXSXSXSXSXSXSXSXSXSXSXSXSXSXSXSXSXSXSXSXSXSXSXT gXiX=.>.,.:.-.-.=.-.*.=.-.-.;.-.-.*.rXiXiXiXiXO.< ) W Y E V O   SXSXSXSXSXSXSXSXSX",
"SXSXSXSXSXSXSXSXSXSXSXSXSXSXSXSXSXSXSXSXSXSXSXSXSXSXSXSX< bXwX=.<.*.*.:.=.>.>.>.>.>.-.=.-.>.*.*.=.&.-.+.> Y ^ ! o.Q o.#.. SXSXSXSXSXSXSXSXSX",
"SXSXSXSXSXSXSXSXSXSXSXSXSXSXSXSXSXSXSXSXSXSXSXSXSXSXSXSXY cX,.eX>.>.>.:.>.>.-.-.>.:.>.<.:.>.>.wXqX-.<.' : Y / ! ! ! ! W g SXSXSXSXSXSXSXSXSX",
"SXSXSXSXSXSXSXSXSXSXSXSXSXSXSXSXSXSXSXSXSXSXSXSXSXSXSXcXo.zX,.-.,.-.:.>.qX>.>.>.:.>.>.<.>.>.>.>.-.-.:.R ; W / ! W ! / Y ~ SXSXSXSXSXSXSXSXSX",
"SXSXSXSXSXSXSXSXSXSXSXSXSXSXSXSXSXSXSXSXSXSXSXSXSXSXSX<.<.gX=.eX-.>.>.>.>.>.>.:.>.>.=.>.wX*.:.>.=.qX#.W ; ~ Q ! ~ ! o.1 pXSXSXSXSXSXSXSXSXSX",
"SXSXSXSXSXSXSXSXSXSXSXSXSXSXSXSXSXSXSXSXSXSXSXSXSXSXSX' aXfX=.-.-.,.>.>.>.>.>.-.>.>.>.>.>.>.:.>.>.qX#.Y , O.E ! ~ ! o.X SXSXSXSXSXSXSXSXSXSX",
"SXSXSXSXSXSXSXSXSXSXSXSXSXSXSXSXSXSXSXSXSXSXSXSXSXSXSXY sXsX:.-.-.-.-.>.>.>.>.>.>.,.>.>.>.>.:.<.-.wXO.U k ~ Q ! ~ ! o.  SXSXSXSXSXSXSXSXSXSX",
"SXSXSXSXSXSXSXSXSXSXSXSXSXSXSXSXSXSXSXSXSXSXSXSXSXSXSXY pXpX>.>.,.>.,.>.>.>.>.:.>.:.=.>.>.:.<.*.*.eXO.< l ~ Q ! W ! o.X SXSXSXSXSXSXSXSXSXSX",
"SXSXSXSXSXSXSXSXSXSXSXSXSXSXSXSXSXSXSXSXSXSXSXSXSXSXSXSX  W ^ #.#.&.,.,.<.,.wXwX>.,.:.>.>.<.>.>.-.>.o., T ' Q ! ~ ! ! 1 SXSXSXSXSXSXSXSXSXSX",
"SXSXSXSXSXSXSXSXSXSXSXSXSXSXSXSXSXSXSXSXSXSXSXSXSXSXSXSXSXY.' 1 = % X O = , Y E +.#.#.#.&.=.>.>.qXwXo.k W ~ Q ! ! W / < SXSXSXSXSXSXSXSXSXSX",
"SXSXSXSXSXSXSXSXSXSXSXSXSXSXSXSXSXSXSXSXSXSXSXSXSXSXSXSXSXSXSXSXSXSXSXSXSXjXY.O.; h N Y <   O 2 > , , X U / o.' ' #.1 %.SXSXSXSXSXSXSXSXSXSX",
"SXSXSXSXSXSXSXSXSXSXSXSXSXSXSXSXSXSXSXSXSXSXSXSXSXSXSXSXSXSXSXSXSXSXSXSXSXSXSXSXo F C # Y.SXSXSXsXuXuX..k k k - % % X SXSXSXSXSXSXSXSXSXSXSX",
"SXSXSXSXSXSXSXSXSXSXSXSXSXSXSXSXSXSXSXSXSXSXSXSXSXSXSXSXSXSXSXSXSXSXSXSXSXSXSXSX# i.u.3 SXSXSXSXSXSXSXSXSXSXSXSXSXSXSXSXSXSXSXSXSXSXSXSXSXSX",
"SXSXSXSXSXSXSXSXSXSXSXSXSXSXSXSXSXSXSXSXSXSXSXSXSXSXSXSXSXSXSXSXSXSXSXSXSXSXSX#.y i.A 4 SXSXSXSXSXSXSXSXSXSXSXSXSXSXSXSXSXSXSXSXSXSXSXSXSXSX",
"SXSXSXSXSXSXSXSXSXSXSXSXSXSXSXSX  SXSXSXSXSXSXSXSXSXSXSXSXSXSXSXSXSXSXlX_.F.A.z 6 0 j   SXSXSXSXSXSXSXSXSXSXSXSXSXSXSXSXSXSXSXSXSXSXSXSXSXSX",
"SXSXSXSXSXSXSXSXSXSXSXSXSXSXSX(.T.SXSXSXSXSXSXSXSXSXSXSXSXSXSXSXSXSX] /.,XmXC.v F.<X$X^.$.uXpXSXSXSXSXSXSXSXSXSXSXSXSXSXSXSXSXSXSXSXSXSXSXSX",
"SXSXSXSXSXSXSXSXSXSXSXSXSXSXSX).(.SXSXSXSXSXSXSXSXSXSXSXSXSXSXSXuXNX$.%X4X%XI.w P.}.}.3XL.  # ' SXSXSXSXSXSXSXSXSXSXSXSXSXSXSXSXSXSXSXSXSXSX",
"SXSXSXSXSXSXSXSXSXSXSXSXSXSXn VX..SXSXSXSXSXSXSXSXSXSXSXSXSXSX'.(.Q.Q.4 R.I.B.@ ` F u.D j V $.= $.SXSXSXSXSXSXSXSXSXSXSXSXSXSXSXSXSXSXSXSXSX",
"SXSXSXSXSXSXSXSXSXSXSXSXSXB ^.ZXS.SXSXSXSX).g SXSXSXSXSXSXSX~.VXG Q.Q.Q.u F.C 0 &X4X3X,X` l %.=.  pXSXSXSXSXSXSXSXSXSXSXSXSXSXSXSXSXSXSXSXSX",
"SXSXSXSXSXSXSXSXSXSXSXSXSXn <XCXnXO.SXSXO., O.;   +.vXSXSXbX'.ZXS Q.Q.Q.Q.+ R.C.{.[.!.$XG Y Y.tX&.  SXSXSXSXSXSXSXSXSXSXSXSXSXSXSXSXSXSXSXSX",
"SXSXSXSXSXSXSXSXSXSXSXSXSX` <X<XZXnXF.@ . Y.aXcXcXuXR Y #.] AX0X/.Y.Q.Q.Q.Q.e ` H e.u.w g ' iXzXiX#.  SXSXSXSXSXSXSXSXSXSXSXSXSXSXSXSXSXSXSX",
"SXSXSXSXSXSXSXSXSXSXSXSXSX6 nX X:X0XCXnX).Y aXzXzXbXcXU.' W F.<X<X  Q.Q.Q.] &XN.*X8X,XF.1 $.iXxXfXiX'   SXSXSXSXSXSXSXSXSXSXSXSXSXSXSXSXSXSX",
"SXSXSXSXSXSXSXSXSXSXSXSXSXY.A &X XoX,XCXZXr Y O.o.o.R | #.E   K g.rXQ.Q.Q.0 &Xf.{.}.}.C.1 %.<.xXdXfXiXR . SXSXSXSXSXSXSXSXSXSXSXSXSXSXSXSXSX",
"SXSXSXSXSXSXSXSXSXSXSXSXSXSXT.` '.<X/.'.L.h : V T B T T T / / - % rXQ.Q.Q.Q.  i.F Z D w #.<.>.iXdXfXgXwXT ; SXSXSXSXSXSXSXSXSXSXSXSXSXSXSXSX",
"SXSXSXSXSXSXSXSXSXSXSXSXSXSXSX$.  ' _ ) T $.=.:.' NXY.$.U.| pXNXT ..  Q.Q.Q.4 x x w k / #.,.>.=.aXfXfXxXwXk O.SXSXSXSXSXSXSXSXSXSXSXSXSXSXSX",
"SXSXSXSXSXSXSXSXSXSXSXSXSXSXO.] $.$.2.NX%.2.#.! U #.W U Y N Y <.U $.T T %.l A c i.6 l ~ o.-.>.:.,.dXfXfXlXO.^ SXSXSXSXSXSXSXSXSXSXSXSXSXSXSX",
"SXSXSXSXSXSXSXSXSXSXSXSXSX  vXrX^ #.E W k 1 k T ( C ` ] ] N.` 6 D U + $.Q.z d d A r h W / #.,.,.=.iXgXjXY.w B SXSXSXSXSXSXSXSXSXSXSXSXSXSXSX",
"SXSXSXSXSXSXSXSXSXSXSXSX) g pX$.O 2 Y D H P.`.L.L.$X,X7X7X3X8X,X'.N.@ Q.Q.# A e.7 T.NX  < k #.:.&.#.$.R M *Xi.SXSXSXSXSXSXSXSXSXSXSXSXSXSXSX",
"SXSXSXSXSXSXSXSXSXSXSXSXY.+ 1 $ A.*X<X].m.7X`.3.d.r.y.H.%X8X$Xf.d.C.y Q.Q.# u.e.u R pXF V.H j % F i.e.^.OX7X$X' SXSXSXSXSXSXSXSXSXSXSXSXSXSX",
"SXSXSXSXSXSXSXSXSXSXSXSXSX$.x mX-XW.M.x.E.8XL.9 8.s.q.a.6.BXA.9.q.9.7 Q.Q.4 e.e.e u ^.8X7X6X:X^.f.K.|.2X+X+X,Xu SXSXSXSXSXSXSXSXSXSXSXSXSXSX",
"SXSXSXSXSXSXSXSXSXSXSXSXSX' H &Xi.L.^.[.;X}.I.H.e.p y 3.5 ` N.9 a v ( Q.Q.9 e.u.4 J.4X@X2X=X1X5X:X|.5X;X;X.X7X`.).SXSXSXSXSXSXSXSXSXSXSXSXSX",
"SXSXSXSXSXSXSXSXSXSXSXSXY.q Z e.L._ `.7X=X=Xm.k.p.B , N.N.R._._ # N.H Q.N d Z b 4 K.4X%X-X8X=X1X1XOX1X1X1X.XMXF.:.SXSXSXSXSXSXSXSXSXSXSXSXSX",
"SXSXSXSXSXSXSXSXSXSXSX%.t.P.k.d H.k.E.9X+X4X}.j.a.u.&X3X;XMXMXMXL.B.R.Q.& i e.D e E.;X,X>X1XOXOX@X@XOX@X:X8X^.( SXSXSXSXSXSXSXSXSXSXSXSXSXSX",
"SXSXSXSXSXSXSXSXSXbXp.|.-XM.K.f.B.%X}.E.H.B.{.-X{.y.^.}.a.K.^.^.u.R.A.*.x 3.e.j m m..X6X:X1X5X%X}.3X-X-X8XH.$.SXSXSXSXSXSXSXSXSXSXSXSXSXSXSX",
"SXSXSXSXSXSXSX(.C. X7X1X#XXXK.p.9.a.q.w.q.0.5.C.A.p 7 e.a p d y a 6.x 6 p d t.e A K.!.|..X.X`.V.$X2X5X8Xt.SXSXSXSXSXSXSXSXSXSXSXSXSXSXSXSXSX",
"SXSXSXSXSXT.J.%X4X7X:X1X2XXXd.e.s.x.c.x.c.c.c.d.5 4.s.w.0.s.d.4.s.a.Z j s 4.r.q C.m.l.j.h.A F $X5X5X|.u SXSXSXSXSXSXSXSXSXSXSXSXSXSXSXSXSXSX",
"SXSXSX%.k.1X+X+X+X-X3X:X4X].r.r.c.v.x.x.c.x.c.d.7.c.c.c.x.w.9 r.c.n.a.6 d m e.6 A.C.t.F B.`.,X7X8XW.D SXSXSXSXSXSXSXSXSXSXSXSXSXSXSXSXSXSXSX",
"SXSX#.`.mX+X#X1X1X2X3X6X%XK.c r.n.v.x.0.q.x.s.f a.x.q.a.3.p s a 4.q.d.q m m Z 6 v e.f.BXmX9X7X Xt.<.SXSXSXSXSXSXSXSXSXSXSXSXSXSXSXSXSXSXSXSX",
"SXSXy MX:X:X>X6X3X.X:X:X=XE.Z 4.n.x.x.q.q.c.w.a d.a.i 8 a d.a.9.5.a p w A e.s b m.M.XX9X.XE.y.Y.SXSXSXSXSXSXSXSXSXSXSXSXSXSXSXSXSXSXSXSXSXSX",
"SXpX8..X1X>X>X-X;X1X:X1X+X=XJ.y a.c.c.x.x.v.w.a e.9 f w.0.c.s.n.q.7.z x A t.p j K.h.9.H.Y.SXSXSXSXSXSXSXSXSXSXSXSXSXSXSXSXSXSXSXSXSXSXSXSXSX",
"SXSX5.E.=X>X>X;X+X-X1X1X1X%Xk.y b 4.8.s.n.c.s.9 x 4.d.n.x.0.a.r.d B.j 3 p c e ` x Y.SXSXSXSXSXSXSXSXSXSXSXSXSXSXSXSXSXSXSXSXSXSXSXSXSXSXSXSX",
"SXSX4 P.K.OX2X+X+X+X2XOX1X%X].{.W.H.e.c 8.8.6.- r C e.b d d b 8 v A.V.C.C.N.3 A.5 SXSXSXSXSXSXSXSXSXSXSXSXSXSXSXSXSXSXSXSXSXSXSXSXSXSXSXSXSX",
"SXSXSXu J.l.!.oX+X2X1XOX@X+X+X2X4X=X$Xl 1 g z T Q Y Y Y Y W W z $X@X8X5X5X8XnXj $.SXSXSXSXSXSXSXSXSXSXSXSXSXSXSXSXSXSXSXSXSXSXSXSXSXSXSXSXSX",
"SXSXSXSX` p.h.k.k.^.}..X+X+X+X.X+X4XP.> Y = T O.o.o.2.2.^ ^ W C 6X#X|.|.|.{.R.+ SXSXSXSXSXSXSXSXSXSXSXSXSXSXSXSXSXSXSXSXSXSXSXSXSXSXSXSXSXSX",
"SXSXSXSXSX  F B.p.d.].-X3X=X=X3X3X:Xx ) I Y Y.:.eX>.*.<.,.eXU v 8X|.}.P.H.p.i.j SXSXSXSXSXSXSXSXSXSXSXSXSXSXSXSXSXSXSXSXSXSXSXSXSXSXSXSXSXSX",
"SXSXSXSXSX8 v H.E.l.|.4X4X3X=X:X7X^.U ' > $.*.eXeX:.*.>.;.,.o.g $X4X4X8X8X7X8Xu SXSXSXSXSXSXSXSXSXSXSXSXSXSXSXSXSXSXSXSXSXSXSXSXSXSXSXSXSXSX",
"SXSXSXSXSX_ V.p h.m.E.{.^.3X4X-X7XH.T ' I &.<.wXyXqXwX,.1.1.$.& S.7X}. X].].f.N SXSXSXSXSXSXSXSXSXSXSXSXSXSXSXSXSXSXSXSXSXSXSXSXSXSXSXSXSXSX",
"SXSXSXSXSXkXi R.p H.K.E.k.C.&XnX8XJ.$.Y.I aXzXgXgXzXzXzXfX,.-.W & &X%XK.C.I.A.Y.SXSXSXSXSXSXSXSXSXSXSXSXSXSXSXSXSXSXSXSXSXSXSXSXSXSXSXSXSXSX",
"SXSXSXSXSXSXe L.H.g i.l.E.h.e.V._.D.O.rX> tXzXgXgXgXsXsXaX-.eXO.k H 8X3X=X3X^.%.SXSXSXSXSXSXSXSXSXSXSXSXSXSXSXSXSXSXSXSXSXSXSXSXSXSXSXSXSXSX",
"SXSXSXSXSXSX..i t.t.A C p.K.E.j.a.e.z U.! < <.wX<.,.,.>.;.;.-.Q ' : i.L.H.p.+ SXSXSXSXSXSXSXSXSXSXSXSXSXSXSXSXSXSXSXSXSXSXSXSXSXSXSXSXSXSXSX",
"SXSXSXSXSXSX_ /.!.M.!.M.9.Z i.I.E.W.i.( O.= E =.&.&.@.o.o.o.E E Y T % e 3 ` p SXSXSXSXSXSXSXSXSXSXSXSXSXSXSXSXSXSXSXSXSXSXSXSXSXSXSXSXSXSXSX",
"SXSXSXSXSXSX) h.M.b.b.b.M.j.y.e.c u.N.8 k k : l B k k l j A A H e e v t.7 L.m SXSXSXSXSXSXSXSXSXSXSXSXSXSXSXSXSXSXSXSXSXSXSXSXSXSXSXSXSXSXSX",
"SXSXSXSXSXSXSX5 y.t.t.y.y.a.h.h.y.i.i.g.F D G D F S i.i.i.y.f.f.q m t.A q F $ SXSXSXSXSXSXSXSXSXSXSXSXSXSXSXSXSXSXSXSXSXSXSXSXSXSXSXSXSXSXSX",
"SXSXSXSXSXSXSX  _ J B B J N B D D D D D F D J G D D D D D D D D 6 s A C g 0 Y.SXSXSXSXSXSXSXSXSXSXSXSXSXSXSXSXSXSXSXSXSXSXSXSXSXSXSXSXSXSXSX",
"SXSXSXSXSXSXSX# D. . . . . .} }  .}  .} } X.X.X. .} } [ } .. ...G h N r _ 6 SXSXSXSXSXSXSXSXSXSXSXSXSXSXSXSXSXSXSXSXSXSXSXSXSXSXSXSXSXSXSXSX",
"SXSXSXSXSXSXSX  X.{  .{ ..{  . .{ [ { [ { B r * V N h N [  . .{ ....} V.[ Y SXSXSXSXSXSXSXSXSXSXSXSXSXSXSXSXSXSXSXSXSXSXSXSXSXSXSXSXSXSXSXSX",
"SXSXSXSXSXSXSX: _  .[ [ {  .[ [ { N h k o | SXSX+ l G }  .{ G { { [ _ ..  SXSXSXSXSXSXSXSXSXSXSXSXSXSXSXSXSXSXSXSXSXSXSXSXSXSXSXSXSXSXSXSXSX",
"SXSXSXSXSXSXSXSX  2.V N B [ V N R G V $ W SXSXSXSX  B _ G V N R _ V V r ) SXSXSXSXSXSXSXSXSXSXSXSXSXSXSXSXSXSXSXSXSXSXSXSXSXSXSXSXSXSXSXSXSX",
"SXSXSXSXSXSXSXSX) $ h h & w : g & h * ) SXSXSXSXSXSX@ ; & : : ; & : N   SXSXSXSXSXSXSXSXSXSXSXSXSXSXSXSXSXSXSXSXSXSXSXSXSXSXSXSXSXSXSXSXSXSX",
"SXSXSXSXSXSXSXSX: V.F.S.S.Z.Z.Z.S.F.0 ).SXSXSXSXSXSX$ V.V.V.} V.} V.S.q SXSXSXSXSXSXSXSXSXSXSXSXSXSXSXSXSXSXSXSXSXSXSXSXSXSXSXSXSXSXSXSXSXSX",
"SXSXSXSXSXSXSXSX  ` K G K K L K K G + uXSXSXSXSXSXSX. D.K K g.Z.Z.} Z.@ SXSXSXSXSXSXSXSXSXSXSXSXSXSXSXSXSXSXSXSXSXSXSXSXSXSXSXSXSXSXSXSXSXSX",
"SXSXSXSXSXSXSXSX%.+ h B N r r r $   ).SXSXSXSXSXSXSX' + B K K K 0 o @ 0 U.hXSXSXSXSXSXSXSXSXSXSXSXSXSXSXSXSXSXSXSXSXSXSXSXSXSXSXSXSXSXSXSXSX",
"SXSXSXSXSXSXSXSXSX# S.S.S.F./.F.~.S.X.).SXSXSXSXSXSXSX3 _././.Z.} S.~.~.G.g.g.@ SXSXSXSXSXSXSXSXSXSXSXSXSXSXSXSXSXSXSXSXSXSXSXSXSXSXSXSXSXSX",
"SXSXSXSXSXSXSXSXSX  C S S S S S S S K . Y SXSXSXSXSXSX  J n n n J J J n J S H X SXSXSXSXSXSXSXSXSXSXSXSXSXSXSXSXSXSXSXSXSXSXSXSXSXSXSXSXSXSX",
"SXSXSXSXSXSXSXSXSXSXSXjXkXjXjXjXlXjXkXSXSXSXSXSXSXSXSXSX).hXhXhXjXjXlXlXlXkXlXSXSXSXSXSXSXSXSXSXSXSXSXSXSXSXSXSXSXSXSXSXSXSXSXSXSXSXSXSXSXSX",
"SXSXSXSXSXSXSXSXSXSXSXSXSXSXSXSXSXSXSXSXSXSXSXSXSXSXSXSXSXSXSXSXSXSXSXSXSXSXSXSXSXSXSXSXSXSXSXSXSXSXSXSXSXSXSXSXSXSXSXSXSXSXSXSXSXSXSXSXSXSX"
};
