/* XPM */
static char *result[] = {
/* columns rows colors chars-per-pixel */
"70 70 245 2 ",
"   c #000000",
".  c #0C0001",
"X  c #1D0000",
"o  c #130002",
"O  c #1D0016",
"+  c #230000",
"@  c #2A0202",
"#  c #3A0100",
"$  c #320400",
"%  c #3A1900",
"&  c #26061A",
"*  c #2B1A0F",
"=  c #322217",
"-  c #300C2A",
";  c #372727",
":  c #3B3639",
">  c #322832",
",  c #420000",
"<  c #4D0000",
"1  c #580000",
"2  c #471500",
"3  c #551B07",
"4  c #690F00",
"5  c #482604",
"6  c #582803",
"7  c #573606",
"8  c #462516",
"9  c #562A14",
"0  c #47351C",
"q  c #59371C",
"w  c #46330D",
"e  c #682A05",
"r  c #672D17",
"t  c #792D16",
"y  c #69361A",
"u  c #753917",
"i  c #713106",
"p  c #442924",
"a  c #493628",
"s  c #573727",
"d  c #463939",
"f  c #523B33",
"g  c #573D37",
"h  c #512F24",
"j  c #683826",
"k  c #763C25",
"l  c #65382D",
"z  c #5E4509",
"x  c #654A07",
"c  c #744400",
"v  c #7B411C",
"b  c #6D5501",
"n  c #47432C",
"m  c #57462C",
"M  c #4D443B",
"N  c #5B4C3A",
"B  c #584935",
"V  c #5F523D",
"C  c #63432A",
"Z  c #664827",
"A  c #774429",
"S  c #674A35",
"D  c #784A35",
"F  c #695437",
"G  c #755539",
"H  c #6F5329",
"J  c #7E6128",
"K  c #353643",
"L  c #513B4A",
"P  c #3D4852",
"I  c #4B484A",
"U  c #55484A",
"Y  c #5B5644",
"T  c #554B54",
"R  c #585558",
"E  c #4A4F59",
"W  c #654C43",
"Q  c #665749",
"!  c #755845",
"~  c #675B58",
"^  c #724B42",
"/  c #6B644A",
"(  c #75664A",
")  c #696258",
"_  c #776A55",
"`  c #767354",
"'  c #5B5761",
"]  c #695E68",
"[  c #6B6464",
"{  c #6C656A",
"}  c #6C6A6D",
"|  c #676466",
" . c #766A67",
".. c #79726C",
"X. c #756E76",
"o. c #6B7377",
"O. c #6D747A",
"+. c #6F7878",
"@. c #737476",
"#. c #7A7373",
"$. c #73757B",
"%. c #75797D",
"&. c #78777A",
"*. c #656A73",
"=. c #840C00",
"-. c #852A04",
";. c #873A05",
":. c #973903",
">. c #883D14",
",. c #933B1B",
"<. c #823C26",
"1. c #A83600",
"2. c #894218",
"3. c #9D4819",
"4. c #894905",
"5. c #A6470B",
"6. c #B94A00",
"7. c #BC570B",
"8. c #A84915",
"9. c #BD5515",
"0. c #B3551A",
"q. c #BA5819",
"w. c #AE541A",
"e. c #864927",
"r. c #994924",
"t. c #94572C",
"y. c #844A3A",
"u. c #8A5435",
"i. c #955738",
"p. c #8E522E",
"a. c #B75A27",
"s. c #AA552C",
"d. c #9A663C",
"f. c #916B33",
"g. c #A6663B",
"h. c #B86838",
"j. c #B97439",
"k. c #AE6C2B",
"l. c #C65608",
"z. c #C35414",
"x. c #CA5413",
"c. c #C65818",
"v. c #C55E27",
"b. c #C47234",
"n. c #C46018",
"m. c #885C45",
"M. c #985F44",
"N. c #896646",
"B. c #976747",
"V. c #93794A",
"C. c #896957",
"Z. c #8A7859",
"A. c #977A55",
"S. c #8E6C53",
"D. c #A76845",
"F. c #A87645",
"G. c #B77744",
"H. c #A56E56",
"J. c #A87957",
"K. c #B57A56",
"L. c #B66B43",
"P. c #886D64",
"I. c #88736A",
"U. c #877A75",
"Y. c #9C7B62",
"T. c #A95842",
"R. c #C37C47",
"E. c #C47B55",
"W. c #D17A41",
"Q. c #DD833D",
"!. c #9D8354",
"~. c #A8855B",
"^. c #BC8B59",
"/. c #B9824D",
"(. c #9B8265",
"). c #948579",
"_. c #8F8377",
"`. c #AA8868",
"'. c #B58663",
"]. c #B39270",
"[. c #CA874B",
"{. c #CC8B54",
"}. c #C7895A",
"|. c #D48D58",
" X c #C8965C",
".X c #DA9354",
"XX c #D9995A",
"oX c #D18248",
"OX c #E59F5C",
"+X c #E38F4E",
"@X c #CFA45D",
"#X c #E7A35A",
"$X c #E6A44E",
"%X c #C68E67",
"&X c #C9966B",
"*X c #DA9A64",
"=X c #D89868",
"-X c #C79974",
";X c #D49B75",
":X c #D78E63",
">X c #E59D66",
",X c #CCA469",
"<X c #DCA26C",
"1X c #D9A666",
"2X c #CFAD74",
"3X c #E3A264",
"4X c #EBA464",
"5X c #E3A36B",
"6X c #ECA56A",
"7X c #E8AC68",
"8X c #F1A367",
"9X c #EAAA72",
"0X c #E5A878",
"qX c #EEB26C",
"wX c #6C7987",
"eX c #7B7C83",
"rX c #797782",
"tX c #857A86",
"yX c #7D8286",
"uX c #718190",
"iX c #86898D",
"pX c #888789",
"aX c #958A86",
"sX c #898C94",
"dX c #938A92",
"fX c #8B9091",
"gX c #979697",
"hX c #9A918F",
"jX c #A4958C",
"kX c #A59B8C",
"lX c #A89889",
"zX c #A69A97",
"xX c #A18F87",
"cX c #AAA496",
"vX c #979AA7",
"bX c #A09DA0",
"nX c #A9A6A4",
"mX c #B6ACA9",
"MX c #D2B388",
"NX c #C5B1A6",
"BX c #EFB683",
"VX c #E8C693",
"CX c #ECCC96",
"ZX c #B8BFC1",
"AX c None",
/* pixels */
"AXAXAXAXAXAXAXAXAXAXAXAXAXAXAXAXAXAXAXAXAXAXAXAXAXAXAXAXAXAXAXAXAXAXAXAXAXAXAXAXAXAXAXAXAXAXAXAXAXAXAXAXAXAXAXAXAXAXAXAXAXAXAXAXAXAXAXAXAXAX",
"AXAXAXAXAXAXAXAXAXAXAXAXAXAXAXAXAXAXAXAXAXAXAXAXAXAXAXAXAXAXAXAXAXAXAXAXAXAXAXAXAXAXAXAXAXAXAXAXAXAXAXAXAXAXAXAXAXAXAXAXAXAXAXAXAXAXAXAXAXAX",
"AXAXAXAXAXAXAXAXAXAXAXAXAXAXAXAXAXAXAXAXAXAXAXAXAXAXAXAXAXAXAXAXAXAXAXAXAXAXAXAXAXAXAXAXAXAXAXAXAXAXAXAXAXAXAXAXAXAXAXAXAXAXAXAXAXAXAXAXAXAX",
"AXAXAXAXAXAXAXAXAXAXAXAXAXAXAXAXAXAXAXAXAXAXAXAXAXAXAXAXAXAXAXAXAXAXAXAXAXAXAXAXAXAXAXAXAXAXAXAXAXAXAXAXAXAXAXAXAXAXAXAXAXAXAXAXAXAXAXAXAXAX",
"AXAXAXAXAXAXAXAXAXAXAXAXAXAXAXAXAXAXAXAXAXAXAXAXAXAXAXAXAXAXAXAXAXAXAXAXAXAXAXAXAXAXAXAXAXAXAXAXAXAXAXAXAXAXAXAXAXAXAXAXAXAXAXAXAXAXAXAXAXAX",
"AXAXAXAXAXAXAXAXAXAXAXAXAXAXAXAXAXAXAXAXAXAXAXAXAXAXAXAXAXAXAXAXAXAXAXAXAXAXAXAXAXAXAXAXAXAXAXAXAXAXAXAXAXAXAXAXAXAXAXAXAXAXAXAXAXAXAXAXAXAX",
"AXAXAXAXAXAXAXAXAXAXAXAXAXAXAXAXAXAXAXAXAXAXAXAXAXAXAXAXAXAXAXAXAXAXAXAXAXAXAXAXAXAXAXAXAXAXAXAXAXAXAXAXAXAXAXAXAXAXAXAXAXAXAXAXAXAXAXAXAXAX",
"AXAXAXAXAXAXAXAXAXAXAXAXAXAXAXAXAXAXAXAXAXAXAXAXAXAXAXAXAXAXAXAXAXAXAXAXAXAXAXAXAXAXAXAXAXAXAXAXAXAXAXAXAXAXAXAXAXAXAXAXAXAXAXAXAXAXAXAXAXAX",
"AXAXAXAXAXAXAXAXAXAXAXAXAXAXAXAXAXAXAXAXAXAXAXAXAXAXAXAXAXAXAXAXAXAXAXAXAXAXAXAXAXAXAXAXAXAXAXAXAXAXAXAXAXAXAXAXAXAXAXAXAXAXAXAXAXAXAXAXAXAX",
"AXAXAXAXAXAXAXAXAXAXAXAXAXAXAXAXAXAXAXAXAXAXAXAXAXAXAXAXAXAXAXAXAXAXAXAXAXAXAXAXAXAXAXAXAXAXAXAXAXAXAXAXAXAXAXAXAXAXAXAXAXAXAXAXAXAXAXAXAXAX",
"AXAXAXAXAXAXAXAXAXAXAXAXAXAXAXAXAXAXAXAXAXAXAXAXAXAXAXAXAXAXAXAXAXAXAXAXAXAXAXAXAXAXAXAXAXAXAXAXAXAXAXAXAXAXAXAXAXAXAXAXAXAXAXAXAXAXAXAXAXAX",
"AXAXAXAXAXAXAXAXAXAXAXAXAXAXAXAXAXAXAXAXAXAXAXAXAXAXAXAXAXAXAXAXAXAXAXAXAXAXAXAXAXAXAXAXAXAXAXAXAXAXAXAXAXAXAXAXAXAXAXAXAXAXAXAXAXAXAXAXAXAX",
"AXAXAXAXAXAXAXAXAXAXAXAXAXAXAXAXAXAXAXAXAXAXAXAXAXAXAXAXAXAXAXAXAXAXAXAXAXAXAXAXAXAXAXAXAXAXAXAXAXAXAXAXAXAXAXAXAXAXAXAXAXAXAXAXAXAXAXAXAXAX",
"AXAXAXAXAXAXAXAXAXAXAXAXAXAXAXAXAXAXAXAXAXAXAXAXAXAXAXAXAXAXAXAXAXAXAXAXAXAXAXAXAXAXAXAXAXAXAXAXAXAXAXAXAXAXAXAXAXAXAXAXAXAXAXAXAXAXAXAXAXAX",
"AXAXAXAXAXAXAXAXAXAXAXAXAXAXAXAXAXAXAXAXAXAXAXAXAXAXAXAXAXAXAXAXAXAXAXAXAXAXAXAXAXAXAXAXAXAXAXAXAXAXAXAXAXAXAXAXAXAXAXAXAXAXAXAXAXAXAXAXAXAX",
"AXAXAXAXAXAXAXAXAXAXAXAXAXAXAXAXAXAXAXAXAXAXAXAXAXAXAXAXAXAXAXAXAXAXAXAXAXAXAXAXAXAXAXAXAXAXAXAXAXAXAXAXAXAXAXAXAXAXAXAXAXAXAXAXAXAXAXAXAXAX",
"AXAXAXAXAXAXAXAXAXAXAXAXAXAXAXAXAXAXAXAXAXAXAXAXAXAXAXAXAXAX8 AXAXAXAXAXAXAXAXAXAXAXAXAXAXAXAXAXAXAXAXAXAXAXAXAXAXAXAXAXAXAXAXAXAXAXAXAXAXAX",
"AXAXAXAXAXAXAXAXAXAXAXAXAXAXAXAXAXAXAXAXAXAXAXAXAXAXAXAXAX).U.AXAXAXAXAXAXAXAXAXAXAXAXAXAXAXAXAXAXAXAXAXAXAXAXAXAXAXAXAXAXAXAXAXAXAXAXAXAXAX",
"AXAXAXAXAXAXAXAXAXAXAXAXAXAXAXAXAXAXAXAXAXAXAXAXAXAXAXAX(.(.AXAXAXAXAXAXAXAXAXAXAXAXAXAXAXAXAXAXAXAXAXAXAXAXAXAXAXAXAXAXAXAXAXAXAXAXAXAXAXAX",
"AXAXAXAXAXAXAXAXAXAXAXAXAXAXAXAXAXAXAXAXAXAXAXAXAXAXAXI.MXxXAXAXAXAXAXAXAXAXAXAXAXAXAXAXAXAXAXAXAXAXAXAXAXAXAXAXAXAXAXAXAXAXAXAXAXAXAXAXAXAX",
"AXAXAXAXAXAXAXAXAXAXAXAXAXAXAXAXAXAXAXAXAXAXAXAXAXAX).~.VXkXAXAXAXAXAXAXAXAXAXAXAXAXAXAXAXAXAXAXAXAXAXAXAXAXAXAXAXAXAXAXAXAXAXAXAXAXAXAXAXAX",
"AXAXAXAXAXAXAXAXAXAXAXAXAXAXAXAXAXAXAXAXAXAXAXAXAXAXG MXMXaXAXAXAXAXAXAXAXAXAXAXAXAXAXAXAXAXAXAXAXAXAXAXAXAXAXAXAXAXAXAXAXAXAXAXAXAXAXAXAXAX",
"AXAXAXAXAXAXAXAXAXAXAXAXAXAXAXAXAXAXAXAXAXAXAXAXAXAXf.2XVX(.zX{ @ o AXAXAXAXAXkXI.AXAXAXAXAXAXAXAXAXAXAXAXAXAXAXAXAXAXAXAXAXAXAXAXAXAXAXAXAX",
"AXAXAXAXAXAXAXAXAXAXAXAXAXAXAXAXAXAXAXAXAXAXAXAXAXAXf.,X2XCXm L dX&.  AXAXAXcX].NXAXAXAXAXAXAXAXAXAXAXAXAXAXAXAXAXAXAXAXAXAXAXAXAXAXAXAXAXAX",
"AXAXAXAXAXAXAXAXAXAXAXAXAXAXAXAXAXAXAXAXAXAXAXAXAXAXZ ,X,XMXVXQ gXZXnX& AXzXMX].AXAXAXAXAXAXAXAXAXAXAXAXAXAXAXAXAXAXAXAXAXAXAXAXAXAXAXAXAXAX",
"AXAXAXAXAXAXAXAXAXAXAXAXAXAXAXAXAXAXAXAXAXAXAXAXAXAX).B.,X2X2XY  .pXvXdX  lXCXf.AXAXAXAXAXAXAXAXAXAXAXAXAXAXAXAXAXAXAXAXAXAXAXAXAXAXAXAXAXAX",
"AXAXAXAXAXAXAXAXAXAXAXAXAXAXAXAXAXAXAXAXAXAXAXAXAXAX..; G G D = d L E o.) C.MXf.AXAXAXAXAXAXAXAXAXAXAXAXAXAXAXAXAXAXAXAXAXAXAXAXAXAXAXAXAXAX",
"AXAXAXAXAXAXAXAXAXAXAXAXAXAXAXAXAXAXAXAXAXAXAXAX; @.} [ dXdX] wX} ..N M d p A._ AXAXAXAXAXAXAXAXAXAXAXAXAXAXAXAXAXAXAXAXAXAXAXAXAXAXAXAXAXAX",
"AXAXAXAXAXAXAXAXAXAXAXAXAXAXAXAXAXAXAXAXAXAXAX; ) cX' L #.tXT ] | nX) ..| U   AXAXAXAXAXAXAXAXAXAXAXAXAXAXAXAXAXAXAXAXAXAXAXAXAXAXAXAXAXAXAX",
"AXAXAXAXAXAXAXAXAXAXAXAXAXAXAXAXAXAXAXAXAXAXAX .# . p g 5 + f g = > T R pXcXf aXAXAXAXAXAXAXAXAXAXAXAXAXAXAXAXAXAXAXAXAXAXAXAXAXAXAXAXAXAXAX",
"AXAXAXAXAXAXAXAXAXAXAXAXAXAXAXAXAXAXAXAXAXAXAXAXc -X&X-X%X-XJ.C.`.N.W ; d ~ { L AXAXAXAXAXAXAXAXAXAXAXAXAXAXAXAXAXAXAXAXAXAXAXAXAXAXAXAXAXAX",
"AXAXAXAXAXAXAXAXAXAXAXAXAXAXAXAXAXAXAXAXAXAXAXU.,XqX*X[.[.<Xi.u.K.0X<X^.N.a T + AXAXAXAXAXAXAXAXAXAXAXAXAXAXAXAXAXAXAXAXAXAXAXAXAXAXAXAXAXAX",
"AXAXAXAXAXAXAXAXAXAXAXAXAXAXAXAXAXAXAXAXAXAXAXe '.F.g.k.6XK.4 a.:.D.9X9X0XS.  AXAXAXAXAXAXAXAXAXAXAXAXAXAXAXAXAXAXAXAXAXAXAXAXAXAXAXAXAXAXAX",
"AXAXAXAXAXAXAXAXAXAXAXAXAXAXAXAXAXAXAXAXAXP.u m.u.H.=X$X>X}.p.>.h.,.%XH.M.>.aXAXAXAXAXAXAXAXAXAXAXAXAXAXAXAXAXAXAXAXAXAXAXAXAXAXAXAXAXAXAXAX",
"AXAXAXAXAXAXAXAXAXAXAXAXAXAXAXI.V.d.G.G.{.{.G.p.i.e.&X7XW.L.M.p e u.].M.s.=.AXAXAXAXAXAXAXAXAXAXAXAXAXAXAXAXAXAXAXAXAXAXAXAXAXAXAXAXAXAXAXAX",
"AXAXAXAXAXAXAXAXAXAXAXAXAXU.k.XXqXqX7X7XqXXXj.d.K.:X1X5X.XD.D s 3 7 H.j e ! AXAXAXAXAXAXAXAXAXAXAXAXAXAXAXAXAXAXAXAXAXAXAXAXAXAXAXAXAXAXAXAX",
"AXAXAXAXAXAXAXAXAXAXAX[ 6 %X9X4X$XOX3XOX5X|.L.s.T.h.k.D. XF.u.*X>X-X`.a + hXAXAXAXAXAXAXAXAXAXAXAXAXAXAXAXAXAXAXAXAXAXAXAXAXAXAXAXAXAXAXAXAX",
"AXAXAXAXAXAXAXAXAX6 ;.t.XXqX3X3X5X>X3X>X5X{.r.q.z.6.x.1.H.&Xp. X}.0XVX].1 AXAXAXAXAXAXAXAXAXAXAXAXAXAXAXAXAXAXAXAXAXAXAXAXAXAXAXAXAXAXAXAXAX",
"AXAXAXAXAXAXAXAXi 1X|.*X#X#X3X3X3X>X#X3X3XF.:.l.9.q.l.v.-.r u A k i.B.S.D.AXAXAXAXAXAXAXAXAXAXAXAXAXAXAXAXAXAXAXAXAXAXAXAXAXAXAXAXAXAXAXAXAX",
"AXAXAXAXAXAXAXU.1X6X>X5X3X3X3X3X1X3X#X6XXXH 8.x.9.c.q.>.r.s.q.5.8.:.-.D < AXAXAXAXAXAXAXAXAXAXAXAXAXAXAXAXAXAXAXAXAXAXAXAXAXAXAXAXAXAXAXAXAX",
"AXAXAXAXAXAX).K.6XOX>X3X1X3X3X1X#X4X[.b./.u 8.x.l.x.>.p.v.x.l.x.v.a.c.a.# AXAXAXAXAXAXAXAXAXAXAXAXAXAXAXAXAXAXAXAXAXAXAXAXAXAXAXAXAXAXAXAXAX",
"AXAXAXAXAXAX< }.4X4X3X5X4X3X#X#X#X3X[.h.G.j w.x.z.8.k i.5.1.e.u r j q.v.-.hXAXAXAXAXAXAXAXAXAXAXAXAXAXAXAXAXAXAXAXAXAXAXAXAXAXAXAXAXAXAXAXAX",
"AXAXAXAXAXAXC R.4X3X1X>X>X6X4X4X6X=Xd.j.L.y 5.x.0.5 r r t < #.jXzXC.;.c.s.e.NXAXAXAXAXAXAXAXAXAXAXAXAXAXAXAXAXAXAXAXAXAXAXAXAXAXAXAXAXAXAXAX",
"AXAXAXAXAXAXC.k.6X<X$XOX}.E.|.{.%Xi.e.j.G.j 8.c.5.,.8.9.q.w.3.A jXNXj i r.H.Y.AXAXAXAXAXAXAXAXAXAXAXAXAXAXAXAXAXAXAXAXAXAXAXAXAXAXAXAXAXAXAX",
"AXAXAXAXAXAXY.d.=X4X4X4X^.h p a $ j G.b.K.<.4.9.q.z.x.l.l.l.z.6.=.e ,.2.1 l `._.AXAXAXAXAXAXAXAXAXAXAXAXAXAXAXAXAXAXAXAXAXAXAXAXAXAXAXAXAXAX",
"AXAXAXAXAXAXaXt.R.6X&XC.~ Q R L 8 h g.|.E.i.e 0.l.z.z.9.9.l.l.x.v.9.6.c.r.< /.,XS.AXAXAXAXAXAXAXAXAXAXAXAXAXAXAXAXAXAXAXAXAXAXAXAXAXAXAXAXAX",
"AXAXAXAXAXAXAX4.W.F.) wXT L I T I P h |.{.D.k :.9.l.7.z.q.z.z.x.l.7.x.z.v.>./.qX0X4.AXAXAXAXAXAXAXAXAXAXAXAXAXAXAXAXAXAXAXAXAXAXAXAXAXAXAXAX",
"AXAXAXAXAXAXAXi D.U U.d | O.#.&.{ R K A.3Xb.T.r 4.w.l.l.l.x.c.l.c.a.0.q.c.<.&X5X0X>XU.AXAXAXAXAXAXAXAXAXAXAXAXAXAXAXAXAXAXAXAXAXAXAXAXAXAXAX",
"AXAXAXAXAXAXAXAXo ] d ..gXfX@.@.@.' E M <X+Xj.d.r t r.z.l.l.7.z.x.x.l.c.:.B.<X7X6X>Xc AXAXAXAXAXAXAXAXAXAXAXAXAXAXU.) { {  .[ | { { #.#.AXAX",
"AXAXAXAXAXAXAXAXU * R iXgXgXyX+.%.} R : A.9X.XR.h.e.r t 2.8.7.q.9.l.9.i j |.7X^.H.u.$ AXAXAXAXAXAXAXAXAXAXAXAXAXgX= fXiXiXiXiXiXiXpXpXU.~ AX",
"AXAXAXAXAXAXAXAXAXo #.wXuXvXsX$.@.rX' R d &X7X$X.XG.D.u.A r t t i r 6 M.i.R.oX%X;XMX~.).AXAXAXAXAXAXAXAXAXAXAXAX~ ~ %.o.o.O.O.+.O.$.o.iX| AX",
"AXAXAXAXAXAXAXAXAXp T $.uXgXgXyX+.%.R L - m.*X>X*X.X.XoXb.h.g.d.g.g.&X~.p.h.oXqX6X5XBXg.cXAXAXAXAXAXAXAXAXAXAXAX: ] %.$.$.$.+.$.&.O.o.pX| AX",
"AXAXAXAXAXAXAXAXAXAX& ] %.U.dXuXwX' h J.;XJ.y.m.e.}.6X3XOXXXXX.XQ.+X;X; D.K.F.F.B.S.N.A ! AXAXAXAXAXAXAXAXAXAXAX; } $.$.$.$.$.$.&.rX*.pX| AX",
"AXAXAXAXAXAXAXAXAXAX{ d o.&.@.wXP Z ;X6X$X7X=X&X~.D &X9X6X6X7X#X|.K.A p.D S U ] tXsXdXsXL > AXAXAXAXAXAXAXAXAXAX; } %.$.$.$.$.$.$.$.O.iX{ AX",
"AXAXAXAXAXAXAXAXAXAX$ a T *.} I S 5X8X6X7X#X<XJ.K.D e.K.}.'. X%XS.W D.G.k d  .#.@.%.iX} W -Xk.).AXAXAXAXAXAXAXAX. O.O.$.$.+.+.$.&.$.o.dX[ AX",
"AXAXAXAXAXAXAXAXAXAX< ! a R E B *X>X5X*X:X5X5XN.  C s 3 3 3 3 3 2 l A y h s w a * p * C A.}.D.~ AXAXAXAXAXAXAXAX  $.wXX.rX+.+.$.@.$.o.dX] AX",
"AXAXAXAXAXAXAXAXAXAX+ 6 8 M : J.8XG.XXXXd.XX8X=Xs 2.e.e.e.e.e.e.e.2.v A A A j s P.l l C.y.r S g 3 1 3 q S ! P.~ I O.$.$.$.+.$.+.$.$.O.pX~ AX",
"AXAXAXAXAXAXAXAXAXAXAXkX5 F 8 M.E.u.p.^.S u.G.D.5 9 y s y q y y y y v u A v 9 N.-Xm.M.'.^ m.].D y.p.p.y.D e.v 6 I O.$.+.$.$.$.$.$.X.+.fX~ 5 ",
"AXAXAXAXAXAXAXAXAXAXAXAXm ` / s l l s Z B B C N _  ./ Q Y Y Y V V N B f f f 8 G.&XD j.:XM.i.=XZ X , , , , < < 2 T +.$.$.$.$.$.$.+.&.+.fX^ l ",
"AXAXAXAXAXAXAXAXAXAXAXAXU.m ` / / / ` / ~ ! ! N 0 C G m ( ` ( ` ` Z.q AXhX  U D.%X! /.9XY.H. XI.AXAXAXAXAXAXAX] T $.$.$.$.$.$.O.@.&.O.fXW # ",
"AXAXAXAXAXAXAXAXAXAXAXAXAX  ` ` ` ` / ` / n $ jXAXAX  / ` / / ` Q / o AXAXeX- + $ @ e 1   j Z AXAXAXAXAXAXAXAXaXK %.$.O.$.$.$.+.+.$.%.fXQ I.",
"AXAXAXAXAXAXAXAXAXAXAXAXAX) 5 B ; m n n B % #.AXAXAXY M Y n M V B + ).AXAXAXAXAXAXU._ pXAXAXAXAXAXAXAXAXAXAXAX#.I %.$.$.$.$.$.$.$.X.eXyXpXAX",
"AXAXAXAXAXAXAXAXAXAXAXAXAXAXX ! F B F m F X AXAXAXAXAX  n 0 0 0 a = AXAXAXAXAXAXAXAXAXAXAXAXAXAXAXAXAXAXAXAXAX} T %.$.$.$.$.$.$.O.$.eX%.hXAX",
"AXAXAXAXAXAXAXAXAXAXAXAXAXAX% (.!.!.!.!.`.+ AXAXAXAXAXq (.V.Z.Z.!.S AXAXAXAXAXAXAXAXAXAXAXAXAXAXAXAXAXAXAXAXAX) R %.$.$.$.$.@.@.O.O.iX&.zXAX",
"AXAXAXAXAXAXAXAXAXAXAXAXAXAX$ m m H S B w / AXAXAXAXAXX ( G G ( F Z AXAXAXAXAXAXAXAXAXAXAXAXAXAXAXAXAXAXAXAXAX) R %.@.+.+.@.$.$.$.X.tX#.mXAX",
"AXAXAXAXAXAXAXAXAXAXAXAXAXAXAX% ( S m S % I.AXAXAXAXAXQ 7 V.N.N = ( _.AXAXAXAXAXAXAXAXAXAXAXAXAXAXAXAXAXAXAXAX| | eX$.$.@.%.$.rXwXO.pX{ AXAX",
"AXAXAXAXAXAXAXAXAXAXAXAXAXAXAX7 Z.V.~.~.~.( U.AXAXAXAXU.f.~.!.V.!.!.!.b  .AXAXAXAXAXAXAXAXAXAXAXAXAXAXAXAXAXAXU ' %.&.rXrXrX%.wXrX$.fX@.AXAX",
"AXAXAXAXAXAXAXAXAXAXAXAXAXAXAX  H x z x x F   AXAXAXAX~ X m z b x x b H   AXAXAXAXAXAXAXAXAXAXAXAXAXAXAXAXAXAXAX& & . . & & o = ; : I a AXAX",
"AXAXAXAXAXAXAXAXAXAXAXAXAXAXAXxXjXjXkXkXlXkXkXAXAXAXAXAXkXcXkXkXcXzXkXkXAXAXAXAXAXAXAXAXAXAXAXAXAXAXAXAXAXAXAXAXAXAXAXAXAXAXAXAXAXAXzXAXAXAX",
"AXAXAXAXAXAXAXAXAXAXAXAXAXAXAXAXAXAXAXAXAXAXAXAXAXAXAXAXAXAXAXAXAXAXAXAXAXAXAXAXAXAXAXAXAXAXAXAXAXAXAXAXAXAXAXAXAXAXAXAXAXAXAXAXAXAXAXAXAXAX"
};
