/* XPM */
static char *result[] = {
/* columns rows colors chars-per-pixel */
"70 70 238 2 ",
"   c #000000",
".  c #0B0000",
"X  c #060A07",
"o  c #00000E",
"O  c #170702",
"+  c #1A0100",
"@  c #171806",
"#  c #000015",
"$  c #00051A",
"%  c #00151C",
"&  c #181818",
"*  c #240000",
"=  c #2C0000",
"-  c #220F01",
";  c #360000",
":  c #3C0000",
">  c #251201",
",  c #2A1605",
"<  c #321601",
"1  c #391C06",
"2  c #341C0C",
"3  c #271A17",
"4  c #241E1C",
"5  c #351E13",
"6  c #18260C",
"7  c #382702",
"8  c #3B200E",
"9  c #26211E",
"0  c #2B211C",
"q  c #212B18",
"w  c #392419",
"e  c #373412",
"r  c #071C23",
"t  c #171E21",
"y  c #271E22",
"u  c #1C2022",
"i  c #10282E",
"p  c #1C3338",
"a  c #232222",
"s  c #2B2623",
"d  c #352824",
"f  c #34352E",
"g  c #430100",
"h  c #4C0400",
"j  c #550100",
"k  c #481900",
"l  c #561C00",
"z  c #630D00",
"x  c #691D00",
"c  c #43230D",
"v  c #4C2709",
"b  c #552907",
"n  c #5C320C",
"m  c #422514",
"M  c #472A17",
"N  c #4C2D1B",
"B  c #542E14",
"V  c #4A3514",
"C  c #5B3315",
"Z  c #53311C",
"A  c #5B3419",
"S  c #672800",
"D  c #733605",
"F  c #7D3C01",
"G  c #623614",
"H  c #643719",
"J  c #65391B",
"K  c #6A3C1C",
"L  c #4B3429",
"P  c #4C352B",
"I  c #563828",
"U  c #643C27",
"Y  c #6B3E23",
"T  c #783F21",
"R  c #663E32",
"E  c #1E4000",
"W  c #2D5003",
"Q  c #356305",
"!  c #376C0D",
"~  c #3C7808",
"^  c #384628",
"/  c #364D34",
"(  c #52520D",
")  c #7E4302",
"_  c #6B4715",
"`  c #476300",
"'  c #447E07",
"]  c #587011",
"[  c #6A7012",
"{  c #4A4E2E",
"}  c #57412E",
"|  c #5C4330",
" . c #6E4123",
".. c #6B412B",
"X. c #674928",
"o. c #734225",
"O. c #74442B",
"+. c #77492A",
"@. c #7B4A2C",
"#. c #7C532A",
"$. c #664834",
"%. c #764935",
"&. c #7D4C33",
"*. c #6D5335",
"=. c #785538",
"-. c #4F6E2B",
";. c #716D31",
":. c #000845",
">. c #003255",
",. c #295561",
"<. c #305B74",
"1. c #4B4947",
"2. c #475C46",
"3. c #6D554C",
"4. c #516A4C",
"5. c #756E45",
"6. c #696D6E",
"7. c #883800",
"8. c #8C4D08",
"9. c #814621",
"0. c #865828",
"q. c #814D33",
"w. c #854F3B",
"e. c #845135",
"r. c #885A34",
"t. c #85533A",
"y. c #8B553B",
"u. c #8D593E",
"i. c #955B37",
"p. c #915A3E",
"a. c #A45C23",
"s. c #90712D",
"d. c #8B633A",
"f. c #93633C",
"g. c #976A3C",
"h. c #8C5849",
"j. c #955D42",
"k. c #985F44",
"l. c #956542",
"z. c #9B6345",
"x. c #9D6A45",
"c. c #9C7345",
"v. c #866E54",
"b. c #A56845",
"n. c #A16C47",
"m. c #A36C49",
"M. c #A37345",
"N. c #A57349",
"B. c #AA754B",
"V. c #A67948",
"C. c #AD7C4C",
"Z. c #B7744A",
"A. c #B17D4E",
"S. c #B97C51",
"D. c #C57C4D",
"F. c #C37D55",
"G. c #348B00",
"H. c #398E00",
"J. c #359100",
"K. c #3C9300",
"L. c #3D9800",
"P. c #4E8A08",
"I. c #578404",
"U. c #419600",
"Y. c #459B00",
"T. c #499E00",
"R. c #459D0D",
"E. c #4B980A",
"W. c #589707",
"Q. c #668B15",
"!. c #4DA300",
"~. c #4DA603",
"^. c #4DA40D",
"/. c #4FA80D",
"(. c #52A600",
"). c #54AA00",
"_. c #59AD00",
"`. c #52A60D",
"'. c #55AB0D",
"]. c #59AE0D",
"[. c #5DB200",
"{. c #56B00D",
"}. c #5DB20D",
"|. c #59AA15",
" X c #5DB316",
".X c #63A50D",
"XX c #61B500",
"oX c #62BA00",
"OX c #69BB00",
"+X c #61B50D",
"@X c #64B90D",
"#X c #69BC0D",
"$X c #61B616",
"%X c #64BA16",
"&X c #69BD16",
"*X c #66B91A",
"=X c #5D853F",
"-X c #729833",
";X c #66A62E",
":X c #6BC107",
">X c #6BC016",
",X c #70C416",
"<X c #6B904A",
"1X c #75A946",
"2X c #778465",
"3X c #8B8528",
"4X c #AE804D",
"5X c #B2834E",
"6X c #B68550",
"7X c #B98651",
"8X c #BC8A53",
"9X c #BD895F",
"0X c #859074",
"qX c #A48371",
"wX c #8BAF6A",
"eX c #C48556",
"rX c #C38D56",
"tX c #CC845A",
"yX c #CC8C5A",
"uX c #D4895C",
"iX c #D48D5D",
"pX c #CA9159",
"aX c #D4915D",
"sX c #DC8E61",
"dX c #C4926B",
"fX c #DD9161",
"gX c #E29263",
"hX c #E89766",
"jX c #326581",
"kX c #5F7087",
"lX c #0089B5",
"zX c #0CB2E9",
"xX c #94978F",
"cX c #CE9E82",
"vX c #D1A286",
"bX c #E3B59A",
"nX c #A4C584",
"mX c #C9CBC8",
/* pixels */
"T.T.(.@X).#XW.(.T.Y.^.^.!.(.(.#XXX(._.@X`.W.+XXX).&X_.+X!.!. X{. XT.T.T.!.].@X+X~.!.+X'.Y.~.>X~.}.+X&XT.(.(.'.T.T.'.T.'._.(.>X!.T.!.(.#X#XOX",
"'.!.!.&XW.#X+X!.T.!.Y.*X!.}.!.>X_._.(.@X].(.+X@X).#X_.+X(.!. X'. X!.Y.!.T.!.@X@X!.!.%X'.!.!.@X(._.@X&XY.T.).'.!.!.'.T.}._.}.%X!.'.(.T.@XOXXX",
"~.{.Y.}.(.@X+X(.T.'.T.}.).}.!.%X_._._.+XXX_.+X#X(.+X+X+X}.T.}.!.'.Y.T.T.(.T.].&XT.(. X'.!.!.}.!.(.&X+XT.Y.]./.!.$X'.!.'.!.@X{.T.+X!.T.@XOXXX",
"T.}.T._._.@XXX).Y.`.'.!.}.(.L.}.XX.X+X+XXX#X#XXX(._.+X+X}.Y.}.T.'.Y.'.!.}.!.!.>X!._.{._.Y.!.}.T.T.,X.XT.Y.'.!.'.%X(.'.T.Y.}.}.!.].K.!.XXXXXX",
"!.~.).).[.@X+X_.T.Y.}.!._._.J.(.].].#XXXOX:X#X_.).T._.#X+XU.}.!.'.U.'.'.!.'.!.&X{._.(.}.Y.~.~.!.).&X}.U.T.T.'.'.].].).K.).}.%X}.T.J._.+X_.[.",
"{.Y.).[.[.[.#XXX(.L./.}.(.@XK.'.].).+X#XXX:X#X(.).(.).+X%XU.}.^.`.T.!.'.!.).(.}.}._.!.%X!.~.!.}._.+X+XH.(.Y.}.!.(.}.T.K.}.!.}.$XY.!.].@X_._.",
"}.!.~.}.#X).#X_.(.~.!.}._.&XY.T.(.(._.@XOXOX#X(.).+X).'.$XT.!.].Y.!.(.!.}.!.!.}.%X(.!.}.'.~.!.}._._.#XW.}.).).!.}._.L.!.(.(.).&X).!.}.+X).(.",
"}.~.).[.,X).@X_.). X!.+X(.+X'.).W.].T._.oXXX@X_.T.&X'.(.+X(.T.'.(.!.'.T.}.!.!._.&X).!.'.}.!.'.}.].(.@X_.&X).T._.}._.Y.}.(.'.'.}.}.T.}.}._.!.",
"].T.(.).&X)._.}.!.}.T.}.!.}.%X].).`.(.(.XXXX+X_.T.(.+X!.}.'.T.^.'.T.'.!.).!.T.!.&X].T.(.}.Y.'.).+XT.+X).@X_.!._.!.}.!.}.~.}.}.).}.Y.}.{.!.Y.",
"'.T.T.(.+X).(.].(.'.Y.(.!.~.&X}.).(._.T._..X+X_.(.K.+X].).(.Y.T.'.T.!.}.!.(.U.T.$X].(.!.).!.!.!._.(.)._.}.).Y.~.!.@X_.}.!.}.}.!._.!.}.}.!.Y.",
"!.!.Y.(.}.+XT.(.'.'.T.!._.(.&X}.).!.(.).).].}._.!.(._.&X).(.!.Y.'.!.!.}.].'.U.T.%X(.).!.(.!.Y.(.T._.!._.@X).L.!.!.@X>X}.(.>X'.!.!.(.}.}.(.'.",
"}.(.).'.}.+X!.[.+X+X^.Y.}.(.#X@X~.!.T.'.].'.'.T.T.].'.}.@X!.!.U.$X(.!.%X+X!.Y.}.}.!.!.}.(.T.].).T.@XT.]. X!.!.!.~.+X,X_.#X}.{.T.!.T.'.}.(.(.",
"~.{.!.'.+X[._.[.}.+X^.!.}.[.:X@X~.~.!.^.'.^.'.T.T.].'.(.&X(.!.!.%X(.T.+X+XW.!.}.}.!.T.}.T.T.(.`.].(.T..X}.Y.'.T.!.+X#X_.#X).}.!.T.T.`.`.(.!.",
"!.'.Y.~.%X[.[.[.].@XT.(._.}.>X}.).^.^.K.E.T.`.~ T.'.'.Y.}._.L.'.}.!.U.+X}.K.!. X|.P.P..XI.^.).`.+XT.T.+X`.T.].Y.!.+XXX+X[.!. X!.T.L.`.T.'.Y.",
"`.!.!.L.$X+X_.oX+X#XY.!.~.}.@X[.[.!.~   @ @     (.'.+XT.!.].T.).).!.H.].}.U.`.-X    @ O 4 ( T.`.$XT.(.'.!.!.!.L.).[.XX[.!.'.}.!.'.H.^.L./.L.",
"'.T.`.H.(.@XXXoX#X#XY.!.~.).@X~.[.).6 1 F.cXcX[ -.! -.).T.].'.'.T.).T.'.$X[ 5.qXD.cXdXD.h ] Y.`.$X.X).(.!.'.T.T._.XX[.).Y.}.~.!.'.H.^.Y./.K.",
"!.`.T.U.U.&XXX#X#X#XT.U.(.).@X!.).}.W 7 uXvXvXtXa.h   -.!.'.%X].Y.].]..X-.  j a.uXvXvXF.g I./.~.!.*X).).!.}.!.~.).@X_.).T.&XT.T.(.L.!.L.^.K.",
"(.'.T.T.U..X+XXX#X_.(.W.'.(.@X).!.'.G.= k.$.< C D.tXL   4.~.$X(.W._.*X/ $ I uXZ.B < O.l.. I.!.!.).&X}.(.(.}.}.~.!.+X_.T.).&XT.(.!. XT.!.!.~.",
"(.'.(.(.T._.XXoXoX+XT.W.%XY.+X].!.'.~ * p.U   1 e.z.h.; p 2X2X0XxX0X-.X R j.b.q.<   ..u.  I.!.'.}.).+XT.!.}.'.!.!.+X).(.'.%X(.T.'.}.!.{.!.}.",
").'.).`._.+XXXXXoX[.W.]. XT.).}.!.!.~ = z...- 2 < A i.=.m     g : : w P &.y.C < 2 > O.k.+ W.(.'.&XT.+X(.!.}.).T.!.+X(.T.].].T.Y.^.'.`.}.Y.}.",
").+X].(._.@XXXXXoX_.+X X!.{.!.@X!.L.' = k...> 1 1 M G y.u.8 %.z.x...m p.e.G m 1 1 > O.z.. !.{.{.&XY.).(.(.`.(.U.!.+X(.!.].'.U.Y.!.!.'.T.T.&X",
"XXXX_.T.W.+XXXOX_.).#XT.Y.(.!.}._.Y.Q   I I 1 8 , B q.k.z.y.%.U ..%.u.z.j.q.M , w 1 I I   !.(. X+XT.(.).(.'.^.L.!.+X_.(.).`.U.Y.!.!.!.U.).+X",
"[._.).T.!._.#XOX_.[.}.(.'.!.!. X/.^.K.E r O w 2 O I k.z.k.u.U   . R u.l.z.j.N - 1 w . i ( Y.).@X).(.(.).(.+X!.U.).+X(._.!.!.H.T.!.!.`.(.(.&X",
"[._.!.`.!.(.:X:X[.@X'.!.'.!.T. X^.'.T.Y.f   0 2 - Z j.z.u.N 2 8 1 1 N j.z.j.N - 2 a   1.!.~.[.@X_.+X(.T.T.$X!.(.).#X!.)._.!.U.T.T.!.'.!.W.&X",
"oX!.!.'.T.!.#XoX[.}.!.!.}.!.Y.{.!.'.!.T.f   L e.q.d.A.l.Y 0 & 0 s & w ..g.C.u.w.&.L   1.!._.@X@X(.&X(.T.~.>X~.{._.@XT.'.+X'.Y.!.L.!.'.U.).+X",
"oXT.].'.U.(.[.[.@X~.!.).}.!.L.'.Y.^.U.`.f   P h.y.z.5Xf.v a u 0 9 t s v g.6Xk.u.t.L   1.). X}.).!.>X{.L./.}.[.@X.X+XU.].+XT.!./.Y.'.^.U.].].",
"_.T.}.'.U.}._.[._.Y.^.~.'.{.L.!.Y./.!   2 < w d 3 I z.e.B 9 4 8 1 4 0 A y.z.Z 3 d 8 , 5   }.@X!.).}.}.L.'.[.[.@X+X'.H.'.{.!.{.!.Y.'.U.Y..X(.",
"(.!.'. XT.'.).}.!.T.'.!.'.>XL.!.Y.!.Q   &.Y 1 &  .9.S l m Z M 1 5 N Z m l S 9.$.p M  .&.  .X}.T.}.~.@XY.{.[.[.[.).).G.`.'.!.).J.^.^.J.!.].T.",
"!.!.T.$X(.(.(.%X!.(.'.!.).%X}.!.!.!.'   j.q.J 7 9.h.jX>.O I B 2 2 C G + >.<.h.=.{ R q.j.* ;.(.T._.!.}.}._.:X}.[.!.T.G.].}.(.}.!.{.Y.K.'.!.!.",
"(.!.).$X'.(.!.%X!.).{.{.).}.}.Y.!.T.'   c t.u.n g jXzXjX= J B > > B G + lXzX<.g b u.q.m 3 <X].`.!.!._.}._.}.[.[.T.`.U.'.}.~.%X!.~.L.!.^.'.!.",
"'.Y.(.}.].T.T.$X!.}.}.}.~.{.%XY.~.T.'.U.9 0.9XdX3.>.jXkX) H Y %.%.Y G 8.kXlX:.h.cX9Xd.# r ^ -XQ.!.!.!.'.}._.[.).T.`.(.!.@X!.}.'.!.L.!.Y.'.!.",
"'.Y.Y.].&XT.T.$X(.#X_._.~.(.>X!._.T.'.!.0 8.dXbXqX* 3 T i.o.u.m.m.r.O.i.) g = qXbX9X0.r d P L   ;.!.T.!.]._._.).U.`.`.Y.}._.'.!.!.L./.Y.!.!.",
"`.Y.U.(.&X'.Y.@X[.#X).(.~.!.%XT.~.Y.!.T.4 d | =.V.A.p.O. .u.V.6X6XN.y.Y @.i.A.N.=.I s d &.j.h.<   #.!.T.(._.).).Y.T.'.T.).}.).T.!.K./.!.!.!.",
"T.T.K.T.}.}.Y.@X#X@X!.!.(.!. X!.!.!.Y.V a r # * 0.N.z.y.@.&.V.8X8Xn.&.@.y.b.M.#.+ # $ y m.tXS.S.7.  3XY.!._.).).!.Y./.!.!.].(.K.'.K.L.'.!.!.",
"T.T.H.T.!.@X!.[.#X+XT.T.(.!.$XT.!./.6 f a 0 s t 5 Y j.z.k.C g.8XrXd.G l.z.j.J 5 r s 9 $.tXgXfXhX7XM   ;.!.~.{.!.!.'.'.!.!.}.).H.T.!.J.!.!.Y.",
"!.T.L.T.!.[.[.[.@X}.T.!.(.T.$X^.!.6 , 2 5 B B t % I j.A.C.K c.8XrXg. .5XC.w.L r t 1 0.5XsXsXsXgXF.u.M 4.!._.}.!.!.{.'.!.~.+X'.U.!.].Y.T.Y.!.",
"!.T.Y.T.T.).[.[.+X}.T.(.).T.].'.6 & 8 c 1 o.@.m # P V.7Xx.A #.l.l.X.J N.S.N.L # N r.C.rXrXiXsXgXuXB.=.^ -X'._.!.T.{.'.Y.).}.(.T.'.'.!.!.T.T.",
"!.Y.`.!.(._.[.[.[.].T.T.(.!.).6 7 V o.@.@.k.z.+.M $.A.N.q.M + + O . N t.B.C.} M #.5X8X5X5XeXsXfXiX7Xr.v u Q.!.).!.'.!.T.'.}.T.L.}.!.!.'.T.T.",
"T.T.'.!.'.}.).).).].(.U.!.!.!.!   t.S.uXtX8X6XA.z.%.} t.u.d % u 4 % M h.h.} &.x.5X8XC.z.6X8XrXrXrX8Xr.; 9 .X!.!.'.'.T.Y.'.'.T.T.}.!.`.!.T.^.",
"T.Y.'.!.(.}.(.).).).W.U.L.^.!.( l D.iXgXiX7XC.8X7Xl.$ %.p.I 0 u t 0 I k.R $ z.7X8X8XB.k.B.N.g.N.B.V.#.: & T.!.Y.}.~.Y.~.'.(.J.}.'.~.(.K.!.'.",
"!.T.~.!.).}.!.!.).(._.T.T.(.    p.gXgXiX5Xx.l.7X8XV.P *.u.Y N t t N o.u.$.} 4X8X8X8XB.j.k.@.C q.k.j.&.A @ P.~.Y.}.~.!.~.~.!.L.$X'.~.!.L.!.!.",
"'.!.!.~.[.}.).(.T.(.}.T.T.T.  0.eXgXgXaX8Xn.x.7X8X5X4X=.5 K N r t Z J 3 =.5X6X8X5XN.z.k.q.A c C &.k.k.%.+ 6 -.Y.}.).(.!.!.!.T.%X).~.!.!.`.'.",
"'.'.!.[.}.).`. XT.T.[.T.!.!.O g.yXyXaXyXA.z.n.7XrXyX8Xc.$.N w 0 3 5 Z $.c.rXyXrX7Xz.u.q.J 1 8  .r.k.z.y.U = { ~.{.~.{.!.!.!.(.}.}.).!.T.!.].",
"`.!.Y.[._.!.T.|.'.Y._.Y.T.E.O g.8X5X5XB.j.y.x.5XiXiX8XrXC.P 3 2 8 & | 6X8XeXiXuX5Xx.q.C c , w t.z.k.z.z.b.; ] Y.{.!.).T.!.Y.{.}.%X_.!.Y.T.].",
"^.!.!.}.).!.U.^.$XT.].!.T.e - t.N.n.r.+.o.Z $.z.7XiXaXsXyXA.*.  o *.6XuXsXiXyX6Xx.@.A c 0 u w Y e.k.B.eXuXD / Y./.!.!.T.!.T.{.!.+X(.!.Y.T.'.",
"(.!.!.)._.L.Y.T. X.X}.).W   U y.k.p.O.b B & d &.d.V.F.uXiX8Xc.*.*.M.rXyXuXeXM.d.q.K v 9 a / =X{ ..z.C.pXgXF -.!.!.!.'.^.!.T.'.T.}.'.!.K.!.'.",
"(.!.!._.(.L.Y.Y.'.}.).+X` g b.k.k.k.@.N a 3 B H C o.j.B.8X7X8X8X8X8X8X8XN.y.Y C H K Z & a <X'.4.R z.C.pXsXx [ '.Y.T.}.'.!.Y.}.!.'.}.T.U.T.(.",
"T.`.!.(.T.L.Y.T.T.].+X}.` S tXb.j.k.Y 2 t m J y.t.j.C.5X8XyXiXiXfXiXyX8Xx.J 1 < 1 c w f 1XT.'.2.R z.eXgXsXx ;.}.Y.T.%X/.!.T.{.!.'.$XT.T.(.T.",
"T.'.T.).Y.Y.^.^.!.!.+X}.` 7.sXS.z.z.I o 9 U y.z.k.n.8XeXyXsXsXiXuXiXaXaXn.b I U I B w f 1X;X1X/ L y.F.aXyXx ;.].!.!.>X/.Y.!.'.'.T.$XT.'.'.T.",
"Y.E.Y.!.L.!.R.^.!.T.+X+X` S sXyXC.k.I % 8 e.z.k.j.z.5XyXsXfXyX5X7XyXsXsXb.G p.b.i.O.b 5 4 a a t w K V.8X8Xh 5.'.).].}.(.L.!.!.'.T.'.!. X'.U.",
"E.E.Y.T.Y.!.^.Y.(.T.].}.` D gXsXeXj.I & A t.z.k.k.z.x.6XrXrXeX8X8XrXeXb.o.K V.5XA.k.T v 0 $ $ R f.V.6X5Xn.; 5.!.(.@X[.!.Y.T.T.`.T.!.(.}.'.L.",
"E.Y.T.T.J.^.`.Y.`.!.}.].Q S uXgXtXz.I 0 H y.z.r.y.y.j.N.C.C.C.A.C.C.g.G n r.5X8X7XC.l.@.w f =.x.A.8XyX6Xj.* 5.!.(.@X[.(.T.Y.T.].T.T.!.%X`.K.",
"T.`.!.!.!.!.T.^.`.T.}.).W l 7XiXtXk.P 3 G y.u.Y n O.j.k.k.k.i.k.z.q.G G &.z.5X8X7X8XC.j.d =.8X8X5X8XaXtXl.+ ;.E._.+X_.+XT.T.(.$X(.!.).%X!.Y.",
"W.].'.!.%XK.L.'.T.T.+XT.Q b rXyXS.j.I 3 H y.j.y.o.H +.u.z.z.y.+.@.Y G K A +.5XrX7X8XC.j.d =.rXd.d.8XpXS.@.  ;.Y.+XXXXX+XW.!.`.+X(._.[.}.!.}.",
"$X).].T. X!.!./.T.T.+X(.Q h A.5X5Xn.| & C p.m.z.@.n b +.u.t...v g v A A 1 M M.8X8X8XB.w.d $.c.8 X.8X8Xc.n   ;.T.XX(.+X+X(.T.(.+X!.XX[.).).'.",
"'.!.(.(.@X~.!.^.Y._.).).Q ; z.A.8X7X*.o 2 M.6Xz.@.B 8 A J d a t . & s a & M y.B.8X8Xn.C d 0 8 . #.7XrXc.1   ;.T._.T.+X]._.T.T.&X(.XXXX_.+XT.",
"L.!.!.(. X~.'.Y.T.'.~.}.! + j.F.aX5X*.# & c.8XA.x.@.B v m u =X1XmXnX-XX s N h.n.n.f.@.G 0 P q.w.M.8XM.S   [ ~.!.].T.&X`.W.U.).@X@X#X_.&X'.T.",
"Y.!.!.T.}.'.'.L.T.T.(.@XW h m.uXaX7X*.o t c.8X8XB.p.@.Z > X wX{.T.(.`.<Xq N e.f.j.J b C 4 I j.q.d.g.S P ( ~.!./.).T.&X(.T.Y.(.+X#X#X_.@XT.T.",
"'.!.!.Y.{.'.'.T.(.T.'.@   n 7X8X8X8X*.  & c.8X8Xm.k.z...    mX'.T.!.!.$X1Xd C e.j.o.v 2 9 a s .   .   ` !.(.!.{.T.`.$X(.(.).(.+X@XXXXX].U.!.",
"}.!.Y.!.}.~.'.T.(.!.].  b x.8XB.N.7X4Xd.u c.8X7Xm.u.e.J >   v.'.Y.!.T.wX{ w &.u.j.t.q.O.N   f !.T.~.}.Y.'.~./.'.T.].}.T.'..X(.+XXX_.XX(.T.!.",
"}.).!.Y.{.!.~.T.{.(.(.< z.B.C.x.N.7X7Xl.u l.rX8XB.y.H k @ ^ ] ^.T.`.W.6.  Z u.n.n.n.m.n.I   e R.Y.'.'.!.^.'.'.!.T.'.(.!.'.}.W.+X_._._.Y.~.!.",
"}.%X!.L.~.T.!.U.}.(.  b C.B. .V.rX8X0.. t c.rX8XB.p.Y ; f ^.!.T.T.`.(.3.  K u.N.8X5X8X5XX.  L K.T.}.'.'.T. X'.L.T.'.!.!.'.+X).}.)._.).T.'.!.",
"~.}.~.Y.!.T.!.K.@XY.  d.f.#.v f.B.0.;     _ x.f.e.b   Q.Y.T.!.Y.T.^.T.3.b M.N.5X8X8X8X5X#.  P J.'. X^.^.L. X`.J.!.`.T.!.!.$X).(.).).T.`.^.Y.",
"!.}.(.Y.!.T.!.T.}.Y.V _ S ; * O.o.k X.] ] X.h k + d ( '.Y.T.T.Y.Y.^.T.1.8.pXrX7XC.rXrX7Xr.: e Y.].'.!.U.Y. XT.Y./.T.(.T.'.+X(.T.).(.!./.^.Y.",
"!.{.'.!.^.T.^.^. XY.~.              !.'.!.'     X ( ).{.T.T.!.^.Y.!.Y.{ 7.hXhXZ.O.tXaX8Xn.S w (.].T.T.T.T.'.!.^.^.T.!.!. X~.(.).!.!.'.^.!.!.",
"!.(.'.T.Y.Y.^.^.{.~.T.P.I.I.Q.P.P.~.!.{.~.L.( W.!.!.).{.!.Y.!.}.Y.T.Y.Q.s.7.8.z   7.8.D l -.] {.~.U.T.T.Y.T.!.^.T.U.{.!.}.).).(.Y.T.^.!.T.~.",
"!.!./.T.R.Y.E.T.|.{.L.L.Y.L.!.!././.!.^./.^.!.~._.!.{.~.Y.Y.~.}.Y.Y.L.^.P.,.2.2.2.4.6.6.4.! !.!.T.Y.T.K.Y.!.!.!.L.{.^.!.~.{.!.!.Y.U.!.T.!.}.",
"L.Y.T.L.K.R.Y.L.^. XT.!.Y.!.J.!. X^.!.L.!.|.^.Y.}.!.>XL.K.L.!. X!.L.R.L.J.K.E.U.!.L.L.{.!.!.Y.Y.U.R.U.R.J.^.L.L.!. XJ.^.!././.L.Y.K.T.L.!.%X",
"T.U.Y.R.L.R.J.Y.Y. X!.Y.L.L.Y.Y./.^.T.L.L.^./.L.[.~.}.Y.J.L.L.{.L.K.^.J.L.L.R.J.L.J.Y./.Y.Y.L.R.L.Y.L.R.J.T.K.T.{.^.J.Y.J.R.R.Y.L.K.Y.K.!.}.",
"`.H.J.^.R.H.J.R.J./.^.K.K.J.Y.U.^.L.L.J.J.J.|.Y.~.[.).K.J.K.J./.L.L.^.J.J.J.J.J.K.J.L./.T.K.K.^.L.J.L.^.J.U.K././.K.G.L.G.R.!.U.K.J.K.H.!.!."
};
