/* XPM */
static char *result[] = {
/* columns rows colors chars-per-pixel */
"70 70 242 2 ",
"   c #000002",
".  c #05050A",
"X  c #180F07",
"o  c #0C1801",
"O  c #161509",
"+  c #020515",
"@  c #01141B",
"#  c #0C171B",
"$  c #181917",
"%  c #1D1C1D",
"&  c #260703",
"*  c #370F00",
"=  c #2A1507",
"-  c #371807",
";  c #351C0B",
":  c #391F0C",
">  c #2D1E15",
",  c #251C19",
"<  c #331E13",
"1  c #391F10",
"2  c #132302",
"3  c #1A3708",
"4  c #192D18",
"5  c #193417",
"6  c #3B200D",
"7  c #3E290E",
"8  c #23251A",
"9  c #2C221D",
"0  c #352115",
"q  c #3B2214",
"w  c #32231C",
"e  c #3A251D",
"r  c #3E291D",
"t  c #27361A",
"y  c #333718",
"u  c #0A1D21",
"i  c #121F22",
"p  c #1B1F21",
"a  c #1D2123",
"s  c #1C3B28",
"d  c #0C3A38",
"f  c #232222",
"g  c #2B2522",
"h  c #242B27",
"j  c #2E2824",
"k  c #322621",
"l  c #382B26",
"z  c #2A3927",
"x  c #383428",
"c  c #570500",
"v  c #441C07",
"b  c #42240D",
"n  c #4A2609",
"m  c #542A0A",
"M  c #5B340E",
"N  c #472816",
"B  c #4A2A13",
"V  c #432B1E",
"C  c #532D13",
"Z  c #522F19",
"A  c #4A3518",
"S  c #5C3315",
"D  c #55331C",
"F  c #5C351A",
"G  c #613616",
"H  c #633816",
"J  c #663A1A",
"K  c #693C1B",
"L  c #783B13",
"P  c #432C22",
"I  c #4A2E20",
"U  c #422F28",
"Y  c #512B24",
"T  c #4B3021",
"R  c #45342A",
"E  c #4B342B",
"W  c #47382A",
"Q  c #523322",
"!  c #583827",
"~  c #683C25",
"^  c #264905",
"/  c #285900",
"(  c #345311",
")  c #356B0A",
"_  c #387B03",
"`  c #376714",
"'  c #3B7316",
"]  c #194C2C",
"[  c #34452E",
"{  c #29582A",
"}  c #3B5525",
"|  c #284839",
" . c #384936",
".. c #2A5231",
"X. c #3D5836",
"o. c #444B17",
"O. c #7F460A",
"+. c #6D431E",
"@. c #436A09",
"#. c #44790C",
"$. c #44641B",
"%. c #497815",
"&. c #53761C",
"*. c #4C4E2E",
"=. c #43562A",
"-. c #434B35",
";. c #465839",
":. c #6A4428",
">. c #73452B",
",. c #78492A",
"<. c #71502E",
"1. c #7B522D",
"2. c #654533",
"3. c #7C4B32",
"4. c #794B37",
"5. c #6B5635",
"6. c #795537",
"7. c #496A27",
"8. c #477727",
"9. c #47693C",
"0. c #576F3B",
"q. c #6A6B39",
"w. c #4B6642",
"e. c #546A42",
"r. c #5A7846",
"t. c #66614E",
"y. c #975507",
"u. c #87542D",
"i. c #824E33",
"p. c #854E38",
"a. c #855235",
"s. c #895A34",
"d. c #84533B",
"f. c #8B553B",
"g. c #8D5A3D",
"h. c #915B38",
"j. c #935C3E",
"k. c #896139",
"l. c #93643C",
"z. c #966A3E",
"x. c #9A6C3F",
"c. c #955D42",
"v. c #995F44",
"b. c #8A6640",
"n. c #966142",
"m. c #9A6245",
"M. c #9A6A44",
"N. c #9D6C44",
"B. c #9D7143",
"V. c #A56746",
"C. c #A06C46",
"Z. c #A36D49",
"A. c #A37444",
"S. c #A67A47",
"D. c #A87947",
"F. c #A57349",
"G. c #AA754B",
"H. c #A57949",
"J. c #AC7B4B",
"K. c #B7734B",
"L. c #B17E4E",
"P. c #AC7151",
"I. c #BA7A53",
"U. c #8D7464",
"Y. c #C37E56",
"T. c #378500",
"R. c #358C00",
"E. c #3A8E00",
"W. c #359100",
"Q. c #3C9300",
"!. c #3D9800",
"~. c #478709",
"^. c #419600",
"/. c #4A9401",
"(. c #459B00",
"). c #499E00",
"_. c #459D0D",
"`. c #4B990D",
"'. c #579D0A",
"]. c #468516",
"[. c #4B9413",
"{. c #4DA300",
"}. c #4DA603",
"|. c #4DA40D",
" X c #4FA80D",
".X c #52A600",
"XX c #54AA00",
"oX c #59AD00",
"OX c #52A60D",
"+X c #55AB0D",
"@X c #59AE0D",
"#X c #5DB200",
"$X c #56B00D",
"%X c #5DB20D",
"&X c #57AA15",
"*X c #5DB316",
"=X c #61B500",
"-X c #62BB00",
";X c #69BA00",
":X c #61B50D",
">X c #64B90D",
",X c #69BC0D",
"<X c #61B616",
"1X c #64BA16",
"2X c #69BD16",
"3X c #65BB1C",
"4X c #598F2D",
"5X c #659C31",
"6X c #6EAD35",
"7X c #6BC20C",
"8X c #6BC016",
"9X c #3A897E",
"0X c #5C8445",
"qX c #678848",
"wX c #6E9848",
"eX c #77AC45",
"rX c #AD804D",
"tX c #B3824F",
"yX c #B68550",
"uX c #B88751",
"iX c #B78851",
"pX c #BB8A52",
"aX c #888773",
"sX c #C28C55",
"dX c #CB8658",
"fX c #CB8B59",
"gX c #D7895C",
"hX c #D38D5D",
"jX c #CA915A",
"kX c #D6915E",
"lX c #D38D65",
"zX c #DC8E61",
"xX c #DC9161",
"cX c #D89873",
"vX c #E29263",
"bX c #E39B71",
"nX c #619F8E",
"mX c #AD9981",
"MX c #CFA38A",
"NX c #E4B599",
"BX c #DACCAE",
"VX c #8EE9D1",
/* pixels */
").)..X>X.X,X'..X).).|.|.}..X.X>X=X'.oX:X^ % % /.XX8   z ).{.<X+X*X).).}.).@X>X:X.X{.>X+X^.}.8X}.%X%X2X)..X}.OX{.).@X).@XoX.X2X{.).}..X>X,X;X",
"+X{.{.2X'.,X=X).).).(.<X}.:X{.2X#XoX'.;X^ f o ( ` # U.&.$.T.<X&X*X).^.{.).}.,X:X{.{.<X@X{.{.>X.XoX,X2X).).XX@X).}.+X).%XoX:X2X{.+X.X).>X;X;X",
"}.$X(.%X.X:X:X).).@X).%XXX@X).2XoXoXoX:X^ f f $ #   cXNX5.( @X}.@X/.).{.{.).+X2X)..X<X@X{.{.%X{.'.2X:X).(.@X X{.*X+X}.OX{.>X@X(.:X).).>X;X=X",
").%X).oXoX,X=XoX).OX+X{.:XXX^.%X%XoX,X%X^ O f f u + I.MXNXq.=./.@X!.+X{.$X{.{.8X{.XX$XXX(.{.%X)..X2X%X).(.+X{.@X<X.X+X).(.>X$X{.@XQ.}.=X=X=X",
"{.}.XXXX#X>X>XoX).(.%X{.XXXXQ..X@X@X>X;X^ . f a % + h.lXNXMXN $.[.^.+X+XXX@X).1X$XoXXX%X).}.}.{.oX2X%X^./.).@X+X@X@XoXQ..X%X<X%X).Q.XX:XoXoX",
"$X(.XX#X=X#X,X#X.X!. X%X.X,XQ.OX@X.X%X,X^ O f p 4 ; K P.NXMXh.! } /..X@X}.XX.X:X%XoX}.<X{.}.{.%XoX%X%X^.oX).$X{..X@X).Q.$X.X:X<X(.).@X,XoXXX",
"%X{.}.%X,XoX,XoX.X}.{.%XXX2X(..X.X.X~.^ o 4 % i k S v 4.bXbXY.a.r ^ .XXX@X}..X$X*XXX{.%X@X{.{.%XoXoX:X'.@X.X.X{.@XoX^.}..X{.XX2XXX{.%X>XoX.X",
"%X}.XX#X8XXX>XoX.X*X{.:X.X>X+X.X}.'.^ o f k l f k J - S K.vXgXh.v p ~.).@X}.).oX2XXX).+X%X{.+X%X@X.X,X.X2XoX}.XX$XoX).$X{.+X@X:X%X).:X@XXX.X",
"@X)..XoX2X.XoX@X{.%X).$X{.%X2X@X.X3 o f i P H P w K n V f.Y.gXh.q a ~..X.X.X(.}.2X@X)..X$X{.+X.X:X'.%XoX>XoX{.oXXX:X{.%X.X$X:XXX%X(.%X@X{.(.",
" X{.)..X:XoX.X@X{.@X(..X{..X1X`.^ o #     & M m ~ f.~ S p.Y.zXu.v D o.@..X.X^.).<X@X.X}.XX{.{.{.oX).oXoX>XXX(.}.{.>XXX:X{.%X%X}.XX{.%X%X}.(.",
"{.{./..X%X%X).XX@X@X(.{.XXXX2X) o k W 2.,.1.a.,.,.m.d.>.c.K.dXl.+.H I y @XOX^.).<X.XXX)..X{.)..X.XoX.XXX>X}.!.{.{.>X2X%XXX2X+X.X.X.X$X%X.X+X",
"$XXX.X@X%X>X{.#X%X:XOX(.>X.X,X#.o C k.pXhXhXpXB.c.v.c.c.c.v.V.L.B.G e } :X).).@X>X{.{.%X{.{.$X.X).@X).@X*X{.{.).{.:X8X#X,X%X@X(.}.).@X%X.XXX",
"{.$X).@X:X=XXX#X@X:XOX).%X#X~.3 , D O.y.V.N.k.1.i.c.m.m.c.c.c.uXL.i.E =.@X).).:X%X{.{.$X).).{.@X@XoX).@X@X(.@X).}.:X,X#X,X.X%X{.).(.OX+X.X{.",
"{.$X!..X1X#X#X#X%X>X)..XXX`.2 % g m 5.t.d   A F >.c.m.c.c.c.v.tXL.v.2.9.'.^..X:X@X(.).%X!. X{.+X:X)./.%XOX).@X(.}.:X#X:X#X{.*X{.{.(.|.).+X(.",
"OX}.{.^.<X:X=X=X:X>X(.3 o 4 a i p   nXVX9Xc J.C.g.c.c.v.c.c.v.tXL.c.>.B -.) +X%X{.(.(.$X).+X!.|.<X)..X@X{.{.{.^..X=X#X#X{.+X%X{.+XT.OX!.+X!.",
"+X).|.Q..X>X#X=X#.#.^ $ $ , V r , v mXBXaXL G.N.c.m.c.c.c.M.G.uXJ.j.p.>.g @.+X+X{.}.{.%X{.{.^.+X<X@XoX.X{.@X).).oX#X#XXX(.%X.X{.+XR.|.!. XQ.",
"}.OX).^.T.2XoX].$ f f a r D K m B d.Y.Y.Y.l.v.V.m.v.v.c.c.G.sXpXJ.v.v.b.j &.XX{.{.@X.X$X+XW.|.}.).2XoX.X.X%X{.}.XX>XoX.X).2X).)..X!.).!. XQ.",
").@X'.).).:X` x f f @ + k.S.+.n m S u.V.K.K.dXgXY.v.f.m.H.fXkXsXyXL.V.d.f 4X}.}.{.$X.X%X).).{.{..X2X%X.X{.%X$X.X{.:XoX.XoX2X}..X{.<X).{.{.}.",
".XOX)..X).oXt f f + l 5.B.J.d.a.l.k.g.c.L.jXgXkXfXG.N.G.sXdXK.yXuXpXF.p.T qX].$X{.@X{.$X).{.{.@X@XoX:X).{.%X@X{.{.:X.X).@X1X).).+X@X).@X{.%X",
"oX@XoX+X.X%X{ f f + 2.yXJ.c.c.F.uXuXJ.j.J.pXuXuXuXpXtXsXxXK.G H.pXyXZ.f.K T X.@X@X+X{.+X(.{.XX+X3X).:X.X{.%X.X).}.>X.X).@X@X).(.+XOX+X+X(.%X",
"oX:X@X.XoX>X'.` % k.yXpXL.v.m.n.s.1.:.! 1.u.1.l.G.pXpXpXjXC.M S.pXyXZ.d.K V 9.+X$X{.{.|.!.{.$X$X2X/.XX.X.X@X{.(.{.:X.X.X@X+X^.).}.).@X).).2X",
"#X#XoX).'.=X=X%X} 7.yXH.n.4.f.:.b * - v m G ~ p.m.L.L.L.D.s.,.J.sXpXZ.f.J V  .eX@X{.+X{.!.{.}.%X:X)..X.X.XOX|.Q.{.:XoX.X.XOXQ./.}.)..X^..X:X",
"=XoXXX}..XXX2X;XoX{ R K Q f g a 9 F K J G ,.m.m.m.v.V.j.:.,.m.tXpXpXZ.f.K r a f eX).$X}.{.{.XX>XoX.X.X.X.X:X).^..X>XXXXX{.{.Q.)..X}.OX.X.X2X",
"#XoX{.OX{..X7X;X#X&X{ e g u u i f P Q I V Q 2.>.a.v.p.~ i.M.L.pXyXZ.m.c.f.!   $  .r.0X' {.}.#X>XoX%X.X}.}.<X}..XoX,X{.XXXX{.(.(.).).@X).'.2X",
"-X{.{.@X).}.,X#X-X>X{.5 4 5 4 5 5 s ..w.z u @ q ~ d.3.>.c.G.yXtXF.c.c.v.c.>.Q Q ! R g e.).XX>X>X.X2X.X).}.8X}.%XoX>X).@X%X+X(.{.(.{.+X^..X>X",
"=X).@X+X^.XX=X#X%X{.{..X$X{.!.+X).OX(.OXr.g < > g g 4.m.c.m.m.m.v.c.m.g.J i.c.j.c.d.1 + ;.%X%X.X{.8X$X!.$X%XXX%X%X%X^.@X%X{.{. X!.+X|.Q.%X@X",
"oX(.@X@XQ.%XoX#XoX(.|.}.@X$X!.{.^. XQ.8.*.w ; < $   V 3.c.c.c.c.c.v.i.,.3.f.V.I.Y.Y.K.d.. r.`.{.XX%X%XQ. X#X#X7X%X@X^.+X$X{.$X{.(.+X^.(.%X.X",
".X}.+X*X).@XXX%X{.).+X{. X8X(.{.(.(.) f q b b b N D b ! g.m.v.c.v.c.,.1.m.m.P.zXvXxXvXK.< g w.{.%X.X>X(.%X#X#X#X.X.X_ OX$X{.XXW.|.|.Q.{.@X/.",
"}.}.).<X.X.X.X1X{..X@X{..X<X%X{.}.).' f D S S m ~ f.g.j.c.c.c.c.c.c.D.tXtXL.uXzXzXzXvXY.p.E 0X/.XX{.$X>XXX,X7XoX}.).T.@X$X.X%X{.$X(.Q.+X{.{.",
".X)..X<X+X.X}.1X}.XX$X$X.X>X%X(.}.).' f >.i.3.3.a.c.m.v.c.c.c.c.m.G.yXpXpXpXsXfXgXzXxXdXN.!  .' }.{.XX%XoX>X#XXX}.OXQ.+X%X.X1X{.}.!.).|. X{.",
"@X/..X%X$X).).<X}.%X@X%X}.$X1X(.XX).' g g.N.m.m.m.m.m.m.m.m.m.v.F.pXuXuXiXiXtXtXfXzXxXjXyX:.. f ~.).{.@X%XXX#XXX).OX.X.X:X}.$X@X{.!.{.).+X{.",
"OX).(.@X2X).).<X.X,XXX#X{.XX2X{.XX).` j N.yXyXL.L.tXtXL.L.tXtXJ.tXuXuXpXuXpXpXpXpXsXsXpXtX1.- a [.}.).}.@XoXoX.X^.OXOX).@XXX@X{.{.!. X(.{.{.",
"OX).^..X1X+X(.>X#X,X.X.X}.}.1X).{.).) j S.sXpXpXpXpXpXpXpXpXpXpXpXuXuXuXuXL.G.L.yXyXyXpXtXg.~ 9 7.[.{.(.XXoXXXXX(.{.+X)..X%XoX/.{.Q. X{.{.{.",
").).E.).%X%X(.:X>X>X.X.X.X}.<X).{.{.` j S.pXiXiXtXpXyXuXyXpXyXuXuXuXuXpXuXF.c.j.F.yXiXpXtXZ.3.; , X..X^.}.XXXXXX{.(. X{.}.@X.XQ.+XQ.!.+X{.{.",
").).E.}..X:X{.-X,X:X).)..X).<X).{. X' j B.pXiXpXpXiXpXyXiXyXuXyXtXuXuXuXyXyXN.~ p.G.uXpXpXuXl.= % ;.XX{.{.}.$X}.{.+X+X{.{.%X.XQ.{.{.Q.{.(.{.",
"}.).Q.{.).#X#X=X:X:X).)..X).<XOX{.@X' j H.sXiXiXpXyXyXpXyXiXuXsXsXsXuXuXpXsXH.7 Y c.G.yXiXsXB.b , } +X{.{.XX%X{.{.$X+X{.}.%X@X!.).@X(.).{.(.",
").).(.).).oX#X#X:X:X).)..X).@XOX).@X8.j B.pXpXiXyXpXtXpXyXyXuXhXzXxXsXyXyXpXH.D   R c.G.pXpXA.G r X.:X{.).@XXX{.(.@X X).XX%X.X).+X+X).{.).).",
").).OX}..XoXoX#X#X@X).)..X).oXOX{.@X4Xg 2.M.pXpXuXyXtXpXfXhXhXvXxXfXsXtXF.G.M.B + k ~ N.pXpXG.i.E 9.$X).{.%X}.}.{.@X{.).@X$X).(.%X}.).@X).).",
").).+X}.@X@X.XoX.X%X.X^..X}.).+X@X|.wXa   :.L.yXpXiXiXpXdXgXgXdXI.S.rXG.c.j.3.V z y n s.yXpXtXC.2.9..XXX.X%X{.{.+X@X).).$X+X(.{.%X).OX}.).OX",
").(.+X)..X%X)..XoXoX.X^.!.OX{.OX$Xr.a a @ ! m.L.pXtXpXtXV.v.v.3.+.+.j.m.v.i.F k &.`.A 3.C.tXpXtX5.e.).<X%XXX{.{.%X{.!.{.+X.XE.$X+X.XXXE.}.+X",
"}.).}.{.XX%X{..XoX.XoX).)..X)./.r.h 9 > # P 3.A.sXhXhXfXH.F.F.a.>.3.j.v.m.>.: g %./.[ ! p.L.sXiX6.e..X<X.X{..X!.%X}.{.{.}.{.!.<X+X}.{.Q.{.{.",
"OX.X{.}.#X$XXX.X)..X@X).{.).OX7.g g 9 6 8 w S N.sXlXxXgXsXpXyXC.c.m.v.v.v.~ X f %./.[ b +.H.sXiX5.;.'.@X{.).@X).%X}..X{.{.{.{.*XXX}.{.{.OX+X",
"+X+X).#X%X.XOX*X).).#X).).{.=.g 0 0 6 6 , e H A.pXpXhXzXxXY.n.c.c.v.c.m.m.>.= f &.`.[ 1 +.H.sXyX<..  .~.{.(.*X{.%X}.$X{.{.{..X%X%XXX{.).}.+X",
"OX{.).#XoX.X).&X+X).XX(.).`.z P C b 6 6 8 , C x.pXyXsXfXkXI.g.c.v.n.c.c.p.! z 0..X). .Y a.yXpXyX1.& g ' ).(.$X).$X}..X{.{.).$X%X1XoX{.(.}.+X",
"|.{.{.%XXX{.^.|.<X/.@X{.).`. .Q H B ; q g $ = M.pXuXyXiXyXF.c.c.n.c.m.f.H r w.(.oX~.-.4.N.yXpXyXs.D f #..X).$X).+X{.{.).{.(.$X}.:X.X{.(.).@X",
".X{.{.oXXX(.(.).<X@X%XoX{.^. .D J B ; : , % ; d.J.pXsXpXF.m.v.v.m.m.V.f.B , e.).].2.6.Z.yXuXyXyXpXB.g %.{.{.$X.X{.).+X+X{.).@X).%X+X{.Q.}.+X",
"{..X{.XX{.!.).(.+X%XoX:X{.E. .E K B : 1 g p > ~ s.M.B.N.i.f.v.m.j.d.f.,.0 p e.).7.E c.P.pXuXpXfXtXk.g &.!.}.@X$X(.).$X+X{.^.$X{.@X%X).^.)..X",
").+X{..X{.Q.(.).).@X%X$X{.R. .D J b : 1 , a f > - = C J G i.m.m.a.H K Z f a e.).7.E c.F.uXyXfXlXj.- 8 4X(.{.XX$X).(.<X+X{.{.@X{.OX<X).)..X).",
").OX).}.(.(._.|.}.}.:X%X.X/.z P B b : 6 9 f a > - n K h.A.N.c.m.f.H m e 8 g ;./.7.k Y z.pXpXsXsXl.v g &.).(.{.$X{.{.8X X(.{.+X+X).<X).+XOX).",
"/.|./.}.!.{.|.|.}./.%X:X.X).^ -.< < 0 0 0.e.f , B :.c.G.pXyXm.c.,.D b > f  .qX).` ,   6.yXpXtXA.1.A ;.~.).!.)..X.X$X%XXXQ.{.{.@X).@X.X*X+X^.",
"(.`.(.}.!.{.|.(..X).@X%X.X.X^.@.g f f g 6X6Xz = D g.G.pXyXpXtXa.N f < 1 f eX+X(.} g = >.C.uXA.J P =.1X^.).(.^..X.X>X#X{.(.).).OX).)..X%X+XQ.",
"`./.).).Q.|.OX(.OX}.%X@X.XoX/.%X#.#.&.5X<X5Xh & ~ G.uXpXpXyXC.:., > 1 < % 6X@X}.~./ j E 2.6.<.r ( T.<X).OX(.^.}.XX>XoXXX)./.).@X).).}.1X XQ.",
").OX}.).}.).).|.OX).%XoX@XoX).%X:X:X.X:X.XwX8 :.l.iXpXuXuXC.p.l @ : b < t eX1X+X).{.( 5 t t z 5 /.).@X{.+X(.^.).#X:X#X%X).)..X<X.X)..X1X{.).",
").@X@X).1X^.!.+X}./.:X).%X.X/.oX:X>X%X%Xr.$ ; x.pXuXpXtXZ.3.1 g > : : 0 3 aX%X.X).+X<X1X#X!.{.$X).).+X).OX(.(.).%X#X#X>X}.).+X:X.XoX=X%X{.$X",
"<X.X%X).<X{.{.+X).).%X.X:X.X).oX#XoX:X.Xe.p = x.sXiXpXtXh.D # , 0 : 6 q w e.5X).).$X:X%X{.(.$X@X).(.+X(.OX).}.).=XoX:X%X.X(.'.:X}.=X-XXX.X@X",
"@X)..X.X%X}.{.|./.XXXXoX:X(./.oXoXoXoX).9., 6 N.sXiXpXJ.:.: , < 6 6 6 6 v k ;.^.}.$XXX#X(..X>X$X).^.OX).|.}.OX}.oX).:X@XoX/..X2X.X=X=XXX%X).",
"(.{.{.}.*X{.@X(.).+X{.%X>XQ..XXX.X@X.X.X9.k S B.sXpXG.f.C , f < : ; ; : 6 j w.^.{..X*X{.}.XX>X$X).(.(.+X(.{.}.{.@X).2XOX.X/..X>X>X,XoX2X+X).",
"(.{.{.).%X+X+X!.{.{.}.>XoX{.$X.X}.*X.X).9.e G A.pXG.C.c.I @ f < b C C B ; 0 -.wX'..X:X{.{.oX>XXX).).).+X!.}.{.+XoX).2X).)./..X:X>X,X#X:X).).",
"+X{.{.).$X@X+X(.{.{.+X2X}.@X@X}.(.@XXX(.e.V J F.yXv.c.g.U @ f > C K +.F b : : g wX.X*X}.{.XX>X.X).{.{.{.).}.{.$X).OX<X.X.X.XoX%X>X=X=X%X(.{.",
"%X{.(.{.$X{.+X{.{.{.@X>X.X%XXX_ 5 z [  .N ~ p.J.yXv.i.~ k i f p V K K J H b > f 4X}.%XXX).XX$X.X).}.@X(.|.{.|. X/.@X%X}.+X%X.X%X=XoX=X{.).{.",
"%XoX{.(.+X{..X(.$XXXXX$XoX%X.X/ x 6.b.6.s.z.F.tXyXG.a.n w p p i k S H K K S N , r.].@XoXXX%X%X).(.+X@X{.OX@X X{.(.@X.X).@X%X'.:XoXoXoX(.}.{.",
"%X*X{.!.}.).{.(.%X.XXX{.@X@X.X/ R J.pXuXpXuXuXuXuXpXl.S w i f f > : F K J K J b 9  .'.@X%X%X:XQ.).%X|.@X).*X+X!.(.@X{.).OX%X.X%XoXoXoX/.+X).",
"}.%X}.!.{.).).!.%X{..X(..X*X@X/ l 1.A.sXpXpXuXuXiXpXZ.3.l $ 0 0 < 1 F K J J J H I  ./.+X2X%X%XE.OX*X|.|.!.*X|.Q.{.OX)..X).2XoX.X.XoX).OX|.).",
"{.%X.X).{.).{.{.%X!.{.{.{.$X+X_ 3 - 1.D.uXpXpXiXuXpXL.m.R O b : : 6 F K J J J H P  .^..X>X:X.X(.@X+X{.(.(.*X).!.+X)..X).@X%X.X)..X.X}. X|.(.",
"{.$X$X).|.).OX|.*X).{.).{.{.$X}.{.3 r ~ H.pXpXiXiXuXsXJ.W + ; : : 1 F K K K S b 9  .).XX%X%XXX}.$X{.).).).@X{.|.|.{.{.{.*X}.XX.X{.}.OXOX).{.",
"{..X+X).(.(.|.|.$X}.(.(.{.!.+X X(.{.^ V 5.k.k.tXsXsXuXC.! u w w g k V I I T P j ../.{.@X}.XXXX+X}.^.).).(.).{.|.).!.+X}.%XXXXX.X(.(.OX}.).}.",
"{.{.|.).`.(.`.).&X$X!.!.(.!.{.{. X X(.3 4 a B l.rXD.N.4. .] ] { ] ..| | | | s s (.|.).+X{.{.{.{.(.).(.Q.(.{.{.{.!.+X|.{.}.$X{.{.).^.}.(.{.%X",
"(.(.(.!.Q._.(.!.|.*X).{.!.{.W.(.*X|.}.!.(.|.g x W R R [ Q.!.}.*X).!._.!.(.!._.!.!.!.).$X{.{.(.(.^.`.!._.Q.|.!.!.{.*XW.|.{. X X!.^.!.).!.{.1X",
").!.^._.!.!.Q._.!.*X{.(.!.!.^.^. X|.).!.!.|.[._ /./.[.Q.E.!.!.$X!.!._.!.!.W.!.!.!.Q.!.$X(.(.!._.(.!.Q.|.E.!.!.{.+X|.W.(.W.|.|.(.!.Q.(.Q.{.@X",
"|.Q.!.|.!.Q.W._.Q. X|.Q.Q.!._.^.|.!.!.W.W.W.&X(.}.XXXXQ.R.Q.W. XQ.!.|.W.W.!.W.W.Q.W.!.OX(.Q.Q.|.Q.W.Q.|.W.Q.Q.|. XW.R.!.R.|.!.!.Q.W.Q.E..X}."
};
