/* XPM */
static char *result[] = {
/* columns rows colors chars-per-pixel */
"70 70 236 2 ",
"   c #010001",
".  c #0D0006",
"X  c #01000C",
"o  c #16040D",
"O  c #091609",
"+  c #17110B",
"@  c #000012",
"#  c #040816",
"$  c #06151A",
"%  c #00141D",
"&  c #171515",
"*  c #1C1C1C",
"=  c #290607",
"-  c #2C1706",
";  c #391E0A",
":  c #281C17",
">  c #2B1D19",
",  c #341F12",
"<  c #162B0A",
"1  c #1D2615",
"2  c #3D220C",
"3  c #243E0A",
"4  c #25211E",
"5  c #2B211B",
"6  c #3A2213",
"7  c #34231D",
"8  c #3B251A",
"9  c #25351B",
"0  c #39371E",
"q  c #051B21",
"w  c #151E22",
"e  c #191F21",
"r  c #0A2629",
"t  c #1D2223",
"y  c #152926",
"u  c #15302C",
"i  c #232222",
"p  c #2B2422",
"a  c #282B27",
"s  c #352722",
"d  c #3C2B23",
"f  c #29352A",
"g  c #333526",
"h  c #2F3C30",
"j  c #363D30",
"k  c #383F30",
"l  c #461B00",
"z  c #48250A",
"x  c #532D0D",
"c  c #5A2D0C",
"v  c #442512",
"b  c #4B2B14",
"n  c #462819",
"m  c #4B2D1C",
"M  c #542E19",
"N  c #533115",
"B  c #5C3414",
"V  c #56331C",
"C  c #5C351A",
"Z  c #60320F",
"A  c #7B3500",
"S  c #613514",
"D  c #623718",
"F  c #653A1A",
"G  c #6A3D1B",
"H  c #442D24",
"J  c #4C3123",
"K  c #49352A",
"L  c #4B3C2B",
"P  c #523323",
"I  c #563227",
"U  c #573828",
"Y  c #643C27",
"T  c #6B3E23",
"R  c #723E2B",
"E  c #633E31",
"W  c #2B4B0D",
"Q  c #2D5704",
"!  c #375C0D",
"~  c #2E4A1A",
"^  c #344819",
"/  c #375914",
"(  c #2E6400",
")  c #386A08",
"_  c #3B7807",
"`  c #3B6715",
"'  c #3D7313",
"]  c #344921",
"[  c #354833",
"{  c #385231",
"}  c #6E441E",
"|  c #406912",
" . c #526B1F",
".. c #447815",
"X. c #494729",
"o. c #58422A",
"O. c #485726",
"+. c #495B39",
"@. c #6D4324",
"#. c #66472A",
"$. c #6D412C",
"%. c #724324",
"&. c #74452B",
"*. c #784929",
"=. c #7C4B2B",
"-. c #7A522B",
";. c #664533",
":. c #744A32",
">. c #774936",
",. c #7C4C33",
"<. c #755437",
"1. c #47672A",
"2. c #51742D",
"3. c #49653B",
"4. c #24504C",
"5. c #675347",
"6. c #4D6943",
"7. c #556B42",
"8. c #4D7148",
"9. c #5B7B47",
"0. c #6E7249",
"q. c #853B00",
"w. c #814E2D",
"e. c #85542A",
"r. c #824E33",
"t. c #814F3B",
"y. c #855235",
"u. c #895736",
"i. c #835A32",
"p. c #84533A",
"a. c #8A553B",
"s. c #8E5A3C",
"d. c #90573E",
"f. c #925B3D",
"g. c #8D6238",
"h. c #94633D",
"j. c #986B3D",
"k. c #B86B3D",
"l. c #8B5A43",
"z. c #955D42",
"x. c #975D43",
"c. c #9B6345",
"v. c #956842",
"b. c #9C6C43",
"n. c #916C4E",
"m. c #9D7345",
"M. c #A16546",
"N. c #A46A45",
"B. c #A76A49",
"V. c #A46C49",
"C. c #A37446",
"Z. c #A77947",
"A. c #A57249",
"S. c #AA754B",
"D. c #AC7B4C",
"F. c #B2724E",
"G. c #B6794D",
"H. c #AE7758",
"J. c #B77B54",
"K. c #C87A4C",
"L. c #3A8303",
"P. c #358C00",
"I. c #398E00",
"U. c #359100",
"Y. c #3C9400",
"T. c #3D9800",
"R. c #478808",
"E. c #419600",
"W. c #459B00",
"Q. c #499E00",
"!. c #4A9609",
"~. c #459D0D",
"^. c #4A8616",
"/. c #528618",
"(. c #509712",
"). c #549719",
"_. c #4CA300",
"`. c #4FA800",
"'. c #47A00D",
"]. c #4DA40D",
"[. c #4FA80D",
"{. c #52A600",
"}. c #54AA00",
"|. c #59AD00",
" X c #52A60D",
".X c #55AB0D",
"XX c #59AE0D",
"oX c #5DB200",
"OX c #56B00D",
"+X c #5DB20D",
"@X c #58A618",
"#X c #5DB316",
"$X c #61B500",
"%X c #62BA00",
"&X c #69BB00",
"*X c #61B50D",
"=X c #64B90D",
"-X c #69BC0D",
";X c #61B616",
":X c #64BA16",
">X c #69BD16",
",X c #65BB1C",
"<X c #558E2D",
"1X c #55A122",
"2X c #66A92C",
"3X c #6BC107",
"4X c #6BC016",
"5X c #5E8246",
"6X c #63884A",
"7X c #67924C",
"8X c #658978",
"9X c #AF814C",
"0X c #B3834E",
"qX c #B68650",
"wX c #B88651",
"eX c #B78851",
"rX c #BB8A53",
"tX c #C48456",
"yX c #C38C56",
"uX c #CA8857",
"iX c #CC8D5A",
"pX c #D1875B",
"aX c #D38D5D",
"sX c #D88C5F",
"dX c #CD915A",
"fX c #D3905D",
"gX c #DB8E61",
"hX c #DD9063",
"jX c #E19263",
"kX c #E4976C",
"lX c #BCA485",
"zX c #C9A88E",
"xX c #E7B292",
"cX c #EBBFA4",
"vX c #82CBB5",
"bX c #93E6CE",
/* pixels */
"Q.Q.{.=X{.-X{.{.{.E.].].{.{.{.=X&X{.{.*X@X{.XX$X|.>X|.*X_._.#XXX#XQ.Q.{.Q.+X=X*X`._.+X.XE.{.4X`.+X+X>XW.{._..X_.Q.XXQ.XX|.`.>X_._.Q.{.=X-X&X",
".X_._.>X{.*X+X!.Q.Q.W.,XQ.*X_.4X|.|.{.-X@X{.*X-X{.-X$X*X}._.;X.X#XQ.W.Q.Q.Q.=X=X_._.>X.X_._.=X}.|.=X>XQ.Q.}.XXQ._..XQ.+X|.+X>X_.XX{.Q.=X&X$X",
"`.OXW.+X{.-X*X{.Q.XXW.+X}.+XQ.>X|.|.|.*X$X|.*X-X{.-X*X*XXX!. X!.XXW.T.W._.Q.XX>XQ.{.;X.X_._.+X_.{.-X*X_.W.XX[._.#X.X_..X_.=XXXW.+X_.Q.=X&X&X",
"W.+XQ.|.|.-XoX}.!..XXXQ.+X{.E.+X*X|.*X*X$X-X-X$X{.{.*X*X X3 1 W .X) f 1 .._._.4X_.|.XX}.W._.+XW.{.>X+X!.W..X_.OX:X{.XXW.W.=XOX_.XXY.{.oX$X$X",
"_.`.}.}.oX=X=X|.Q.W.+X_.|.|.U.{.XXXX-X$X&X3X-X{.{.!.oX*X(.O p 1 ` ] K lX0./.Q.>XOX|.{.+XW._._._.}.>X*XR.Q._..X.X.X.X}.Y.{.+X:X+XQ.U.|.*XoXoX",
"OXW.}.oXoXoX-X$X{.T.[.+X{.=XY..X@X{.*X-X&X3X-X{.|.{.}.=X X< i i t X 5.xXzXk R.;X+X|._.:X_.`._.+X|.*X*XR.{.Q.OX_.{.*XQ.Y.+X_.+X;XW._.XX=X|.{.",
"+X_.`.+X-X|.-X|.{.`._.+X|.>XW._.{.{.|.=X$X&X-X{.}.*X{. X(.< > i i @ ;.hXxXzX0. .:X{._.+XOX_._.+X{.$X-XQ.XX}.}._.+X|.T._.{._.}.>X}._.+X=X{.{.",
"+X_.}.oX4X}.=X|.{.#X_.+X{.=X.X{.{.XXQ.|.$X&X-X|.Q.>XXX{.XX1 p i t # V k.xXcXn.X./.}.Q.OX+X_.OX+XXX{.*X{.>X|._.|.+X|.W.+X_.XXXX*X+XQ.+X+X|._.",
".X_.{.{.>X{.|.XX_.+XQ.+X_.+X:XXX{..X{._.$X$X*X|.Q._.=X_.!.a i i t : b =.zXxXJ.>.t R.{.{.+XW..X}.*X_.XX|.=X|._.}.{.+X_.+X_.+X+X}.+XW.+XXX_.W.",
"[._.Q.{.*X|.{.+X_.XXW.{._.{.>X+X}.{.|.{.|.XX*X|.{.T.+X_ 9 p e r w J C l H.kXhXB.b g ( _.{._._._.|.{.}.|.=X}.W.`._.=X|.+X`.+X+X_.|._.+X+X_.W.",
"`._.W.{.+X*XQ.{.XXXXW._.{.{.>X+X}._.{.|.{.XXXX{.{.{.L.0 i t s n w m S   y.K.jXG.c s ^ _.`._.Q.{.{.{._.|.=X`.T._._.=X>X+X{.4X.X_._.{.+X+X{..X",
"+X{.{..X*X*X_.oX+X*X].W.:X`.3X=X_._.Q..XXXXX@X{.Q.R.4 i i e V F p V F ; R M.sXG.N 8 / +X_._.+X{.Q.*XQ.XX#X_._._._.=X4XoX-X+XXXQ._.Q.XX+X{.}.",
"`.OXQ..X+XoX|.oXXX=X].Q.+XoX3X+X`._.Q.]..X]. XW.( 9 w #     l c x >.a.B T M.gXG.l C o.^ E.W.{..XXX{.Q.*XXXW.XXQ._.*X-XoX-X}.+X_.Q.W. X.X}._.",
"_..XT.`.>XoXoXoXXX=XQ.{.|.+X4X+X}.].].W..XQ. XT.W p d &.u.f.h.g.=.d.c.,.p.M.tXF.i.} M e _  X{. X*XQ.!.+X XQ.XXW._.*XoX*XoX_.#X_.Q.E. XQ..XW.",
" X_._.E.;X*X$X$X=X=XT.{.`.+X3X|.}._..XE..XW._.U.W 8 B j.yXsXiX9Xc.z.z.x.z.x.z.S.wXw.n f _ XXW.].-X!.{.XX_._._.T.|.oXoXoX_..X+X_..XI.].T.[.T.",
".XQ. XY.{.-X|.&X=X-XW._.`.}.=X`.|._..XT.[.W._.3 f d G A q.i.<.#.%.u.c.c.c.z.z.A.wXj.R u !._.Y. X;XXX{.{._.XXQ.Q.|.oXoX{.W.+X`._..XP.].W.[.Y.",
"_. XQ.E.L.>XoX-X-X-X!.R.{.}.=X{.}.XX.XT._ L.Q t t > z 8X8Xr 2 -.%.u.c.x.x.x.d.S.wXV.,.d  .L.]._._.>X}.{.{.+X_.`.{.=X|.{.Q.>X_.Q._.T._.W.].Y.",
"{..X_.Q.W.*X=X$X-X|.{.{. X{.=X{._.XX X_ a i i i > o . vXbX4.e.rXc.z.x.x.c.x.f.S.wXV.p.D 8 ^ Q._.{.>X+X{._.+X+X`._.*XoXQ.}.>XQ.{._.#XQ._._.`.",
"_..X{.{._.|.$X$X&X*X{.Q.;XW.=X.XW.~ ~ ] i @ = V 6 n &.zXzXl.u.N.z.z.x.x.x.x.Z.0XwXc.l.a.L O._..X+X|.*X{._.+XXX_._.*X{._..X>X_.Q..X+XQ.XXW.+X",
"{.XX|. X|.+X$X$X&X|.Q.XX;XQ.}.XXQ i a w % o.-.} z M a.k.K.A.V.B.S.M.z.z.c.A.yXyXwXA.c.c.U 1.}..X>X!.*XQ._.+X{.Q._.*X{._.XXXXQ.W..X X.XXXW.+X",
"|.*XXX{.{.-X$X$X$X|.+X;X_.XX_.~ i i i % % m.D.} B S S r.N.0XiXsXjXJ.z.z.A.rXsXaXwXeXD.z.U 7.OXXX>XW.{.{.{..X_.W._.*X{._..X XW.W._.Q.XXW.!.;X",
"oX$X|.Q.{.*X$X&X|.|.-XQ.W._._.] a i @ L m.C.N.p.b.Z.Z.b.b.rXdXdXiXwXS.A.tXaXN.A.eXrXS.z.$.X.1.XX*XQ.{.{.{..X].Y._.*X|.{.}. XE.W._._._.W.{.-X",
"oX|.{.Q.{.|.-X&X|.oX+X_..X_._.` j i L v.yXA.z.x.S.0XD.v.s.A.Z.Z.D.0XyXrXdXuXG <.rXrXD.z.*.N p /.}.{.{.|.{.*X_.E.{.=X}.|.{._.E.W.{._. X{.{.>X",
"$X|.{. X_.{.-X&XoX=X.X_.XX_.W.#X' i C.rXwXA.x.c.-.B n 6 b G G %.f.S.rXwXyXwX%.g.rXrXS.z.&.N a 1X|.+X{.Q._.;X_.{.}.-X_.}.}._.E.W.Q.!.XX_.{.>X",
"$X_._.XXQ._.-X%XoX+X_._.+X_.W.XX_./.0.v.f.=.E ;.J , c c B Z *.s.z.N.A.S.b.i.w.b.rXrXD.z.@.b t 6./.>X{.Q.`.4X`.+X|.=XQ..X+X.XT._.E._..XE.{.=X",
"$XQ.XXXXE.}.oXoX=X`.Q.}.+X_.T.XXW.].| i b > % % q p C Y C V :.s.s.z.z.a.R R v.G.eXqXS.z.w.P e : +.1XOXT..X+X}.=X*X*XE.OX+X_.`.[.T..X].E.XXXX",
"}.Q.XXXXE.XX|.oX|.W.].{..XOXT._.E.[.R...p i i i i i p p p 4 p d F a.z.@.*.c.G.rXwXN.x.x.c.,.- - > j ).U.[.oXoX=XXXXXR..XOX_.OX_.W.XXW.W.+X{.",
"{._..X#XQ.OX{.+X_._..X_.[.4XW._.Q._.Q..X' ' ` ..' /.| ..2.f * : 8 U ;.y.z.c.A.S.V.c.x.c.y.&.&.>.U   3.' +XoXoXoX{.{.L. XXX`.`.Y.].].I._.XXQ.",
"_._.Q.;X{.{._.>XQ._.XX_.{.:X+X_._._.XX`.#X`.W.}._.}.*XXX1Xd 7 ; : # s p.z.x.z.z.z.x.z.a.T r.F.F.c.&.J { !.=X-X|._.Q.L..X+X{.+X_.OXW.U..X_._.",
"{._.{.;X.X{._.:X_.|.OXOX}.+X+XW._.Q.XX`.#X{._._._.{.*X2.i 6 ; ; , : - - :.c.x.x.z.c.r.F ,.F.sXsXsXpX,.  [ ^.$X|._. XT..X+X_.:X_.`.T.Q.]..X_.",
"XXW._.+X+XQ.Q.;X_.+X+X+X`.OX:XQ.{.Q..X`..X_.Q.W._._.=X6Xs b x x z Y >.&.p.c.x.c.x.z.v.j.A.tXjXhXhXhXV.I i ^.oX}.Q..X_.{.+X_.+X.X_.T._.Q..X_.",
".XW.Q.XX>XW.Q.:X`.-X|.|.`.`.:X_.}.Q.[.`. XQ.Q.Q.}.{.*X7XH T %.%.@.u.c.c.c.z.x.z.x.c.S.rXrXyXsXgXgXgXJ.p.p <X}.}.E.]..XQ.+X}.XX_._.T.[.W._._.",
" XW.E.}.>X.XW.*XoX-X{.{._._.:XQ.`.Q.Q.].].W.Q.].`.oX+X6XK a.z.z.d.z.z.z.z.z.z.d.c.D.rXwXwXwXrXgXgXhXiXv., & 1.}.W.W..XW.{.*X|.W._.Y.[._._._.",
"Q.W.Y.Q.+X+XW.=X-X=X{._._._.:XQ._.Q.W._.].T.Q..X_.OX+X5XE A.H.D.S.S.S.S.S.S.S.A.S.wXrXwXeXeXeXtXuXuXyXm.z : 6.{._.Q..X_._.XX{.Y..XY.T.[._._.",
"Q.Q.I.Q._.=X{.$X-X*XQ._.}.Q.;XQ._.].T._.W.W.Q..XT.}.:X5X;.9XrXrXrXrXrXrXeXrXrXrXeXeXwXwXwXqXqXqXqXqXrXZ.*.K 8._._..X.X_._.+X{.I.Q._.U._._._.",
"{.Q.Y._.Q.oX|.$X*X*XW._.{.Q.;X X_.XXW._.W.Q.[.`._._.+X5X;.0XrXwXwXwX0XrXwXrXeXeXwXwXeXqXb.x.c.qXeXqXrXrXD.<.6.Q._.XXXXQ.`.+XXXE._.XXQ.Q._.T.",
"_.W.W.Q.W.}.oX$X*X*XW.{.}.Q.XX XQ.XX].W._._.]._.Q._.+X5XE V.D.wX0XrXrXeXwXwX0XeXeXwXrXwXD.g.:.Z.rXrXeXrXyX<.3._.Q.OX[.Q.}.+X{.Q.XXXXQ._.Q.Q.",
"Q.Q.].{.{.|.|.oXoXXXQ.W.{._.}..X_.XX.XW.[..X_._.W.T.OX6XK l.D.rXrXeXqXeXwXrXrXrXwXeXwXwXrXj.- m.rXqXeXrX0X<.3.{._.XX_.Q.XXOXQ.T.+X_.Q..XQ.Q.",
"Q.W..X_.XX+X{.|.|.XX{.E._._._.XX.XXX_._._.#X_.#X_.T.{.6XL x.D.rX0XrXqX0XyXsXsXuXwXeXrXwXD.,.2 Z.rXrXrXZ.-.J 6._..X.XQ.Q.OX.XQ._.+X_. X_.W.].",
"_.W.XX_.}.+X_.{.{.}.{.E.T.]._.[.OX.X_.`.T.+X.X}.}.P.OX7XH $.A.rX0XyXiXiXsXhXsXiXeXG.S.S.a.I c j.rXrXrXZ.z > 6.W.+X_.T._..X{.I.OX.X_.}.U._.XX",
"Q.Q.`._.`.+X_._.{.{.|.Q.W.{._._.+X].W.XXQ.|.+X+X}.T.+X7Xi   v.eXeXuXgXsXsXaX0X0XwXM.d.a.m 2 *.D.rXqXeXm., * 1.T.+X`._._._._.T.:XOX_._.T._._.",
".X_._.}.|.+X}.{.{._.XX_._.Q.].Q.+X].T.+X}.{.+X=X`.}.+X5Xi % ,.S.0XD.c.B.f.=.*.g.N.M.p.H . #.9XiXfXqXh.C 4 2. XW.+X`.`._._._.Q.#X}.`._._. X.X",
".XXX_.|.+X}..X#XQ.Q.oXQ.Q._.].Q.XX.XQ.}.+X}.oXoX`.+X_.<X9.y U h.tXtXF.V.v.i.b I >.>.U @   h.fXaXdXrX-.= t ' #X_.+X_.OX_._._.{.=X+X}._.Q._.XX",
" X_.W.oX|._.Q.@X.XW.|.Q.Q.]._._..X_._._.=X|.oX}.}.OXT.`.2Xh ; =.pXjXsXyXrX9XU @ e t 7 b x N.gXyX0X0X:.  h _ +XW.OX_.}._._.W..X+X#X|._.Q._.XX",
"[._.Q.+X|._.T.].#XQ.XX_.W.].T._..XT._.`.+X|.|.`.`.`.Q.OX1Xh o } 0XyXyXyXm.o.M ; v :.t.a.C.qXyXS.h.=.U [ R.W.OX_.[._._.Q._.W.OX_.+X{._.W.Q..X",
"{._._.}.|.T.W.Q.#XXX+X}._.W._..X`._.}._.|.=X`.}.`.T.}..X1X[ X o.0XrX9Xm.;.@ i.j.B.F.G.S.rXwXD.f.&.v 3.' _._.+X_._._..X X_._.OXQ.+X.X_.Y.{..X",
"{._._.|.{.T.W.W. X+X|.+X_.Y._..X_.Q.+X_.`.=X`.`._._.|._.1Xj X @.D.yX9XL   V 9XdXjXjXaX0XwXD.z.%.n f ^.XXW.`.OX.XW._.+X]._.W.OX_.XX+XQ.E.Q.{.",
"Q. X_.{.Q.T.W.Q._.+X+X+X_.I._.XXW._.}.`.`.OX`._._.`.`.Q.@Xj # V c.0X9XL   } 9XrXuXsXfXrXh.%.P m 7.)._.;XT._.{.+XQ.W.:X.X_.Q.XX_..X#XQ.Q.{.Q.",
"W. XW.{.Q.W.~.]._._.*X+X{.W._.+XW.{.{.|.Q.+XXXQ.{.XX_.Q.7Xg 6 C a.S.C.K H u.qXeXeXfXtXm.Y = O * 6XXXQ.*XQ.W._.OX_._.4X[.W._..X.X_.;XQ..X.XW.",
"Q. XW._.T._.].].{.W.*X*X{._.W.:X_. X|.{._.=X.XW..X+X`.1.p 6 x @.z.c.l.s E M.D.rXwXrXj.M > w i i 9..XXXQ.Q.T.Q.{.{.OX+X{.T._._..XW..X{.#X.XE.",
"!.(.W._.W.Q.].W._.Q.XXXX{.{.E.*XXX X}._.+XXX].W. X#X{.5Xs B c T z.a.@.p d &.c.qXrXj.#.> X = b * 9.W.;XE.Q.W.Q._.}.+XoX_.W.W.Q..XQ.{._.+X.XY.",
"!.E.Q.Q.U.]. XW. X{.+XXX{.}.Q.+X-X-X}.|.+XQ._.W._.:X^.8.8 F %.r.v.r.c 7 # , $.v.j.Y = n #.i.i.:.0.^.#XQ. XW.T._.}.=XoX}.Q.W.Q..XQ.W._.:X XT.",
"Q..X_.Q._._.Q.]..XQ.*X{.XX{.{.XX*X*X{.*X}.Q. XQ._.@Xg 5 v S y.c.x.r.B v > i i i 4 y , %.Z.rXeXB.>.t ^.Q..XW.E.Q.|.-X|.*X_.!.{.;X{._.}.>X_.W.",
"_.XXXXQ.:XE.T..X_.!.*XQ.+X{.W.|.+X-X*X*XQ.{. XQ.Q.).a 5 z B y.c.M.,.l 7 9.2Xa q $ & Y d.9XdXaXS.>.q (._. XW.W.Q.*X|.$X*X{.Q. X-X{.|.oX+X_.+X",
";X{.+XQ.:X_._..XQ.Q.+X{.*X{.W.|.|.oX*X{.!.XXXXE._.).h > z B u.c.d.E & +.(.=X1.[ p + $.c.9XiXsXG.p.8 2.W.]._._._.oX{.*X*X}.!.{.*X_.$XoX|.|.XX",
" X{._.{.+X_._.].W.}.}.|.*XQ.W.|.|.|.|._._.*X;XW.+X@Xg > v B a.z.%.m [ !.+XoX}./ i % ;.c.0XiXgXiXm.F 8 { ]._.]._.|.{.*XXX|.!.Q.>X}.oXoX}.+XQ.",
"W._._.`.#X_.XXW.!..X_.+X=XY.{.{.{.XX{._.{.*XXX*X<X3.5 b B F T Y m 1.R.{.=XoX{.Y.) r I w.b.tXjXdXD.a.K y ^ W.`._..XQ.>X X}.E.{.-X-X-X|.>X XW.",
"W._._.Q.+X.X.XT._.Q.{.=X|._.OX{.{.XX}.Q.R.(.).1X3.8 v B G C z + e | Q.|.=X}.}._.{./ L C &.M.tXG.A.x.E * p ` Q..X}._.;X{.Q.W.{.*X-X-X|.*XQ.Q.",
".X_._.Q.OXXX.XQ.{.Q.XX>X_.XXXX_.Q.XX|.L.f q r y > z F G D v ; 6 p ! _.XX*X_.+X}._._...p 8 V %.F w.x.&.x , 4 ^ +XQ..X;XQ.{.{.{.*X=X$X$XXXW._.",
"+X_.W._.OX_..XQ._.{..X=X_.+X}._.Q.#X) X.,.m.b.<.Y B F G C 2 : L ! !.Q.*X|.Q.*X+XW.{.XX) a , z x T =.y.=.x 6 a / R.XXXX{. X+X{.*X$XoX$X{.Q._.",
"+X}._._.OX_.{.Q.OX{.}.XXoX+X_._.W.XX9 U a.G.wXB.w.Z F G D ; p +.Q. X_.XX_._.+X>X!.Q.XX|.! g , C S S h.c.*.B 6 p ) .X{.Q.@X*X{.+X|.|.|.W.`._.",
"+X#X_.T._.Q._.T.+X`.}._.XX+X_.W.Q.[.W i v t.S.wXg.x F G D ; > [ W.]._.XX_.`.+X:XW.W.XXXX+X..p V Z D Z.J.z.&.M i ..XX_._. X*X{.*X|.|.}.W..XQ.",
"`.+X_.T._.Q.Q.T.+X_.{.Q.}.#X.XT._._.L./ * P y.S.b.r.G D F B n [ W.].Q..XQ._.OX#XE.Q.W.W ` ^ o R g.j.0X0Xc.w.N a _  XW.{.{.;X{.{.{.|.Q. X].W.",
"_.+X{.W._.Q._._.+XT._.Q._.+XXXE._.Q.Q.W.0 O m t.z.a.G D F G J [ W. XT._._._.XXXXW.{.Q d o.#.#.h.G.yXyXD.s.&.m X.^.Q.{.!.@X+X{.{.}._._..X'.Q.",
"_.OXOXQ.].Q. X].#X_._._._._.OX`._._._.[._.] a d H N D G G } V f W._.W.].{._.[.XXW.3 6 F A.eX9XqXeXeXyXZ.} H O.'.].W._._.#X`.{.{._._..X].Q._.",
"_.`..XQ.W.W.~.].OX_.T.W.Q.T.[.[.W._._.OX_.L.` | [ 7 J J m J X.R.W.Q.W.~._._.`.[.W.y U u.A.wXyXyXwXS.b.y.m O.R.[._.T..X`.+X}.}.{.Q.Q. X_._._.",
"_.Q.].Q.~.W.~.Q.@XOXT.T.W.T._._.[.[.W.[..X[._.`.) [ 9 9 9 f _ +XW.Q.T.'.W.T._._.Q.3 o.v.l.c.9X9XA.l.Y v { R.Q._.Y..X[._.`..X`._.W.W._.Q._.+X",
"W.W.Q.T.E.~.W.W.].,XQ._.T._.Y.W.#X]._.T.T.#X'.Q.+X`.:X_.Y.T._.#X_.E.~.T.T.T.'.T.W.W.! H d K L L K d d ] I.'.T.W._.#XY.'._.[.[.T.T.Y.W.T._.:X",
"Q.E.T.~.T.~.U.E.W.#X_.T.T.T.T.W..X'.W.T.T.].[.T.oX`.+XT.U.T.T.OXT.T.'.T.U.T.~.T.T.U.T.! ! ! ! ' ) _ ) ^.Y.Q.Y.Q.[.[.U.W.U.[.'.T.T.Y.W.Y._.+X",
" XY.U.].~.I.I.].U.[.].Y.Y.Y.W.E.[.T.W.U.U.Y.@XT.`.|.`.Y.I.Y.Y.[.T.U.'.Y.U.T.U.U.Y.I.Y..XQ.Y.Y.].T.U.T.].U.Y.Y.].[.Y.P.T.P.'.W.T.Y.U.Y.U._._."
};
