/* XPM */
static char *result[] = {
/* columns rows colors chars-per-pixel */
"70 70 241 2 ",
"   c #000101",
".  c #01050A",
"X  c #1D0304",
"o  c #1A120B",
"O  c #010717",
"+  c #07151B",
"@  c #1A1814",
"#  c #1C1B1D",
"$  c #240703",
"%  c #350B04",
"&  c #291608",
"*  c #391802",
"=  c #341C0D",
"-  c #3A1F0B",
";  c #241713",
":  c #2C1C15",
">  c #221D1C",
",  c #2A1C1A",
"<  c #321E12",
"1  c #3A1A18",
"2  c #1A2114",
"3  c #3D2107",
"4  c #3B210D",
"5  c #24211E",
"6  c #2B221D",
"7  c #232918",
"8  c #342115",
"9  c #392214",
"0  c #33231C",
"q  c #3A271D",
"w  c #263712",
"e  c #051C21",
"r  c #131E22",
"t  c #191F21",
"y  c #1D2122",
"u  c #192628",
"i  c #123731",
"p  c #242222",
"a  c #2B2522",
"s  c #2B2C26",
"d  c #272D28",
"f  c #372925",
"g  c #342B24",
"h  c #3B2921",
"j  c #2A3728",
"k  c #2D352C",
"l  c #343529",
"z  c #2D3D33",
"x  c #303F36",
"c  c #431E10",
"v  c #43240D",
"b  c #4B2508",
"n  c #562C0C",
"m  c #432413",
"M  c #462615",
"N  c #4C2B13",
"B  c #432A1C",
"V  c #4A2D1B",
"C  c #542D13",
"Z  c #512D1C",
"A  c #553214",
"S  c #5D3414",
"D  c #55351A",
"F  c #55321D",
"G  c #5C351C",
"H  c #633716",
"J  c #613619",
"K  c #653A1A",
"L  c #6A3C1A",
"P  c #462D23",
"I  c #502E21",
"U  c #4A3022",
"Y  c #49362B",
"T  c #583725",
"R  c #5A3D30",
"E  c #673C26",
"W  c #28460D",
"Q  c #2F540B",
"!  c #37580A",
"~  c #2B4614",
"^  c #2D421D",
"/  c #354819",
"(  c #2F5113",
")  c #3B5214",
"_  c #38581A",
"`  c #37680A",
"'  c #3A6C0D",
"]  c #3D7609",
"[  c #3B6719",
"{  c #3D7115",
"}  c #2B4523",
"|  c #394927",
" . c #395625",
".. c #3B4632",
"X. c #37553B",
"o. c #3D6228",
"O. c #435C1C",
"+. c #6C401E",
"@. c #437B04",
"#. c #44760B",
"$. c #436819",
"%. c #467818",
"&. c #435A25",
"*. c #544D30",
"=. c #475435",
"-. c #694526",
";. c #6B432B",
":. c #724325",
">. c #744A25",
",. c #74452B",
"<. c #784A2A",
"1. c #794A2C",
"2. c #7C522D",
"3. c #674933",
"4. c #764635",
"5. c #7C4C33",
"6. c #6C5337",
"7. c #7A5438",
"8. c #446727",
"9. c #497226",
"0. c #4C6533",
"q. c #517336",
"w. c #547439",
"e. c #617F3C",
"r. c #6B564A",
"t. c #587244",
"y. c #616043",
"u. c #82562F",
"i. c #8A562C",
"p. c #834E33",
"a. c #844F3B",
"s. c #845334",
"d. c #855D37",
"f. c #895D35",
"g. c #85533B",
"h. c #8B553C",
"j. c #8D593C",
"k. c #9B5D37",
"l. c #925B3E",
"z. c #87633D",
"x. c #8C653D",
"c. c #97653C",
"v. c #966A3E",
"b. c #8A5840",
"n. c #915741",
"m. c #955D42",
"M. c #985E44",
"N. c #8F6D4A",
"B. c #946540",
"V. c #9B6345",
"C. c #9D6A45",
"Z. c #967246",
"A. c #9D7243",
"S. c #A16B47",
"D. c #A26B48",
"F. c #A76948",
"G. c #B06F4D",
"H. c #A37545",
"J. c #A77947",
"K. c #A57249",
"L. c #AA764C",
"P. c #AC7B4B",
"I. c #B47344",
"U. c #B4734C",
"Y. c #B17E4E",
"T. c #B97D52",
"R. c #927867",
"E. c #C97C4C",
"W. c #C47C56",
"Q. c #3B8406",
"!. c #348C00",
"~. c #3A8E00",
"^. c #359100",
"/. c #3C9300",
"(. c #3D9800",
"). c #438D04",
"_. c #46880A",
"`. c #419600",
"'. c #459B00",
"]. c #499E00",
"[. c #4A920B",
"{. c #459D0D",
"}. c #4B9E0D",
"|. c #498516",
" X c #519212",
".X c #549A15",
"XX c #4CA300",
"oX c #4FA800",
"OX c #47A00D",
"+X c #4DA40D",
"@X c #4FA80D",
"#X c #53A600",
"$X c #54AA00",
"%X c #59AD00",
"&X c #52A60D",
"*X c #59A309",
"=X c #55AB0D",
"-X c #59AE0D",
";X c #5DB200",
":X c #56B00D",
">X c #5DB20D",
",X c #59A816",
"<X c #5DB316",
"1X c #61B500",
"2X c #62BA00",
"3X c #69BB00",
"4X c #61B50D",
"5X c #64B90D",
"6X c #69BC0D",
"7X c #61B616",
"8X c #64BA16",
"9X c #69BD16",
"0X c #63B91C",
"qX c #54892A",
"wX c #6BC107",
"eX c #6CC016",
"rX c #70C416",
"tX c #638948",
"yX c #B3824F",
"uX c #B8814F",
"iX c #B68550",
"pX c #B98751",
"aX c #B78851",
"sX c #BB8A53",
"dX c #AF8870",
"fX c #C28C56",
"gX c #C78458",
"hX c #CB8C59",
"jX c #D58C5E",
"kX c #D98C5E",
"lX c #D1905C",
"zX c #DD8F61",
"xX c #DD9161",
"cX c #E08F62",
"vX c #E39363",
"bX c #74BAA6",
"nX c #77CBB6",
"mX c #D8AB91",
"MX c #E4AB8A",
"NX c #E5BAA0",
"BX c #A9CEB3",
/* pixels */
"].].#X5X#X6X#X*X].'.+X&XXX#X#X5X1X#X%X4X*X].4X1X$X9X%X4X#XXX<X-X<X].].].XX:X5X4X#XoX>X=X`.$X9X#X4X4X9X].#XXX=X].XX-X].:X%X#XeXXXXX].#X6X6X3X",
"=XXXXX9X*X4X-X].].].'.0XXX4XXXeX;X%X*X4X>X#X>X6X$X6X;X4X$X].<X-X<X].'.XX_.8.9.*XXX] [ { '.XX5X$X%X5X9X'.].$X-X].XX=X].:X%X>X9XXX-X#X].5X3X1X",
"oX:X'.>X#X6X4X#X].-X].>X$X>X].9X%X%X#X6X1X%X4X6X#X5X4X4X>X].>XXX-X'.].].q.r.l 0.[.j p 5 Q.XX8XXX*X9X4X].'.>X@XXX<X&XXX=XXX5X-X'.4X].].5X3X1X",
"'.>X].%X%X6X;X$X].&X=X].>X#X`.>X4X*X6X4X1X6X6X1X#X%X>X4X>X'.>XXX=X/.=X0.dXmXr.2 ..d p s Q.XX:X'.*X9X>X].`.:XXX:X8X#X-X].'.5X:XXX-X/.XX1X1X1X",
"XXoX$X$X;X5X5X%X].'.>XoX%X%X^.#X-X-X6X1X1XwX6X$X#X].%X5X4X`.-XXX=X_.e.R.mXMXr.  p p p j Q.oX#XXX#X9X>X).].#X=X=X-X-X$X`.#X>X8X:X]./.$X4X%X;X",
":X'.$X;X;X;X6X;X#X(.+X>X#X5X/.=X*X%X4X6X1XwXwX#X%X].$X4X8X`.-X+X&X0.r.NXMXE.E O p 5 p s ).#XXX:X%X>X4X).#X'.:XXX#X>X]./.:X#X4X8X'.XX-X5X%X%X",
">XXXoX>X6X%X6X%X$XoXXX>X%X9X'.#X#X#X#X6X1X3X6X#X%X4X#X-X7X].XX-X .Z R.NXmXk.F O p y p k &XXXXX>X$X%X6X].-X#X$XXX:X%X`.XX#X#X$X9X%XXX>X5X#X#X",
">XXX$X;XrX$X5X%X#X<XXX>X#X5X&X#X].=X#X;X1X3X6X%X].9X-X#X4XXX'.8.< l.gXMXhXJ A 9 y t p s _ ~.-X>X-X#X6X*X9X%XXX%X:X%X'.-XXX=X=X4X:X].4X:X%XXX",
"-X].#X#X9X#X%X:XXX>X].:XXX>X8X-X#X-X#X*X;X1X5X%X].#X4XXX:X-X_ f C U.vXkXc.  H D t a p 5 p ( =X#X4X].>X%X5X%XXX$X$X4X].>XXX:X4X$X:X'.>X-X#X'.",
"@XXX].#X4X%X#X-XXX=X'.#XXX#X9X>X$X#X%X].%X>X4X%XXX/.4X-X%X#Xo.a n U.xXU.5.$ S V t F V t p s ~ ].%X#X$X%X5X%X(.$XXX5X%X5XoX>X>XXX%XXX>X>XXX'.",
"XXXX].#X>X4XXX#X:X=X'.XX%X#X9X>X$XXX#X%X$X-X-X#X#X#X%X8X$X|.t.Z b U.zXD.E N <.;.q H C O O # y Q _.%XXX$X5X#X(.XXXX5X9X>X$X9X=XXXXX$X>X:X#X=X",
":X%X#X=X>X5XXX;X4X4X&X'.>X#X6X5XXXXX].=X=X=X*X*X].-X-X>X=Xd F L S G.zXF.5.L m.g.L +.G N M q a p W 4X].-X<XXXXXXXXX4XrX%X6X4X-X'.XX].-X>X#X#X",
"XX:X].=X4X;X%X;X-X4X&XXX>X;XwXeXoXXX'.+X=X&X&X].'.-X=X#X,Xk m >.A.I.F.V.m.j.M.m.l.J.pXgXT.x.Z h ( #X].-X-X'.-X].XX4X6X;X6X#X>XXX].'.&X=X#XXX",
"XX-X(.oX8X;X;X;X-X5X].XX%X>XwX>X$X+X@X'.=X].&X`.].-X=X'.,Xj I j.pXP.j.m.V.M.M.j.f.C.P.T.I.i.K h } #.].4X&X].-X'.XX4X;X4X;XXX<XXXXX`.&X].=X].",
"=XXXXX`.7X4X1X1X5X6X(.#XoX>X>X;X%XXX=X'.=X'.].~.#X-X>X]..Xi 4.D.pXL.m.m.M.M.V.s.S v ; u -.-.H q r p @.-XXXXXXX/.%X;X;X;XXX=X>XXX=X~.+X'.=X/.",
"&X].&X/.#X5X;X1X6X6X'.XXoX$X5XoX$XXX=X/.+X'.#X~.=X#X0X|.=.Z 5.D.iXL.n.m.M.m.M.j.j.H.>.i nXbX$ X t u w ~ ~ +XXX].%X;X;X#X].>X#XXX=X~.OX(.@X/.",
"XX&X].`.~.9X%X6X6X6X].~.#X#X5XXX$X:X=X/.+X'.XX^.$XXX9Xw.P ;.g.C.iXP.C.B.m.M.M.M.V.T.i.y.BXBXZ % 6 B , t p o.Q.] $X8X%X$X].9X].].XX/.XX(.+X/.",
"].-X].].'.4X6X1X6X%X*X*X=X#X5X#XXX:X&X].XXXX-X>X%X#X0XtXY m.M.V.iXsXiXV.m.B.m.M.m.M.n.V.zXgXm.T v L N : p p p p #.4X%XXX$X9XXX#X#X<XXXXXXXoX",
"#X-X#X$X].%X1X1X1X6X*X].7X'.4X-XXX=X=X'.=XXX$X5X$X].5XtXY m.K.iXiXhXzXyXC.n.j.G.gXgXgXP.G.k.+.n b H v.x.O O a p ..%.$X].-X0XXX].=X:X].-XXX>X",
"$X-X#X&X*X4X1X1X1X1X].*X<XXX%X>XXXXX=X].=X-XXX5X].]..Xt.R n.U.sXiXgXW.fXT.C.C.T.xXvXlXpXV.a.u.f.p.1.P.P.3.g + y p | #X].-X-X].'.=X&X=X-X(.>X",
"%X7X-X#X%X6X%X1X1X%X>X<XXX:XXX5XXX'.=XOX'.=X%X5XXXQ.z V :.l.L.sXsXx.<.jXlXaXaXaXpXpXsXpXV.C.pXsXP.l.m.D.iX6.O y p | #XXX-X=X'.'.XXXX=X].].8X",
";X1X%X].#X4X1X3X%X%X6X].'.#XXX>X$X'.XX+X(.XX5X>XXXQ.u V :.m.P.sXsXf.K gXhXpXsXyXS.f.f.f.;.-.7.x.c.F.M.D.fXyXB.s 8.*X%X#X#X&X~.'.XXXX#X`.*X6X",
";X%X#X].#X%X6X3X%X;X4XXX=XXXXX<X=X+X'.@XXX].5X;X].9.d Z :.n.P.sXsXc.:.v.P.yXuXK.n.,.H n b * % c E h.g.B.J.iXZ.=. X7X$X%XXXXX).].#XXX&X#X*X6X",
";X%X#X+X#X#XwX3X;X5X=XXX-XXX].<X+X=X].'.XXoX9X;X[ y y V L m.P.sXpXL.j.+.p.V.V.M.M.V.p.H K K H h # a p U +.T 0.XX%X5XXX$X$XoX(.].].].-X].].9X",
"2XXXXX-X].XX6X;X2X5XXXXX>XXX'.-XXX=X].].%X%.o.8.j o . ;.l.M.S.K.pXpXL.g.<.1.m.l.1.4.T h U U U a r r e p m 8.[.>X%X5X].=X:X=X(.XX'.XX=X`.#X5X",
"1X].-X-X`.%X1X;X>XoX].oX>XXX(.=X'.&X/.[..XX.s Y T T T 5.l.M.m.M.P.pXY.S.p.:.h.4.N @ + r r z } ^ ^ / j w } &X$X>X>X>X`.-X4XXXoX@X(.=X+X/.-X-X",
"%X].-X-X/.:X%X;X%X'.+X#X=X:X(.oX'.@XW r u . Z b.m.m.m.<.E M.V.M.V.V.V.m.V.b.Y t a < 8 y p  .4XXX#X>X>X/.&X;X;XeX-X*X).-X:XXX:XXX(.-X'.'.>X#X",
"XXXX=X<X].-X#X>XXX].=XXX=XeX(.XX'.Q @ ;.U.U.U.W.T.K.M.h.1.:.h.V.m.m.m.V.g.E ; . , = = , p [ 4X].:XoX5X'.:X;X;X;X%X#X!.&X:XXXoX/.+X+X~.XX-X].",
"XXXX].7X#X#X#X8XXX#X-XXX#X8X>XXX] p o l.vXvXvXcXhXyXS.S.V.2.s.V.B.M.m.V.5.m F Z c v v v a &.#X].%XXX:X4X$X5XwX;XXX].!.-X:X#X>XXX:X(./.=XXXXX",
"#XXX#X7X=X#XXX8XXX$X:X:X$X>X>X(._.y 4.G.zXxXzXzXfXyXpXyXyXyXD.l.M.m.M.M.m.m.B.5.S S H S h 8.-X$XXXXX$X4X;X>X;X$XXX&X).=X4X#X8XXXoX(.].+X=XXX",
"-X'.#X>X:X].].7XXX>X:X>XoX:X8X]  ., B.fXzXzXjXhXsXpXpXpXpXsXyXK.M.n.m.m.m.V.M.j.p.p.a.5.Y 8.$X-XXXXX].-X:X;X;X$X].=X#XXX4XXX:X-XXX'.XX].=XXX",
"=X'.'.-X9X].].8X#X6X;X%XXX#XeX^ > m A.fXzXzXhXiXpXpXpXaXaXaXsXpXD.V.V.D.V.V.C.V.C.D.F.V.R q.'.=X=XXX].XX-X%X%X$X`.+X&X].>X$X-XXXXX(.+X'.XXXX",
"&X].`.#X8X-X].5X;X6X#X#XoXXX<X .0 S J.sXsXsXsXpXpXpXsXpXpXpXpXpXiXuXiXiXiXiXiXiXiXiXpXyX3.q./.+X7X=X].].#X$X%X$XXX(.=X].#X-X%X'.XX^.@XXXXXXX",
"].'./.].:X>X'.>X6X5XXX#XoXXX$.z I p.L.sXpXY.L.L.L.L.K.P.pXpXpXpXpXpXpXpXpXpXpXsXsXpXsXiX3.q.^.].7X-X#X'.XX$X$X$XXXXX@XXXXX>X#X/.=X/.'.@XXXXX",
"].].~.XX#X5XXX2X6X5X].].#X] p & ;.S.Y.sXiXV.a.n.j.m.B.P.sXaXpXpXpXaXiXaXaXpXpXpXpXpXsXiX3.t./.].-X0X$X].XXoX:XoXXX=X=XXXXX>X$X~.].XX^.XXXXXX",
"XX]./.XX].;X;X;X5X>X].].#X] p v u.uXsXY.C.4.m V S s.yXpXpXpXyXpXaXaXpXpXpXpXpXpXpXpXsXiX3.O ..Q.].:X-XXXXX$X>XXXXX=X=XXXoX>X-X`.XX-X].].XX(.",
"XX].'.].].$X;X;X4X>X].#X#X] 5 E c.pXfXY.s.I . @ $ >.iXsXpXpXfXhXhXfXiXiXaXpXpXpXpXpXiXK.-.O p _.].-X4XXX].:X$XXX].:X=X'.$X>X#X].-X-X].XX].].",
"XX'.&XXX#X%X;X;X;X-X].].#X` 6 j.L.pXpXA.S Y } u . -.iXpXiXyXhXzXzXhXpXpXpXpXpXaXpXpXP.g.F ; s %.-X:X-X].XX>XoX$XXX=XXX].-X:XXX(.>XXX].=X].].",
"].].=XXX=X>X#X%X%X-X#X).! o 9 A.sXaXz.V g qX|.s o T V.C.S.aXfXfXcXzXzXzXhXiXpXaXiXfXC.M 4 4 9 l $.-X#X$X$X>XXXXX=X-X].'.:X=X'.XX>XXX&XXX].+X",
"].'.=XXX#X>XXX$X#X$X#X`.w ; N J.sXP.-.7 _ 4X.Xy # I 5.h.V.L.A.c.G.T.W.W.iXaXaXaXiXiXd.. & - & ; ..%.$. X>X#XXX].>XXX'.XX=X#X~.:X=XXX$X^.XX-X",
"XX].oXXX#X>XXXXX#X#X%X].w V >.J.iXm.R  .].$X.X=.u 0 A s.V.M.5.S n s.V.l.K.sXsXpXiXC.;.r < m N N B a l *.$X].#X'.>XoXXXXXoXXX/.8X=XoXXX/.XXXX",
"&XXXXXoX;X:X$X$X#X].>X].^ 7.yXsXK.:.P  .%X#X<X,Xt.6 4 5.M.B.m.j.h.D.iXJ.fXkXkXjXyXs.Z t o E b.m.p.A h.7.| _.-X'.>XoX#XXXXXXXXX<X#XoXXXXX+X-X",
"=X-X].;X>X$X&X<X].].;X` s f.sXfXH.n , | 7X#X%X%Xw.5 & 5.F.m.M.V.m.D.iXfXlXvXjXhXaX;.$ p o ,.F.h.5.p.M.b.p #.7XXX:XoX:XXXXXXX#X>X>X$XXX].XX-X",
"=XXX'.;X%X#X].,X-X].@.; S x.pXsXJ.+.U &.5X$X;X%X9.5 = 5.M.M.M.m.M.n.F.jXvXlXpXaXyXE . p o E m.D T M.F.a.p #.:X].:XXX#XXXXX'.:X>X8X%XXX'.XX-X",
"+XXXXX>X$XXX`.+X7X'.#.f S.iXiXsXiXP.V.7.=.[.%X$X&XqXs T p.l.M.m.M.m.V.sXhXsXsXJ.>.N ; p < N T S K :.M.h.p #.:X].=X].XX].XX'.:XXX>X#XoX'.].-X",
"#XXXXX%X%X(.'.].7X-X#.f v.iXfXpXaXsXP.h.a |.oX$X@X/.k 8 L m.V.V.m.m.V.K.yXpXsXZ.% 8 > p 0 : & S L H s.4.p #.>XXXXXXX-X&XXXXX:X].>X=XXX/.XX=X",
"XX#XXX$X#X(.'.'.=X>X@., * c.xXfXiXaXF.a.p |.$XXXXX_.k @ F b.V.m.m.m.M.m.K.pXsXx.$ > p j d a 4 S L L L D p @.-X:X'.XX:X=XXX'.:XXX-X-X].`.].#X",
"].=XXX#XXX/.'.].].<X#.5 b c.hXsXsXsXg.B p |.oXXXXX_.k 8 m T -.5.M.V.m.M.g.>.>.D = > /  X).! f J L L L G p ] %X:X'.'.8X+XXX].-X#X=X<XXX].#X].",
"].&X].#X'.(.OX&XXXXX X) V 2.A.yXsXP.;.  p |.-X].#X Xk 0 - $ 3 J s.l.V.M.j.2.E c & p ! 4XXX'.) T G G T *.) ).XX:XXXXXeX+X'.XX=X-X].7X].=X=X].",
"'.}.'.XX'.].OX&X#X'.4X4X~ q L J.Y.m.E o p _.-X'.&X.Xk 0 4 4 4 3 S p.M.l.P.iXD.4.= a ) 4XXX].=X/ p p > ) XX/.XX#X#X:X>X$X(.XXXX=X].-XXX<X=X`.",
"[.}.'.].'.XX+X'.XX].>X>X].O.q 3.4.R P l  X-X&X'.=X,Xk 0 - = = = v S s.P.pXpXiXS.5.B j / $X<X+X'.] #.|.).].`.'.XX#X5X;XXX'.].].&X].].#X:X=X/.",
"}.'.].].^.+X&X'.&X#X-X-X$X].W |  ._ ^ #.-X].#X'.].9.f < 3 N N M : * -.L.sXpXsXiXS.E : p #X-X'.XX].`.7X].=X'./.XX$X5X%X$X].'.].-X].].#X8X@X/.",
"].*X].].XXXX].+X&X].>X$X-X#X*X-X4X4X#X4X$X].&X].( a - = m K L J a o V b.P.sXpXsXyX2.M k .X#X].=X].].-XXX-X'.`.XX%X4X%X4X].].#X7X#XXX$X9XXX].",
"].-X-X].8X'.(.-X].].4X].>X#X].$X4X4X>X>X].].-X].) a = N J K L J 9 > 0 I g.L.uXsXyXc.E 8 / ' #X-X].].=X].&X'.'.].4X1X1X4X].].*X6X#X%X;X>XXX:X",
"7X$X>X].8XXXXX=X].].>X#X4X*X].$X%X1X4X#X].*X-X`._ a M J L K L J v , t . T l.yXsXaXP.g.$ p / :X:X'.].=X'.+XXXXXXX1X$X4X4X#X].].6XXX1X;X$X$X-X",
"=X].#X#X>XXXXXOX'.%X#X%X4X].'.%X%X%X%X#X].5X7X].9.f K L K K L J v , t t m >.yXsXpXsXv.$ > ) 5X:X]./.=X'.+XXX+XXX;X].4X-X*X].].9X#X2X;X%X>X].",
"(.XXXX#X<XXX-X'.].=XXX>X4X/.#X$X#X-X#XXX#X4X>X8.*.G K L K L S m 0 a y y # T C.iXpXsXK.4.P _ >X:X].'.'.=X'.XXoXXX-X].9X=X*X`.#X6X4X6X%X9X&X].",
"'.XXXX].>X=X=X/.].].$X5X%XXX-X#X#X-X$X].#X5X$.5 J +.K K K H M g | _ ..p + s 4.C.iXpXiXC.R &.5X%X].].].-X(.XXXX=X$X].8X#X].`.#X4X6X6X;X4XXX].",
"=XXXXX'.:X:X=X].#X].=X9XXX-X-XXX].-X$X].#XO.5 8 G L K L G v 6 =.`.XX_...p 5 ; ,.C.Y.sXyX3.o.>X#X].XX#X].].XXXX:X].&X7X#X#X*X*X4X5X1X1X-X`.XX",
">XXX].XX:XXX=XXX#XXX-X5XXX>X$XXX].-X#X].%X_ h A J K K L S 4 > k } XXXX X .#   E V.iXsXiX-.7 [ XX].oX:X(.@XXX@X@X].=X>X].*X>X#X>X;X1X;X#X].XX",
">X%X'.XX:XXXoX].:X#X#X-X%X>X#XXX'.=X].XX$X .P L L K K L J N q 6 a &.].-X{ s V p.D.iXsXiX2.1 # ` '.=X-XXX=X=X@XXX'.-X$X].=X>X#X>X%X%X%X].oXXX",
">X8XXX(.XX].XX/.>XoX%XXX-X:XXX'.'.=X/.XX$X .P K L L K L L L N = 9 a =.:X' h a.K.aXpXsXiXC.;.X O ( >X&X=X].<X=X(.'.-X].XX&X5X#X>X%X%X#X].=XXX",
"oX>XXX(.XX].]./.>XXX$X].#X7X=X`.XXXX'.#XoX).O.V U T L S N C b - 3 0 ..&X{ Y K.pXsXiXpXpXY.K.v.yXN. .}.+X/.<X&X^.XX&X].#X].8X#X#X#X%X].&XOX].",
"XX>X#X].XXXXXXXX>X(.XX].XX:X-X'.XXXXXXXXXX#X).} X.=.G N : < < 8 9 0 ..XX' Y P.sXpXsXaXaXsXsXsXfXA.t ] '.'.<X].'.=X].#X].-X4X#X].#XXX#X=XOX].",
"XX:X-X].OX].&X+X<XXXXX].XXXX:XoXXXXXXX+XXX].oX#XXX] p p p p p p p p x +X{ Y m.P.sXpXsXsXpXsXpXL.b.t @.'.].:XXX}.+X].XXXX<XoX#X#XXXXX&X+XXX].",
"XXoX=X].].'.+X+X:XXX'.'.XX(.@X@X].XXXX:XoX(.XXXXoXXX] ' ` ` ' %.` ` ` }.].$.3.7.N.z.b.B.z.N.z.7.6.' '.].'.].XX@X].(.:XXX<X$X#XoX'.].=XXX].oX",
"XX].+XXX{.'.{.].,X:X(.(.(.(.XXXX@X@XXXOX:X+XXXXX$XXX:XoX(.'.XX>X'.].(.+X'.]. .u x x } ..z z ..u _ '.]./.'.XXXXXX/.:X@XXXoX:XoXXX].'.XX].XX>X",
"'.'.'.(./.{.'.`.+X0X].XX(.XX/.'.<XOXXX'.(.<X+X'.>XoX8XXX(.(.XX<XXX`.{.(././.{./.(.(.(.@X].OX/./.'.}./.OX/.}.(.(.XX<X/.OX'.@X@X'./.(.]./.XX9X",
"].`.'.}./.{./.'.'.<XXX(.(.(.(.'.@XOXXX(./.OX,X(.;XoX>X(.^.(.(.:X(./.OX(.(.(.{.^.(./.(.:X(.'.(.OX/.'.(.OX^.'./.XX:X+X!.'.^.OX+X(.(./.'.`.XX:X",
"&X/.^.OX{.^.^.{.^.=X+X/.^./.'.`.@X(.(./.^.(.,X(.oX;X$X/.~./.^.@X(.(.OX^.^.^.^.^./.^./.,X'.(./.+X/.^.(.+X/.(.^.+X@X/.!.(.!.{.XX'./.^.^.^.XXXX"
};
