/* XPM */
static char *result[] = {
/* columns rows colors chars-per-pixel */
"70 70 235 2 ",
"   c #000000",
".  c #00000C",
"X  c #160304",
"o  c #190D0E",
"O  c #010718",
"+  c #01151D",
"@  c #091A1D",
"#  c #1A1619",
"$  c #1E1C1D",
"%  c #290F06",
"&  c #2B1607",
"*  c #351803",
"=  c #331C0C",
"-  c #3A1E0C",
";  c #2B1C14",
":  c #261C19",
">  c #381E12",
",  c #1A2511",
"<  c #3B210D",
"1  c #23211E",
"2  c #26251C",
"3  c #392315",
"4  c #34231B",
"5  c #3B251C",
"6  c #283815",
"7  c #051B21",
"8  c #161E21",
"9  c #162626",
"0  c #1D2323",
"q  c #1F3B30",
"w  c #232222",
"e  c #2A2422",
"r  c #252A25",
"t  c #262B27",
"y  c #362721",
"u  c #3A2A22",
"i  c #382D25",
"p  c #273628",
"a  c #34372B",
"s  c #461A00",
"d  c #4D170C",
"f  c #492608",
"g  c #552D0C",
"h  c #592A0B",
"j  c #5A310E",
"k  c #442514",
"l  c #4C2A12",
"z  c #472919",
"x  c #532E14",
"c  c #502F18",
"v  c #5C3214",
"b  c #54311B",
"n  c #583419",
"m  c #5B351A",
"M  c #613615",
"N  c #643817",
"B  c #62361A",
"V  c #653A1A",
"C  c #6A3D1B",
"Z  c #422D25",
"A  c #4A2F25",
"S  c #4C3224",
"D  c #493429",
"F  c #583827",
"G  c #5A3C2D",
"H  c #5D3E31",
"J  c #623A23",
"K  c #693D28",
"L  c #613F31",
"P  c #2A4C04",
"I  c #35440A",
"U  c #2B5708",
"Y  c #385908",
"T  c #2D4B16",
"R  c #384C1A",
"E  c #2E5317",
"W  c #38581B",
"Q  c #366A06",
"!  c #3E610A",
"~  c #3A7403",
"^  c #397A06",
"/  c #3C7D04",
"(  c #3B6519",
")  c #2B4429",
"_  c #394827",
"`  c #3C5C22",
"'  c #375629",
"]  c #2A4733",
"[  c #324633",
"{  c #3E6829",
"}  c #455F14",
"|  c #724116",
" . c #42670B",
".. c #447C07",
"X. c #42651A",
"o. c #487716",
"O. c #57452C",
"+. c #435926",
"@. c #454831",
"#. c #5F4730",
"$. c #4B5D3D",
"%. c #6F4123",
"&. c #68462A",
"*. c #724225",
"=. c #74452A",
"-. c #774828",
";. c #7B4A2C",
":. c #7D522C",
">. c #664932",
",. c #764832",
"<. c #7C4C34",
"1. c #7B4C39",
"2. c #6B5738",
"3. c #795637",
"4. c #436527",
"5. c #4D6935",
"6. c #527333",
"7. c #124C47",
"8. c #665647",
"9. c #4D7142",
"0. c #697041",
"q. c #9F591D",
"w. c #834B2B",
"e. c #81562E",
"r. c #824E34",
"t. c #824F3B",
"y. c #845235",
"u. c #895535",
"i. c #845B34",
"p. c #85533A",
"a. c #8B553C",
"s. c #85593D",
"d. c #8D593C",
"f. c #925C3E",
"g. c #8D643A",
"h. c #95693E",
"j. c #965D42",
"k. c #965D43",
"l. c #976544",
"z. c #9A6245",
"x. c #9D6A44",
"c. c #946B4B",
"v. c #9D7243",
"b. c #9D7448",
"n. c #A26D46",
"m. c #A86847",
"M. c #A36D49",
"N. c #B16F4E",
"B. c #A37545",
"V. c #A57946",
"C. c #A47249",
"Z. c #AA754B",
"A. c #A77948",
"S. c #AD7C4C",
"D. c #B5734C",
"F. c #B17E4E",
"G. c #B97A51",
"H. c #D27642",
"J. c #C77E55",
"K. c #3A8503",
"L. c #348C00",
"P. c #3A8E00",
"I. c #359100",
"U. c #3C9300",
"Y. c #3D9800",
"T. c #44840A",
"R. c #4A8A0A",
"E. c #419600",
"W. c #4A9404",
"Q. c #459B00",
"!. c #499E00",
"~. c #459D0D",
"^. c #4A9E0D",
"/. c #539F07",
"(. c #4F8715",
"). c #518A14",
"_. c #558D1B",
"`. c #4D9514",
"'. c #559515",
"]. c #4CA300",
"[. c #4DA603",
"{. c #4DA40D",
"}. c #4FA80D",
"|. c #53A600",
" X c #54AA00",
".X c #59AD00",
"XX c #52A60D",
"oX c #5CA30E",
"OX c #55AB0D",
"+X c #59AE0D",
"@X c #5DB200",
"#X c #56B00D",
"$X c #5DB20D",
"%X c #5AAB15",
"&X c #5EB316",
"*X c #61B500",
"=X c #62BA00",
"-X c #69BB00",
";X c #61B50D",
":X c #64B90D",
">X c #69BC0D",
",X c #61B616",
"<X c #63BA16",
"1X c #69BD16",
"2X c #65BB1C",
"3X c #5D942B",
"4X c #6BC107",
"5X c #6BC016",
"6X c #67894D",
"7X c #AE814C",
"8X c #B3834F",
"9X c #BA804F",
"0X c #B68650",
"qX c #B98651",
"wX c #BB8A52",
"eX c #AF8974",
"rX c #C78557",
"tX c #C38C56",
"yX c #CB8E59",
"uX c #D68A5C",
"iX c #D48D5D",
"pX c #CA9159",
"aX c #D7905E",
"sX c #DC8E61",
"dX c #DD9161",
"fX c #D6916A",
"gX c #C89375",
"hX c #E19263",
"jX c #E5A27A",
"kX c #4F998B",
"lX c #C8A28C",
"zX c #E8AB88",
"xX c #EABDA3",
"cX c #DEC4A6",
"vX c #96F0D7",
/* pixels */
"!.!.|.:X|.>X/./.!.!.{.{.].|.|.:X*X|..X;XoX/.;X@X.X1X.X;X].].&X#X&X!.!.|.!.+X:X;X|.].;XOXQ.|.5X[.$X;X1X!.|.].OX!.!.OX!.+X.X|.5X].!.].|.>X>X-X",
"OX].].1X|.;X;X/.!.].Q.2X].;X].5X.X.X/.>X+X|.$X>X.X>X.X;X|.].&XOX&X!.E.].!.].:X:X].].,XOX].].:X X.X:X<X!.!. XOX].].OX!.$X X;X<X].+X|.!.:X-X*X",
"[.#XQ.$X.X;X;X/.!.OX!.$X X$X!.1X.X.X.X;X*X.X;X>X|.:X;X;X$X!.$X].$XQ.!.].|.!.+X1X!.|.2XXX].].$X].|.1X;X/.Q.+X}.].,XOX].OX].$X#X!.$X!.!.:X-X*X",
"!.$X!..X.X:X@X.XE.OXOX].$X|.E.$X;X.X;X;X*X>X>X*X|..X+X;X$XQ.$X].OXY.XX].$X].].5X].|.+X.XQ.].$XQ.|.1X$XW.Q.OX].#X1X].OX!.Q.:X$X].+XU.|.*X@X*X",
"].[. X X@X:X:X.X!.Q.$X[. X XU.|.+X+X>X*X*X4X>X.X|.!.@X;X;XE.$X].OXU.(.4.( +X!.4.W K.|.+X!.[.[.]..X<XoXE.!./.OX#X+XOX.XU. X$X,X$X!.U. X;X@X@X",
"#XQ. X@X*X@X>X@X|.Y.}.$X|.>XU.OX+X|.;X>X*X4X4X|..X|. X;X,XQ.+X}.{.T.0.8.r 3X3Xr e T [.2X].[.].$X.X$X;XE.|.Q.#X].|.$X!.U.$X].;X,XQ.!.+X:X X X",
"$X].[.$X>X.X>X.X|.[.].$X X1XQ.!.|.|.|.>X-X-X>X|. X;X|.OX,X!.].OXT.2 lXlX$ $ a w w ` ].$XOX[.].$X.X.X>X!.+X X|.].+X.XY.].|.|. X1X X|.$X:X X X",
"$X[. X@X5X X:X.X|.&X].;X|.:X+X|.].oX|.@X*X*X:X.X!.1X+X|.$X|.].(.0.eXzXgX0 + w w r ` !.OX$X].OX$XoX.X;X.X1X.X]..X$X.XQ.$X[.OXOX;X$XQ.;X$X X].",
"OX!.|.|.1X|..X+X].$X!.$X].$X1XOX|.+X|.].*X@X:X.X!.!.;X].+XOXE.6 eXxXjXB.: + w w w 4.!.|.$XQ.OX X;X!.$X.X:X.X]. X|.$X].$X[.#X$X X$X!.$XOX[.!.",
"}.].].|.:X.X|.+X|.OXQ.|.].[.1X$X X|..X/..X$X;X.X|.E.;X+X.XW., B eXxXgXw.= $ 0 w r 6.|.[. X].].]..X/..X.X:X XQ. X].:X.X$X|.$X$X]. X].$X$X].Q.",
"[.[.Q.|.$X$X!.|.OXOX!.]. X|.1X$X|.].|. X.X+X+X X/.|..X1X..I b m.fXjXM.f n 4 8 8 w [ ( !.[.].!.|.|..X]. X$X XY.].].:X1X$X|.5XOX|.].|.$X$X|.OX",
"$X|. XoX$X:X].@X;X;X{.Q.:X|.4X:X|.].!.OXoXOXoX].!.+XoX;XT u N J.hXJ.;.X C u 0 y e w w o.].].$X X/.$X!.$X&X].].!.].:X5X@X>X$XOX!.].!.OX$X|.|.",
"[.#X].OX$X@X|.@X+X;XXX!.$X@X4X&X[.].].{.OX{.OXQ.!.+X+X].W 4 V J.uXm.F * N 5 5 B Z 8 0 w U ].].OXOX|.!.$X+XQ.OX!.].;X>X@X4X|.$X].!.Q.XXOX|.].",
"].OXQ.[.1X@X@X=X+X:X!.]. X$X4X:X X{.{.Q.OX!.XXE.!.OXXXY #.c g J.uXj.J B y.J l j %   . 8 p ( ].OX;X!.!.$XXX].$XQ.].;X@X;X@X].&X].].E.XX!.OXQ.",
"XX].].Y.<X;X*X*X:X>XQ.|.[.#X$X@X.X].OXQ.OXQ.].P.|.OXR.w m | :.G.J.z.;.r.z.r.-.:.<.=.&.S e w ^ {.,X!./.+X].].].Y. X@X@X@X].OX&X].OXP.{.Y.}.Y.",
"OX!.XXP.].>X@X*X>X>X!.].[.@X:X[. X].XXY.{.Q.].U.OX|.'.1 k e.8XC.k.k.k.j.j.j.x.wXiXiX8X:.k t ^ }.,X+X.X|.].OX!.!..X*X@X|.!.$X[.].OXL.{.Q.}.U.",
"].XX!.E.L.1X@X>X>X>X/.U.|. X:X]. X$XOXY.{.!.].U. X|.%X@ K n.qXC.j.j.k.z.l.y.;.3.c.j.q.N F w ) ^ !.1X.X|.].$X].[. X:X.X|.!.1X!.!.|.Y.].Y.{.U.",
"!.+X/.!.E.;X:X*X>X*X/./.OX].:X X].#X{.!.!.].OX+X X|.o.u t.m.0XM.j.z.k.z.f.-.%.F   7.0.8.s 8 r ' W.'.%X|.].$X$X[.].;X.X!..X1X].].].&X!.].].[.",
"|.+X/.|./..X*X*X*X;X/.!.1XE.;XOX].OXOX!.#X].|.>X].P 5 v y.M.qXM.j.j.j.k.l.j.M.0Xd kXvXkX  e 0 w a w ( |.].&XOX].].;X|.|.+X<X|.!.OX+X].OX].$X",
" X+X XOX.X;X*X*X*X@X|.oX&X!..X$X].].OXQ.}.OX[.:X!.T G p.a.m.qX0Xx.j.j.j.k.d.l.C.K S.cXS.h ; c l . 8 @.W T T.|.!.].:X|.!.+X+X!.Q.OXXXOX$XQ.$X",
".X,X+X|.|.>X@X*X*X.X;X&X].#X].:X].Y.XX{.!.OX.X:X[._ H j.x.B.0XtXqXx.j.k.k.m.m.m.M.N.H.m.,.f v %.>.i 7 w w _ Q.Q.].;X|.|.+XoXE.Q.].!.OX!.!.1X",
"@X*X.X!.|.$X*X-X.X.X>X!.Q.|.].$X XQ.].{.Y.].:X$X!.+.G j.F.wX0XiXuX0Xz.j.k.J.hXsXrXF.k.=.j M h i.8X#.O w w w r K.].;X.X|.|.XXU.Q.].].].E.|.:X",
".X.X|.!.|..X>X-X.X@X$X|.OX].].&XOX{.!.}.].].:X XY O.K j.F.wX0XB.N.yXqXC.S.tXpXpXtXF.k.C.V.B.a.j.Z.C.3.O 7 t w K.|.:X X X|.].U.!.|.].XX|.|.1X",
"*X.X|.{.|.|.4X-X.X>XOX].OX].!.&X{.OXQ.Q.]. X1XR.8 n ;.j.F.wX0X-.w.sXyXqXwX8XS.V.S.x.p.C.S.S.n.k.k.wXA.#.i t R W..X>X]. X X[.Y.Q.!.!.+X/./.1X",
"=X].].OX!.].>X@X@X$X].].$X].Q.+X].OX!.]..X$X1XT.t c -.j.S.wXwX:.:.wXwXqXqXZ.y.C | J 3 3 x K j.k.z.F.wX0X>.4.[.$X.X:X!.OX$XOXY.].Q.].OXE.|.:X",
"=X!.OXOXE. X*X@X4X].].[.$X].Y.OXQ.XXY.OX$X$Xo.9.0 k *.j.F.wXwXl.<.i.x.Z.M.x.k.a.C j j j l 5 F H >.i.h.3.6.+X@X$XoX$XE.+X$X].[.}.Y.OX{.E.+X+X",
" X!.$X+XU.$X X@X XQ.{.|.OX#XY.].E.XXY.+X;XR.$.1 $ F r.j.Z.0XqXS.f.K ;.d.k.j.a.p.K b m B c 7 7 + + k z _ |.*X@X:X;X+XP.OX#X].#X[.Q.OXY.Q.+X/.",
"|.].OX&X!.+X X$X].].OX].OX5XY.].!.].Q.+X`.a 4 * * y.z.j.j.M.qXwXF.z.*.-.j.;.c e e w w e e w w w w e Y Q.+X*X@X@X.X|.K.XX#X]. XU.{.{.P.].+X!.",
"].].!.,X|.|.].1X].|.OX]. X<X#X].].!.$X~ ]   G <.,.-.y.z.k.z.n.M.x.z.f.y.H A 3 ; 8 0 w X.......Q ..Q /.;X X4X<X@X|.!.L.+X$X|.$X].#XQ.U.OX].].",
" X].|.,XOX|.].1X]. X#X#X X$X$X].].!.`.6 S :.m.D.N.u.K p.f.k.j.j.j.j.f.>.O + ; = ; e t `. XOX+X|.|.!. X$X.X$X@X.X!.XXU.OX$X].<X].[.Y.].{.OX].",
"OXE.|.$X$X!.!.,X].$X$X$X[.$X&XQ.|.K.,   <.uXdXsXdXD.p.V u.k.k.z.z.j.K % < = < = - 3 r (.]. X|.+X].].].+X$X@X@X X!.XX|.].:X].$XOX].Y.].!.OX].",
"OX!.!.+X1XQ.!.,X|.>X X@X[.|.5X]. XP.9 F x.aXhXsXdXrXA.b.z.j.z.j.k.j.p.<.y.V g x g l r ).Q. X!.OXOX].!.].+X X.X XE.XXXX!.$X XOX].].Y.}.Q.].].",
"XX!.E.|.1XOXQ.:X@X>X X|.].].<X!.].U 9 s.G.sXsXaXiXtXwXwXS.x.j.k.k.j.k.z.z.r.-.=.;.K r ).Q.].U.{.&X+X!.Q. X.X X XQ.].OX!.|.;X.XE.].U.}.].].].",
"!.Q.U.!.$X$XQ.:X:X:X|.].|.].<X!.U : % h.yXsXdXuXwXwXqXqXqXS.j.l.j.z.j.l.k.z.k.k.z.p.0 _.!.].U.!.&X+X|.Q.[. X X X].Q.}.].].+X|.U.OXU.Y.}.].].",
"!.!.P.!.[.:X].@X>X;X!.!.|.!.,X!.P e s h.wXtXtXtXwX0XqXqXqX0X7XS.F.S.S.F.F.F.F.F.0Xc.9 _.!.Q.Q.!.$X,X X!.].[.#X[.].OXOX].].$X|.U.].].U.].].Q.",
"].!.Y.].!.@X@X@X:X$X!.].|.!.,XXXE D y.S.wX0X0X8X7XS.F.qXqXqXwXwXwXwXqXwXqXwXwXwXtXB.8 _.!.!.Q.!.!.$XOX].]. X$X].].#XOX].[.:XOXE.].OXQ.!.Q.].",
"].Q.!.!.!. X@X@X;X;X!./.|.!.+XXXW >.0XwX0XqXwXF.l.j.x.0XwX0XwX0XwXwXqXqXqXqXqXwXqXb.9 _.Q.!.!.].!.OX$X].].OX X].!.#X}.!.|.$X XQ.OXOX!.].!.!.",
"!.!.XX].|..X@X@X@X+X!.!.|.]. XOX4.>.wXwX0XwXwXA.J l.0X0XqXqX0X0X8X8X0XqXwX0XwX0XZ.j.0 (.Q.!.].{.OX#X$X].].$X[.[.].OX].!.OX$X].Y.$X].].OX!.!.",
"!.!.OX].+X$X|.|..X+X|.E.|.].].OX4.O.b.8XwXwXwXv.& j.qXqXqXqX0XrXtXtXwX0X0XqX0XqXM.1.0 o.Q.!.OX].$X#X[. X[.$X].].OXOX!.!.#XOX!.!.$X].XX].!.{.",
"!.Q.OX].|.$X]..X|.|.|.E.Y.{.].}.{ 5 v v.wXwXwXV.3 ,.M.qXqX0X0XyXdXsXtX8XwX0XwX0XZ.3.0 ..!.^.OX!.#X$X].,X$X X[.].$X].Y.[.OX|.L.$XOX|.|.U.].OX",
"].!.[.]. X$X].]..X|..X!.!.].].].' e * x.yX0XwXB.g k ;.M.n.A.qXtXiXhXaXaXsXrX0XwXi.z w ^ ].].OXQ.$X X[.$X|.].|.Y.:X[.].].[.].Y.,XOX].].Y.].].",
"XX].].[.@X$X X|.!.|.+X!.].!.{.].o.$.# p.S.0XtXqXg.l > 1.j.m.G.S.C.G.J.J.J.qX0XS.&.. w ..OX].].].$X X$X$X].].OX!.$X[.|.].].].].,X X[.].].XXOX",
"OXOX].@X$X XXX&X!.!..X!.].].{.!.#X`.p k :.0XiXsXtX:.  @ ,.z.j.K j N a.k.k.qXF.j.D + a ^ &X{.].].&X.X$X[.!.Q.&X].$X].#X].].].|.$X$X X].!.].+X",
"OX].Q.@X.X].!.%XOXQ.@X!.!.{.].!.#XK.w o -.wXtXyXaXf.X o y D D $ &.S.S.J.rXsXG.-.Z 9._.|.$X].Q.].$X X[.Q.].Q.$X!.#X].|.].].Q.#X$X<X.X].Q.].+X",
"XX].!.:X X].E.{.,X!.+X!.Q.{.Q.].OXE.{ 0 O.v.A.qXsXZ.:.K F Z # . >.b.0XtXaXdXF.f : 9.;X]. X].Q.]. XOX].Q.[.!.#X!.}.].].!.].Q.#X].:X[.].Q.!.+X",
" X].!. X XQ.Q.!.&X+X+X.X].Q.!.OX|.Q. X{ 4 v r.M.0XqX7Xz.z.f.| %.n + b.wXwXwXv.= w 6.+XOX|.].].{.#X[.Q.].].].$X].].].OX{.].].#X!.$XOX].U.!.OX",
"|.].]. X].Y.Q.Q.OX$X@X$X].U.].OX!.!.$XQ.o.2 J r.x.qXwXS.rXuXrX9Xg.& i g.wXwXb.= : $.|..X].{.OX].].Y.].OXQ.[.#XOXQ.].$XOX].E.$X].OX$X!.E./.|.",
"!.XX]. X!.Y.Q.!.!.$X$X$X].L.].OX!.].|.[.{.6XO.B ,.h.S.wXsXsXaXpXV.l   >.wX0Xh.= $ 5.].+X!.].OX].].].].&XY.]. X$X!.Q.,XOX].].OX].OX&X!.].].!.",
"!.XX!.].!.Y.{.{.!.].;X;X|.Q.].$XQ.|.|. X].$X6Xw = s :.0XiXuX0XwXZ.C o 2.qXM.1.- 2 6.].$X].!.$X}.!.$X].$X!.Q.].#X].].5X}.Q.].OXOX!.,X!.OXOX!.",
"W.XXE.].Y.].{.{.|.Q.;X;X|.!.!.,X!.OX X X].:X6X0 @ # S :.F.yX0XwXF.k.Z H M.m.p.v 3 4 _ oX].].$X].Y.OXOX].!.Y.!.|. X#X$X|.Y.].|.OX!.+X].&XXXE.",
"W.^.!.].Y.].{.Q.].!.+X+X|. XE.$X$XOX X|.$XOX6.0 5 # O d u.S.qX0Xn.t.Z A r.k.d.N v z w R.[.$X{.].Q.Q.&XY.!.Q.Q.|.|.:X@X[.E.!.!.XX!.].].$XOXU.",
"^.W.!.!.U.{.{.Q.XX|.$X+X|. X!.$X:X;X.X.X$X].5.D | m 5 0 > :.0XM.,.= @ 5 V a.d.C N n e T.@X#XY.].!.Y.&X!.XXE.Y.]. X:X.X|.!.E.!.+X!.!.].1X}.Y.",
"!.XX].!.].].!.{.XX!.;X|.+X|.|.+X:X;X|.;X!.' 1.l.A.7Xh.m 3 i >.G Z e ; l V a.z.d.-.x 3 a  .].].OX].!.+X].OXQ.Y.!..X:X.X$X/.!.|.,X].]. X1X].Q.",
"!.+X+X!.,XY.Q.OX!.!.;X!.$X|.!..X;X;X$X$XT.7 1.S.yXpXS.y.c + O + q 6.@.k n a.z.z.;.g < y R Q.[.OX!.!.OX!.XX!.Q.!.;X*X@X:X|.!.oX;X|.@X*X+X].$X",
",X|.$X!.<X].Q.OX!.!.$X|.;X/.!.|.@X@X;X X^ r <.D.sXyXS.z.K o 1 w ( ].` : - r.z.l.;.g < e W Q.$XOXQ.Q.OXQ.{.].].].@X.X;X;X|.!.|.;X].*X@X.X XOX",
"+X!.|.|.:X].].{.E..X X.X;X!.!..X.X.X.XQ i x h.rXsXyX7Xz.L + w ( !.]. X! e J u.z.;.f = e `  X$X$X!.Y.XXQ.XX].{.].@X!.:X+X|.W.].1X|.=X@X X$X!.",
"Q.].].[.,X[.OXQ.!.OX].$X$XY.|. X|.+X^ ] Z =.V.pXdXrXv.u.G 9 T XXQ.|.]. X} O.J <.K M x 3 $.o.,X+X!.Q.!.OX!.].[.].oX!.1XXX|.E.|.>X;X>X.X1XXX!.",
"Q.].].!.$XOXOXY.].!.|.:X.X[.$X|.].(.e + G j.V.tXuXN.<.B 5 ` !.OXQ.|.!. X:X` : & n C V l 4 : ). X!.!.!.OXY.[.].}. X].<X|.!.W.|.;X>X>X@X;X!.!.",
"OX].].Q.#XOXOXQ.].!.OX1X].OXOX].Q a ; f %.l.p.-.u.%.z u ( #X!.OX!.[.!.$X>X6 e - f l C C x ; ] [ [ q Y ].Q.].].#X!.XX<X].|.|..X$X>X*X*X+XQ.].",
"$X].Q.].$X].OX].|.|.OX>X[.&X|.~ _ 4 f C r.p.K h f = 1 { W.OX!.XXQ.|.!.+X.X~ +.4 ; l B C v x K 3.j.p.2.Q XX].}.}.Q.OX+X|.+X+X.XoX@X@X@X|.!.].",
"$X XQ.].OX].|.!.#X X X+X@X$XE.r 4 l C f.f.N N m = : R &XQ.XX!.{.!.XX].+X|.].).w ; x N N B C j.S.0XM.1.7 R.OX}.].Q.OX|.].oX$X|.+X.X.X.X!.[.].",
"$X<X].Y.|.!.].Y.:X]. X].OX$XW.t l *.a.S.A.M h n 1 o.OX&XQ.{.!.!.!.XX].OX!.|.R.w ; l N C M V B.0Xx.&.5 w / &XOXQ.!.OX].].OX;X|.;X.X.X|.!.}.].",
"[.:X].Q.].!.!.Y.$X!. XQ.|.,X`.0 b -.z.F.9Xh.u.K # ` o.o.E.!.].Q.!.{.!.OX!.].T.e z v V N K u.Z.x.,.z p Y U.&X{.U.].XX!.|.!.<X|.|.|..X!.XX{.Q.",
"].$X[.Q.].!.].Q.$XQ.].!.].+XXX) z *.a.F.wXwXS.d.F D D y ! !.].Q.Q.XXE.].].]...w m C V M ;.f.j.=.o 8 ! Q.Q.&X!.Q.}.!.].!.+X$X|.|. X].].}.{.!.",
"].#X#X!.{.!.XX{.&X!.].].].].#X[.+.A K B.wXwXqX8XS.8XC.v u Y /.XXQ.[.Q.{.|.]./ 1 m | V C m b D D 1 ~ !.!.!.+X].{.{.].].].&X[. X|.].].XX{.].].",
"].].OX!.Q.Q.^.{.#X].Q.Q.].Y.}.}.K.+.k i.C.C.qXtXtXqXZ.p.G , ].$XQ.!.E.{.].].].Y S F b b z o +.X.! Q.!.Q.Q.!.].{.!.Y.OX[.$X X X|.Q.!.XX].!.].",
"].!.{.!.~.Q.^.!.%X#XY.Y.Y.Y.].].XX^.p < K j.C.0X8Xx.j.j.G I ].$XQ.Q.Q.~.Q.Q.].[.P $ 6 p r 6 !.].Q.Q.Q.Y.Q.!.].].Y.OX}.].[.#X].].!.E.].!.].$X",
"Q.Q.!.Y.U.~.Q.Y.{.&X!.].Y.].U.Q.&X{.!.I i D D O.O.D i D  .Y.].&X[.U.~.Q.U.Y.~.Y.Q.P.U.{.E.!.Q.U.E.^.E.~.U.{.Y.Y.].&XU.~.].}.}.Y.Y.Y.!.Y.].1X",
"!.E.Y.~.Y.~.U.Y.Y.&X].Q.Y.Y.Y.Q.OX~.!.K.P U Y U  .Y  .U L.Y.Y.OXQ.U.~.U.Y.Y.Y.U.Y.U.Y.OXQ.Y.Y.{.Q.Y.Y.~.I.Q.U.].}.{.I.Q.I.{.{.Q.Y.U.Q.U.].$X",
"XXP.U.{.~.P.L.{.U.}.{.U.U.U.Q.Y.{.Q.Y.I.I.U.%XY.]. X XU.L.Y.U.OXU.I.{.I.I.I.Y.U.U.L.U.OX!.Y.U.}.U.I.Y.{.U.U.U.{.}.U.L.Y.L.{.Y.Y.U.U.U.L.].]."
};
