/* XPM */
static char *result[] = {
/* columns rows colors chars-per-pixel */
"70 70 231 2 ",
"   c #010101",
".  c #0D0001",
"X  c #01000C",
"o  c #160805",
"O  c #19120C",
"+  c #000919",
"@  c #01141C",
"#  c #09191D",
"$  c #1D1916",
"%  c #191D1C",
"&  c #270A06",
"*  c #281709",
"=  c #381C07",
"-  c #341C0A",
";  c #281D17",
":  c #2C1D15",
">  c #231E1D",
",  c #361E15",
"<  c #36220F",
"1  c #3B220D",
"2  c #2B231E",
"3  c #28271D",
"4  c #382316",
"5  c #33231C",
"6  c #3C261B",
"7  c #2C331D",
"8  c #041B21",
"9  c #091D22",
"0  c #171E23",
"q  c #0A2226",
"w  c #1D2223",
"e  c #182B28",
"r  c #17322B",
"t  c #1A342C",
"y  c #232222",
"u  c #2B2422",
"i  c #252A26",
"p  c #292A26",
"a  c #322621",
"s  c #352924",
"d  c #3B2A22",
"f  c #2C332B",
"g  c #28372C",
"h  c #37392C",
"j  c #2D3B31",
"k  c #343D30",
"l  c #422203",
"z  c #45250C",
"x  c #4A250B",
"c  c #4B280D",
"v  c #522B0D",
"b  c #5D330F",
"n  c #462614",
"m  c #452913",
"M  c #492915",
"N  c #442A1C",
"B  c #4B2D1A",
"V  c #552F15",
"C  c #4C341B",
"Z  c #5E3414",
"A  c #53331D",
"S  c #593619",
"D  c #5B341A",
"F  c #60320E",
"G  c #613615",
"H  c #663916",
"J  c #613619",
"K  c #653A1B",
"L  c #6B3D1D",
"P  c #472C24",
"I  c #452E24",
"U  c #542F20",
"Y  c #463327",
"T  c #4A342A",
"R  c #573726",
"E  c #5A3623",
"W  c #52372C",
"Q  c #5B3A2D",
"!  c #5D3D31",
"~  c #643A24",
"^  c #6C3D22",
"/  c #653D2B",
"(  c #633F32",
")  c #354A2C",
"_  c #2E4936",
"`  c #374A36",
"'  c #385538",
"]  c #3B543B",
"[  c #70431D",
"{  c #57412B",
"}  c #4B4633",
"|  c #455A3B",
" . c #6D4123",
".. c #6A432A",
"X. c #744425",
"o. c #73442C",
"O. c #754829",
"+. c #7B4B2C",
"@. c #654233",
"#. c #6A4434",
"$. c #744532",
"%. c #724835",
"&. c #7D4C33",
"*. c #774B39",
"=. c #7C4D3A",
"-. c #6D5233",
";. c #7A5737",
":. c #4A673D",
">. c #576D3B",
",. c #476944",
"<. c #4C6B42",
"1. c #556741",
"2. c #536D44",
"3. c #4F7448",
"4. c #527243",
"5. c #597A47",
"6. c #82562D",
"7. c #814E33",
"8. c #834F3A",
"9. c #855235",
"0. c #895436",
"q. c #865C37",
"w. c #85523A",
"e. c #8B553B",
"r. c #8D593D",
"t. c #945D37",
"y. c #915A3E",
"u. c #8C643A",
"i. c #93643B",
"p. c #986B3E",
"a. c #8E5940",
"s. c #915741",
"d. c #955D42",
"f. c #985F44",
"g. c #976744",
"h. c #9B6245",
"j. c #9D6A44",
"k. c #9D7145",
"l. c #A16B47",
"z. c #A26748",
"x. c #A36C49",
"c. c #A96B49",
"v. c #A37445",
"b. c #A87847",
"n. c #A67249",
"m. c #AA754B",
"M. c #AD7B4C",
"N. c #B5744D",
"B. c #B17E4E",
"V. c #B77C51",
"C. c #C37E56",
"Z. c #348B00",
"A. c #398E00",
"S. c #359100",
"D. c #3C9400",
"F. c #3D9800",
"G. c #419600",
"H. c #459B00",
"J. c #499E00",
"K. c #459D0D",
"L. c #4A9E0D",
"P. c #4DA300",
"I. c #4DA603",
"U. c #4DA40D",
"Y. c #4FA80D",
"T. c #53A600",
"R. c #54AA00",
"E. c #59AD00",
"W. c #52A60D",
"Q. c #55AB0D",
"!. c #59AE0D",
"~. c #5DB200",
"^. c #56B10D",
"/. c #5DB20D",
"(. c #5AAB13",
"). c #58A718",
"_. c #5DB216",
"`. c #61B500",
"'. c #62BB00",
"]. c #69BA00",
"[. c #61B50D",
"{. c #64B90D",
"}. c #69BC0D",
"|. c #61B616",
" X c #64BA16",
".X c #69BD16",
"XX c #66B71C",
"oX c #529921",
"OX c #58873E",
"+X c #638F3E",
"@X c #669B3B",
"#X c #5AA423",
"$X c #5DA232",
"%X c #65AA29",
"&X c #68B324",
"*X c #6BAB32",
"=X c #69A738",
"-X c #6CA43D",
";X c #73AC3A",
":X c #76B63B",
">X c #69C009",
",X c #6CC015",
"<X c #6AC018",
"1X c #70C416",
"2X c #72C027",
"3X c #5D8546",
"4X c #638C45",
"5X c #628D4A",
"6X c #6A8849",
"7X c #64924A",
"8X c #699748",
"9X c #71994B",
"0X c #6DA541",
"qX c #76A849",
"wX c #7AB544",
"eX c #AD804C",
"rX c #B3814E",
"tX c #B68550",
"yX c #B88751",
"uX c #BA8952",
"iX c #80B94B",
"pX c #C28B55",
"aX c #CB8459",
"sX c #CC8C5A",
"dX c #D48B5D",
"fX c #D98D5F",
"gX c #C99059",
"hX c #DC8E60",
"jX c #DD9161",
"kX c #E49364",
"lX c #E89666",
/* pixels */
"J.J.T.{.T.}.T.T.J.J.L.W.T.T.R.}.`.T.E.[.W.T./.`.E.1XE.|.T.J._.Q._.J.J.T.J./.}./.T.P./.Q.G.T..XI./.[..XJ.T.T.Q.J.P.!.J.!.E.I..XI.P.J.T.}.}.].",
"Q.P.P..XT.[./.J.J.J.H.XXJ.[.P..XE.E.T.}.(.T./.}.T.}.E.[.R.P.|.!._.J.H.J.J.J.{.{.P.I. X!.P.P.}.T.E.{.XXJ.J.R.!.J.P.Q.J./.E./. XP.Q.T.J.}.].`.",
"I.^.H./.T.}.[.T.J.Q.J./.R./.J..XE.E.E.[.E.E.[..XT.[.[.[.!.J.[.T.^.H.H.J.I.J.!..XJ.T.&X&XW.).2X(.T..X[.J.H.!.Y.P._.Q.I.Q.P.{./.H.[.J.J.{.].`.",
"J./.J.E.E.}.~.R.J.W.Q.J.[.R.G.!./.E.}.[.`.} | | ' _ wX[.[.H.!.J.!.F.Q.T.!.I.P.<XI./.5._ ] ] ' <.*X.X/.J.G.!.P.!.|.T.Q.J.H.{.!.P.!.D.I.`.`.`.",
"P.I.T.E.~.{.{.E.J.H./.I.R.E.S.T.!.!.}.`.,.T #.#.( #.5.iXiX#X!.J.Q.G.Q.Q.T.!.I.iXqXqX{ #.@.#.! y ;X.X(.G.J.J.Q.Q.!.Q.E.D.T./.|./.P.D.R./.E.E.",
"^.H.R.~.~.~.}.~.T.F.Y./.T.{.A.Q.(.R.[.}.<.( d.f.f.z.%.8 u 6X(.W.L.H.T.Q.P.R.*Xf 8 T s.h.h.h.w.e ;X[.[.G.T.J.[.J.T./.J.D./.I.[.|.H.J.!.}.E.R.",
"/.I.I./.}.E.}.E.T.I.P./.R..XH.T.T.T.T..X2.! d.m.B.tXl.$.u e 5._.J.T.T.T.[.8X` @ W a.M.tXM.z.=.w ;XE.}.J.(.T.T.J./.E.G.P.T.I.R..XT.I./.}.E.T.",
"/.I.R.~.,XR.{.E.R._.P.[.T.{.Q.T.J.Q.T.~.2.! d.B.uXuXB.j.( P d qX*X*X;X*X:X>.P T a.m.yXuXuXx.=.w ;XE.}.T..XE.T.E./.E.H.!.I.!.Q.[./.J./.!.R.T.",
"Q.P.T.T..XT.E.!.I./.J./.I./. X!.T.Q.T.T.2.! d.B.uXtXuXrXj.&.Z m 1 1 1 < 1 c X.y.M.uXtXuXtXx.=.i wXJ.!.E.{.E.P.R.I./.J./.I.^.[.R./.H./.!.I.H.",
"Y.P.J.T.[.E.T./.T.Q.H.T.P.T..X!.R.T.E.T.1.! f.B.uXtXuXuXrXj.7.w.8.8.9.9.9.8.y.M.tXuXtXuXtXn.=.w ;XT.E.E.{.R.H.I.P.{.E.[.I././.P.R.P././.P.H.",
"I.I.H.T./.[.J.T.!.Q.H.J.E.T..X/.T.P.T.R.,.W a.M.uXuXtXtXtXm.z.h.h.h.h.h.h.h.n.rXtXtXuXuXtXh.( w *XE.P.E.{.T.F.P.I.[..X[.R..XQ.T.I.R././.T.Q.",
"/.T.T.Q.[.[.P.~./.[.W.H./.T.>X{.T.P.J.Q.2.w u j.pXuXuXV.j.n.tXj.s.d.h.d.s.M.B.g.m.uXuXuXtX*.+ y *X[.J.^._.P.P.P.I.[.1XE.{./.!.H.P.J.Q./.T.R.",
"I.^.J.Q.[.~.E.~.!.[.W.J./.~.>X<XI.I.H.U.;X5.# @.k.uXuXyXn.rXuXM.l.d.s.h.n.tXyXn.rXuXuXeX;.h ` qXQ.T.J./.!.H.!.J.P.{.}.~.}.T./.P.J.H.Q.Q.T.P.",
"P.!.H.I. X~.~.~.!.{.J.T.E./.>X/.R.Y.Y.J.Q.%Xp + T b.rXtXuXuXyXuXeXh.h.n.uXuXyXuXtXtXyX;.X # 6XW.[.J.J./.W.J.!.H.P.[.`./.`.P._.P.J.G.U.J.Q.H.",
"W.P.P.F.|.[.`.`.{.{.H.P.R.^./.~.R.P.Q.H.Y.%Xi q u C ;.l.rXuXuXuXtXtXtXtXyXyXyXuXm.d.+.A 9 w 5XU.|.J.T.(.P.I.P.F.E.~.~.~.P.Q./.P.Q.A.U.F.Y.F.",
"Q.P.W.A.P.}.~.].}.{.H.I.I.E.{.I.E.P.W.F.;X5.$ $ 6 E r.m.rXuXyXrXuXuXtXuXyXyXyXyXB.j.9.E $ $ | 9X|./.T.T.P.!.H.J.E.~.~.T.J./.T.P.Q.A.U.H.Y.D.",
"J.Q.J.G.A..XE.}.}.}.J.G.J.E.{.T.T.!.Q.G.2.s M = E s.B.uXuXtXtXuXyXyXyXyXyXyXyXyXuXtXx.$.= m N y ).XXT.T.P./.I.I.R.[.E.T.J..XP.J.T.D.P.F.U.D.",
"J.Q.J.J.J./.}.`.}.E.T.T.(.J.{.R.P.!.W.J.,.! r.^ K d.M.uXtXuXuXtXyXyXyXyXyXyXyXyXuXtXz.+.D e.=.> T..X[.T.P./.!.T.T.[.E.T.T..XP.I.I._.J.P.P.I.",
"T.Q.T.T.J.E.`.`.].[.J.J.XXG.}.Q.P.Q.Q.H.,.W w.7.9.s.M.uXuXtXtXuXyXyXyXyXyXyXyXyXrXm.j.8.L 9.%.0 /.T.[.J.T./.!.I.P.{.T.J.!. XP.J.Q./.J./.P./.",
"R.!.R.Q.T.[.`.`.].E.T.(.(.T.R./.J.P.Q.J.5.> - &.h.s.m.uXtXuXuXtXuXtXyXyXyXyXuXuXn.s.d.9.Z z ; f XXJ.[.T.I./.T.J.J.[.T.P.!.!.J.H.Q.W.Q.!.H./.",
"E.[.!.T.E.}.E.].`.E./.|.P.^.P.{.I.G.Q.U.).7X% w.z.h.h.n.tXuXuXtXtXuXtXuXyXyXuXuXM.y.&.X.K 6 <.:X.XJ.R.T.T.Q.I.G.J.[.T.T.!.Q.G.H.P.J.Q.H.J.XX",
"~.`.E.J.T.[.`.].E.R.}.J.H.T.P./.R.H.P.U.H.%Xi #.e.e.r.h.M.tXuXtXuXtXuXtXyXyXyXB.x.s.L b A d 5X[.[.J.T.T.T.Q.W.D.T.[.E.T.T.W.G.H.T.J.T.G.T.}.",
"~.E.R.J.J.E.}.].E.~.[.I.!.P.P._.Q.U.J.U.P.=Xi w I G 9.h.s.n.uXuXuXtXtXuXyXuXtXh.h.y.^ B 0 y 6X[.E.T.T.R.T.[.J.G.T.{.R.R.T.P.G.H.J.T.W.T.T..X",
"`.E.T.W.T.R.}.].E.}.Q.P.Q.P.J._.U.qX3.4.3X,.@ 8 # 5 ~ 9.s.j.n.tXuXuXuXuXuXM.j.d.0.O.U 2 8 w ` 9X&X[.T.J.J.XXT.P.R.}.I.T.R.I.G.H.J.J.(.J.T..X",
"`.I.P.Q.J.P.{.'.~./.J.P./.P.H.^.-Xg d W W W T I 2 # = K r.d.d.M.tXB.B.rXrXj.s.d.+.x > > 5 > % 2 qX&XR.J.I.<XI./.E.{.J.W./.Q.H.P.H.J.Q.G.T.{.",
"`.J.!.Q.G.R.'.~.{.I.P.T./.P.F.qXy   R a.r.r.s.o.x - o B r.h.f.h.h.h.g.h.h.h.f.h...& * z V = & * i r ) F.Q./.E.{.!.[.G.!.[.J.P.Y.F.Q.U.D.!.!.",
"E.J.!.!.G.!.E.~.E.H.U.T.!.^.8X) , h.V.C.C.C.B.v.i.&.o.&.y.h.h.d.d.d.s.d.d.d.h.d.0.$.o.q.p.p.q.o.$.Q X ' Q.~.~.{./.!.G.(.Q.P.^.P.H.Q.G.H./.T.",
"T.P.!.(.J.!.R./.I.J.Q.P.Q.<Xj 3 O.aXlXhXjXdXuXuXtXx.h.f.d.h.d.d.d.h.h.d.d.d.h.d.f.h.h.B.pXpXrXx.c.p...Y ) ~.~.~.T.T.Z.W.!.P.E.S.U.Q.A.P.!.J.",
"I.P.H.|.T.T.P. XJ.T.Q.P.T. Xj ;.tXhXkXfXsXyXyXyXtXtXx.s.s.h.h.d.d.h.d.d.h.h.d.s.s.h.B.yXuXrXpXdXdXdXaX0.  h >X~.J.J.Z.!./.T./.P.^.F.S.Q.P.P.",
"T.P.R.|.Q.T.T. XI.R.^.^.(.9XI i.pXsXsXsXuXrXyXyXtXuXB.n.n.l.d.s.d.d.d.d.d.s.h.n.n.n.yXuXtXtXpXdXhXkXkXV.-.f 0XE.T.W.G.Q./.I.|.I.I.F.P.U.Q.P.",
"Q.H.T././.J.J.|.T.[.!./.7Xs b i.tXrXrXyXyXyXyXyXtXuXuXuXuXM.h.h.h.h.h.h.h.d.l.yXuXuXuXtXuXtXtXuXdXhXfXdXb.T 9XE.H.Q.J.T.[.P.^.Q.P.H.I.J.Q.P.",
"Q.H.H.!..XH.J. XI.}.E.E.7Xs D X.;.g.B.uXuXuXyXyXuXtXtXuXuXrXB.rXrXeXrXrXrXrXrXyXuXuXtXuXtXuXtXtXuXpXuXpXeX .I 5.G.W.Q.H./.E.!.I.I.F.U.H.P.P.",
"Q.H.G.T. XQ.H.{.~.{.R.T.8Xs D F Z o.h.M.B.B.tXuXyXyXyXyXyXuXuXuXuXuXuXuXuXuXuXyXtXyXyXyXyXyXuXtXuXyXyXrXl.[ M g H.J.Q.J.T.[.E.G.P.D.Y.P.P.P.",
"J.H.D.J././.H.{.}.{.T.T.7Xs K L J Z +.d.s.l.tXtXyXyXyXyXyXyXyXyXuXrXyXyXyXyXyXyXuXtXyXyXyXyXuXtXtXyXyXn.e. .B ` ).H.Q.P.P.!.T.G.Y.D.F.Q.P.P.",
"J.J.A.J.T.[.I.`.}.[.J.J.4XY w.+.G H K ~ ^ 0.x.tXuXyXyXyXyXyXuXuXuXuXuXyXyXuXuXyXtXuXuXuXyXuXtXn.t.6.;.v.n.y./ _ (.Q.Q.P.I./.T.A.J.P.S.P.P.H.",
"T.J.F.P.J.~.~.~.}./.H.P.5XT d.s.X.G z O z ~ 9.n.rXyXyXyXuXrXM.tXyXrXyXyXyXrXM.yXuXtXuXuXyXM.g.&.D x K b.uXM.=.e 0X_.Q.J.I./.!.G.P.!.J.J.H.P.",
"J.H.H.P.H.E.~.~./.[.H.T.7XY a.j.s.D O y 0 6 K w.n.yXuXyXuXn.h.rXuXtXtXuXyXl.j.tXuXuXuXuXrX9.M y @ Q s.B.uXuXq.. y 9XY.J.R./.T.J.!.Q.J.P.J.J.",
"J.J.W.P.T.E.E.~.~.!.J.H.4XT a.h.h.w./ ; # 2 z K 0.l.tXuXpXn.h.M.uXuXtXuXuXj.j.tXuXuXm.n.v.^ & 9 + ! h.B.pXuXi.x a 7XP.J.!.^.P.F./.P.P.Q.J.J.",
"J.J.Q.P.Q.[.T.E.E.!.T.G.5XT r.h.d.z.w.1 2 ; : c ^ w.j.eXB.n.h.B.uXuXtXuXuXz.h.M.rXv.y.e.w.B f >.e W s.n.tXuXi.v a 8XJ.J.^.Q.H.P./.P.W.P.J.U.",
"P.H.!.J.T.[.J.T.R.R.T.G.3XT d.h.s.f.9.Z z : > A H H H O.i.d.h.rXuXtXtXuXuXx.d.j.9.L K L K d 5XI.,.Y L w.l.uXi.l u 8XF.I.Q.T.Z./.Q.I.T.D.P.!.",
"J.J.I.P.R./.P.P.T.T.E.H.3Xd / i.B.rXn.0.E O 2 ..9.7.+.8.y.s.f.B.uXyXyXuXuXl.s.d.w.+.&.9.+.P | 9XwX9XN u.tXsXaXx.W 5XP.I.I.I.D.|.!.I.P.F.P.P.",
"W.I.P.T.~./.T.T.T.P.!.T.@Xf   q.rXrXn.s.T + - =.z.h.f.h.f.f.l.rXuXyXyXyXuXn.h.h.h.h.h.h.h.E O y :X*Xq g.pXfXkXsX@.4XI.P.P.P.J.|.R.I.P.J.W.Q.",
"Q.Q.P.~./.R.Q.(.J.J.~.J.P.=Xf P  .{ S B a % - &.h.h.h.f.d.n.tXuXyXyXyXyXtXtXM.h.d.f.h.z.d.E O y ] _ @ 1 t.dXhXeX{ 4X!.P.P.P.T.{./.R.T.J.P.!.",
"W.I.H.~.E.I.J.(.Q.H.E.H.J.Y.-X` X X O $ % 2 z 0.f.9.e.f.s.n.uXuXyXyXyXyXuXuXrXh.f.d.0.7.8.D 4 y 8 I #.&.p.aXgXM.{ 5XT.P.P.H.Q./.|.E.I.H.J.!.",
"Y.P.P./.E.P.F.L._.J.!.P.H.U.H.-Xi f k k e 6  .r.y.J 7.h.d.n.uXtXyXyXyXyXyXuXB.h.d.r.L b G L A > + Q h.tXuXuXuXm.{ 4XP.J.P.H.^.I.{.I.I.G.J.Q.",
"T.P.P.R.E.F.J.J._.!./.E.P.H.J.W.&X%X&X*X] Q r.g.r.L 9.h.d.n.uXuXyXyXyXyXyXuXtXj.0.^ H Z G H S 0   ..B.sXhXhXpXg.T 3XQ.U.P.P.!.J./.Q.P.D.T.Q.",
"I.T.P.E.I.D.J.H.W./.E./.P.D.P.Q.J.J._.P.<.@.h.h.r.K  .w.d.x.M.uXuXyXyXuXuXtXn.r.^ v o.7.+.[ B y P q.tXsXdXdXN.$.d 7X/.Q.I.F.!.P.!.!.J.G.J.T.",
"J.W.P.T.P.D.H.J.P./././.P.A.I.!.H.P.T.E.<.! f.h.r. .l B r.f.h.rXuXyXyXyXyXn.w.L l B s.h.d.X.M u 8.n.tXuXyXuXi.v u 7X|.Q.J.P.!.P.Q._.P.J.T.J.",
"H.W.J.T.J.H.U.U.P.P./.[.T.G.I./.H.T.R.~.,.! d.f.y.r.o.v E ..+.+.p.x.n.z.q.+.^ m l K y.z.y.O.n u j.uXuXuXyXuXi.& 2 4X.XU.J.P.Q.Q.T.|.J.!.Q.J.",
"H.L.G.T.F.P.K.U.T.H.[.[.T.P.J.|.J.Q.R.R.<.! f.x.z.j.7.Z l z V z ~ 8.w.%.v v v m J 7.y.h.h.X.n u u.M.B.uXyXM.;.X | wX[.T.F.P.P.Q.H.Q.P.(.Y.H.",
"G.L.H.T.H.J.U.H.P.J././.T.T.G./.!.Q.T.T.3.! f.B.rXh.+.G H A 0 y u u u u y , c Z 9.f.f.h.y.O.V 0 * ~ h.tXM.X.N _ &X[.E.I.H.H.H.Q.H.T.P./.Q.D.",
"L.J.H.J.S.U.W.H.W.T.!.!.R.R.J./.{.{.E.E.3.P $.b.uXB.h.7.L B i 8XwXqX0X-X-X<.6 G 9.h.f.r.+.J 4 0 + a ( ;.;.P >.*XE.}.E.R.J.H.J.!.J.H.T. XQ.S.",
"J.W.J.J.T.J.J.U.W.J.[.R.!.T.T.!.[.{.T.[.3.6 b k.uXuXM.s.+.E g XXXXR.!.T.P.7Xs J 0.h.h.8.v 1 : 2 y g ] ` ` ` @XP.E.}.E.[.J.J.T.|.T.J.R. XI.H.",
"J.(.(.J..XG.F.Q.T.G.[.J./.T.H.E.[.[./.[.,.6 H k.pXuXn.d.h.=.r &X|.I.|.R.I.3Xd D 9.h.h.&.- = = 1 u 2.&XW.#X).H.J.[.E.`.[.T.J.(.[.T.E.`./.P./.",
"XXT./.J.|.P.P.Q.J.J./.T.[.T.H.E.~.E.[.R.=X5.N v.pXuXn.s.0.@.g _.E.I.[.T.E.7Xd J X.&.7.~ * , z = u 5.Q.H.U.P.P.P.`.T.[.[.T.J.J.}.I.`.~.R.T.!.",
"!.J.T.T./.I.P.U.G.R.R.E.[.J.H.E.E.E.E.T.T.:Xq g.uXuXm.r.L B g _.P.I.R.I.{.+Xd K L L L D z = , , a 4.Q.H.Q.P.U.P.E.T.[.(.T.J.J..XT.'.~.E./.J.",
"H.J.P.T._.I.!.H.J.Q.P././.F.T.T.T.!.T.T.T.wXi R u.uXB.s.X.B j ).H.T.P.T.{.4X6 S 7.s.d.+.v 1 - = a >.J.Q.H.P.I.P.(.J..XW.T.G.T.}.[.}.E..XQ.H.",
"H.P.P.J./.Q.Q.F.J.J.T.{.E.I.!.T.T./.T.J.E.:Xi & G p.y.+.L B j _.H.T.J.E.{.OXd G 0.f.h.r.O.D z = 3 4.H.Q.F.I.P.Y.T.J.XXT.J.J.T.[.}.}.~.{.J.J.",
"Q.I.P.H.^.Q.Q.H.T.J.Q..XP.!.!.P.J.!.E.J.T.iXu < x J K K L E j _.H.P.J././.OXd Z 9.h.j.z.z.+.b , u >.I.J.J.P.P.^.J.W.|.J.T.T.T.[.{.`.~./.H.P.",
"/.P.J.P.^.I.Q.P.T.T.!.}.I./.R.P.J.Q.T.J.9X) , x K w.e.e.y.%.t ).J.P.J./.~.OXd Z p.pXaXdXaXc.%.> e >./.H.U.P.Y.Y.J.(./.T.(./.T.(.`.E.`.T.J.P.",
"/.R.H.P.Q.P.T.J.^.R.E.^.E./.I.J.H.Q.J.-X} 5 - ~ e.x.n.n.z.=.t #XJ.W.P.!.I.OX5 c u.uXfXjXdXp./ 0 :.0X/.P.U.!.Y.P.H.!.T.J.W./.T./.E.E.E.H.T.P.",
"/. XP.F.I.J.P.F./.I.T.P.!./.T.H.H.Q.@Xy < = - &.x.yXuXtXh.*.t ).J.U.P.!.P.+X7 * $.l.eXuXM...X f #X/.W.!.J.|.Q.H.J.!.J.J.!.[.T./.E.E.T.J.Q.J.",
"I./.P.F.P.J.P.F./.P.T.H.T._.Q.G.P.P.-Xy ; = Z i.tXuXuXtXx.*.r ).J.U.H.Q.J.I.;X7 Y { -.;.-.d | oXW._.U.U.G._.W.G.J.Q.J.T.J..XT.T.T.E.J.W.U.J.",
"P./.T.J.P.J.P.H./.H.P.P.P.!.!.H.P.P.-Xy 4 v G b.sXpXpXrXd.( g #XJ.U.H.P.P.P.!.OX,.:.:.:.4.:.%XG./.Q.P.H.G._.H.G.Q.J.T.J.(.(.T.T.T.T.P.U.U.J.",
"P.^.!.J.U.J.U.U._.P.P.P.P.P.^.I.P.J.-Xy D H G N.kXhXsXM.+.m g *XH.P.H.U.I.P.Y.Q.P.P.H.I././.I.I.^.J.P.H.J.Q.P.U.U.J.P.I._.I.T.T.I.P.Q.U.P.P.",
"I.T.Q.J.H.H.U.U.^.P.F.H.H.F.Q.Y.J.I.@Xi D X.0.C.lXkXaXh.X.B g :XJ.J.G.U.P.P.I.Y.H.I.P.^.R.R.R.Q.P.H.H.H.J.J.I.U.H.H.Q.I./.R.T.I.H.H.W.P.J.P.",
"P.P.U.J.L.G.L.J.).^.F.F.H.F.P.I.Y.U.#X| C ..r.V.dXdXN.7.K C g :XH.J.G.L.H.H.I.P.H.U.P.^.P.P.P.I.H.H.H.D.H.J.P.P.F.Q.U.P.I.^.I.P.J.G.P.J.P./.",
"H.H.H.F.F.K.H.F.U.XXJ.P.F.P.F.F._.U.P.P.1.a n e.c.z.9.G c 5 i :XJ.F.K.F.D.F.U.S.H.F.H.^.J.P.H.F.G.L.H.K.S.U.F.H.P._.S.U.P.Y.Y.H.G.F.J.G.P. X",
"L.G.F.K.F.F.D.G.H._.P.F.F.F.G.H.Q.K.H.F.$X5.$ W #.#.R 6 2 :.@X_.H.S.L.F.S.F.K.S.F.S.F.^.H.H.F.U.F.H.D.U.S.H.F.J.Q.U.S.H.S.U.U.F.F.F.F.D.P./.",
"W.A.D.U.K.A.S.U.F.Y.U.D.S.D.H.F.U.H.H.S.S.$Xi 8 @ @ # w y 7XS.Q.F.D.U.S.S.F.S.S.D.S.D.Q.H.D.D.Y.D.S.F.U.S.G.D.U.Y.S.A.F.Z.U.F.H.S.S.F.A.I.P."
};
