/* XPM */
static char *result[] = {
/* columns rows colors chars-per-pixel */
"70 70 247 2 ",
"   c #532B0F",
".  c #592A0A",
"X  c #672D05",
"o  c #693405",
"O  c #66330B",
"+  c #6A360A",
"@  c #6C390B",
"#  c #743B05",
"$  c #793E06",
"%  c #723C09",
"&  c #673714",
"*  c #743C11",
"=  c #793F13",
"-  c #774005",
";  c #7C4306",
":  c #75410D",
">  c #7C450B",
",  c #7E4A0C",
"<  c #6B431B",
"1  c #754111",
"2  c #7A4414",
"3  c #7D4A13",
"4  c #79481B",
"5  c #7C5117",
"6  c #744623",
"7  c #774A27",
"8  c #754C24",
"9  c #7A4C23",
"0  c #754B2A",
"q  c #7D5125",
"w  c #7E5428",
"e  c #814406",
"r  c #834A07",
"t  c #8A4A07",
"y  c #82450A",
"u  c #834D0C",
"i  c #8B4D0B",
"p  c #934E09",
"a  c #885307",
"s  c #86520C",
"d  c #8C530C",
"f  c #8E5A0D",
"g  c #91540C",
"h  c #99560C",
"j  c #915A0C",
"k  c #844D12",
"l  c #834B19",
"z  c #855313",
"x  c #8B5512",
"c  c #8E5B13",
"v  c #865218",
"b  c #8B541A",
"n  c #84581F",
"m  c #8D5D1A",
"M  c #925613",
"N  c #925C13",
"B  c #9A5D14",
"V  c #90571C",
"C  c #925D1A",
"Z  c #A15F11",
"A  c #8E611C",
"S  c #956114",
"D  c #9E6414",
"F  c #93631B",
"G  c #9A641B",
"H  c #97691F",
"J  c #9A691D",
"K  c #A26416",
"L  c #A36719",
"P  c #A26B1C",
"I  c #A6721F",
"U  c #825225",
"Y  c #895926",
"T  c #83562A",
"R  c #85592B",
"E  c #8A5B2C",
"W  c #925F24",
"Q  c #915C2C",
"!  c #855933",
"~  c #8B5D31",
"^  c #8D6321",
"/  c #8E6828",
"(  c #946522",
")  c #9B6423",
"_  c #966924",
"`  c #9A6B24",
"'  c #93652A",
"]  c #9A652A",
"[  c #956A2A",
"{  c #9A6C2A",
"}  c #9E7026",
"|  c #9C712B",
" . c #8A6435",
".. c #8D633C",
"X. c #936334",
"o. c #996734",
"O. c #956B32",
"+. c #9B6B33",
"@. c #936639",
"#. c #946A3C",
"$. c #9C6C3B",
"%. c #9D7433",
"&. c #9B7438",
"*. c #A56C25",
"=. c #A47323",
"-. c #AA7321",
";. c #AD7925",
":. c #A2742C",
">. c #A7782D",
",. c #AA792B",
"<. c #A36D33",
"1. c #A06E3D",
"2. c #A37434",
"3. c #AB7535",
"4. c #A57934",
"5. c #AB7C34",
"6. c #A3743C",
"7. c #AB753A",
"8. c #A57D3B",
"9. c #AA7D3B",
"0. c #B37C38",
"q. c #9B6D45",
"w. c #9E7444",
"e. c #9B7549",
"r. c #A37443",
"t. c #A57647",
"y. c #A57D43",
"u. c #AB7C43",
"i. c #A47B4B",
"p. c #AC7D4E",
"a. c #AD8136",
"s. c #A7803D",
"d. c #AC823C",
"f. c #B18135",
"g. c #B2853C",
"h. c #BA843D",
"j. c #BB8B3F",
"k. c #C38C3F",
"l. c #AD8443",
"z. c #AA8648",
"x. c #AD844B",
"c. c #B18544",
"v. c #BA8643",
"b. c #B38945",
"n. c #BA8B44",
"m. c #B2844C",
"M. c #B48C4C",
"N. c #B98D4C",
"B. c #BA914B",
"V. c #BC924D",
"C. c #AB8455",
"Z. c #B28755",
"A. c #B58C53",
"S. c #BA8E53",
"D. c #B68B5B",
"F. c #BA8E5C",
"G. c #B79152",
"H. c #BC9253",
"J. c #BC935B",
"K. c #BF9958",
"L. c #BE9662",
"P. c #B3916A",
"I. c #C28B44",
"U. c #C38C4D",
"Y. c #C59246",
"T. c #C3954D",
"R. c #D69E4C",
"E. c #C08E56",
"W. c #C19553",
"Q. c #C89757",
"!. c #C49A55",
"~. c #CB9C55",
"^. c #C2965A",
"/. c #C49B5C",
"(. c #CA9D5B",
"). c #D19E54",
"_. c #D29E5C",
"`. c #D6A14F",
"'. c #CCA159",
"]. c #CCA25D",
"[. c #D3A255",
"{. c #D3A35D",
"}. c #DBA858",
"|. c #DAA95D",
" X c #E3AD4D",
".X c #E4AB55",
"XX c #E1AA5B",
"oX c #E6B25A",
"OX c #C59B62",
"+X c #CA9F62",
"@X c #C39A68",
"#X c #C89C6B",
"$X c #CCA363",
"%X c #CBA566",
"&X c #CCA569",
"*X c #D2A563",
"=X c #D4A964",
"-X c #DBAC64",
";X c #D1A669",
":X c #D4AB6B",
">X c #DAAE6B",
",X c #DFB166",
"<X c #DCB16D",
"1X c #CAA471",
"2X c #D6AE71",
"3X c #DAAE71",
"4X c #D8AF78",
"5X c #D7B173",
"6X c #DCB373",
"7X c #DEB57A",
"8X c #DDB77B",
"9X c #E2AF61",
"0X c #E4B365",
"qX c #E9B662",
"wX c #EBB965",
"eX c #E3B46C",
"rX c #E8B66C",
"tX c #E7B86D",
"yX c #EBBA6B",
"uX c #E2B673",
"iX c #E4B975",
"pX c #EABC74",
"aX c #E3B778",
"sX c #E5BB7B",
"dX c #E9BE7B",
"fX c #EEC176",
"gX c #ECC17D",
"hX c #F0C277",
"jX c #F1C47D",
"kX c #C9A884",
"lX c #D7B387",
"zX c #E5BE82",
"xX c #E9BF82",
"cX c #E5BC8C",
"vX c #ECC383",
"bX c #E9C386",
"nX c #EDC589",
"mX c #EFC88A",
"MX c #F1C683",
"NX c #F4C984",
"BX c #F2CA8B",
"VX c #F6CA89",
"CX c #F8D08F",
"ZX c #EEC590",
"AX c #F4CD93",
"SX c #FAD597",
"DX c #FCD9A1",
/* pixels */
"$X*X*X$X=X=X*X{.].=X=X].{.{.'.'.'.].{.*X*X*X$X:X;X>X:X;X;X;X;X;X;X=X;X:X;X;X;X;X;X&X;X&X;X;X&X&X$X%X$X$X+XC.4 w.J.8X:X;X=X*X$X{.{.$X].'.].{.",
"M.b.b.b.b.B.B.M.M.M.M.M.b.N.N.N.V.V.N.M.N.M.M.B.M.G.N.G.H.G.V.S.G.G.M.G.G.G.H.S.G.S.M.M.c.c.b.M.c.c.x.b.z. .< ! D.%XH.H.V.M.S.n.N.N.N.N.N.n.",
"| %.2.%.%.%.4.4.&.%.4.&.%.%.%.2.%.%.%.| 2.%.%.%.&.%.%.%.%.&.%.%.%.&.&.%.%.| %.%.{ { _ ` _ _ ( ( F W W ^ n     9 x.x.8.&.&.%.&.%.2.%.6.&.&.%.",
"c S S F F S A F J J F F F m m m N M c M c N F N m F C m A S m x x z z m ( ) ` G G G G V N j g d x x x y # X . 4 2.{ F F F F F F A m F C C b ",
"k v v b b b b b V b b v l l k k k k k k k v x z x V b M V M v k : O X E Q 6.<.) W W V b l l 2 2 = * * * * @ & 2 4 2 1 = > : : : : > : $ $ ; ",
"R.`.[.}.}.{.=X-X|.{.|.{.{.{._.{.{.).)._.{.{.*X=X>X>X>X3X3X3X3X;X$XA.Y S.L.nXnXxXpXuX6XeX-X;X*X*X;X*X*X$X+X+X+X&X$XOXOX^.^.^.^.S.N.M.M.c.m.b.",
" XoXoXqXoXqXwXyXfXfXfXgXgXgXvXgXvXgXjXpXjXMXgXjXMXmXmXBXAXBXmXnXzX<Xz.x.#XbXSXSXAXAXmXmXmXnXbXvXvXvXvXbXxXbXbXxXxXbXxXxXdXxXpXpXpXuXiXsXdXsX",
" X.XoXyXtXtXtXpXpXdXdXgXsXgXgXvXdXdXdXdXdXdXfXgXxXvXvXvXxXnXxXzX8X:XC.z.1XlXDXSXBXnXnXnXxXxXzXzXzXzXdXsXaXsXzXsXsXzXzXaX8X8X8XaXaXaXuXaX6X7X",
"}.}.{.-X:X=X:X<X<X6X6X6X6X6X6X6X<X>X>X-X-X:X,X:X<X<X>X>X>X>X:X:X%X'.&. .P.kXAXbXlX6X:X5X5X>X5X:X>X5X>X:X:X2X5X:X:X2X2X:X:X2X2X2X2X5X2X5X5X:X",
"!.!.~.'.'.].].%X$X%X$X$X%X$X].]./.~.'.K.!.V.V.V.V.V.V.!.K.K.H.K.G.z.w < q.D.cXlX:X$X$X(./.!.K./.K.K.K.^.^.K./.^.OX^./.^.K.OXK././.OX/.OX$X/.",
"M.B.V.M.V.H.S.S.M.G.M.A.G.G.A.z.M.l.c.c.a.a.%.,.:.>.,.4.4.s.8.s.&.&.< < T e.:X/.M.b.l.l.l.s.d.s.z.s.s.s.s.l.l.l.l.l.l.z.x.l.b.x.c.l.l.c.l.l.",
"=.:.=.:.:.| :.:.:.| :.=.:.:.:.| } =.` ` J J S S S S S S S S G S S d - : 6 X.W.a.=.J J J J F F H G H H F F ( ( J F _ F ( H H _ _ _ ( _ ` ` _ ",
"S C C C B C C C C C V V C C ) C S G G B V N f x x d u , > > , , , s i k 4 Y +.m x x z z s z x z z u , u u s x x x s s r u u u u , , u u d u ",
"~.~.(.+X+X_.+X_.(.(._.+X/.+X+X*X*X*X*X+X{.).~.(.'.~.Q.^.^.W.H.^.^.!.(.*X_._._.{.(.'.].(././.^.^.H.J.J.H.H.H.K.H.S.S.n.M.c.l.l.8.q #.@.D.E.m.",
"yXhXpXjXpXpXpXpXpXpXpXpXpXpXpXMXvXNXgXgXpXpXpXpXpXgXfXgXjXjXjXMXjXhXjXjXdXhXfXfXgXgXjXgXgXjXgXgXjXgXgXgXgXvXvXgXgXgXgXiXpXpXrX{.1.Z.D.zXhXpX",
"yXrXpXyXrXrX9X0XeXrXuXpXrXrXpXdXgXgXpXpXdXdXdXgXgXgXdXgXvXgXvXvXgXgXvXgXgXgXgXgXvXvXgXvXvXvXvXgXdXdXdXdXdXdXgXdXdXdXdXdXsXdXsX*Xr.J.p.sXMXNX",
"0X0XeXeXeX,X,X-X|.-X-X|.-X9XeXeXeXeXuXiXiXiXgXdXbXdXdXdXbXsXgXvXgXsXgXbXsXgXgXsXgXbXsXgXsXgXiXiXaXuXeXuXuXuXuXuXuX6XuX6X6X6XuX'.$.A.x.bXvXvX",
"-X-X-X-X-X-X=X'.[.'.~.[.~.[.[.[.{.:X{.-X-X<X5X5X5X6X6X<X<X5X6X7X5X2X5X<X6X5X:X>X&X>X:X-X*X].;X{.*X*X'.=X=X*X*X$X*X(.'.].=X;X;X!. .w...4XeXiX",
"~.~.'.~.~.T.T.T.T.T.T.W.Y.j.j.j.Y.Y.T.~.~.'.$X$X%X$X].(.(./.].OX!.!.~.'.!.!.W.W.V.V.K.V.V.V.B.K.V.W.V.!.K.V.V.V.N.B.B.n.V.V.V.b.T ..8 L._.*X",
"f.f.a.f.f.f.a.f.a.d.d.a.a.,.a.f.5.a.a.g.d.l.b.b.b.b.c.l.d.d.a.a.a.a.a.a.a.s.5.5.a.a.a.a.d.d.l.b.l.z.z.l.s.8.8.8.4.4.4.4.4.:.9.:.q  .9 Z.T.I.",
"N c M M j j S J F ( _ _ _ _ { { | { | { | [ | | | { [ { ^ H ( F A F F ( F ( _ [ [ ' [ [ +.+.O.O.O.[ ' [ / / / / / A ^ A m z z z & 0 w C.H.c.",
"; $ ; $ ; ; , a i a s a s s s d f c x c c A c S x x N d d d x s s s d z k u u z z s , z z u s z u u u , , k , k s s 5 , , , , : O . & ..2.{ ",
"{ { <.2.2.2.7.9.9.5.,.5.5.5.7.5.7.2.<.<.:.<.{ ) ] *.:.:.3.7.9.l.u.l.l.c.l.c.m.u.l.u.u.u.7.r.6.6.$.#.@.@... .@.@.#.#.!  .X. .w w w 8 8 q n U ",
"rXuXpXiXdXgXgXgXjXhXhXpXfXfXpXgXgXfXpXpXpXtX-X9X9X9X0X0XtXiXgXgXvXvXvXvXvXvXgXvXgXvXdXdXsXsXsXsXdXsXxXxXvXbXxXzXlX4XL.x.J.2X8X6X6X7X6X6X6X6X",
"pXdXgXfXgXMXMXMXMXgXpXfXpXpXjXdXgXgXvXgXgXgXfXfXiXfXiXgXgXgXvXvXvXvXvXxXvXxXdXdXdXsXaXiXsXsXsXsXdXgXbXgXbXbXbXbXvX8XOXA.D.8XbXdXdXiXgXgXgXdX",
"rXrXtXuXiXdXdXpXdXdXsXpXiXiXiXiXiXsXdXiXaXaX6X7X7XuXuXuX7X6XaXiXiXiX8X8X6XuX6XuXuX6X6X<X<X<X<X6X5X5X6X8X6X8XsX8X8X5XK.e.C.2XbX6XeXuXuX6X6XiX",
">X>X>X<X<X<X6X<X6X6XuX6X6X6X6X4X6X:X:X>X:X:X:X:X:X&X;X;X:X:X:X:X:X:X:X:X;X;X;X;X&X&X;X&X$X&X&X&X&X&X%X%X;X&X$X;X&X%XC.O.#.@XsX].'.*X$X$X$X].",
"'.~.(.!.(.$X].$X$X$X%X%X$X$X+X+X/.$X/.OXOX/./.^././.K.K.^.^.^.H.G.K.H.H.K.K.H.H.H.H.H.H.A.M.A.M.M.A.A.M.A.G.A.A.G.G.&. .~ m.&XG.K.^.!.(.~./.",
"b.g.u.h.g.g.b.g.n.v.n.N.n.N.v.n.b.b.v.c.c.c.c.c.l.l.l.l.g.l.d.d.d.d.9.5.4.5.4.4.4.4.2.%.%.%.2.2.2.| %.%.+.%.%.%.%.[ 5 & 6 1.(.c.d.g.c.d.l.l.",
"J D B K D L K P P I -.;.;.,.;.;.;.,.;.;.-.-.-.I P =.L L P =.-.-.I P P J J D D D B B j B V N g M g g g g d d g g f f ; O * <.v.=.=.=.I =.;.} ",
"i t e t t t p p g h Z Z K L K K L P *.*.-.*.*.*.G ) B C ) V V l u u u , u u , > > > 2 2 = * % % % % @ + + + + @ + + O X O l C M N M c x f m ",
"Y.k.I.Y.T.).{.{.-X-X9X-X9X9X0X-X0XeXrXrXpXrXiXiXiXuX:XS.^.F.aX4X1X&X1X%X@XK.^.!.^.^.^.^.^.W.N.M.S.S.S.W.J.K.L.L.K.K.OXOX@XOX&X#X#X#X+X&X&X&X",
"oX.X.X}.XXqXyXfXfXfXfXfXpXfXfXfXhXgXjXjXjXNXNXNXjXgXuXT.(.@XSXSXCXCXBXVXBXvXgXgXgXgXiXfX6XtX<XtXiXiXpXgXgXgXbXvXvXvXMXbXbXbXbXbXnXvXBXVXCXCX",
"}.`.R.R.`.}.9X0XrXiXfXiXgXfXgXpXfXgXfXgXgXgXgXgXgXdXeXH.OXF.AXAXmXnXbXnXvXvXvXdXgXsXiXgXiX8XiXiXsX8XaXsXsXbXsXzXzXbXgXlXsXzXgXvXxXnXnXmXmXmX",
"}.[.`.).}.[.{.{.=X-X>X<X<X<X<X>X<X6X<XuXiX6X6XiX7X,X*X6.L.p.cXnXsXaX8X6X>X6X6X6X<X>X>X>X:X:X>X5X2X2X2X5X5X5X4X4X4X5X5X5X5X5X5X8X8X8X8X8XbXbX",
"T.T.T.T.T.V.T.T.!.!.~.'.].].$X%X%X=X;X%X:X:X:X:X%X$XG.@.Z.q.aXaX:X*X$X+X%X].^.K.!.K.K.H.V.!.!.K.^./././.OXK.$XK.K.$XL.].K.L.%X%X%X$X%X&X:X2X",
"a.a.a.a.5.a.a.s.a.d.a.g.d.c.b.M.M.b.M.M.M.G.G.A.M.l.O.1 q...4X+XM.M.b.x.l.l.s.s.4.4.8.4.%.4.4.4.4.4.4.8.8.y.8.l.8.y.y.l.z.w.l.l.l.l.M.A.G.B.",
"S S S S c f f d d d d x c x c m A c m A m m C W b 5 + O ! ~ OXu.` ( ( ( ^ F A S N m c z z s z s s s s z m c m m A A m m m A A / ( ( ^ ' ( _ ",
"G B c x i i t y e e ; e e t r y u ; - # # # o o o X o o O U ' l , r r r , r u u , , , - $ # # # # @ # - ; ; , , , 3 3 > , , , z v v v n m z ",
"*X*X;X*X+X+X/.^.H.H.S.H.S.M.N.n.c.l.8.%.<.] W W W Q ] ] <.2.4.9.u.b.A.S.G.D.J.G.J.J.F.F.D.S.A.Z.A.Z.A.A.S.D.A.D.F.F.L.J.L./.OX%XD.w.i.L.7X1X",
"MXNXVXVXNXjXjXjXgXpXfXpXyXyXrX0X0X0X0X0X9XXXXXXXXX|.XXXX0XyXiXpXgXgXMXMXbXMXMXbXbXbXgXgXgXgXgXgXgXgXiXgXgXgXgXvXvXvXgXgXgXgXgXiXD.C.p.lXVXBX",
"jXNXNXNXNXvXgXdXxXpXpXpXpXrXrXrXrXpXyXrXrXiXpXpXiXfXfXgXgXgXgXvXvXvXvXvXgXvXvXgXgXfX8XfXiXgXfXsXiXiXsXgXsXgXiXfXsXdX6XfX6XiXiX5Xw.C.e.cXvXvX",
"NXjXNXMXBXvXgXgXgXdXdXiXpXrXeXuXuXiXiXiXaXpXaXpXfX8XgXgXzXbXgXbXgXbXdXdXfX8XiXiXiXiX<X<X6X,X6XuX6XuXuXuX7X7X8X8X7X8X<X6X6X-X5X'.! C.q.lXsXsX",
"iXiXiXsXaXiX6X6X<X<X<X-X=X-X>X>X>X<X-X6XuX>XeX>X<X:X:X2X>X<X5X>X2X>X>X>X:X:X|.=X=X{.|.=X=X|.{.].].=X%X=X>X=X=X=X=X|.].].].!.'.V.0 q.w.8X5X5X",
"|.=X*X;X%X].$X].'.'.'.'.~.'.'.'.].].].$X$X$X$X$X].].$X$X].].].].]./.$X/././.~.^.!.!.K.'.K.K.!.!.^.^.!.!.K.K.'.K.K.K.G.B.V.n.B.l.0 e.e.4X&X&X",
"G.V.V.V.V.N.n.b.b.b.l.b.l.b.g.b.b.b.b.M.M.n.M.M.M.G.M.M.M.c.M.M.G.z.M.M.M.b.c.g.d.a.g.d.g.d.l.l.d.g.d.d.l.s.z.s.d.z.l.s.s.s.s.[ < ~ q.%XS.N.",
":.:.>.:.:.` { { | } } ` _ _ _ | | ` _ | { { | | [ | | | [ _ { { [ [ _ { _ _ F F F S F S H F H H H ` ` _ H H H H H F A A A A A , & < 0 N.4.[ ",
"j j j j j g d f f j j S f S S f S S S S j S S S S S S j f a d d f f j f f f j f f f f f f j f j S f S f f f s f a , a a , a , ; X . & E x u ",
"&.@.E Q ^ E E Y E E E E  .E E E ~ E ~ ~ E E E E E E E E ~ R E E Y E E E E E E E E E R R E R w T R w w w q U q q w 0 7 9 7 8 8 6 9 4 6 9 l 7 ",
"CXVXBXNXMXbXvXvXvXvXgXgXgXdXbXsXdXpXdXpXdXiXpXdXdXdXiXsXpXaXpXaXpXsXsXsXdXdXdXdXgXvXgXvXvXvXbXvXgXbXbXvXbXdXzXdXsXsXsXdXdXdXsXsXiXtXiXaXaXaX",
"BXNXMXMXMXbXjXvXgXjXjXgXfXiXiXsXiXiXpXuX0X0XeXeXeX0X0X=X-X-X-X-X>XeX<XuXiXaXpXdXgXgXgXMXbXNXvXMXMXMXvXvXvXvXvXvXvXvXgXvXvXvXgXgXgXgXgXgXdXdX",
"pXiXiX6XeXeX6X,X6X6X<X>X:X:X:X:X>X>X=X*X{.~.~.(.~.)._.Q.~.(._.~.~._.{.{.*X=X>X>X<X<X6X7XaXiXiX8X8X8XiX6XuXiXiXiXuX6XuX6XuXuXuXuX6XeXuXiXaXiX",
"=X=X{.~.~.~.~.).[.'.~.(.!.(.(.!.^.^.^.H.T.N.v.j.v.N.n.j.g.j.h.j.v.n.Y.V.W.~.!.(./.$X/.$X$X$X$X%X$X].$X;X%X%X*X$X$X$X;X*X$X$X*X$X*X].;X=X;X;X",
"!.T.I.n.j.j.b.j.g.b.n.M.b.b.b.d.l.b.d.d.9.4.4.5.4.3.>.:.*.:.} | :.4.4.9.9.l.c.l.l.b.M.M.M.M.M.M.b.M.M.M.M.M.A.M.V.V.M.N.G.N.M.V.H.H.V.V.!.Q.",
"g.g.f.5.,.>.,.,.,.,.>.:.4.:.>.>.:.:.:.:.` G V G J F F F F S m S N F F F F ( _ _ _ { _ { { { [ [ O.[ [ [ [ [ [ [ { %.:.{ 2.4.4.:.2.>.>.2.5.5.",
"K L K L K D K D K K K K D D B B B B g i t t p p i i r i u e y e > ; e ; e ; y y u u u u z d s s s , , , 2 @ + > u i d g i g g g g d d d i t ",
"U.U.U.U.U.U.U.I.I.I.U.I.0.h.h.0.0.0.0.0.7.7.7.7.u.u.r.6.r.1.$.o.o.X.X.Q Q Q X.X.o.$.q.q.w.w.r.t.i.i.i.i.e...8 ! @.t.1.<.Q Q Q Q Q Q ~ Q ~ E ",
"MXNXVXCXVXVXVXNXjXjXjXpXpXwXwXwXwXwXyXwXwXwXyXwXyXpXpXdXjXgXgXgXpXpXrXrXeX0XeXeXuXpXpXxXxXgXxXnXnXxXnXnXbX1Xi.S.F.mXBXAXnXxXdXiXsXdXxXxXxXxX",
"MXMXNXNXVXNXMXBXBXmXMXMXxXdXdXpXpXpXpXdXdXdXdXdXdXxXvXnXBXBXmXvXMXxXpXdXdXdXdXdXpXdXdXvXvXnXxXnXxXZXbXnXbX&Xe.F.F.cXxXnXxXxXxXdXdXdXxXgXxXxX",
"dXaXdXpXdXpXiXgXvXdXpXsXpXpXpXrXeX0XuXpXpXdXdXpXdXdXzXsXzXdXsXaXaXaXaXiXuXaXuXaXaXuXsXaXaXaX8XaXaXaXsXsXlXL.e.S.#XZXZXxXcXdXsXdXdXpXdXsXaXdX",
"eX>X3X3X<X<X<X<X>X<X>X>X9X-X*X{.=X|.=X>X>X>X>X<X3X3X2X>X>X5X5X5X2X>X2X:X;X>X3X3X2X:X:X2X2X:X2X:X>X;X:X:X1XZ.R x.#XbXsX5X6X-X>X>X>X>X>X=X;X:X",
"^.Q.Q.Q./.~.(.~.~.!.(.!.Q.Q.Q.Q.~.~.~.Q.(.(.(./.+X+X$X$X$X].$X/.$X$X+X+X_.#X+XOX+X+X+X/./.+XOX/./././.OXK.e.8 #.D.2X%X$X(.Q.(.Q.Q.~.Q.!.~.~.",
"c.9.9.l.l.l.z.b.l.l.l.l.l.l.c.c.l.l.d.l.u.d.l.l.l.l.l.l.z.z.l.l.l.l.l.l.l.l.u.u.l.8.8.4.8.4.2.4.%.2.2.%.%.8 & T Z.^.M.l.x.l.l.l.c.l.l.l.l.c.",
"( _ _ { _ { [ [ | { { [ [ ' [ _ [ _ ( ( _ [ ' _ ' / _ ' [ [ [ ' ' / ' [ [ { { { [ ( ( ( F S C C m m m v %     4 t.y.{ { [ { [ { { [ [ [ [ ( ",
"i d M j N N c c S S f c s d a u d i i i d f d f x M x M f d a u , : : z m ( ) S B B c x d u y y y > > $ $ X o 2 ] m v x M f x x z x x x d s ",
"] ] :.<.<.<.<.2.| | +.+.+.] ] ] ] ) ] _ ] { { <.<.4.<.7.7.7.<.o./ w O w.t.OXH.m.l.u.r.6.$.$.o.o.X.Q X.E E Y E ~ ~ R T U 9 U U 9 5 4 4 2 4 3 ",
".XoXoXwXqXqXyXyXfXwXfXfXpXiXpXpXpXyXrXrXfXiXtXfXgXvXMXMXvXBXvXgXiX%XO.G.@XZXSXCXBXNXMXMXgXdXdXdXdXdXdXdXpXaXdXxXdXsXpXaXuXiXuXeX0X-X>X>X>X>X",
" X XoXwXqXqXyXyXyXfXfXgXgXgXgXvXgXgXgXgXgXvXgXvXMXmXnXBXBXBXvXbXzX5Xz.C.1XcXDXSXAXAXmXmXbXvXvXvXvXnXvXdXzXxXxXxXzXzXzXsXsXsXaXpXaXuXiXiXiXiX",
"}.oX,XeXuXeXeXiXiXiXsXsXsXsXsXsXaXiXiXiXiXiXiXfX8XgX8XgXdXsX8X8X8X&Xz.s.1XlXDXmXnXvXdXzXsXsX8XaX8XsXaX8X7X8XaX8X7X7X7X7X7X7X7X7X6X8X6X7X5X6X",
"[.~.[.].].{.*X=X:X:X:X:X:X5X:X=X%X*X].*X$X].].].].].].$X$X$X%X].L.D./ w C.P.AXzX6X;X&X:X;X&X%X%X&X$X&X&X$X$X&X&X&X%X%X+X%X*X$X&X&X;X&X:X:X&X"
};
