/* XPM */
static char *result[] = {
/* columns rows colors chars-per-pixel */
"70 70 42 1 ",
"  c #2E8300",
". c #318700",
"X c #358B00",
"o c #398E00",
"O c #3D9300",
"+ c #419600",
"@ c #459B00",
"# c #499E00",
"$ c #47A000",
"% c #4DA201",
"& c #4FA800",
"* c #4EA509",
"= c #51A602",
"- c #54AA03",
"; c #59AE04",
": c #51A609",
"> c #55AB0A",
", c #59AE0B",
"< c #57B007",
"1 c #5CB205",
"2 c #57B008",
"3 c #5CB20C",
"4 c #56AC10",
"5 c #58AE11",
"6 c #5DB312",
"7 c #60B506",
"8 c #62B906",
"9 c #61B60C",
"0 c #64BA0D",
"q c #6ABE0E",
"w c #61B612",
"e c #64BA13",
"r c #69BD14",
"t c #61B618",
"y c #65BA19",
"u c #6ABE1A",
"i c #6AC20D",
"p c #6BC115",
"a c #6CC21A",
"s c #71C61B",
"d c #6CC021",
"f c #71C621",
/* pixels */
"+%3#-ra--$$=,9=-u=-=#,-%f,=-=++,>@#y9,,++=r;=;=#;=#+==#3=#;r,=++==;qsq",
"+@r9&ii3-#:#:w:=y#=##99#tr;#=++e;##9d,=#+5t==##r==+6,#%r##,u,+#=##;9s;",
"+#93<ii8-O-+@6:#y###+96+;r;%%@=y=%#9u,#=#9r=##=w#+#=6@>;=#,u:+5:##;qq;",
"+=;31p18-O2$+4:#t%+@+,w+#e0=@%3w=%#,u;+#=9t#++=w@+==,-w=##5r#+t5+#;q97",
"+-=;9q18<O6:O:4O6#O@#,w@@-w=+#9,==+,u;o#,9t#++,9+>>:#u,%+=95+#6%+#;7;7",
"o-%;7q-11O54O*4+>#o==,r=##9-+=3-=+o=f;o#,,,++o,,+5:@Ouw#o,;;#=>++=;777",
"o%%=;q=1<@*>O$>@:#o>;-e,=@-9=;,=;+o;u,#=5,;##+w,#,*O$,u-+,==#>=+#;;777",
"++==;r%=<-$>OO4@%#o->=uw-#%9,,;@;=+;uw=;;;:#,#u9>*++>$ww;;==%5=o#;;7;;",
"++==-p=$-e*4+O:@#-X=-&ue=##9w9;+=u==uq,;##=#,#r=5+.::==u9===#,;+==;q==",
"=#=#-01&&6***O$>#,-,-=wr;=#,r,#==9q#9f,===#+t=,t#+=#=#=fw;==#9t#==;q7=",
"#=y>&00$$>3>$$*%#30,==wy,##,y=#=;,r#=u9====#t=:t####%=;ww;===,9====r;#",
"@#d-O9r&%$64O:6$#;r,@#3w9##,y=#=9;q==99;#,;#,=;t####=6,=w9=#;9;:##;r=#",
"+=u:+-e-$+64@*4:#=q;+#,ww#+=w,+#t=7==99;#,9#,==,##=-=y9#;9=+,9=,#+;r=#",
"=y5,-%30$O$5*O*6==q=++:,6,++5,++q==;;99=#9t===+,@+:,#rr+=9=@,5=>+#;q=#",
"w5+=3#<a-+O44O$2=9q;++=;:6#+;,#+r==99;;=#,9=#:#,@O,;=qw#=;=%;,=%+#;r=#",
"r#+=-#<p>@@*:$O$-r9=++=:=5=##===r=;q;=;=+:9:#:+:OO;-;u;#====%:,+o#;q;#",
"w#=:=#;w:+%%*>OO<s;#+o@;==6=@=;;e%<a-+;&+:6>$>#:@@<&0p-%%%=,#->o+=;9,=",
"=;w###,t4::+*-&O1e7@;%O-=t5=%#;q1;a3%;<%+%64Oy%#%$%-03-&9#;@;y-+#=9q==",
"##9=#+>t*44#$$&%0e1;8-@&=yt=##;q79p*@<<$$$t6+y%$$$-1r0-3w#%@-e=@==9r=#",
"+#,,#+%t#46$#+-;pe=0p-#$;wt#+=7q9ey$+31$%@65+y##%&11p1-e9##+,r==;=rq##",
"+%,w#+#t$>>#&&33ew@0p-$#wtu++=9q7e:@%<1<#O6:#6O$&-10r&&a;;#+0e=-9;99@#",
":-;r#+#5@5#O22617;+00-%Oqww+o;997wO#3&36O+6**>O=<101<#&p><O+w0=1q;9,+%",
"5-=e%+%:O6#O26669##030&X9t,+#;;9<-o=6$3ao+4@*-o&<010-+-r3<OO07-897w=+@",
"5%#r6+#=+5@+>>e3;+=<;p-X;t#+=,;;;@#,-$3a+O4O**o--e<3##3190O#01;i;;9=o+",
">##uaO&*@*$$,>e6%+,=%r;o7r#o:9=;;O>3#@6p&O>O4>O-;e;9@#9#3r@#p11i;=,=.+",
">#&3p6&$%%+3#66-#+==%;q=,u#*:=;q%#>e-O<a;&#+:$%3=u;=+#,%-09&10ii-=,+ #",
",-&;p6%$%%@6$,6-##==%;r;9r====9w%&:e6$<p6*#@:#%3=w--#%-#&30-1i88-%5#o%",
"3,-=6e&@&%+6&:6:##=#==q79w,=#=,9$=%3p&%1y4##:@*w-3=,;=%#%=311118=#::+#",
";3-%3p&O-$+3:&4*#*@#==q1999:+#,,%%%6p&$-66##>@&e%,=-9=##%#,9<111=@*5:@",
"-3&@>p-$;:+>:#>%@#+=-=0;;,9:+#,,$O%6p<$&,6#%4@%w@,=%>,=%%+=,<-1<-+@5>+",
"$<-@&p>O-&O:>+>#+##:;-8-;;,,#+=,$O*3p3&%>,@*4@%e+-=+%6>-:@#;--1--++4>+",
"%&-@&p2O*-O$>O4@+#:#=1r=;;;,=o#9&O$2p0&$-,@*5+:y+#-o+t6>>#@:-;<&,@o#4#",
"%=;#%r,+&>O%4O4OX>>@$3r#=-=5>O+5%OO-pi$O=5##5+=u++5++tt5,=+==-<=;%O+>:",
"%#=%#w,o%6OO*@$*X%>$O-p3@;@,y$O**&@#6s<O#:#+d+=w=+#++=6u==@=%-;#=*#>>&",
"#%;%@ww+$6OO*$$$O*>$+-p2#-$3y*+%%1&%3p-@#=#+u+=t#+#+##>uw%@%%-6-&%$3,$",
"===%#ww@$y%O*$O@$>*%$%66==$>y:@*$6-%-r3$+=#+t#;t#+*####6r=#%$-w-#&*6>#",
"#===@9w##6>%$#$#@6*$$$3e-@+-6:$#$3;%-9w=#=:#w#:t+#*+=#+-w<&$$;3-$$%y>#",
"#=;=#>t##>6:+#:*O5%$$@>w-#@*6:##:;1=$3y-+5,+5#=6####:%#-<w$+-3-&%@$6-+",
"+#=:#:6&$3>>@+:>O-*&@@-6>-$%6>+#>-3;#-3=+y5+>=#5#+:#:,,5-0$O<6%&-$%3*O",
"++=5##>>>6**&O-6-$>-O+&333#@26#O>%,,#=>=#y,+::@>++::%:99$3&#36$&-*-3%O",
"#o#5=+,,>y#$>+#y6O63@O&2w6+O>y$O:#--#=->>y=+>>+=#O6>%&36+-3&33$&$3>2#O",
"=++#:##,6y@&>&O9e&&3&.$p3-&+@y6+%=#>%@->tw5X#>@=#o4>@$66+$6p-&:$@y3$+$",
";#+#:=#:36O#,,O-a-36$o>y&*$##63O@=@-%+%-69=+#,=$$+::@$33#&63-&-#Oe3$#&",
"9####=#=36OO;e#%r3e1@$66#-:&$33+@,@--@%-w,#+@,,#=*&-+$y-%36&-$>#@6-%%*",
"t#:##:=#,6+O-e-%018<$<6<$3:*%3y&#,#,,#&3r-%=#,9+,>#:@&e&;e3+-#6*+6-&-:",
"w@*##:##,3#@=37%313&-6-@*6-#@-6>%;+;3#-9q%%1%<w+w3+%$*e&33&O*#u:#3%&,&",
"9@##*:##>,#%==q-11<&36$O-6%@@*63,=O,9$;0;#-7%39+y>+#%26-6-#O&@62@3#&>$",
"0#@#:#@=,-@=-#i<<1-<<<@O>6$@$&23e%+,9%1q=@;;#99#3&#+%23-<$#$$+46O3#&-#",
"e#O*:+O->&o=;#r--<---&$$62O$$#*>w&+70&8q##7-@99#;%#+&>-;*##&$+>6O2#$&+",
"p&O>++6*-#+&&#80&&-<-O2&255OO*$#y<&<8787#==#%>r%-$O#>*:,$@+3#&3y#*#$>:",
"93&:O#6**#$3%O-q<&*&&@2&:64OO*@@23--777;@%:##=t%&*:-*>-##&$&$&;6&##*,>",
"<6-$o#6%$+&3&O&0<&%#$$2&&44OO$@O&91-187=+%>###9=$#6*#:*O+*>O$*-33+$$65",
"13=@X#y&##&--%&3-=###%;#$4:+O$##$e3;;7;%@#>:@@w-$+>:$%*@$$wO$=-33+$#ww",
"03:@o%y>+$-&2-&1;:#:=--#$4*++%$%-w3-;3;=##::#@q-%#:6>#&>=@y+$$&33$##y9",
"e9>%+#w6+$3&2&O1r:@>=,==$>$@%%%-6,,-;;;=##=:*#e;%##6,+$6,@6%#+#>>-+=e3",
"r3-=%+,u$#6--&$it:@>=9=#$>@+**$>u-%-,=-,=@@==#r7=+$,:+#:t%$&#+@>-;#99;",
"r;===o;d=+e-=--r=:+::t==#,++:&#;a%+>,==,#+@=:#w7-$66-$O+y,+&+++:=;%u7=",
"u,#;=+#qe&9-#30-=:#:=t==@=%o>:#w9:+#,#=,=#+#@6q%-a>@*%$o6wO#%+o>#%;q;%",
"q9=;=##re0e-=9;#=#+%=w===##+%:#re%%=-#;,>%@##99=1e%+&##O>y#::+o:%=7q1=",
"q;=9=#=r9r7=7r-@,###=t==9@=+#=;r3#,-@%7w6=##=9,;83#@-#&+-6$5>Oo&%-q7;7",
"r==r==+99q;=9e%#w:###q;=9@,#@=,r-#y;+=9we:@#;611i-+%3$&+-6$6-OO$#;q11r",
"9#=u##+999779-+#6>#+#e-=>@6:+=w7%%e;@;w7w=+@3e001$O*6$##>:#5%#+##1q-7u",
";=9u###77;79;##=9:+@=9=-=+65+-w;$-e-$10;3#@@3y08&O$36$@+>>+3#$*$#79=;u",
"==q9#+=;;;;;;##,t5+=3;#;=+65@-w=#,;=-09;<+##3;<1$@-36$#O>:+6@%>%=11#0r",
"=;r;++;;=9=;=#=9q6+,r;@-=O6y#:6%@3=%;q1-<+%&3-=1+%3y3&#O>*@6+%>$&<;@0e",
"#9u#o===;:9##==7r=9ww##,@+*uO-3+=,#=001&%O:=:9-+&=;90>+O-+:$+&>%&3O%y,",
"=9q##,;==,6=#==7q=ww;@%,O+-e@>3+&-#=001--@==:9;#&=901=#+*+>#O*&$-3+&r,",
";q;#=,==#;t=#==99;u9#@%=O#>y@>3+%:#-r3--1%:%=w,%%%00-=$$%#>#o:%O2:@-t-",
"9r##;;==#:t;##=999t=####@@>6#5>@%=#-p1$-e-=@=w,#%$99-#%=>$*#+*$-6##,r=",
"9q#=9,=##=t=#=;99y,+#%##*@>3#5*@:$#,0;$<r,%@=,,#@=1;-%@%6>+*&$#6,@#,6="
};
