/* XPM */
static char *result[] = {
/* columns rows colors chars-per-pixel */
"70 70 248 2 ",
"   c #000000",
".  c #1C0000",
"X  c #160407",
"o  c #1A0A17",
"O  c #210000",
"+  c #2C0200",
"@  c #21080E",
"#  c #330000",
"$  c #3C0000",
"%  c #2F1710",
"&  c #39291B",
"*  c #3A2A0A",
"=  c #251824",
"-  c #2C2529",
";  c #342A28",
":  c #3D3428",
">  c #392C32",
",  c #3B3539",
"<  c #232F36",
"1  c #14242B",
"2  c #4C0000",
"3  c #410600",
"4  c #560200",
"5  c #501409",
"6  c #6A0400",
"7  c #6E1A04",
"8  c #492505",
"9  c #562603",
"0  c #583505",
"q  c #462919",
"w  c #582C17",
"e  c #59361A",
"r  c #4C391A",
"t  c #672706",
"y  c #733206",
"u  c #652717",
"i  c #67371A",
"p  c #75391A",
"a  c #6F2F0B",
"s  c #472D28",
"d  c #522920",
"f  c #48392C",
"g  c #563926",
"h  c #473938",
"j  c #533C39",
"k  c #412139",
"l  c #643A26",
"z  c #733A27",
"x  c #6B3C34",
"c  c #78441B",
"v  c #6F4D10",
"b  c #5C4828",
"n  c #4B4538",
"m  c #53433A",
"M  c #584737",
"N  c #48442A",
"B  c #7C4423",
"V  c #784829",
"C  c #654937",
"Z  c #784837",
"A  c #67593C",
"S  c #704F2F",
"D  c #766337",
"F  c #453D44",
"G  c #4D2E44",
"H  c #643F40",
"J  c #39484E",
"K  c #4B4446",
"L  c #49464B",
"P  c #544C4B",
"I  c #584947",
"U  c #5C5549",
"Y  c #574C53",
"T  c #4D545C",
"R  c #535355",
"E  c #5A5453",
"W  c #53555B",
"Q  c #59595B",
"!  c #4C5548",
"~  c #674F45",
"^  c #6A5849",
"/  c #785746",
"(  c #645D5C",
")  c #665956",
"_  c #77574E",
"`  c #776648",
"'  c #676159",
"]  c #776959",
"[  c #656146",
"{  c #5B5D62",
"}  c #595762",
"|  c #645D62",
" . c #775A64",
".. c #5A6166",
"X. c #6C6A6C",
"o. c #676568",
"O. c #736D6C",
"+. c #796A64",
"@. c #7C726B",
"#. c #756D71",
"$. c #6D7274",
"%. c #6D747B",
"&. c #677576",
"*. c #747473",
"=. c #73767B",
"-. c #73797C",
";. c #7B7A7B",
":. c #797678",
">. c #6D6F74",
",. c #883904",
"<. c #863919",
"1. c #963400",
"2. c #874800",
"3. c #86451B",
"4. c #9A4717",
"5. c #985918",
"6. c #8F4F08",
"7. c #A94604",
"8. c #B24304",
"9. c #B9560A",
"0. c #A74D16",
"q. c #A85719",
"w. c #BC5514",
"e. c #B8571A",
"r. c #AE4F13",
"t. c #AA641B",
"y. c #824B27",
"u. c #944726",
"i. c #8C5527",
"p. c #965928",
"a. c #875838",
"s. c #955A39",
"d. c #874937",
"f. c #A95724",
"g. c #B85924",
"h. c #AD4F2E",
"j. c #996229",
"k. c #8B6C35",
"l. c #996838",
"z. c #8D713A",
"x. c #8D6F2F",
"c. c #AC6925",
"v. c #B36827",
"b. c #A56838",
"n. c #B87738",
"m. c #AE7031",
"M. c #CA5405",
"N. c #C5550C",
"B. c #C65609",
"V. c #C45513",
"C. c #C35913",
"Z. c #C25A19",
"A. c #C95816",
"S. c #D3590D",
"D. c #D2771C",
"F. c #C75E23",
"G. c #D87E21",
"H. c #C3732C",
"J. c #895E48",
"K. c #915844",
"L. c #856648",
"P. c #996748",
"I. c #92774A",
"U. c #876855",
"Y. c #926A53",
"T. c #977755",
"R. c #8F734E",
"E. c #A6694A",
"W. c #A97548",
"Q. c #B77848",
"!. c #A67757",
"~. c #B57B59",
"^. c #A16654",
"/. c #887569",
"(. c #857977",
"). c #8D7167",
"_. c #A77A63",
"`. c #AC5C4C",
"'. c #C57C4C",
"]. c #D98327",
"[. c #DC8033",
"{. c #DA861C",
"}. c #9A8357",
"|. c #BA844A",
" X c #B9865B",
".X c #AC8C59",
"XX c #898279",
"oX c #988678",
"OX c #9A8861",
"+X c #A68768",
"@X c #BA8965",
"#X c #B89469",
"$X c #AF9576",
"%X c #BDA67F",
"&X c #C88648",
"*X c #C68859",
"=X c #D68A58",
"-X c #C9935A",
";X c #DA975B",
":X c #D9934A",
">X c #E2984F",
",X c #E99D5E",
"<X c #D6A35A",
"1X c #E4A35E",
"2X c #E9A259",
"3X c #F1A65E",
"4X c #F3A04F",
"5X c #C48D67",
"6X c #CA9869",
"7X c #D79768",
"8X c #C59976",
"9X c #D69D78",
"0X c #E49E62",
"qX c #E49D6B",
"wX c #E99D73",
"eX c #DBA46C",
"rX c #DAA467",
"tX c #CAA478",
"yX c #D9A878",
"uX c #D0AE71",
"iX c #E5A264",
"pX c #E9A364",
"aX c #E4A36B",
"sX c #EBA76A",
"dX c #F3A76A",
"fX c #E7A875",
"gX c #F3AF74",
"hX c #DDC17F",
"jX c #747982",
"kX c #837D82",
"lX c #7C8288",
"zX c #8A8889",
"xX c #978A88",
"cX c #979699",
"vX c #928F90",
"bX c #A39995",
"nX c #A59689",
"mX c #ADA89A",
"MX c #969AA1",
"NX c #ADA7AB",
"BX c #A6A0A8",
"VX c #CBA687",
"CX c #EAB98C",
"ZX c #C79580",
"AX c #E6C386",
"SX c #D2C7B9",
"DX c #F3D3A4",
"FX c None",
/* pixels */
"FXFXFXFXFXFXFXFXFXFXFXFXFXFXFXFXFXFXFXFXFXFXFXFXFXFXFXFXFXFXFXFXFXFXFXFXFXFXFXFXFXFXFXFXFXFXFXFXFXFXFXFXFXFXFXFXFXFXFXFXFXFXFXFXFXFXFXFXFXFX",
"FXFXFXFXFXFXFXFXFXFXFXFXFXFXFXFXFXFXFXFXFXFXFXFXFXFXFXFXFXFXFXFXFXFXFXFXFXFXFXFXFXFXFXFXFXFXFXFXFXFXFXFXFXFXFXFXFXFXFXFXFXFXFXFXFXFXFXFXFXFX",
"FXFXFXFXFXFXFXFXFXFXFXFXFXFXFXFXFXFXFXFXFXFXFXFXFXFXFXFXFXFXFXFXFXFXFXFXFXFXFXFXFXFXFXFXFXFXFXFXFXFXFXFXFXFXFXFXFXFXFXFXFXFXFXFXFXFXFXFXFXFX",
"FXFXFXFXFXFXFXFXFXFXFXFXFXFXFXFXFXFXFXFXFXFXFXFXFXFXFXFXFXFXFXFXFXFXFXFXFXFXFXFXFXFXFXFXFXFXFXFXFXFXFXFXFXFXFXFXFXFXFXFXFXFXFXFXFXFXFXFXFXFX",
"FXFXFXFXFXFXFXFXFXFXFXFXFXFXFXFXFXFXFXFXFXFXFXFXFXFXFXFXFXFXFXFXFXFXFXFXFXFXFXFXFXFXFXFXFXFXFXFXFXFXFXFXFXFXFXFXFXFXFXFXFXFXFXFXFXFXFXFXFXFX",
"FXFXFXFXFXFXFXFXFXFXFXFXFXFXFXFXFXFXFXFXFXFXFXFXFXFXFXFXFXFXFXFXFXFXFXFXFXFXFXFXFXFXFXFXFXFXFXFXFXFXFXFXFXFXFXFXFXFXFXFXFXFXFXFXFXFXFXFXFXFX",
"FXFXFXFXFXFXFXFXFXFXFXFXFXFXFXFXFXFXFXFXFXFXFXFXFXFXFXFXFXFXFXFXFXFXFXFXFXFXFXFXFXFXFXFXFXFXFXFXFXFXFXFXFXFXFXFXFXFXFXFXFXFXFXFXFXFXFXFXFXFX",
"FXFXFXFXFXFXFXFXFXFXFXFXFXFXFXFXFXFXFXFXFXFXFXFXFXFXFXFXFXFXFXFXFXFXFXFXFXFXFXFXFXFXFXFXFXFXFXFXFXFXFXFXFXFXFXFXFXFXFXFXFXFXFXFXFXFXFXFXFXFX",
"FXFXFXFXFXFXFXFXFXFXFXFXFXFXFXFXFXFXFXFXFXFXFXFXFXFXFXFXFXFXFXFXFXFXFXFXFXFXFXFXFXFXFXFXFXFXFXFXFXFXFXFXFXFXFXFXFXFXFXFXFXFXFXFXFXFXFXFXFXFX",
"FXFXFXFXFXFXFXFXFXFXFXFXFXFXFXFXFXFXFXFXFXFXFXFXFXFXFXFXFXFXFXFXFXFXFXFXFXFXFXFXFXFXFXFXFXFXFXFXFXFXFXFXFXFXFXFXFXFXFXFXFXFXFXFXFXFXFXFXFXFX",
"FXFXFXFXFXFXFXFXFXFXFXFXFXFXFXFXFXFXFXFXFXFXFXFXFXFXFXFXFXFXFXFXFXFXFXFXFXFXFXFXFXFXFXFXFXFXFXFXFXFXFXFXFXFXFXFXFXFXFXFXFXFXFXFXFXFXFXFXFXFX",
"FXFXFXFXFXFXFXFXFXFXFXFXFXFXFXFXFXFXFXFXFXFXFXFXFXFXFXFXFXFXFXFXFXFXFXFXFXFXFXFXFXFXFXFXFXFXFXFXFXFXFXFXFXFXFXFXFXFXFXFXFXFXFXFXFXFXFXFXFXFX",
"FXFXFXFXFXFXFXFXFXFXFXFXFXFXFXFXFXFXFXFXFXFXFXFXFXFXFXFXFXFXFXFXFXFXFXFXFXFXFXFXFXFXFXFXFXFXFXFXFXFXFXFXFXFXFXFXFXFXFXFXFXFXFXFXFXFXFXFXFXFX",
"FXFXFXFXFXFXFXFXFXFXFXFXFXFXFXFXFXFXFXFXFXFXFXFXFXFXFXFXFXFXFXFXFXFXFXFXFXFXFXFXFXFXFXFXFXFXFXFXFXFXFXFXFXFXFXFXFXFXFXFXFXFXFXFXFXFXFXFXFXFX",
"FXFXFXFXFXFXFXFXFXFXFXFXFXFXFXFXFXFXFXFXFXFXFXFXFXFXFXFXFXFXFXFXFXFXFXFXFXFXFXFXFXFXFXFXFXFXFXFXFXFXFXFXFXFXFXFXFXFXFXFXFXFXFXFXFXFXFXFXFXFX",
"FXFXFXFXFXFXFXFXFXFXFXFXFXFXFXFXFXFXFXFXFXFXFXFXFXFXFXFXFXFXFXFXFXFXFXFXFXFXFXFXFXFXFXFXFXFXFXFXFXFXFXFXFXFXFXFXFXFXFXFXFXFXFXFXFXFXFXFXFXFX",
"FXFXFXFXFXFXFXFXFXFXFXFXFXFXFXFXFXFXFXFXFXFXFXFXFXFXFXFXFXFXFXFXFXFXFXFXFXFXFXFXFXFXFXFXFXFXFXFXFXFXFXFXFXFXFXFXFXFXFXFXFXFXFXFXFXFXFXFXFXFX",
"FXFXFXFXFXFXFXFXFXFXFXFXFXFXFXFXFXFXFXFXFXzXFXFXFXFXFXFXFXFXFXFXFXFXFXFXFXFXFXFXFXFXFXFXFXFXFXFXFXFXFXFXFXFXFXFXFXFXFXFXFXFXFXFXFXFXFXFXFXFX",
"FXFXFXFXFXFXFXFXFXFXFXFXFXFXFXFXFXFXFXFXFX# FXFXFXFXFXFXFXFXFXFXFXFXFXFXFXFXFXFXFXFXFXFXFXFXFXFXFXFXFXFXFXFXFXFXFXFXFXFXFXFXFXFXFXFXFXFXFXFX",
"FXFXFXFXFXFXFXFXFXFXFXFXFXFXFXFXFXFXFXFXFX/ FXFXFXFXFXFXFXFXFXFXFXFXFXFXFXFXFXFXFXFXFXFXFXFXFXFXFXFXFXFXFXFXFXFXFXFXFXFXFXFXFXFXFXFXFXFXFXFX",
"FXFXFXFXFXFXFXFXFXFXFXFXFXFXFXFXFXFXFXFXoX}.FXFXFXFXFXFXFXFXFXFXFXFXmXcXFXFXFXFXFXFXFXFXFXFXFXFXFXFXFXFXFXFXFXFXFXFXFXFXFXFXFXFXFXFXFXFXFXFX",
"FXFXFXFXFXFXFXFXFXFXFXFXFXFXFXFXFXFXFXxX#XOXFXFXFXFXFXFXFXFXFXFXFXmX$XbXFXFXFXFXFXFXFXFXFXFXFXFXFXFXFXFXFXFXFXFXFXFXFXFXFXFXFXFXFXFXFXFXFXFX",
"FXFXFXFXFXFXFXFXFXFXFXFXFXFXFXFXFXFXFXS AX.XFXFXFXFXI FXFXFXFXFXFXmX%XFXFXFXFXFXFXFXFXFXFXFXFXFXFXFXFXFXFXFXFXFXFXFXFXFXFXFXFXFXFXFXFXFXFXFX",
"FXFXFXFXFXFXFXFXFXFXFXFXFXFXFXFXFXFXNXI.AXuXjXFXFX= I O % bXFXFXNXnXtXnXFXFXFXFXFXFXFXFXFXFXFXFXFXFXFXFXFXFXFXFXFXFXFXFXFXFXFXFXFXFXFXFXFXFX",
"FXFXFXFXFXFXFXFXFXFXFXFXFXFXFXFXFXFXbXT.<XAXmX/.  E zXMXMXQ E *./.DXyX/ FXFXFXFXFXFXFXFXFXFXFXFXFXFXFXFXFXFXFXFXFXFXFXFXFXFXFXFXFXFXFXFXFXFX",
"FXFXFXFXFXFXFXFXFXFXFXFXFXFXFXFXFXFXmXR.uXuXhXAX+X^ zXBXNXNXzXK I %XuXc FXFXFXFXFXFXFXFXFXFXFXFXFXFXFXFXFXFXFXFXFXFXFXFXFXFXFXFXFXFXFXFXFXFX",
"FXFXFXFXFXFXFXFXFXFXFXFXFXFXFXFXFXFXFXC #X6X<XgXDX+X= O.....X.O.n   _./ FXFXFXFXFXFXFXFXFXFXFXFXFXFXFXFXFXFXFXFXFXFXFXFXFXFXFXFXFXFXFXFXFXFX",
"FXFXFXFXFXFXFXFXFXFXFXFXFXFXFXFXFXFXFXFXe #X%X#X8XL.O K n f m h U N   ^ FXFXFXFXFXFXFXFXFXFXFXFXFXFXFXFXFXFXFXFXFXFXFXFXFXFXFXFXFXFXFXFXFXFX",
"FXFXFXFXFXFXFXFXFXFXFXFXFXFXFXFXFXFXFXFXFXO L.~ H Q *.Q zXNXo.(. .BXcX! - FXFXFXFXFXFXFXFXFXFXFXFXFXFXFXFXFXFXFXFXFXFXFXFXFXFXFXFXFXFXFXFXFX",
"FXFXFXFXFXFXFXFXFXFXFXFXFXFXFXFXFXFXFXFX( Q Q (.NXQ >.W o.(.L Y G :.;.U ' I FXFXFXFXFXFXFXFXFXFXFXFXFXFXFXFXFXFXFXFXFXFXFXFXFXFXFXFXFXFXFXFX",
"FXFXFXFXFXFXFXFXFXFXFXFXFXFXFXFXFXFXFXj cXO.o.E O.- - < % # I A ~ 5 . : q j FXFXFXFXFXFXFXFXFXFXFXFXFXFXFXFXFXFXFXFXFXFXFXFXFXFXFXFXFXFXFXFX",
"FXFXFXFXFXFXFXFXFXFXFXFXFXFXFXFXFXFXH +.nXh < f 9 J.~.6X9XeXeXrXeXeX8X#X+ FXFXFXFXFXFXFXFXFXFXFXFXFXFXFXFXFXFXFXFXFXFXFXFXFXFXFXFXFXFXFXFXFX",
"FXFXFXFXFXFXFXFXFXFXFXFXFXFXFXFXFXFXs h   C !.5X~.7X7X~.~.@X6XpXpXfX7X X~ FXFXFXFXFXFXFXFXFXFXFXFXFXFXFXFXFXFXFXFXFXFXFXFXFXFXFXFXFXFXFXFXFX",
"FXFXFXFXFXFXFXFXFXFXFXFXFXFXFXFXFXFXFX. +XyX7XH.n.7X<.,.7.8.u.P.wX~.<.r.1./.FXFXFXFXFXFXFXFXFXFXFXFXFXFXFXFXFXFXFXFXFXFXFXFXFXFXFXFXFXFXFXFX",
"FXFXFXFXFXFXFXFXFXFXFXFXFXFXFXFXFXFXFXw 5X~.E.'.=X7Xd.V u.4.u.O 6XY.y.u.6 FXFXFXFXFXFXFXFXFXFXFXFXFXFXFXFXFXFXFXFXFXFXFXFXFXFXFXFXFXFXFXFXFX",
"FXFXFXFXFXFXFXFXFXFXFXFXFXFXFXFXFXFX;.2 d.^.P.7XfXwXQ.a.l   h x +XU.  9 e FXFXFXFXFXFXFXFXFXFXFXFXFXFXFXFXFXFXFXFXFXFXFXFXFXFXFXFXFXFXFXFXFX",
"FXFXFXFXFXFXFXFXFXFXFXFXFXFXFXFXFX(.v E.B l.5. XsX3X>Xg.u.^.yXsXgXAXtXV T.FXFXFXFXFXFXFXFXFXFXFXFXFXFXFXFXFXFXFXFXFXFXFXFXFXFXFXFXFXFXFXFXFX",
"FXFXFXFXFXFXFXFXFXFXFXFXFXFXFXFX).|.:XQ.K.P.7X7X*XQ.5X7XE.~.7XH.&X6X@XK.P.FXFXFXFXFXFXFXFXFXFXFXFXFXFXFXFXFXFXFXFXFXFXFXFXFXFXFXFXFXFXFXFXFX",
"FXFXFXFXFXFXFXFXFXFXFXFXFXFX/.W.7XgX>X'.`.h.h.r.h.h.u.!.P.9 Z x u Z 7 z 4 xXFXFXFXFXFXFXFXFXFXFXFXFXFXFXFXFXFXFXFXFXFXFXFXFXFXFXFXFXFXFXFXFX",
"FXFXFXFXFXFXFXFXFXFXFXFX/. XqXgXsX0X0X&Xu.e.V.M.B.w.g.7 u f.8.8.f.r.N.F.<.~ FXFXFXFXFXFXFXFXFXFXFXFXFXFXFXFXFXFXFXFXFXFXFXFXFXFXFXFXFXFXFXFX",
"FXFXFXFXFXFXFXFXFXFX(.l.rXsX3X3XaXiX3XQ.<.e.A.N.M.V.u.u.F.N.S.A.h.<.F.S.F.1.B nXFXFXFXFXFXFXFXFXFXFXFXFXFXFXFXFXFXFXFXFXFXFXFXFXFXFXFXFXFXFX",
"FXFXFXFXFXFXFXFXFX_  XgXiX1X1X1XaX0XpXb.<.V.A.e.A.h.<.g.B.q.u.<.l i z 4.e.V.^.$XU.FXFXFXFXFXFXFXFXFXFXFXFXFXFXFXFXFXFXFXFXFXFXFXFXFXFXFXFXFX",
"FXFXFXFXFXFXFXFX(. XgX4XiXyXrX<XiXiXiXE.a e.N.e.e.1.u.h.<.u w ,.8.A.7.y a <.7 U.VXl.FXFXFXFXFXFXFXFXFXFXFXFXFXFXFXFXFXFXFXFXFXFXFXFXFXFXFXFX",
"FXFXFXFXFXFXFXFXV fXiX,XiXiXiXiX0XiXrXE.a q.A.S.f.9 p t a 0.r.V.S.A.A.e.r.<.p   ~.aX).FXFXFXFXFXFXFXFXFXFXFXFXFXFXFXFXFXFXFXFXFXFXFXFXFXFXFX",
"FXFXFXFXFXFXFXFX6.pXsXqXpX1X1XiXiXpX1XT.u 4.V.A.u.5 ,.8.w.V.V.V.e.g.e.V.V.Z.g.u.c CXW.FXFXFXFXFXFXFXFXFXFXFXFXFXFXFXFXFXFXFXFXFXFXFXFXFXFXFX",
"FXFXFXFXFXFXFXFX2.;X0XsXiXiXiXiX;X=X2X[.z <.9.V.r.0.Z.A.M.V.V.N.B.B.B.B.N.N.Z.9.V 9X=XcXFXFXFXFXFXFXFXFXFXFXFXFXFXFXFXvX@.o.FXFXFXFXFXFXFXFX",
"FXFXFXFXFXFXFXFX,.'.aXiX1XiXiXsX-X`.,X:Xs.7 0.M.M.N.e.e.e.M.M.N.B.M.M.B.N.M.Z.7.K.wX:X_.FXFXFXFXFXFXFXFXFXFXFXBX:.(  .#.;.XXE FXFXFXFXFXFXFX",
"FXFXFXFXFXFXFXFXl p.-XiX1X1XiXsXQ.d.0X2XQ.z t 4.w.M.M.V.w.M.N.e.V.w.w.w.w.g.g.7 _.CX&XnXFXFXFXFXFXFXFXFXFX@.h o.(.kXkXjX=.;.vXI FXFXFXFXFXFX",
"FXFXFXFXFXFXFXFX2.b.m.=X1XiX;XQ.z Q.qXpX>Xn.V w 3.w.M.C.V.Z.V.N.N.V.A.V.A.h.6 a.#XyXp.bXFXFXFXFXFXFXFXFXFX. :.zX&.&.&.-.-.$.;.vXP FXFXFXFXFX",
"FXFXFXFXFXFXFXV n.*X;X0XiX0X;Xb.z |.0XpXpX;XQ.u.u t 3.4.0.r.e.e.w.w.r.0.,.4 s.7XT.7X;X(.FXFXFXFXFXFXFXFXFX+ X.-.jX=.*.*.*.-.%.jXcX' $ + FXFX",
"FXFXFXFXFXFXFX2.'.3XdXfXsXsXsX=Xy !.;X:XqXfXiX:XQ.a.p t 7 y t t t t 9 i a.Q.sX5XU.rXgX2.FXFXFXFXFXFXFXFXFXO #.jX%.&.-.*.-.=.%...#.oX) $ ] FX",
"FXFXFXFXFXFX).q.*X9X6X*X@X@X6X-Xs.l 5X=X&X7X2X1X1X;X=X|.~.E.b.b.`.~.*X;X;X;X7Xx +XpXdX~.vXFXFXFXFXFXFXFXFX  $.jX=.:.*.$.X.Q L h ; s m q + FX",
"FXFXFXFXFXFX).i./ ] @.+.I I I ~ z j _ ~.7XaX3XsXfXsXsXdX=X=XdXpXdXdXsXaX*X~.Z 5 '.4XdX!.C  X!.] FXFXFX(.I h >.=.#.| Y F f f F K R T {   FXFX",
"FXFXFXFXFXFX) d #.#.( E F F F ; - h C 9 V T.!.P.W.|.Q.b.p.f.|.6X-X-X5X XE.Z C d.n.qX8XK.!.5X_.# 4 3 4 y e K E Y h s h K L E W W Q T o.  FXFX",
"FXFXFXFXFXFX& Y I K O.-.X.o.| Y , 1 b.[.H.c.m.c.t.5.5.p.j.j.i.5.5.5.j.j.l.l.V x a./ j l ~.z l / x a.V y 4 j h G L P Q Q } T W W W R o.; kXFX",
"FXFXFXFXFXFX  F W zXMXcXlX=.;.#.( K c D.D.{.G.G.G.G.{.G.].[.].{.].{.m.b.k.V i 2 q 8 d ^.J.d Y.!.0 5 w @.+.s Y Q Q Q W T T W T W W R R E > FX",
"FXFXFXFXFXFX  o.:.zXMXMXjXjXjX&.Q T f i.j.q.9.c.c.t.v.c.t.t.5.3.c e u u p z e Y.ZXY.y..X+XJ.a.aX XkXFXFXFX+ ..W W R W W E E E R T T W ( . FX",
"FXFXFXFXFXFXK P :.jXvXMXlXjXjX&...P : m A C b e e w v i e w w i z V y.V B i 9 P.5XP.V |.gX5Xp ZX_.] FXFXFXh ! Q W R R R E W W W W T T o.. FX",
"FXFXFXFXFXFX(.% =.%.vXMXvX#.>.#.( ) h ~ _ M n s q w i p c 3.y.y.c p e e g j s p.1XrXZ `.wX8X5 C d I FXFXFXO.> o.W W W W T T W } { } Q o.  FX",
"FXFXFXFXFXFXFX  o.jXjXMXzX=.;.=...} Y 8 0 a z B B d.a.Z V p l e e b C [ [ ] ^ e Q.eXY.5 x M +.(   FXFXFXFXFXo { R W W W { ..{ W P , = @ zXFX",
"FXFXFXFXFXFXFXP L :.jXjXjXjX..J < F > w y.3.3.c c a # $ j m m n ` ` ] ` ] ` A > G h h ..;.cXcX, kXFXFXFXFXFX> P o.| Q W h & . ; ' xXFXFXFXFX",
"FXFXFXFXFXFXFXI F o.X.X.L , C T. X#X!.g l l e g + f XX@.r 8 m [ ] ! [ ` ^ b % Y X.} :.*.&.o.O.FXFXFXFXFXFXFXFX  . @ X , X.cXFXFXFXFXFXFXFXFX",
"FXFXFXXX^ 8 2 8 Y | L = _ @X9XaX*XfXtXd o > & r f FXFXFXFXO M U n N N n : s ) N   - h ^ vXFXFXFXFXFXFXFXFXFXFXFXFXFXFXFXFXFXFXFXFXFXFXFXFXFX",
"(.  2 t V Z J.c $ F S #X8XwXgXsXs.^._.C L.D D 8 xXFXFXFXFX(.+ [ b b C C b M FXFXFXFXFXFXFXFXFXFXFXFXFXFXFXFXFXFXFXFXFXFXFXFXFXFXFXFXFXFXFXFX",
"+.y s.y 6 6 2 C ] 3 *XgX7X6 c.l.b O e }.}.I.}.O oXFXFXFXFX^ 0 }.}.}.}.}.I.@.FXFXFXFXFXFXFXFXFXFXFXFXFXFXFXFXFXFXFXFXFXFXFXFXFXFXFXFXFXFXFXFX",
"FX. w ] xXFXFXFXFXFX6 7.2.xXFX>.# ` D b r * f FXFXFXFXFXFXFX* N D D D b + @.FXFXFXFXFXFXFXFXFXFXFXFXFXFXFXFXFXFXFXFXFXFXFXFXFXFXFXFXFXFXFXFX",
"FXFXFXFXFXFXFXFXFXFXFXFXFXFXFXFX0 /.D k.R.R.L.XXFXFXFXFXFXFX/.S }.}.I.D R.T.k.v xXFXFXFXFXFXFXFXFXFXFXFXFXFXFXFXFXFXFXFXFXFXFXFXFXFXFXFXFXFX",
"FXFXFXFXFXFXFXFXFXFXFXFXFXFXFX$XO ` k.k.k.z.I.v   FXFXFXFXFX^ v z.x.x.k.z.k.l.Y.8 vXFXFXFXFXFXFXFXFXFXFXFXFXFXFXFXFXFXFXFXFXFXFXFXFXFXFXFXFX",
"FXFXFXFXFXFXFXFXFXFXFXFXFXFXFXFX' U.] /.] ] +.).] xXFXFXFXFXXX^ ] ] ] +.] ] +.+.^ (.FXFXFXFXFXFXFXFXFXFXFXFXFXFXFXFXFXFXFXFXFXFXFXFXFXFXFXFX",
"FXFXFXFXFXFXFXFXFXFXFXFXFXFXFXFXFXFXFXFXFXFXFXFXFXFXFXFXFXFXFXFXFXSXSXSXFXFXFXFXFXFXFXFXFXFXFXFXFXFXFXFXFXFXFXFXFXFXFXFXFXFXFXFXFXFXFXFXFXFX"
};
