/* XPM */
static char *Nature_Vector_Art_HD_Images___Free_Download_on_Pngtree1673937835[] = {
/* columns rows colors chars-per-pixel */
"100 100 62 1 ",
"  c #2F8500",
". c #318700",
"X c #358C00",
"o c #3A8E00",
"O c #369100",
"+ c #3C9300",
"@ c #3E9901",
"# c #3F9B0A",
"$ c #419600",
"% c #459B00",
"& c #499E00",
"* c #449E0A",
"= c #499F09",
"- c #47A003",
"; c #4CA201",
": c #4FA801",
"> c #46A00A",
", c #4DA409",
"< c #4EA90B",
"1 c #51A602",
"2 c #58A700",
"3 c #54AA03",
"4 c #5AAD03",
"5 c #51A60A",
"6 c #55AB0A",
"7 c #59AE0B",
"8 c #57B206",
"9 c #5CB204",
"0 c #5FB800",
"q c #57B008",
"w c #5CB20C",
"e c #5EB809",
"r c #4DA611",
"t c #4CA912",
"y c #55AC11",
"u c #59AE11",
"i c #57B115",
"p c #5DB312",
"a c #5FB812",
"s c #5CB31A",
"d c #61B504",
"f c #64BA05",
"g c #69BB04",
"h c #61B50C",
"j c #64BA0D",
"k c #69BD0C",
"l c #61B613",
"z c #64BA14",
"x c #69BD13",
"c c #61B619",
"v c #65BB19",
"b c #69BE1A",
"n c #66BD20",
"m c #6CC304",
"M c #6BC10C",
"N c #64C013",
"B c #6CC114",
"V c #6CC21B",
"C c #71C516",
"Z c #71C51A",
"A c #6EC221",
"S c #72C521",
/* pixels */
"$6%:bd2xh&17&$5=&6&1;hgd;34V&25&kd1dC41h1;&v%vp%=,;&;9zje3;;hv;+;qN11hdhb&&2;6<%%77&1l3;8V1%;&;4kkgg",
";6$;bh2lh2&&&&&;c51l;hCd112C27;;hd14Cd1j11&l;lp;&&&1%1jkd1&:ll1%;:N8;hdxx$2&;v;-%76&2l81wV1&31&;gggg",
"6p%%bz1khh2$&5%%n&2z&hZ4d1;x4u22kk22Bh1jq3%l;wp%&$52%%hxj;+3vp1;-:z8&4jxl&2$6V+;;71&ww4ezj&;l3&&ggg4",
":a3%hh2jhh2$;7;$p17w+hV4d22x2d44kk2;jj1jw1$p;6u$&&=11%;jx;+4z73;%3z8$1xkh;$$wp+;cl&1h;&lx3$3v;%&gggg",
"@wa%1j2dk42&%7s%1wv1$llh79hg2hg4kk2&9k3jj1+p;;p$%y;;l1+9V1$ql12%@8p;$2bk2&$&u&%pbl&37+$hV1$4h$%4dddg",
"@:j-;d2dC441o;v6&4x&o62d2hkk2dmdMd4&3d3zl1+w6%y$$p5&l4o2V4%94;w$+w3%$4xb2&.22%77lw&71X&hV41w1o&wd49d",
":@33;d9dCd93$@6a&;h1 25764xk4dmmM44;;94jv;ow6+6+$u6&27;&B9;811c%$w1&22xx2$$5&5z16h26$X73hvh3$+18h424",
"zX-81949jkd8;+$ld%jh.56772hkddmmC1d1%44zz;opw+p$$5u&$6u%lk1416V%&w&2l44C2$&2$uv&&lw3X+v11bl&X$w3kh24",
"z-;:2xk;gx421&Xpj1eV+%622&dkdfmgM;2d221zb;+;p;+,%55l717;ezw1&4v3;3%wV14xd%33::w@3h3+$;1;;7Z7;:;jx2&2",
"a;;34kk2gx4233+qe;9V&%51u&2kfdggf319j2&7x2$;p6%31217w;1&wNe1&1vw;<;wx12xh;991;a;4z3$;114&3bh113zh412",
"a8%34dx24k4;3a%3h;9x4&2&l1;2fddgh4&;xl$2l7&&6p;;77&3l;&;7bh1&;hp&-qwh41hl2zz3-833j1$371w&4lv4%4N972;",
"qq%122b21hh&3c-;w;4jv16127;;dd9gdd&%hx;;lp1%;p6$7u&;w1$;3xv3&&wp&&qqww;2k2xz3$381B3%hh;73w4z8$3k431%",
"6q@;12x2%4h&1p-$w&34buu2&h2$2d4kh42$%zl;qw3%%w6$;w3&51%&&bv3;&3q;$312h;;j2lk8@:8;B8;al;3vh;w4%3j71%$",
"<q$;12hd%2h&66;+3;;3xh74%h2&2d9k724%$hx5631%$16;$6p&;2$$&vh41&;4;$;;572&h2jh3%;3$jj3lw;3b7&33;8j71%$",
"<3;%;2hk;&4;u6-@;4&1xb25%222454x222&&77b311;+;63%&l614$+&xw33;;35%%2222&24xh3@;1-9kjz81lV1;1113zw6;<",
":<;%&44x2&3;l6;$1w&4xZ22&&2uh25b151126;b711;+%66&&lz66%+;b8;3;;32&$5&&d1&5x4;+-1;9jVB13Zb13;11;kw36q",
"w;q1l;ez3%d:zwl$$xh;BNj1%3%5c6<v&;&%pw&zN3&1$%v3&&lb7&&$hb21&&v11%p6;;b&&7b7%;,;;4kZ91kjwq+;;&&lw&w1",
"1:w&e1ef8;f;fll%&hh3Mff3$1%%p,-v&&&%wh$3V9;;%1x1;&lbu2&&hb1&&&l;@%:p%32;&7n2%y6%&9jx99B34h%;&&=s3;e;",
"%6w+w3je99g&jz7$&5ddM0N3+7=+y<%v;$%%wl$&zj1%&7l12&hb5$&2hx&%%3l%$3;73p1;&uc&$p6$%9jd9dj%3z;%&%&u;17%",
";3q@;6x92dg&jx1$524jM8e8$p5+66$p&$&&7l%%3j1$;h71&$7b2$%7uc%$@qe$<66%bp;$&hp$;p<+;9d9dj9$9x&&;$$s%66+",
"5%2;+&vh4gg2kk2o3;8dz1e8$p6+<y@q&o=27v;&&h3%1w31$$2n2$$pqq$@+wq+u6%+bu&$4h2%;6@+34d9d4;%zw;;7o$s+6,+",
"7$55o+wk2dg2kx&o1;19k:89%16o-6%<&o563vw1%3w13713$o2bu=2l76%;$vq;u5o&6v2%h21&52+$449dd3%1V3%6uX$u@i$+",
"7&=5$X&bh2ggkc&o&113N;:33;6+$6%;&o261bl2&&ww77&42$2bl22246;6;zw65$$2&cv722&571+;44j441%hb;&66X-,$p++",
"&u,&&XoZk2hCkk2o+113B:;3v;y$+<%-2o14;bx3&&wzp3$1b22bxhu&1;%q%v66%.55&2bh&22&l3+314k231%xv%%35+5$@iO+",
"&c6&5$$hxk4gk222;&&4j8;;p;6,+-6-73433lv31&7x6;1;hx&4S7;1;&$l1qv&%-%;&1bz21;;wz-3;4k41&1bc&1&5l;;;;-;",
"&c5=5&$2kdddkh222c3;kj;;qi5%-<;-hlw11lv7;&7v4&13hl12bh1&31%l;6p&-;-133zxw1;1ww::;4x4&14bl&;;6c%;<;;q",
"&x;126&4ddddkh2$;n6$jz;;&c6$<p--7zq%&wzw&&6l2%1w2l21jl4&77&w;6p;;-;1pq1kh1%3wq6;%4x1%26zc&&;pp$1w%;e",
";b;2&p24ddddg22$2v5%3j8-$py%-w3-1k4+&7ll;%1c6$&v2h12hk3%hp;7;;w%;-3;vl&7h1@ww3q;%9x1%67l7%%&76%ww@-z",
"2x27&h4hxddgd222cuu2=hj;+;u,+1p:1z4+%37p6%%u7$%x1444hh1&wl;;6;6$$3q;xx$2h2$7w;6$&4l2&2uu6$%&6;;l3@2x",
"2x99&12hx2ggd2dhu%27&4V1$$y5+%w<ek3$$166s%$27%%x21hd4w1&7p3;1$6$@qq:xl%;41;361;+&4x5&26u;+$5;;37$$4b",
"9g44;&22kdgg22kx;$&5%4b3$%56&+;3Bh1%+&4572&&311z12x212;%3p3;6%6$@819x7&&131166%+&4x2&652,o$6&&7&$&dx",
"dd442$12kggg22xh&562&4l3%;-56@+6V8;$+%21575%134z;4C1%41$1l6-q%6$%9;jV311217&37oo24z2225y;X$6;;wo&57h",
"4M156$;;fMm02jz23l%;%uc66;$13;%8jd&1;+3;zp<;&3x97bw;4w;$;puov;&&-;8ej;;w;3&2z3$&1hk12h1;@@%:6-162&4b",
"9k&2u&5&fmm94ll&;e;;%6c,yp%%-:;jx42j3%::lp;&;4kdlb3%98-;;ss$v;;;;19kj3wl&;$6z1&11hx;&73<;@%-%;5p2&hb",
"df$;u5;$eMm8dk5$;qq&$;c,6p;%%38xx2hx8-;8vv&$1dkhvv%$e8-;$py%c%%;;99B83xw&&$qz1;w2jx&-wqw-@--@;uu$&hx",
"g9$2c5&$8M09fq&$;8z%$;l%65-:;w8zz%jx1;%lvc%$1jkdz:$;881%+p6%p$-:1ejB11V83&%lz13e4jh%%vaw@%:;+;p;$2hl",
"f:@3v=$19090h;%538z-+;p+y;$7qlwe4%hj3;+zzl$+4hj9l+%w:9a+$p,,6+;88hh9;;V84$$jj:8k4z7$;Np3@:q-+6p+$2p7",
"0;$wv&o6w99e4%$u33z;+;6+s%+6wlww&&hhf:Xqz6+&74d93+3e-eV+$u%;6+3qjh91%4zhq++j93fdhh2o&zq-;p6+%y1O$u72",
"4;;6c,%p83981%5u;;za+;;$u&$76zw8$2q9B3.8v;+;72d4%%q1%eV%+6$5,o13z8w;%w4wh+$k08m94p1X%z6%6p%O;y$+&uu&",
"1;13c7&733h8&&u5%-VV$;;&;%%p6zp;$7;;B3+wv&+7w143+6p;%ez;$6+y6+38z3h$&h&9x%&Be9M822;.$v3-33O+p6O+5u2$",
";3&$cv5111x3$566-:wza:%;;%p%wl3%$51;4k1wb;16;7j1-3z1@8Vq;%%5;;7;b71$&7&1jj;9fMM8&7$ &xh22l%&s@.%u&&&",
"11%;vl513;x7%15w1:8zv;%;;%p&7p3%&5;13x2ev1=2;wj;;1ve-3Va5&%5&;w1l43;;3&1ej39f0f157&X&xu&uv;&6%+-525;",
"q;%2vp211;vq&67ww:3az:%:;%p-6p;;;&&12xdhx62&;ww;1;lN1;wa6;%5-;z3w17711&;1e89we0:525%&ll%wv2;;---52u5",
"p&%17l7&;&v7&h94e3;wz;$3;$w3;7,;&&&11x4hhp2%;wq;;;wN8-3a7;=5%:z;7;4w1&&;&7998991&=u=%7c%4h65--<-&5u=",
"u&%&1zz%$;z3;ke:e:%8V3%6;$66&6-%&%;31j4d7h2$&u7;$;pN8;:w7&,6%;v%71&771;;$1744991$%u6$;l24616%%<>%16&",
"u&%$;vb;$;z4;M9-83%3V3@31+66$6&$=-;82j242hu%$27&+;lNw:;3u&,y%;z@21%&w652%&733913$$56$&75h3&;%@<y%&2&",
"y=$$%wxw&$le8M9;:3%:V3$33o;6+y%+5,;19k;2u2u2$&71+&wNj:%67%,u$:z$&5o$lc65&%138w13&o=y&&22x2$,<O-i;;;;",
"5&%+%1hx;$9zjf3;;3-;zq@:6o&6o6$o66$;wx&12&uu.$p;+%3Nz;$3w$-p$6V$%7X$cl671$;13w;6&$%75;22x&+6qO+<;&&1",
"$&&.%55jh$9mMk&1&2;&l7$&l$$=%%-o;6%+6V8%6%7v&+-61%&jV3$&5&$b$2c&$&$$1cb<3%;;3q;1;%67;;;3v;X%u-o+66;-",
"&5$$$55hf;9gkl%&;2;&lu$;c$$,-%-@;6;$1zw;3&7v5%&;4;;wx4%&1&$v$5z&%=%%;6be;-:;3e;:3;wq;;;wl;o+,;$o-;--",
"5&&$%5&3N89fhh%;;5&&ll%&l&%=;$%-66;%;ea:;;6v6&-&j3;3z7&%&&%c&5l%&;%;&;pz:-;-3z3%;;a6%;:el3$+5u-$-%;-",
"=&=$=;&;d999kl$;211&hl&&p55&%;-%p;-;%wz3%$1s6&&;99;1ll2%25%c&5l%&=&;&$3l8;%;qw3;;;l6$-1av3%%uu5%;;--",
"1$&&==&14dd4hh$&152%6l;%7u,%%6<+p;%%-6z6%%:p6%%13w1;7z1%uu%u&5p$&=&,;-6qe;$:w3:;$;l3%;3aq;@;s6%&6%$%",
"=$&5;52424d4dh2$&16&1p;;776%@6q$;3;%$3wq1-;w6%%61w3;3w5%bu%5;;7&%-&166w3p;$3e;;3%;p;$;6w3$+6l;$66;$;",
"5$&6=26z1444242$$17&&766s11;$;p;-q6$$:www-%7p$+6;w6;162&b2$55%6&$6<;6wa;q1-qp;;<<3w;$1qq3$%wv;$p6;-6",
";$,61;4l;;2227l&o;u&%66uv&;6+;zv+pw%$;qlp$+6v;+3;33&;655c5$52$5&+u6;:ww%3q1ew;;;w6w$+3q6;%%6w;-p%$%6",
",$%q1%3N&;122412%o&6;;6pv%;6;+lz;1w:.-bw6;$%vw$;1&2;%27lluo&7&1&+66%;pe$-vV3:<;%lw;+;633;.wz%:q;o&66",
";$&3;&3l1;&23112%$&1-&66l+;w7$3z8ww-+3b;1;%;p6+-1%5;$;4lu2o&7=&&+66$-pw%1aq3;3%$l6;%;3<6-opV;:3%$&55",
",;;;;:3h3115113h;=-;;;;wp++4z&;xwz8%-pp;3;;;ww%%3&33%;3z7;%%77&1;;6$;l3;we;3&q;$l6;;1;;1%+lv-;:@&=1;",
"56;;189h352;&;2h;5--6;&7w+$3z1&j8k8-3p3-761;wv;-7%77&;ez2&2%7l$7w%1%;z:3lq$3&l;$e3:33;;;-;zl;;1%156w",
"yu1-3e9q&5s2&&2h%;--6;&7p%%1wd1d98:3v3%;p;-%3z313%7w;1ez;;4;dz$lp$;%3v3ww3+:%v6;w;1q;;;%;6ae313-&&5u",
"5p;%3j93$5cu&&1h%--6;-;qq;;;3k14983ew;+3c;%%1vqq;$7h;8j9&1e;7h%lq$&;qz3w3;@;%py%w;;8;%;%%qpzj83&%&2u",
",p;$9j22&$5c5&1j%@,<-%;63$13;x9393383%+6p&%%:qwl;+wh;9k1%94;hh%u;%%;6q3q-%-;%wp$w-;1$-;$;w3eN81&%&5h",
"56-%hh52&$&ll&;x-$;6$@17;+14-k388333:$;ww%%%;13l;$ej;fz;&81%lh&4;-@;6381%%1;%6p$6-;:$;6$3p:wz111%&57",
"37&&w18%+%&6b73x1$6%$p;6%$:;-ef:;88:@8:wqt$$<=%v8;8f0je%25&;7l&3;$%6366;$%w-;ql%3%;66;;%3w$;v3;;o;1u",
"54;&e18%+&%;lp1hq;3+$p;6$;w;+3k8:3:;%8:3iy$+>&%w913f0d9%15&&5l11355166%$;;;-1qw<;%;66;;+;w%;v6;;$=;2",
";2;&w::$o=&%7w24p1;o%v;;$1w:@:j8;;---w:;yy$+-%%;j939e01$;5&&;h2;&u5%6;$%16+%33wq$;;pw;;+;p;;pp3$$&&1",
"&52&8;;%X%&%57hww3$.;c3%-:33;3e3:--;;8;-66$+%-%;le38d9;%&65%&l1&+66&;;%;;p+;;1pw$;%vl%;+,p1;pp6@&;&;",
"&&6&6;%@o=;%&3djw6%o;v6%;118:;885%6;31;%6,%$=;;3lw33e81%&65&%z3;%6p6%;6;%v$;%;ww;%%Vp$&;;76&6c6+<y;;",
"%=y&3;%%&,55&&4zw6;$&pp$;838:@8B5&6;q;;;6%%-;;3pw734461;&&5,&z9;%%pw$;p6%p;&$;q63%:zw%%1;6y&&p6%pp&%",
"=$6%3;@%y==6&%2kw31;$7b;%l33;;jl5%63w3&;6$%51;6x5&37134;%&51;z81$;73%%6c;;;%$%633%ej31$;557&&u5&pi%@",
"=$r$;;@%s&&61%3k7;2;+3S;$z3133x15$6<a3;;6$$61%8V1%1w;1w1%%;6&k01;vp<;+%vw$:%$@;:8;V9:3+&1&u&%65;ap%+",
"$$5&;;@$,y+;2;%C4&25$&hx;j3&ez315&55l2;&5;o21%jh5%;6;171&%%%wz;3z6%;;%+wp+%;$o6;14k4&&$$5%52$&1;pq&o",
"5o=&%;+,,6$511&V21u2&&bljz21h4&;&$&5c212&&o51;xz&&21;3w6&%%&wh19z;$:;;o6c;36@o6;1dxd22&$;%75%=&1vq*O",
"5o2=%;$;5=%y1;2x72h2&&xkxd17x2%7&%&;c217%;%&13Nh&72%;wvw5&&2we8je%%3%;$3l;y6$o;;1kh4h7&$&5c6&&&4V1$+",
"$=u2$6w$;%;s&&1x;5x&2&khz41jl&&z5&&;x21w&7&%1wj3&l7$1hjz5$&2j89k3$;p;;%3p%p3$+&;4kd2x7&&&2x2&21hv;&;",
"&c5u&2v$%$yu%%4h&2b&&$dhdhhh4%&l6%%&z317%p5%1lw;&v4$3kwl1%&7lhde-@1a%-%66%w;$%%%9k29bh&2&uz1144g9;1h",
"cc2u&$v&%-p,%%hd;hb&&$7d4hd4&%;h6$%;h;22$u6%5l4;1v3;8j4q&%&7vhf1@%qv%%$q6%7-;,;&dj1hb22&$2x2&ddd314w",
"x2&2&&x2%;6$&;h12xh&&;444472&&hc7$;wq;25$lu&3l;;9413jj39$&&h74d%%3pp;$+63%p$;6-;d9&hx22&$2b4&dh42e4;",
"2o22$hl5%<6o&2p&7x4%%4444422&&hxp%wv4%2&$uc&6w;%w3;4M918$&1u339$;wze;;+6;$p$;6;;92&hc=2%$&Zh&dg24z7$",
"%%;;63v;;p%+;63;hb&o11137w;&119x1wzl--q%$3b@3w$16&;jf93;$111h3$;38hh4%$3+6&@:3;;w+;bp52$$2kkdk24vv$%",
"$%;;;%p6;q$$6;;1dx&%43516p;&11ek3ll8%;q+%3v$67$;3&1jj931%151l8%119v91%%;$w%+<<%37$1v2&&$&2hxdk2dz6@;",
"-;1;;$pp36$%3%;qk4&2w12&6l3&;3jjqVw;%;;+%6c%7u%;3&3Ne138;2&1l7;;;jz3;&&;%6%+<;@q2%3v2&&$22hkgk2ge;+;",
"6;;;;$wq16%%3%;px1&775&&2c6&;3j9az:%-;;%-3p%76%;;&3B9;1k3;&1l8&;;9h3;&;7;;;$;-<w;&6z5&2;717hdd4g8@@:",
"w3;-;-q3;q;%:;3wx;1h7;&&1l2&;3j9vq$-;%;6%6p%p;%,;&7z3;3x7;%1l4&%18w3;%;s6$,;;-a6%&7l1;54x&7ddd4g3@-:",
"l3;$;;w;;q-;633qj;8w31&&6s;%;8hel;$13$;p$36&p-&5&&wh1;4zl;%5ww1;3d81&%;lp+66;;a-$1p6;;64x27d444h;%::",
"ww3%-%q%;3$;e31833jw12%%67%%14wqq%$6;%pp$65%6%&u&;77&;7ll&$&77434h9;$%;v6;p%i-q%$1w3&;37h&h744d2$:6;",
"eze-$$6%6;+3z3:8;3z3;1$$76$%34w73$;p;;cc+6,%y$&u&173&1hhl&$&37e81zw%+;7s&6p+A6;%$5p;&;7lh&d744h&@6p$",
"3zN3+;;$7%X6v;81%1pp6%+%p%$661;6;+6p%;cp+6$,6+=5$,u1%14zv+$16%jz1zl+X6l;yy%ouv++$7p+;q;v7244174$5,-%",
"-wl:+%;%5&o2z$3:%;6lw$+;6%%;1133%%36+;pu+5%,5+=6%&6;%;3ps+$;3%eN3x7o+7c;6&$$lsO@;6;;3;;A2212225$y5==",
"%3z6$$;&5&%5a@;;-;6pp%+35&&;;;6;;;3%+;p6$5%&&o&6$%,&-;;p7$-;;$8z9z1+&lu;5$+&c5.%6,%:;$3V5&&121&15>&*",
"-:aq;&,&55&5v%;;%;;6p3%;&&;1;;;;36:%%3p6%1%;5%&5=%&5;;;py$;6%%8jel1%7s;;;%$&s5+<6<-;%;zq&25151&u<,%&",
"&1pu-&===y55v;-;-;-;iw;%<%-q6-%%63;-;16q%;%;p;%-,$,63;-w6@;;-3884h11l6&&;%==66*6,-%3;;z<&62&&&1u;-%;",
";;67,%=&%r5&a3$-%;%@<q<%3%;iy;%@6::;-<q3&&%;c6%-,$-;;;-q6@,-%e3:34136&$&=%&%-,-6-+%y3;wq&67&%&5u;-;3",
";%;5=&$=$==$v6$%@--@;<-;q--366-%1;31%3a;%%%;cw%%*+-----6;@<-@z3:1;11=&%&%$&$-;-;$@66;<3q611&$%&5-%;q",
";$&5=$==+==+np$%$-%$--;6w<%-<ii%;:w9-wV;%%%;aq$;$$,%@@%<*+6-@v::;;&5&$%&%+$&-,%-+,n,@6;;v;%1&$&=%-1v",
"%$&&$*oro*@+6A;@-#@-@-%pso--@@si-%wj;Va@O@#-wN-@O>%@@+>>###@$iw%;,%@@$,*+>++>@@%%sp++t%-s;@<OO#-@@qV",
";$+***@>+#*O-s<$#@@-@-$ii+>%@@ti<+3f:Nt@O@@@yi$@+>@+@@##O#@@@6u%%-@**@*++=o+*+@-<p<+*>O%s,@<OO#-@%6v",
"6+++>r*@oO=++q6%@@O@@-@6,+%O@O@<s+-e:e,+XO@O<y++@>+OO@#OO@+O+;q@@%+,>+++*>+O@+@,i;+o** $i@@<OO#@+&66",
"y+X+>r@oOor@X;p%@OO@@>+,-+@O@OX>s$@888%+XO@O-<+X*,OOOO#O@OOXO<6@+++<r+OO*r+O@O@66$OX++.@i@@-OO@Oo16&"
};
